<svg xmlns="http://www.w3.org/2000/svg" viewBox="0 0 950 1000">
  <rect width="950" height="1000" fill="#c8e6f5"/>
  <path id="angola" d="M 443,597 L 472,598 L 486,627 L 510,625 L 512,614 L 517,612 L 525,611 L 527,616 L 542,616 L 543,646 L 549,657 L 549,669 L 572,665 L 573,672 L 572,693 L 545,694 L 546,738 L 548,743 L 564,757 L 529,762 L 505,759 L 493,754 L 438,754 L 427,748 L 408,752 L 408,732 L 411,728 L 418,700 L 433,684 L 436,667 L 424,640 L 429,632 L 415,601 L 427,597 L 443,597 Z" fill="#e8c8a8" stroke="#666" stroke-width="1"/>
  <path id="burundi" d="M 661,550 L 659,555 L 664,562 L 653,576 L 646,578 L 640,553 L 649,555 L 653,549 L 661,550 Z" fill="#e0b8b8" stroke="#666" stroke-width="1"/>
  <path id="benin" d="M 298,358 L 301,373 L 286,398 L 286,430 L 271,432 L 273,431 L 270,422 L 271,394 L 267,381 L 260,376 L 260,371 L 268,362 L 279,359 L 281,351 L 287,349 L 298,358 Z" fill="#d4c9a8" stroke="#666" stroke-width="1"/>
  <path id="burkina-faso" d="M 281,355 L 276,362 L 269,361 L 262,367 L 245,365 L 242,368 L 212,368 L 211,389 L 206,382 L 187,385 L 175,375 L 179,355 L 189,350 L 193,337 L 204,337 L 214,323 L 221,324 L 223,320 L 239,312 L 252,314 L 255,327 L 264,335 L 263,340 L 270,345 L 278,345 L 277,349 L 281,355 Z" fill="#e8dfa8" stroke="#666" stroke-width="1"/>
  <path id="botswana" d="M 590,759 L 602,783 L 622,796 L 626,810 L 639,813 L 644,818 L 629,826 L 613,840 L 611,847 L 598,854 L 592,867 L 583,868 L 560,861 L 554,872 L 542,882 L 528,882 L 530,871 L 519,851 L 518,816 L 532,816 L 532,766 L 563,762 L 567,767 L 590,759 Z" fill="#b8d4a8" stroke="#666" stroke-width="1"/>
  <path id="central-african-republic" d="M 557,368 L 568,383 L 566,397 L 575,399 L 577,404 L 589,411 L 590,416 L 605,427 L 607,434 L 614,438 L 619,447 L 593,445 L 587,449 L 557,453 L 553,460 L 526,456 L 512,447 L 499,459 L 500,470 L 486,467 L 473,469 L 467,486 L 465,477 L 453,465 L 446,446 L 444,434 L 454,419 L 458,415 L 464,415 L 471,411 L 475,414 L 487,408 L 498,408 L 507,399 L 504,397 L 506,395 L 523,393 L 545,371 L 552,367 L 557,368 Z" fill="#c8d4e8" stroke="#666" stroke-width="1"/>
  <path id="c-te-d-ivoire" d="M 175,375 L 189,385 L 206,382 L 213,390 L 216,405 L 206,427 L 212,445 L 178,446 L 181,447 L 149,457 L 147,451 L 149,438 L 133,428 L 137,421 L 135,414 L 138,414 L 141,406 L 138,403 L 145,403 L 146,401 L 142,397 L 144,393 L 140,383 L 146,375 L 154,379 L 164,372 L 166,378 L 175,375 Z" fill="#d4c8e8" stroke="#666" stroke-width="1"/>
  <path id="cameroon" d="M 458,415 L 444,434 L 447,454 L 453,465 L 466,477 L 467,494 L 446,487 L 382,486 L 383,475 L 379,467 L 380,462 L 376,464 L 371,461 L 369,455 L 365,455 L 370,438 L 385,423 L 394,422 L 401,429 L 405,426 L 434,369 L 445,361 L 446,352 L 440,347 L 439,339 L 444,340 L 449,347 L 452,369 L 459,380 L 443,381 L 438,385 L 453,401 L 458,415 Z" fill="#e8d4c8" stroke="#666" stroke-width="1"/>
  <path id="dr-congo" d="M 572,665 L 550,669 L 549,657 L 544,648 L 544,618 L 527,616 L 527,611 L 519,612 L 512,614 L 510,625 L 486,627 L 478,616 L 475,602 L 469,597 L 425,596 L 418,599 L 414,595 L 422,581 L 430,583 L 443,576 L 443,582 L 447,583 L 465,568 L 469,546 L 477,534 L 489,524 L 493,490 L 500,472 L 499,459 L 512,447 L 528,457 L 551,461 L 557,453 L 590,449 L 596,445 L 619,447 L 630,458 L 642,457 L 648,454 L 664,468 L 663,483 L 671,488 L 653,508 L 648,535 L 638,550 L 643,560 L 647,601 L 663,627 L 640,632 L 633,642 L 635,661 L 632,674 L 640,684 L 651,684 L 651,699 L 640,699 L 633,688 L 622,684 L 616,675 L 611,680 L 601,679 L 592,676 L 590,670 L 577,672 L 578,668 L 572,665 Z" fill="#e8c8a8" stroke="#666" stroke-width="1"/>
  <path id="republic-of-congo" d="M 425,580 L 421,578 L 412,584 L 399,570 L 404,565 L 409,567 L 410,563 L 405,550 L 417,549 L 419,542 L 424,548 L 429,550 L 434,546 L 439,551 L 443,543 L 444,525 L 436,518 L 443,503 L 439,498 L 427,500 L 428,489 L 447,488 L 466,494 L 473,469 L 498,468 L 500,472 L 493,490 L 489,524 L 478,533 L 469,546 L 465,568 L 448,583 L 444,583 L 443,576 L 435,577 L 430,583 L 425,580 Z" fill="#e0b8b8" stroke="#666" stroke-width="1"/>
  <path id="comoros" d="M 835,679 L 832,673 L 835,679 Z" fill="#d4c9a8" stroke="#666" stroke-width="1"/>
  <path id="cape-verde" d="M -67,313 L -69,314 L -71,310 L -67,313 Z" fill="#e8dfa8" stroke="#666" stroke-width="1"/>
  <path id="djibouti" d="M 832,361 L 828,367 L 814,368 L 812,365 L 812,359 L 820,347 L 824,349 L 829,345 L 834,351 L 824,360 L 832,361 Z" fill="#b8d4a8" stroke="#666" stroke-width="1"/>
  <path id="algeria" d="M 361,40 L 360,46 L 350,55 L 362,74 L 371,80 L 378,106 L 375,107 L 381,120 L 382,155 L 376,161 L 388,183 L 404,186 L 411,197 L 350,233 L 328,252 L 293,258 L 291,247 L 273,240 L 263,229 L 132,146 L 132,128 L 138,123 L 153,114 L 176,109 L 182,103 L 199,96 L 198,86 L 213,80 L 232,80 L 234,74 L 227,64 L 225,45 L 219,39 L 266,20 L 300,15 L 322,18 L 337,12 L 343,15 L 346,12 L 365,14 L 360,20 L 361,40 Z" fill="#c8d4e8" stroke="#666" stroke-width="1"/>
  <path id="egypt" d="M 711,92 L 719,115 L 710,139 L 697,128 L 688,109 L 686,115 L 701,137 L 707,154 L 724,184 L 731,191 L 728,193 L 730,205 L 746,216 L 586,218 L 586,120 L 582,107 L 587,88 L 610,89 L 642,97 L 668,87 L 678,88 L 682,91 L 679,89 L 677,91 L 682,94 L 711,92 Z" fill="#d4c8e8" stroke="#666" stroke-width="1"/>
  <path id="eritrea" d="M 830,344 L 826,348 L 819,346 L 799,325 L 791,321 L 777,319 L 768,321 L 761,316 L 756,325 L 750,320 L 742,323 L 740,311 L 748,285 L 765,278 L 768,273 L 774,280 L 779,300 L 785,310 L 788,308 L 791,313 L 804,318 L 830,344 Z" fill="#e8d4c8" stroke="#666" stroke-width="1"/>
  <path id="ethiopia" d="M 820,347 L 813,357 L 813,368 L 827,367 L 824,372 L 827,378 L 842,394 L 882,408 L 896,408 L 855,450 L 837,451 L 826,459 L 812,463 L 795,460 L 782,470 L 764,468 L 747,457 L 736,456 L 731,452 L 732,445 L 725,444 L 714,423 L 703,413 L 695,411 L 697,403 L 708,401 L 711,374 L 715,369 L 720,369 L 722,356 L 729,346 L 736,343 L 741,323 L 751,320 L 755,324 L 760,315 L 766,320 L 791,321 L 799,325 L 820,347 Z" fill="#e8c8a8" stroke="#666" stroke-width="1"/>
  <path id="gabon" d="M 402,488 L 426,486 L 428,488 L 428,499 L 441,499 L 444,505 L 437,512 L 436,518 L 444,525 L 444,536 L 439,551 L 434,546 L 431,550 L 424,548 L 419,542 L 417,548 L 405,549 L 409,566 L 405,565 L 399,570 L 375,543 L 377,544 L 371,536 L 378,539 L 371,535 L 367,525 L 368,527 L 375,522 L 375,513 L 384,514 L 376,510 L 379,509 L 380,502 L 402,503 L 402,488 Z" fill="#e0b8b8" stroke="#666" stroke-width="1"/>
  <path id="ghana" d="M 213,388 L 211,368 L 241,368 L 248,366 L 248,371 L 254,377 L 253,387 L 256,389 L 255,399 L 259,404 L 256,423 L 265,434 L 262,438 L 253,439 L 222,452 L 207,448 L 212,444 L 206,428 L 214,406 L 213,388 Z" fill="#d4c9a8" stroke="#666" stroke-width="1"/>
  <path id="guinea" d="M 142,379 L 140,388 L 144,393 L 142,397 L 146,403 L 139,402 L 141,408 L 139,414 L 134,413 L 126,419 L 118,401 L 106,404 L 106,394 L 99,382 L 82,382 L 72,394 L 65,382 L 55,378 L 53,371 L 47,368 L 52,360 L 64,357 L 61,351 L 64,346 L 84,349 L 96,348 L 95,352 L 101,351 L 105,355 L 111,351 L 117,353 L 125,347 L 135,362 L 133,367 L 137,367 L 142,379 Z" fill="#e8dfa8" stroke="#666" stroke-width="1"/>
  <path id="the-gambia" d="M 23,339 L 25,334 L 30,336 L 41,334 L 27,334 L 46,329 L 63,335 L 57,337 L 46,333 L 36,338 L 23,339 Z" fill="#b8d4a8" stroke="#666" stroke-width="1"/>
  <path id="guinea-bissau" d="M 64,345 L 64,356 L 50,362 L 47,368 L 41,362 L 46,359 L 40,357 L 46,354 L 36,357 L 24,349 L 45,344 L 64,345 Z" fill="#c8d4e8" stroke="#666" stroke-width="1"/>
  <path id="equatorial-guinea" d="M 381,486 L 402,488 L 402,502 L 377,502 L 381,486 Z" fill="#d4c8e8" stroke="#666" stroke-width="1"/>
  <path id="kenya" d="M 725,442 L 731,444 L 734,456 L 745,457 L 763,467 L 781,470 L 799,459 L 804,463 L 812,463 L 801,481 L 801,527 L 809,538 L 797,552 L 791,554 L 780,580 L 758,566 L 757,559 L 706,528 L 707,515 L 721,494 L 719,482 L 707,460 L 725,442 Z" fill="#e8d4c8" stroke="#666" stroke-width="1"/>
  <path id="liberia" d="M 135,414 L 137,421 L 133,428 L 142,431 L 149,440 L 147,457 L 126,448 L 94,423 L 111,402 L 121,403 L 122,415 L 126,418 L 133,412 L 135,414 Z" fill="#e8c8a8" stroke="#666" stroke-width="1"/>
  <path id="libya" d="M 411,197 L 405,187 L 387,182 L 376,160 L 382,156 L 383,139 L 382,121 L 376,106 L 387,98 L 388,86 L 404,76 L 404,66 L 454,76 L 461,89 L 490,96 L 507,105 L 513,103 L 520,96 L 518,84 L 520,79 L 541,69 L 560,73 L 563,79 L 587,83 L 586,98 L 582,105 L 586,123 L 586,245 L 572,245 L 572,252 L 465,198 L 441,209 L 433,202 L 411,197 Z" fill="#e0b8b8" stroke="#666" stroke-width="1"/>
  <path id="lesotho" d="M 616,919 L 623,911 L 635,906 L 645,916 L 641,924 L 632,927 L 625,934 L 619,930 L 614,921 L 616,919 Z" fill="#d4c9a8" stroke="#666" stroke-width="1"/>
  <path id="morocco" d="M 219,39 L 225,44 L 227,64 L 235,75 L 233,79 L 210,81 L 199,86 L 200,96 L 182,103 L 176,109 L 154,114 L 138,123 L 132,128 L 130,148 L 117,152 L 104,149 L 96,151 L 91,162 L 87,163 L 82,179 L 62,195 L 58,213 L 52,223 L 21,225 L 21,219 L 29,210 L 35,193 L 48,181 L 54,161 L 66,153 L 75,137 L 94,132 L 112,117 L 119,107 L 117,89 L 125,75 L 137,63 L 156,55 L 169,32 L 178,29 L 179,32 L 187,38 L 208,37 L 219,39 Z" fill="#e8dfa8" stroke="#666" stroke-width="1"/>
  <path id="madagascar" d="M 917,686 L 922,695 L 929,730 L 924,733 L 921,727 L 919,728 L 921,741 L 916,752 L 914,766 L 885,854 L 879,859 L 858,865 L 843,857 L 838,848 L 838,837 L 832,822 L 835,808 L 840,804 L 848,788 L 842,754 L 848,744 L 848,738 L 871,731 L 873,733 L 881,724 L 883,727 L 889,717 L 889,719 L 896,717 L 893,713 L 895,703 L 900,704 L 907,698 L 907,687 L 912,681 L 917,686 Z" fill="#b8d4a8" stroke="#666" stroke-width="1"/>
  <path id="mali" d="M 252,314 L 240,312 L 224,320 L 222,324 L 212,326 L 204,337 L 195,335 L 191,339 L 190,349 L 178,356 L 175,373 L 167,378 L 165,371 L 163,372 L 155,379 L 146,375 L 142,379 L 138,375 L 137,367 L 133,367 L 136,363 L 126,348 L 118,353 L 110,351 L 105,355 L 102,351 L 95,352 L 96,341 L 87,332 L 84,316 L 88,314 L 94,304 L 101,310 L 105,307 L 120,307 L 123,304 L 126,306 L 175,306 L 177,295 L 173,292 L 160,177 L 184,177 L 265,230 L 272,240 L 291,247 L 293,258 L 306,257 L 306,286 L 301,303 L 294,308 L 267,309 L 262,313 L 252,314 Z" fill="#c8d4e8" stroke="#666" stroke-width="1"/>
  <path id="mozambique" d="M 682,882 L 680,850 L 671,823 L 685,807 L 687,799 L 694,789 L 690,775 L 694,766 L 693,744 L 670,735 L 659,735 L 657,721 L 697,708 L 703,715 L 713,713 L 715,723 L 711,732 L 724,750 L 725,737 L 731,735 L 733,720 L 724,706 L 715,699 L 712,683 L 716,676 L 732,673 L 737,676 L 753,676 L 762,671 L 768,672 L 795,661 L 794,693 L 797,715 L 799,713 L 800,717 L 796,728 L 786,741 L 751,758 L 740,771 L 720,787 L 717,785 L 717,795 L 726,823 L 727,819 L 728,820 L 728,844 L 721,852 L 693,864 L 688,871 L 692,874 L 693,872 L 692,882 L 682,882 Z" fill="#d4c8e8" stroke="#666" stroke-width="1"/>
  <path id="mauritania" d="M 132,146 L 184,177 L 160,177 L 173,292 L 177,295 L 175,306 L 126,306 L 123,304 L 120,307 L 105,308 L 102,311 L 94,304 L 86,316 L 76,310 L 69,299 L 53,290 L 32,292 L 27,300 L 33,274 L 31,258 L 27,255 L 31,242 L 22,230 L 20,234 L 21,227 L 74,227 L 72,207 L 87,196 L 87,163 L 132,163 L 132,146 Z" fill="#e8d4c8" stroke="#666" stroke-width="1"/>
  <path id="malawi" d="M 720,675 L 716,675 L 713,682 L 715,699 L 724,706 L 733,719 L 732,734 L 726,737 L 723,742 L 725,750 L 723,750 L 711,734 L 715,723 L 713,713 L 701,713 L 690,702 L 694,697 L 694,689 L 701,685 L 697,682 L 698,666 L 703,661 L 693,645 L 712,649 L 720,675 Z" fill="#e8c8a8" stroke="#666" stroke-width="1"/>
  <path id="namibia" d="M 408,752 L 427,748 L 441,754 L 497,754 L 505,759 L 527,762 L 576,755 L 585,756 L 590,759 L 578,762 L 569,768 L 561,762 L 532,766 L 532,816 L 518,816 L 519,902 L 507,911 L 484,907 L 480,899 L 469,905 L 456,890 L 445,846 L 444,822 L 408,762 L 408,752 Z" fill="#e0b8b8" stroke="#666" stroke-width="1"/>
  <path id="niger" d="M 298,358 L 288,349 L 283,350 L 282,354 L 277,350 L 278,345 L 270,345 L 264,340 L 262,336 L 265,336 L 256,329 L 252,318 L 252,315 L 262,313 L 267,309 L 297,308 L 302,303 L 306,291 L 306,257 L 327,253 L 350,233 L 411,197 L 431,202 L 441,209 L 451,204 L 454,223 L 464,239 L 458,287 L 435,313 L 431,320 L 433,331 L 415,339 L 404,336 L 390,336 L 379,343 L 367,341 L 355,335 L 344,340 L 333,331 L 323,328 L 312,330 L 306,333 L 298,347 L 298,358 Z" fill="#d4c9a8" stroke="#666" stroke-width="1"/>
  <path id="nigeria" d="M 286,430 L 287,394 L 290,393 L 301,373 L 296,362 L 298,348 L 309,331 L 328,330 L 335,332 L 343,340 L 354,336 L 379,343 L 390,336 L 403,335 L 415,339 L 433,331 L 439,339 L 440,348 L 446,351 L 446,359 L 434,369 L 405,426 L 399,428 L 392,421 L 382,424 L 371,435 L 365,451 L 360,450 L 362,454 L 346,453 L 344,457 L 341,454 L 340,458 L 331,459 L 325,454 L 321,439 L 319,441 L 309,431 L 296,430 L 300,427 L 286,430 Z" fill="#e8dfa8" stroke="#666" stroke-width="1"/>
  <path id="rwanda" d="M 661,550 L 653,549 L 652,554 L 646,555 L 640,554 L 638,550 L 645,538 L 652,537 L 660,532 L 665,545 L 661,550 Z" fill="#b8d4a8" stroke="#666" stroke-width="1"/>
  <path id="western-sahara" d="M 132,141 L 132,162 L 130,163 L 87,163 L 87,196 L 72,207 L 74,227 L 22,227 L 19,233 L 20,226 L 24,225 L 51,224 L 57,214 L 62,195 L 82,179 L 87,163 L 91,162 L 96,151 L 104,149 L 117,152 L 130,148 L 132,141 Z" fill="#c8d4e8" stroke="#666" stroke-width="1"/>
  <path id="sudan" d="M 575,399 L 566,397 L 568,383 L 557,368 L 558,363 L 553,358 L 550,345 L 543,343 L 549,335 L 547,329 L 553,325 L 552,318 L 558,311 L 558,306 L 572,303 L 572,245 L 586,245 L 586,218 L 668,218 L 672,215 L 675,218 L 746,218 L 751,231 L 750,243 L 754,261 L 769,271 L 764,278 L 749,285 L 740,311 L 741,323 L 736,343 L 730,345 L 722,356 L 719,370 L 712,372 L 709,388 L 706,388 L 706,378 L 696,371 L 697,352 L 690,351 L 690,353 L 681,354 L 686,366 L 670,384 L 664,385 L 654,377 L 638,388 L 627,390 L 625,386 L 607,387 L 598,375 L 588,377 L 580,396 L 575,399 Z" fill="#d4c8e8" stroke="#666" stroke-width="1"/>
  <path id="south-sudan" d="M 619,447 L 614,438 L 606,433 L 605,427 L 589,415 L 590,412 L 584,406 L 575,402 L 588,377 L 597,375 L 607,387 L 624,387 L 627,389 L 638,390 L 653,378 L 664,384 L 669,384 L 686,367 L 681,354 L 697,351 L 696,369 L 707,380 L 709,400 L 698,402 L 694,410 L 706,415 L 714,423 L 724,442 L 702,465 L 694,464 L 681,469 L 670,465 L 665,470 L 649,455 L 629,458 L 619,447 Z" fill="#e8d4c8" stroke="#666" stroke-width="1"/>
  <path id="senegal" d="M 96,348 L 45,344 L 24,349 L 26,346 L 24,346 L 23,339 L 36,338 L 45,333 L 57,337 L 63,336 L 61,333 L 46,329 L 40,332 L 26,332 L 25,326 L 13,316 L 22,309 L 31,292 L 57,291 L 62,297 L 69,299 L 84,315 L 87,324 L 87,332 L 96,341 L 96,348 Z" fill="#e8c8a8" stroke="#666" stroke-width="1"/>
  <path id="sierra-leone" d="M 70,394 L 84,382 L 97,381 L 106,394 L 108,399 L 105,403 L 109,402 L 110,404 L 95,422 L 76,411 L 71,402 L 75,400 L 71,399 L 73,396 L 70,394 Z" fill="#e0b8b8" stroke="#666" stroke-width="1"/>
  <path id="somalia" d="M 814,463 L 836,451 L 854,450 L 896,408 L 909,388 L 909,364 L 925,360 L 932,355 L 939,356 L 938,374 L 941,374 L 935,378 L 934,389 L 896,456 L 870,483 L 835,509 L 809,540 L 801,529 L 801,479 L 814,463 Z" fill="#d4c9a8" stroke="#666" stroke-width="1"/>
  <path id="s-o-tom-and-principe" d="M 339,515 L 336,514 L 339,512 L 339,515 Z" fill="#e8dfa8" stroke="#666" stroke-width="1"/>
  <path id="eswatini" d="M 680,870 L 682,882 L 680,887 L 673,888 L 668,886 L 664,877 L 670,869 L 680,870 Z" fill="#b8d4a8" stroke="#666" stroke-width="1"/>
  <path id="chad" d="M 557,368 L 551,368 L 543,372 L 541,377 L 523,393 L 505,395 L 505,401 L 500,407 L 477,413 L 472,410 L 459,415 L 453,401 L 439,387 L 438,385 L 443,381 L 459,381 L 452,369 L 449,347 L 445,340 L 439,339 L 431,321 L 458,287 L 461,246 L 464,241 L 454,224 L 451,204 L 465,198 L 572,252 L 572,302 L 559,304 L 558,311 L 551,319 L 553,324 L 547,330 L 549,336 L 544,342 L 550,345 L 553,358 L 558,363 L 557,368 Z" fill="#c8d4e8" stroke="#666" stroke-width="1"/>
  <path id="togo" d="M 261,367 L 260,376 L 267,381 L 271,398 L 273,430 L 267,433 L 260,430 L 256,423 L 259,404 L 254,398 L 256,390 L 253,389 L 254,378 L 249,372 L 249,367 L 261,367 Z" fill="#d4c8e8" stroke="#666" stroke-width="1"/>
  <path id="tunisia" d="M 378,106 L 371,81 L 353,64 L 350,55 L 360,46 L 362,38 L 360,20 L 371,11 L 380,9 L 382,12 L 387,11 L 390,17 L 399,14 L 390,25 L 399,38 L 385,54 L 394,61 L 399,60 L 403,65 L 405,74 L 387,87 L 387,97 L 378,106 Z" fill="#e8d4c8" stroke="#666" stroke-width="1"/>
  <path id="tanzania" d="M 646,578 L 653,576 L 664,562 L 659,555 L 665,548 L 662,532 L 709,532 L 755,558 L 759,567 L 776,580 L 772,600 L 782,613 L 779,619 L 779,632 L 785,652 L 794,658 L 793,661 L 779,668 L 762,671 L 753,676 L 739,676 L 733,673 L 720,675 L 716,668 L 715,654 L 709,647 L 696,646 L 666,632 L 658,615 L 647,601 L 646,578 Z" fill="#e8c8a8" stroke="#666" stroke-width="1"/>
  <path id="uganda" d="M 648,536 L 653,508 L 670,489 L 663,484 L 666,468 L 678,465 L 682,469 L 694,464 L 701,466 L 707,460 L 713,467 L 721,492 L 718,500 L 707,515 L 706,531 L 664,531 L 653,537 L 648,536 Z" fill="#e0b8b8" stroke="#666" stroke-width="1"/>
  <path id="south-africa" d="M 519,854 L 523,858 L 529,870 L 527,881 L 541,882 L 554,873 L 560,862 L 583,868 L 592,867 L 598,854 L 610,848 L 614,838 L 640,820 L 668,821 L 671,822 L 680,849 L 680,866 L 680,870 L 670,869 L 664,881 L 673,888 L 680,889 L 681,882 L 691,882 L 692,885 L 686,905 L 672,917 L 657,938 L 618,971 L 584,982 L 553,980 L 543,985 L 514,990 L 501,981 L 498,984 L 497,982 L 498,977 L 490,964 L 496,959 L 495,949 L 471,907 L 477,899 L 484,903 L 484,907 L 493,910 L 509,910 L 517,904 L 519,854 Z" fill="#d4c9a8" stroke="#666" stroke-width="1"/>
  <path id="zambia" d="M 564,757 L 548,743 L 546,738 L 545,694 L 571,694 L 573,667 L 577,668 L 578,672 L 589,670 L 592,676 L 600,679 L 611,680 L 615,675 L 621,683 L 632,687 L 639,698 L 651,699 L 651,682 L 643,685 L 631,673 L 635,662 L 632,643 L 639,634 L 664,628 L 667,633 L 696,648 L 703,661 L 698,665 L 697,682 L 701,685 L 694,689 L 690,702 L 694,708 L 696,707 L 694,709 L 657,721 L 657,730 L 639,735 L 637,742 L 626,747 L 613,761 L 600,761 L 583,755 L 564,757 Z" fill="#e8dfa8" stroke="#666" stroke-width="1"/>
  <path id="zimbabwe" d="M 645,819 L 641,814 L 627,810 L 622,804 L 622,797 L 603,783 L 590,759 L 613,761 L 626,747 L 637,742 L 639,735 L 657,730 L 659,734 L 670,735 L 693,745 L 694,766 L 690,776 L 694,789 L 688,797 L 686,807 L 671,822 L 645,819 Z" fill="#b8d4a8" stroke="#666" stroke-width="1"/>
  <g transform="translate(910,968)">
    <circle r="14" fill="white" stroke="#aaa" stroke-width="1"/>
    <text x="0" y="-3" font-family="sans-serif" font-size="9" fill="#555" text-anchor="middle">N</text>
    <line x1="0" y1="-8" x2="0" y2="8" stroke="#888" stroke-width="1"/>
    <line x1="-8" y1="0" x2="8" y2="0" stroke="#888" stroke-width="1"/>
  </g>
</svg>
