<?xml version="1.0" encoding="UTF-8"?>
<svg xmlns="http://www.w3.org/2000/svg" width="384.56" height="436.01" viewBox="287.72 38.49 384.56 436.01">
  <!-- Created using SVG Map Generator: dojo.amcharts.com/svg-map-generator -->
  <style>
    .land { fill: #ffffff; stroke: #299e8b; stroke-width: 1.3; }
  </style>
  <rect x="287.72" y="38.49" width="384.56" height="436.01" fill="#417ea4"/>
  <g id="polygons">
    <path d="M607.84,399.88L608.48,400.71L608.08,403.51L608.98,404.31L608.55,406.94L606.77,408.79L605.84,405.19L606.68,404.71L606.84,401.64ZM605.44,417.59L606.38,419.05L606.49,420.48L605.41,422.68L604.39,422.2L603.69,420.62L603.91,419.4ZM608.83,398.88L609.73,400.38L608.34,401.74ZM620.97,462.97L621.52,464.06L620.13,465.59L619.92,463.92ZM616.65,455.36L617.75,456.6L616.34,457.14L615.96,455.65ZM609.69,391.36L610.08,391.27L610.71,390.89L611.47,393.58L611.31,396.41L610.36,398.75L607.83,398.64L607.93,395.08L608.52,394.1L608.32,392.24ZM610.08,391.27L609.69,391.36L608.98,389.47L609.64,384.73L610.06,383.44L611.58,382.69L612.9,385.24L612.14,387.34L612.17,388.64L610.88,388.91L609.83,390.68ZM622.72,465.62L623.24,467.64L624.01,468.78L623.36,470.04L623.42,471.21L621.92,470.97L621.39,469.26L620.32,468.68L620.62,466.28ZM608.97,439.37L609.53,440.75L608.24,440.94L608.1,439.77Z" class="land" id="IN-AN" title="Andaman and Nicobar Islands"/>
    <path d="M472.96,339.88L472.42,340.2L473.09,341.86L468.36,344.19L465.45,345.34L463.12,344.68L461.2,344.91L459.55,345.74L457.94,349.28L458,349.88L456.2,351.8L455.68,353.15L453.8,353.4L453.58,351.65L452.05,351.11L450.11,351.49L447.54,352.94L446.64,353.95L445.74,356.73L444.43,358.83L443.76,361.95L444.63,366.59L445.72,368.52L444.82,374.76L446.31,378.79L445.36,380.53L443.8,381.88L445.23,383.2L446.21,383.22L447.19,384.09L445.11,383.34L444.04,382.56L442.64,383.71L442.17,385.24L437.7,386.45L437.12,385.58L435.73,385.41L435.5,386.89L434.17,388.43L433,387.91L432.15,389.62L431.07,389.53L429.91,388.7L428.56,388.57L426.31,388.97L425.16,390L424.75,392.77L421.98,394.88L420.97,394.33L420.07,393.01L420.33,391.75L421.68,390.68L422.86,391.04L423.06,389.3L424.58,387.63L424.69,386.23L421.81,384.99L422.27,382.02L420.16,381.89L418.04,380.55L418.68,378.51L416.77,377.04L414.85,377.25L414.33,378.88L412.65,379.38L410.88,380.58L409.74,378.58L406.56,378.25L406.4,379.66L404.14,379.82L403.83,378.86L404.7,377.38L403.34,376.08L403.29,374.68L404.49,374.07L404.54,375.67L406.15,376.49L408.47,376.07L409.36,375L410.73,374.36L410.67,372.75L409.97,372.24L407.86,372.69L406.21,371.86L404.88,373.18L402.67,371.75L402.55,370.11L401.13,368.33L402.28,365.62L402.48,363.47L401.17,363.39L401.6,361.77L402.64,362.6L405.26,362.99L406.23,361.37L406.37,359.51L405.04,358.66L404.59,357.14L404.62,354.47L405.09,350.89L407.46,350.1L410.84,350.6L412.78,351.2L414.6,351.35L415.75,350.93L418.63,351.86L420.29,350.49L420.53,349.11L422.47,348.44L424.45,348.77L425.21,348.2L427.25,349.21L428.95,347.07L430.57,346.21L433.01,346.3L433.09,342.66L433.62,341.94L435.7,341.66L436.62,341.01L438.58,340.58L440.22,339.67L442.6,340.85L444.04,338.53L443.03,337.86L443.74,336.48L446.54,335.86L447.28,337.75L449.06,338.85L450.44,339.22L450.72,337L449.47,337.12L447.79,336.4L449.39,335.32L450.4,334.13L453.94,335.66L454.88,333.27L455.99,333.57L458.22,332.85L458.46,331.63L459.57,331.66L460.32,330.7L461.5,331.1L462.51,329.91L462.63,327.99L463.59,326.14L466.25,324.7L465.94,323.86L468.45,322.51L469.4,321.62L471.16,321.81L472.54,322.59L473.35,321.86L473.41,318.08L473.76,316.81L475.22,315.08L475.86,315.53L476.02,317.09L476.86,317.37L476.61,318.72L479.02,317.89L479.44,316.41L481.17,317.61L482.27,317.16L482.71,313.47L483.77,311.85L484.66,312.27L486.66,311.47L487.38,310.66L486,308.87L488.24,308.44L489.88,307.52L491.08,308.51L492.25,308.62L493.33,311.22L496.97,311.81L499.32,311.58L499.37,310.56L500.58,309.92L501.36,308.45L502.69,307.03L504.88,307.75L502.57,310.43L502.2,311.58L501.05,312.66L499.63,314.8L496.64,317.61L496.63,318.19L491.37,320.86L489.47,322.16L487.36,324.54L486.51,326.15L484.81,327.98L476.96,331.98L473.85,334.39L472.94,335.56L472.4,337.54L473.12,338.17Z" class="land" id="IN-AP" title="Andhra Pradesh"/>
    <path d="M640.74,200.46L640.36,198.08L640.69,197.49L640.19,195.28L643.59,193.93L644.35,191.99L645.31,192.56L648.11,191.65L649.41,191.65L650.86,190.54L647.87,186.81L647.49,185.23L649.68,182.94L650.33,181.75L648.37,181.62L645.53,181.91L644.35,183.02L642.64,183.6L641.76,183.18L638.06,184.59L630.65,187.77L627.96,186.55L628.05,188.28L626.73,188.93L625.48,190.61L624.13,191.61L622.07,193.91L620.49,196.33L618.07,196.8L616.23,196.44L611.97,197.12L610.07,195.79L607.3,195.35L606.34,196.46L604.71,196.44L602.34,197.32L600.15,197.45L600.09,195.79L599.19,194.96L599.06,193.54L599.46,190.07L599,188.91L594.18,188.84L593.02,186.66L593.87,185.6L593.93,184.21L596.47,184.07L597.7,185.46L599.47,184.82L601.48,183.36L602.85,184.54L605.26,183.61L606.03,183.91L608.34,181.44L607.35,180.36L607.66,179.44L609.12,178.31L610.36,178.28L612.03,176.83L614.56,176.38L614.09,174.81L615.3,173.85L616.09,171.85L618.09,171.21L619.76,171.6L622.67,170.86L623.73,171.39L624.71,169.85L624.62,168.88L626.7,167.2L627.47,165.28L629.32,164.26L630.28,163.16L631.92,163.13L632.84,161.35L636,163.79L637.95,164.59L640.91,164.9L641.11,165.67L642.98,166.02L643.92,165.47L644.63,163.35L645.25,163.29L647.74,161.24L650.07,160.84L651.67,159.64L653.04,161.41L654,164.15L652.58,165.74L653.85,167.38L655.12,166.05L656.28,165.97L657.35,166.96L658.61,169.81L658.22,170.65L655.9,172.98L655.44,175.48L658.14,174.47L659.24,174.43L663.55,176.63L664.79,175.85L665.85,176.89L667.25,177.22L668.31,178.4L667.99,179.53L668.98,180.93L668.64,182.81L666.92,182.61L663.96,184.97L662.27,186.85L662.45,189.16L665.82,193.91L664.52,194.32L662.17,192.45L661.03,190.74L658.57,190.52L656.73,191.35L653.66,191.75L651.1,193.05L649.8,195.13L648.13,195.61L647.13,197.54L645.59,198.51L644.57,198.36L643.22,200.27L641.58,200.9Z" class="land" id="IN-AR" title="Arunachal Pradesh"/>
    <path d="M600.15,197.45L602.34,197.32L604.71,196.44L606.34,196.46L607.3,195.35L610.07,195.79L611.97,197.12L616.23,196.44L618.07,196.8L620.49,196.33L622.07,193.91L624.13,191.61L625.48,190.61L626.73,188.93L628.05,188.28L627.96,186.55L630.65,187.77L638.06,184.59L641.76,183.18L642.64,183.6L644.35,183.02L645.53,181.91L648.37,181.62L650.33,181.75L649.68,182.94L647.49,185.23L647.87,186.81L650.86,190.54L649.41,191.65L648.11,191.65L645.31,192.56L644.35,191.99L643.59,193.93L640.19,195.28L639.09,196.39L637.47,197.1L636.18,196.89L635.09,198.73L633.59,199.79L631.76,200.11L629.98,201.51L629.87,202.7L627.11,203.74L626.97,205.42L626.09,205.68L624.75,207.89L624.11,210.29L624.42,211.55L623.17,212.62L621.47,211.31L620.87,212.58L619.16,213.84L618.2,215.34L616.03,216.92L617.71,218.53L617.87,220.33L616.76,221.24L616.08,223.39L614.95,224.49L615.13,225.46L613.08,229.4L611.73,233.28L609.5,233.64L608.68,231.61L607.71,233.97L605.65,236.5L604.42,236.85L604.23,235.42L602.6,235.44L601.75,231.85L602.01,229.66L602.62,228.53L601.87,226.21L602.62,225.91L603.83,226.91L605.3,226.13L604.28,224.31L605.56,222.76L606.82,223.08L607.4,222.23L609.19,221.62L608.62,219.96L606.51,218L607.11,217.06L605.26,215.83L604.37,214.27L601.72,214.49L600.84,215.12L600.78,211.19L601.88,209.49L598.64,209.8L597.74,210.4L596.41,208.68L595.27,209.54L595.13,211.06L593.25,209.92L591.55,212.69L590.11,212.72L589.36,214.04L588.28,214.29L588.33,212.43L586.61,212.99L585.04,211.15L582.51,211.01L580.98,211.3L579.01,210.18L575.19,211.2L574.36,210.95L572.1,212.93L571.43,214.22L573.04,216.13L571.13,216.96L571.33,215.73L570.41,213.03L571.4,211.26L569.17,208L569.58,205.75L570.97,204.84L570.96,200.21L574.71,199.47L575.6,198.03L576.73,198.11L578.13,197.33L580.08,198.8L582.06,199.28L586.49,199.11L587.04,198.53L590.15,199.11L591.08,198.3L592.18,198.96L594.7,198.74L597.42,197.13L599.34,198.12Z" class="land" id="IN-AS" title="Assam"/>
    <path d="M548.26,202.65L549.82,203.51L550.67,205.28L548.76,206.74L546.47,209.22L544.84,209.75L544.59,212.25L545.73,212.53L545.57,213.71L547.51,214.85L547.16,216.34L543.76,218.96L545.02,220.78L544.13,221.61L542.79,220.32L541.01,220.02L540.05,221.31L538.11,221.57L537.69,223.49L535.82,224.42L535.97,226.4L535.17,227.6L534.57,230.38L533.01,229.87L532.03,231.18L531.02,230.2L529.62,231.04L528.77,230.41L527.51,231.65L526.81,233.78L525.5,232.71L524.89,231.07L523.77,230.31L522.68,230.43L522.56,228.98L521.6,227.91L520.3,228.59L519.36,227.62L517.53,227.3L515.46,230.44L514.29,231.18L511.64,231.52L508.67,233.11L506.66,233.73L506.43,232.43L505.32,231.48L500.91,234.2L499.37,233.39L499.24,231.86L497.45,231.12L496.44,232.17L495.62,230.3L494.08,231.22L491.34,231.83L488.5,231.52L489.06,230.1L487.06,227.85L486.63,226.61L486.68,222.99L486.39,222.17L489.04,220.21L490.11,220.04L491.54,218.88L492.41,218.87L493.94,216.75L496,215.62L499.14,215.12L499.94,214.02L501.35,215.04L503.05,213.36L501.87,212.16L500.5,211.95L497.18,210.03L495.25,208.3L497.08,206.84L497.23,204.99L495.95,204.84L493.74,202.9L495.63,202.54L496.07,201.1L498.54,201.73L499.24,200.49L498.28,198.69L495.69,197.48L495.54,195.25L494.23,194.55L494.74,192.99L493.69,192.13L493.18,190.79L493.33,189.66L495.39,189.58L496.28,188.77L498.34,189.32L498.85,190.3L503.08,190.98L504,192.78L503.37,195.22L505.8,195.62L507.59,197.13L510.54,197.85L510.73,199.41L512.34,199.66L516.24,197.77L517.53,198.88L517.51,200.93L519.03,202.18L521.35,200.75L523.47,201.51L525.22,201.44L528,202.61L530.46,204.3L531.79,204.05L534.14,202.71L536.05,204.56L538.73,204.5L540,204.03L541.8,204.9L544.19,203.62L546.81,204.73L548.15,204.07Z" class="land" id="IN-BR" title="Bihar"/>
    <path d="M401.9,141.32L400.69,141.17L400.22,140.2L402.01,140.15Z" class="land" id="IN-CH" title="Chandigarh"/>
    <path d="M486.24,237.58L488.61,238.61L489.32,240.96L491.06,241.56L491.31,243.52L492.09,244.69L495.31,245.47L494.57,247.78L495.92,248.5L495.45,251.21L496.69,252.01L496.93,253.66L499.82,253.51L498.71,256.49L497.87,257.81L496.05,258.27L495.04,259.89L495.55,260.69L495.07,262.04L493.21,262.38L491.81,263.79L490.42,264.05L489.03,266.42L488.98,267.7L489.62,269.38L488.41,269.79L488.32,270.8L486.98,272.6L486.38,274.24L487.15,275.58L485.55,275.91L484.51,279.25L483.6,279.73L481.47,278.69L480.48,279.06L477.32,279.05L477.15,280.62L475.37,282.47L475.03,283.58L473.57,282.74L473.42,284.48L473.85,286.35L473.28,287.32L474.64,289.09L474.18,290.34L474.44,292.18L474.15,294.15L476.84,295.17L478.25,295.11L478.19,297.31L474.81,296.31L473.48,297.32L472.07,295L471.39,295.28L468.32,293.56L467.34,294.48L467.13,296.24L469.85,297.97L469.67,301.33L470.62,302.91L471.45,303L471.04,305.09L471.83,307.49L472.18,309.96L471.32,310.17L471.17,311.6L468.66,312.97L468.49,314.39L465.99,316.79L462.96,318.87L462.3,322.82L461.1,325.04L459.4,324.97L458.18,324.42L456.53,325.27L455.38,321.3L452.67,320.06L453.36,318.94L452.56,316.82L451.34,315.32L449.41,313.83L447.57,314.4L446.61,312.6L447.66,311.15L446.61,309.71L447.35,306.79L448.15,306.14L449.31,304.13L450.5,303.23L451.05,304.52L452.86,304.8L454.1,303.78L454.71,302.34L453.87,301L451.66,300.32L451.77,299.22L449.22,297.39L450.22,295.15L450.15,293.46L448.25,292.99L448.11,291.64L449.76,291.25L451.15,290.37L450.74,289.51L451.21,286.63L450.21,284.39L450.17,282.05L449.05,282.07L448.64,281L449.07,278.73L451.38,277.65L451.65,276.53L452.61,274.56L452.46,271.22L453.66,270.72L453.99,268.09L454.95,265.52L456.1,266.33L456.36,263.98L457.58,263.07L457.53,261.01L458.94,260.87L460.3,259.85L462.33,260.28L464.09,259.64L464.62,258.33L466,257.89L466.09,254.94L468.3,253.76L468.27,252.06L469.39,252.03L471.04,251.16L471.49,248.57L470.35,247.55L468.77,247.33L467.99,245.65L466.84,245.94L465.65,245.15L463.98,246L463.92,244.68L465.02,242.97L463.87,241.09L464.69,240.07L466.26,241.68L467.99,240.82L469.66,241.56L471.66,241.4L473.33,241.8L476.68,241.53L477.59,240.32L479.55,239.54L481.25,240.78L483.17,240.74L484.5,240.13Z" class="land" id="IN-CT" title="Chhattisgarh"/>
    <path d="M322.2,284.41L323.08,281.27L324.96,281.89L325.08,283.56L324.42,284.4L324.98,285.16L324.13,285.42Z" class="land" id="IN-DD" title="Daman and Diu"/>
    <path d="M406.66,168.5L408.6,172.32L408.62,173.79L407.38,174.15L406.39,175.27L405.18,173.63L402.67,173.79L402.13,173.08L403.65,170.89L403.49,169.19L405.22,168.24Z" class="land" id="IN-DL" title="Delhi"/>
    <path d="M355.17,293.29L354.17,293.81L352.02,293.17L351.98,292.04L353.8,291.77Z" class="land" id="IN-DN" title="Dadra and Nagar Haveli"/>
    <path d="M361.18,353.25L364.62,353.01L365.69,354.86L366.97,354.24L368.64,354.19L368.66,356.41L369.76,359.05L369.25,362.45L368.08,364.04L366.6,364.39L364.9,362.1L363.74,357.66L362.28,356.34Z" class="land" id="IN-GA" title="Goa"/>
    <path d="M292.17,241.78L293.05,241.93L292.59,243.92L291.02,243.98ZM327.82,229.33L330.29,230.37L332.76,229.42L335.01,230L337.8,229.41L338.67,230.1L340.08,228.97L341.54,230.27L342.38,230.01L343.22,231.36L344.04,231.16L345.42,233.23L346.46,231.81L348.44,232.51L348.9,233.88L350.65,233.82L351.38,234.38L352.37,232.32L353.77,232.95L354.57,234.03L353.44,236.39L355.27,237.62L357.73,238.29L357.87,239.99L357.06,240.97L357.82,242.15L359.85,243.9L361.78,247.33L363.16,246.85L363.96,248.4L365.76,248.47L367.07,249.36L366.98,250.63L368.52,250.5L369.52,252.27L370.53,254.57L371.54,255.15L370.32,258.17L368.77,258.15L367.32,259.94L368.68,261.59L367.81,262.69L366.27,262.15L366.1,263.19L366.93,264.21L366.6,266.98L367.23,267.84L362.88,269.66L363.99,271.38L363.06,272.8L363.53,274.23L366.24,273.34L367.75,273.34L368.57,274.69L366.2,274.43L364.93,275.68L364.67,276.99L363.16,277.41L363.03,278.74L362.12,279.54L362.41,280.98L364.12,281.37L364.68,284.71L363.85,284.88L363.24,286.46L362.07,287.13L360.62,286.97L358.62,285.06L357.59,286.09L358.86,287.51L357.94,289.25L357.94,292.13L356.4,292.11L355.17,293.29L353.8,291.77L351.98,292.04L350.74,291.86L349.79,293.25L348.96,293.09L349.2,290.94L350.87,288.06L351.04,286.86L349.67,282.57L347.02,277.08L347.54,272.54L346.37,271.88L346.79,269.65L345.91,267.82L346.5,265.08L346.42,263.79L344.09,264.32L342.67,268.6L342.83,270.82L343.37,272.38L342.29,275.03L340.46,277.71L340.87,278.4L339.1,279.45L337.06,280.13L333.77,281.83L332.14,282.94L329.14,283.88L327.44,284.78L324.98,285.16L324.42,284.4L325.08,283.56L324.96,281.89L323.08,281.27L322.2,284.41L319.15,283.18L314.75,279.68L309.64,273.63L303.5,268L299.94,263.87L299.66,262.82L300.29,261.39L303.01,261.26L302.54,262.81L303.51,263.58L307.78,262.21L308.98,262.16L309.94,260.56L310.84,261.59L312.85,259.77L313.97,259.3L315.57,259.46L317.39,256.57L317.97,254.14L316.54,253.44L315.17,254.22L310.85,255.26L309.65,256.81L307.69,256.08L306.62,256.34L305.1,255.57L303.05,255.43L298.09,252.21L297.37,252.02L295.2,250.14L295.78,248.26L294.04,246.58L293.86,244.23L296.82,241.04L294.95,240.71L294.62,239.54L297.24,239.55L297.55,234.84L298.52,236.05L299.81,235.08L300.5,235.81L301.7,235.19L303.08,235.67L304.52,235.08L306.99,235.39L308.28,235.07L309.89,236.53L313.47,236.65L315,234.88L320.92,233.04L320.91,235.43L323.91,235.85L326.41,233.89L326.7,230.04Z" class="land" id="IN-GJ" title="Gujarat"/>
    <path d="M389.62,112.53L390.28,111.49L390.13,109.74L388.61,108L389.55,107.07L390.57,107.77L392.48,105.92L394.35,105.49L396.35,103.1L398.81,102.79L400.73,103.22L402.64,104.23L404.22,106.15L406.01,106.29L408.86,108.69L411.81,106.86L413.48,106.43L416.1,109.6L415.95,110.73L416.98,112.37L418.42,111.21L419.97,111.1L422.02,109.67L422.25,111.81L421.05,112.51L421.23,114.07L422.53,113.52L423.93,114.96L423.25,117.02L424.89,118.02L424.65,118.94L427.2,121.37L426.17,124.52L426.73,126.07L427.98,127.24L426.37,128.71L427.52,129.71L427.95,131.57L428.96,132.65L430.13,134.83L428.5,134.95L427.51,133.47L425.6,133.63L424.93,133L423.3,133.49L421.82,132.17L418.34,133.69L415.75,134.24L414.56,137.04L414.47,138.72L413.16,140.07L414.34,141.66L413.7,142.64L414.6,143.95L411.54,145.56L411.69,145.86L409.64,145.5L408.72,144.7L406.86,144.42L406.21,141.25L404.41,140.47L402.97,138.13L401.25,137.99L399.18,136.52L399.51,133.35L397.08,131.94L395.93,130.28L395.11,131.74L393.51,131.93L393.26,130.3L391.3,126.76L390.25,124.16L389.9,122.14L387.25,120.43L386.37,117.78L387.85,117.18L389.24,115.56L390.39,114.98L389.34,113.58Z" class="land" id="IN-HP" title="Himachal Pradesh"/>
    <path d="M401.25,137.99L402.97,138.13L404.41,140.47L406.21,141.25L406.86,144.42L408.72,144.7L409.64,145.5L411.69,145.86L409.61,150.02L407.74,150.9L406.57,153.03L406.09,156.03L405.35,157.6L406.04,159.96L405.75,160.93L405.82,164.96L407.01,166.44L406.66,168.5L405.22,168.24L403.49,169.19L403.65,170.89L402.13,173.08L402.67,173.79L405.18,173.63L406.39,175.27L407.38,174.15L408.62,173.79L410.39,175.2L410.63,177.16L410.45,180.64L410.97,182.29L407.81,184.12L405.88,184.56L404.73,183.93L403.85,186.31L402.69,185.69L403.44,182.47L403.18,181.32L403.74,179.17L402.3,177.95L401.53,178.98L398.25,180.71L397.38,179.01L396.16,179.26L393.28,181.3L392.41,183.22L390.79,183.27L391.4,180.75L390.44,179.91L391.96,177.99L389.83,175.49L386.46,173.25L385.51,172.23L384.96,168.95L383.94,166.28L383.24,165.49L383.43,162.64L379.7,163.16L377.69,162.34L377.36,161.11L376.24,160.53L375.14,161.24L373.07,161.15L372.57,160.31L373.3,158.69L372.68,158.15L373.18,155.32L371.37,154.81L372.51,153.64L372.06,152.48L373.63,152.79L375.72,151.74L377.21,152.39L378.17,153.78L379.15,153.44L380.66,154.04L381.3,155.34L380.35,156.67L381.94,157.46L384.06,154.5L384.94,155.22L387.45,154.49L389.05,154.44L389.7,155.41L391.73,155.42L393.66,153.3L393.74,151.38L394.58,150.06L396.33,149.72L397.77,150.48L399.4,150.05L399.55,148.54L398.84,147.78L401.1,145.04L402.06,145.12L403.11,142.62L401.9,141.32L402.01,140.15Z" class="land" id="IN-HR" title="Haryana"/>
    <path d="M488.5,231.52L491.34,231.83L494.08,231.22L495.62,230.3L496.44,232.17L497.45,231.12L499.24,231.86L499.37,233.39L500.91,234.2L505.32,231.48L506.43,232.43L506.66,233.73L508.67,233.11L511.64,231.52L514.29,231.18L515.46,230.44L517.53,227.3L519.36,227.62L520.3,228.59L521.6,227.91L522.56,228.98L522.68,230.43L523.77,230.31L524.89,231.07L525.5,232.71L526.81,233.78L527.51,231.65L528.77,230.41L529.62,231.04L531.02,230.2L532.03,231.18L533.01,229.87L534.57,230.38L535.17,227.6L535.97,226.4L535.82,224.42L537.69,223.49L538.11,221.57L540.05,221.31L541.01,220.02L542.79,220.32L544.13,221.61L543.98,223.46L545.29,224.36L546.54,226.25L545.44,226.87L545.42,231.01L544.37,231.26L544.42,233.23L543.72,234.7L542.18,236.01L542.86,236.89L540.32,237.38L540.17,238.82L537,238.43L537.73,240.45L535.53,241.92L532.55,240.72L531.59,241.69L531.22,243.45L529.95,243.35L527.8,244.28L526.65,244.27L525.59,245.49L525.77,246.35L524.1,247.24L521.56,246.19L519.21,246.52L519.37,248.59L518.7,249.45L519.85,251.33L521.43,251.13L523.7,253.27L524.82,252.97L526.56,254.23L526.34,256.3L527.52,257.36L528.96,257.75L529.4,259.12L530.8,259.17L532.44,263.07L531.32,264.2L530.32,264.18L529.32,263.53L525.52,262.36L524.58,260.95L521.23,259.9L520.56,263.79L521.29,264.6L519.72,267.66L517.84,267.34L516.34,265.93L514.98,265.98L513.09,264.97L511.87,265.69L510.97,267.19L510.22,266.24L508.29,265.63L508.89,263.38L508.79,260.49L506.6,261.34L501.84,261.31L500.54,262.31L498.76,262.47L496.99,261.58L496.76,260.6L495.04,259.89L496.05,258.27L497.87,257.81L498.71,256.49L499.82,253.51L496.93,253.66L496.69,252.01L495.45,251.21L495.92,248.5L494.57,247.78L495.31,245.47L492.09,244.69L491.31,243.52L491.06,241.56L489.32,240.96L488.61,238.61L486.24,237.58L487.26,235.24L486.92,234.54L487.14,231.89Z" class="land" id="IN-JH" title="Jharkhand"/>
    <path d="M422.53,113.52L421.23,114.07L421.05,112.51L422.25,111.81L422.02,109.67L419.97,111.1L418.42,111.21L416.98,112.37L415.95,110.73L416.1,109.6L413.48,106.43L411.81,106.86L408.86,108.69L406.01,106.29L404.22,106.15L402.64,104.23L400.73,103.22L398.81,102.79L396.35,103.1L394.35,105.49L392.48,105.92L390.57,107.77L389.55,107.07L388.61,108L390.13,109.74L390.28,111.49L389.62,112.53L387.53,114.96L383.68,116.4L382.48,116.2L380.11,115.02L378.78,113.82L378.03,114.5L376.17,113.76L374.39,113.93L373.66,111.99L374.1,111.27L373.3,109.73L371.49,110.45L369.7,110.27L366.56,108.1L363.72,106.61L361.75,106.61L359.78,104.32L360.15,102.77L359.41,99.74L360.09,98.93L359.59,96.95L359.96,95.28L359.04,94.35L359.72,92.74L359.22,90.82L358.3,89.89L358.18,86.65L357.56,85.1L357.81,82.5L358.61,81.63L361.01,80.82L361.87,78.23L364.83,78.04L365.57,77.48L366.62,74.45L366.62,73.21L365.51,72.09L362.74,71.04L361.57,69.56L363.05,67.26L362.43,65.9L361.14,65.96L356.27,65.22L355.09,64.14L354.11,61.42L350.53,60.18L349.3,60.99L347.45,60.31L347.39,57.27L348.25,54.86L351.27,52.5L354.05,49.22L354.6,47.49L355.83,46.68L362.86,47.24L363.72,44.15L364.83,45.14L366.44,45.51L368.35,44.27L373.9,41.79L376.55,42.54L377.29,43.4L379.81,43.28L381.72,42.16L382.71,42.66L387.29,49.25L391.42,51.6L393.15,53.21L395.18,53.89L397.77,56.43L399.43,56.61L400.85,58.16L400.61,60.21L401.78,62.5L405.48,62.99L407.76,63.67L409.11,64.91L410.28,67.64L412.44,67.88L414.92,66.75L418.79,66.21L420.04,64.23L421.46,62.99L424.48,62.06L425.71,61.13L427.87,60.95L430.77,62.13L431.51,60.08L433.3,58.97L435.64,61.13L440.01,62.25L442.11,61.38L443.65,63.92L445.99,65.41L446.18,69.37L444.95,72.03L444.88,74.57L443.28,79.21L440.05,80.78L439.56,82.82L437.09,82.82L436.48,83.38L437.47,86.35L436.93,88.67L434.89,90.37L432.27,89.6L429.46,90.45L429.15,91.18L429.88,93.24L431.27,95.52L429.46,97.34L429.12,99.64L431.04,101.41L431.14,102.45L432.58,103.03L435.49,103.23L434.74,106.32L437.09,109.7L437.24,112.05L435.98,112.38L434.22,113.9L433.52,113.34L431.81,114.25L431.53,115.67L429.88,116.12L427.33,114.08L426.88,110.68L425.32,112.05L424.27,111.97Z" class="land" id="IN-JK" title="Jammu and Kashmir"/>
    <path d="M366.97,354.24L367.98,352.85L370.06,352.58L370.42,350.86L371.68,348.35L371.86,346.41L369.52,345.14L369.6,342.05L372.48,340.97L373.59,341.75L374.39,339.86L376.42,339.11L377.5,336.8L379.47,336.7L381.1,338.17L382.04,336.62L384.37,336.2L384.69,336.78L387.05,336.54L387.1,334.73L386.44,333.7L386.86,332.46L386.16,331.89L386.54,329.52L388.7,330.98L390.38,331.61L394.44,330.92L395.72,331.25L396.11,330.11L395.57,327.93L397.61,327.03L398.06,325.69L400.7,325.99L401.68,324.2L403.15,323.56L403.23,320.82L403.64,319.88L404.98,320.33L408.35,316.21L409.55,317.1L410.27,318.86L411.37,318.43L412.62,322.5L411.37,324.89L411.52,325.85L410.08,326.61L409.94,328.11L413.13,329.14L410.09,330.98L408.91,333.81L410.24,334.59L410.71,335.91L410.12,337.24L410.26,341.64L407.93,344.09L411.91,344.97L410.51,347.39L410.84,350.6L407.46,350.1L405.09,350.89L404.62,354.47L404.59,357.14L405.04,358.66L406.37,359.51L406.23,361.37L405.26,362.99L402.64,362.6L401.6,361.77L401.17,363.39L402.48,363.47L402.28,365.62L401.13,368.33L402.55,370.11L402.67,371.75L404.88,373.18L406.21,371.86L407.86,372.69L409.97,372.24L410.67,372.75L410.73,374.36L409.36,375L408.47,376.07L406.15,376.49L404.54,375.67L404.49,374.07L403.29,374.68L403.34,376.08L404.7,377.38L403.83,378.86L404.14,379.82L406.4,379.66L406.56,378.25L409.74,378.58L410.88,380.58L412.65,379.38L414.33,378.88L414.85,377.25L416.77,377.04L418.68,378.51L418.04,380.55L420.16,381.89L422.27,382.02L421.81,384.99L424.69,386.23L424.58,387.63L423.06,389.3L422.86,391.04L421.68,390.68L420.33,391.75L420.07,393.01L418.77,392.78L417.81,391.82L416.96,392.44L416.14,391.34L414.6,392.55L413.72,394.19L411.89,394.27L411.74,396.27L412.34,396.67L412.07,398.31L410.28,400.32L413.66,400.78L414.2,401.6L412.8,403.82L410.52,403.9L409.67,406.3L407.93,405.67L405.57,406.14L404.29,405.61L402.94,405.87L401.86,408.34L398.53,408.17L397.81,407L396.76,407.52L393.65,404.81L392.67,404.97L392.67,403.39L391.2,404.02L389.67,403.79L388.67,402.06L387.6,402.18L385.78,401L383.05,397.01L381.19,395.53L380.25,394.02L376.58,392.98L375.98,391.68L374.35,385.09L374.03,381.27L373.2,378.17L371.84,376.08L369.92,369.65L369.35,369.41L368.79,366.81L367.99,366.77L366.93,365.61L366.6,364.39L368.08,364.04L369.25,362.45L369.76,359.05L368.66,356.41L368.64,354.19Z" class="land" id="IN-KA" title="Karnataka"/>
    <path d="M376.58,392.98L380.25,394.02L381.19,395.53L383.05,397.01L385.78,401L387.6,402.18L388.67,402.06L389.67,403.79L391.2,404.02L392.67,403.39L392.67,404.97L393.65,404.81L396.76,407.52L395.81,408.53L394.2,408.77L394.88,409.96L396.59,410.5L398.27,412.37L397.59,413.55L399.35,413.78L400.85,414.63L399.69,417.24L401.87,418.06L402.91,419.26L402.03,421.71L401.74,423.96L401.9,425.53L403.86,426.68L406.35,424.86L407.87,426.69L406.82,431.19L406.94,433.09L406.21,434.61L408.18,434.78L409.37,436.05L407.7,438.75L407.5,440.69L405.95,442.42L407.39,444.42L406.25,446.02L407.68,448.64L405.49,451.78L403.91,450.64L399.46,444.72L398.35,443.85L398,442.33L395.65,437.11L394.35,429.88L392.56,424.41L390.1,418.98L389.42,415.99L387.84,411.57L387.15,410.31L386.31,409.93L385.33,407.22L383.55,405.15L382.91,404.86L381.75,402.92L380.66,401.74L377.96,396.38Z" class="land" id="IN-KL" title="Kerala"/>
    <path d="M349.69,412.83L349.53,413.39L349.31,413.88L349.53,413.07Z" class="land" id="IN-LD" title="Lakshadweep"/>
    <path d="M367.23,267.84L369.09,268.09L370.37,266.91L372.17,268.47L371.96,271.01L372.58,271.64L375.59,272.63L377.03,272.36L379.05,273.27L379.79,274.74L381.15,275.41L385.41,275.95L389.82,275.57L391.95,276.23L392.55,275.93L393.51,278.51L393.51,279.96L396.15,280.06L397.59,278.4L399.35,278.45L399.37,276.47L401.44,274.64L401.58,272.81L402.95,272.77L405.17,271.06L407.91,271.05L407.95,270.51L410.4,270.39L411.65,272.4L411.59,273.76L410.17,273.39L410.55,275.88L411.82,276.06L414.6,275.4L416.41,275.75L419.4,274.19L419.55,273.36L422.68,272.75L424.79,274.36L429.29,274.35L429.05,272.89L431.31,272.79L433.14,271.05L434.7,271.68L436.51,271.75L437.13,273.56L439.67,272.74L441.29,273.74L443.96,273.41L445.58,272.3L446.51,272.5L447.95,273.88L448.47,275.03L450.83,276.61L451.65,276.53L451.38,277.65L449.07,278.73L448.64,281L449.05,282.07L450.17,282.05L450.21,284.39L451.21,286.63L450.74,289.51L451.15,290.37L449.76,291.25L448.11,291.64L448.25,292.99L450.15,293.46L450.22,295.15L449.22,297.39L451.77,299.22L451.66,300.32L453.87,301L454.71,302.34L454.1,303.78L452.86,304.8L451.05,304.52L450.5,303.23L449.31,304.13L448.15,306.14L447.35,306.79L446.61,309.71L447.66,311.15L446.61,312.6L444.58,313.17L443.3,311.93L442.26,311.69L442.29,308.43L441.3,307.3L442.4,306.39L442.79,303.23L442.36,302.35L439.77,300.45L437.21,301.2L436.27,301.9L434.96,300.88L433.34,300.32L432.48,302.41L430.41,301.32L429.77,299.81L428.34,299.71L428.17,298.31L426.49,298.19L425.03,297.49L422.36,297.23L421.68,298.92L420.7,299.62L421.21,302.46L419.57,303.08L419.41,305.49L417.8,305.02L416.54,304.05L415.4,304.59L415.37,306.25L414.11,307.88L414.19,308.99L415.31,309.39L416.46,311.17L415.1,311.37L413.79,314.83L412.03,315.93L410.97,317.64L411.37,318.43L410.27,318.86L409.55,317.1L408.35,316.21L404.98,320.33L403.64,319.88L403.23,320.82L403.15,323.56L401.68,324.2L400.7,325.99L398.06,325.69L397.61,327.03L395.57,327.93L396.11,330.11L395.72,331.25L394.44,330.92L390.38,331.61L388.7,330.98L386.54,329.52L386.16,331.89L386.86,332.46L386.44,333.7L387.1,334.73L387.05,336.54L384.69,336.78L384.37,336.2L382.04,336.62L381.1,338.17L379.47,336.7L377.5,336.8L376.42,339.11L374.39,339.86L373.59,341.75L372.48,340.97L369.6,342.05L369.52,345.14L371.86,346.41L371.68,348.35L370.42,350.86L370.06,352.58L367.98,352.85L366.97,354.24L365.69,354.86L364.62,353.01L361.18,353.25L360.02,350.71L358.98,350.37L357.1,343.59L356.47,342.59L356.4,338.62L355.96,337.47L356.18,336.19L355.26,332.39L355.53,331.83L354.78,330.01L354.12,326.27L352.75,323.17L351.99,320.61L352.27,318.68L351.01,315.95L351.44,315.01L350.49,312.89L351.17,310.07L352.4,308.71L350.58,308.69L349.51,306.45L349.76,304.18L349.22,303.57L348.71,301.33L348.97,300.52L348.01,295.9L348.69,295.36L348.96,293.09L349.79,293.25L350.74,291.86L351.98,292.04L352.02,293.17L354.17,293.81L355.17,293.29L356.4,292.11L357.94,292.13L357.94,289.25L358.86,287.51L357.59,286.09L358.62,285.06L360.62,286.97L362.07,287.13L363.24,286.46L363.85,284.88L364.68,284.71L364.12,281.37L362.41,280.98L362.12,279.54L363.03,278.74L363.16,277.41L364.67,276.99L364.93,275.68L366.2,274.43L368.57,274.69L367.75,273.34L366.24,273.34L363.53,274.23L363.06,272.8L363.99,271.38L362.88,269.66Z" class="land" id="IN-MH" title="Maharashtra"/>
    <path d="M571.13,216.96L573.04,216.13L571.43,214.22L572.1,212.93L574.36,210.95L575.19,211.2L579.01,210.18L580.98,211.3L582.51,211.01L585.04,211.15L586.61,212.99L588.33,212.43L588.28,214.29L589.36,214.04L590.11,212.72L591.55,212.69L593.25,209.92L595.13,211.06L595.27,209.54L596.41,208.68L597.74,210.4L598.64,209.8L601.88,209.49L600.78,211.19L600.84,215.12L601.72,214.49L604.37,214.27L605.26,215.83L607.11,217.06L606.51,218L608.62,219.96L609.19,221.62L607.4,222.23L606.82,223.08L605.56,222.76L604.28,224.31L601.78,223.38L599.63,222.04L594.96,222.49L593.79,222.25L591.93,222.85L589.34,221.84L586.86,221.94L584.06,222.53L583,222.13L579.52,222.26L578.69,222.7L577.25,221.99L574.31,221.51L572.45,220.42L570.84,220.32L570.94,217.94Z" class="land" id="IN-ML" title="Meghalaya"/>
    <path d="M617.87,220.33L618.27,221.27L619.61,221.87L620.71,219.58L622.21,218.09L621.72,217.02L624.88,216.21L626.49,217.25L628.76,217.67L631.9,216.36L631.92,217.41L633.54,218.17L632.88,219.21L632.28,221.67L634.36,222.81L634.02,225.59L632.96,227.02L632.61,228.74L630.73,230.83L629.66,233.62L628.1,236.63L627.87,238.39L626.78,241.1L623.48,239.62L622.3,240.01L621.54,238.88L619.77,238.81L618.4,239.76L617.11,237.89L616.1,238.26L613.03,238.37L611.42,237.38L612.29,234.13L611.73,233.28L613.08,229.4L615.13,225.46L614.95,224.49L616.08,223.39L616.76,221.24Z" class="land" id="IN-MN" title="Manipur"/>
    <path d="M419.93,198.29L421.76,197.73L422.26,198.45L424.54,199.43L426.48,198.81L428.42,200.2L430.08,200.49L430.06,201.97L430.96,203.12L431.91,205.41L430.65,206.54L430.21,209.22L429.45,209.86L427.84,213.29L426.89,214.01L427.65,215.81L425.62,216.65L423.51,216.41L422.5,217.12L421.04,219.39L422.2,221.97L421.46,223.49L421.45,224.77L419.35,226.45L420.69,229.52L420.67,232.65L422.84,234.78L423.76,233.42L424.71,233.94L425.88,235.53L427.06,235.34L428.6,235.85L429.74,233.99L429.97,232.74L428.64,229.91L427.28,230.58L427.12,226.75L425.27,225.27L424.58,221.06L425.03,218.79L427.12,219.63L427.01,217.94L429.09,217.3L428.07,219.72L428.51,222.39L430.33,221.21L431.73,222.41L433.26,223.1L433.79,221.94L433.55,220.32L434.66,219.99L435.56,221.05L435.35,223.14L436.53,223.58L437.93,222.88L439.84,222.7L441.27,223.35L441.16,221.32L443.1,220.92L443.41,219.85L444.74,219.92L445.65,218.8L447.17,219.21L447.08,220.63L448.63,222.27L447.7,222.69L446.6,224.33L449.75,223.32L451.88,223.99L453.51,222.67L454.43,223.75L453.97,225.7L455.53,225.83L458.2,225.36L459.5,223.78L459.6,222.36L462.24,222.8L463.45,221.96L464.95,224.14L467.6,224.87L467.73,226.3L472.17,228.27L472.06,229.48L474.38,230.51L474.28,229.28L477.61,229.05L478.97,229.83L478.25,233.54L478.98,234.86L478.26,237.87L479.55,239.54L477.59,240.32L476.68,241.53L473.33,241.8L471.66,241.4L469.66,241.56L467.99,240.82L466.26,241.68L464.69,240.07L463.87,241.09L465.02,242.97L463.92,244.68L463.98,246L465.65,245.15L466.84,245.94L467.99,245.65L468.77,247.33L470.35,247.55L471.49,248.57L471.04,251.16L469.39,252.03L468.27,252.06L468.3,253.76L466.09,254.94L466,257.89L464.62,258.33L464.09,259.64L462.33,260.28L460.3,259.85L458.94,260.87L457.53,261.01L457.58,263.07L456.36,263.98L456.1,266.33L454.95,265.52L453.99,268.09L453.66,270.72L452.46,271.22L452.61,274.56L451.65,276.53L450.83,276.61L448.47,275.03L447.95,273.88L446.51,272.5L445.58,272.3L443.96,273.41L441.29,273.74L439.67,272.74L437.13,273.56L436.51,271.75L434.7,271.68L433.14,271.05L431.31,272.79L429.05,272.89L429.29,274.35L424.79,274.36L422.68,272.75L419.55,273.36L419.4,274.19L416.41,275.75L414.6,275.4L411.82,276.06L410.55,275.88L410.17,273.39L411.59,273.76L411.65,272.4L410.4,270.39L407.95,270.51L407.91,271.05L405.17,271.06L402.95,272.77L401.58,272.81L401.44,274.64L399.37,276.47L399.35,278.45L397.59,278.4L396.15,280.06L393.51,279.96L393.51,278.51L392.55,275.93L391.95,276.23L389.82,275.57L385.41,275.95L381.15,275.41L379.79,274.74L379.05,273.27L377.03,272.36L375.59,272.63L372.58,271.64L371.96,271.01L372.17,268.47L370.37,266.91L369.09,268.09L367.23,267.84L366.6,266.98L366.93,264.21L366.1,263.19L366.27,262.15L367.81,262.69L368.68,261.59L367.32,259.94L368.77,258.15L370.32,258.17L371.54,255.15L370.53,254.57L369.52,252.27L370.41,251.58L371.98,251.9L374.01,250.32L373.71,249.49L372.05,248.52L373.29,246.64L376.3,245.33L377.53,242.77L377.08,240.8L378.21,238.59L376.76,235.98L375.49,234.51L375.94,232.45L374.56,231.75L375.7,227.68L376.91,229.69L378.3,228.93L378.39,227.68L376.47,227.44L376.01,225.79L378.86,226.78L379.84,226.35L380.36,224.11L382.78,224.15L382.68,225.29L381.69,226.34L382.27,227.43L381.77,228.58L384.16,229.15L386.25,229.22L388.15,228.13L390.2,230.88L390.09,232.53L388.56,232.26L387.73,233.25L388.33,235.88L387.94,237.03L388.18,239.04L386.98,238.54L385.87,239.13L384.97,238.32L384.22,240.14L385.85,241.85L387.76,241.03L389.69,240.65L390.95,239.97L390.75,238.65L393.02,237.66L392.84,236.23L395.51,235.41L398.16,236.69L399.23,235.57L401.66,237.31L402.94,237.15L403.52,236.08L402.16,234.2L402.31,232.34L404.26,232.22L405.08,230.91L404.58,228.9L402.26,228.33L401.66,227.34L403.28,226.91L402.35,224.62L404.15,223.62L405.24,223.93L406.44,223.14L408.16,223.56L409.4,223.14L409.51,221.52L408.2,218.51L406.9,220.3L405.22,219.9L403.7,220.51L400.1,219.81L399.08,219.19L398.02,217.17L398.13,213.31L399.65,211.71L401.72,211.07L402.78,209.05L404.06,208.48L405.84,206.96L406.87,206.97L408.58,205.23L409.84,205.12L412.9,203.05L414.78,202.37L417.1,200.23L418.32,200.51L418.5,198.86Z" class="land" id="IN-MP" title="Madhya Pradesh"/>
    <path d="M602.6,235.44L604.23,235.42L604.42,236.85L605.65,236.5L607.71,233.97L608.68,231.61L609.5,233.64L611.73,233.28L612.29,234.13L611.42,237.38L613.03,238.37L616.1,238.26L616.89,240L616.98,242.4L617.49,243.52L616.47,248.16L616.83,251.2L615.58,253.07L613.45,252.49L613.52,254.38L612.91,257.25L613.59,258.8L613.17,259.74L614.2,261.21L614.43,263.54L613.72,264.7L612.33,264.43L611.84,267.42L609.71,266.31L608.06,265.06L607.63,266.94L606.66,267.52L606.72,264.77L605.65,259.31L605.65,257.99L604.56,254.65L603.62,254.07L603.86,252.34L603.44,249.81L603.69,248.04L602.95,246.47L602.58,243.37L602.24,242.86L602.12,241.64L602.79,239.57L603.12,236.93Z" class="land" id="IN-MZ" title="Mizoram"/>
    <path d="M640.19,195.28L640.69,197.49L640.36,198.08L640.74,200.46L638.53,203.72L639.42,204.79L639.22,208.81L640.07,209.24L637.86,212.24L638.34,213.82L636.85,215.17L636.43,216.63L635.23,217.66L633.54,218.17L631.92,217.41L631.9,216.36L628.76,217.67L626.49,217.25L624.88,216.21L621.72,217.02L622.21,218.09L620.71,219.58L619.61,221.87L618.27,221.27L617.87,220.33L617.71,218.53L616.03,216.92L618.2,215.34L619.16,213.84L620.87,212.58L621.47,211.31L623.17,212.62L624.42,211.55L624.11,210.29L624.75,207.89L626.09,205.68L626.97,205.42L627.11,203.74L629.87,202.7L629.98,201.51L631.76,200.11L633.59,199.79L635.09,198.73L636.18,196.89L637.47,197.1L639.09,196.39Z" class="land" id="IN-NL" title="Nagaland"/>
    <path d="M495.04,259.89L496.76,260.6L496.99,261.58L498.76,262.47L500.54,262.31L501.84,261.31L506.6,261.34L508.79,260.49L508.89,263.38L508.29,265.63L510.22,266.24L510.97,267.19L511.87,265.69L513.09,264.97L514.98,265.98L516.34,265.93L517.84,267.34L519.72,267.66L521.29,264.6L520.56,263.79L521.23,259.9L524.58,260.95L525.52,262.36L529.32,263.53L530.32,264.18L531.74,265.86L533.36,266.03L534.36,267.34L534.31,269.08L536.96,267.83L537.32,269.79L539.67,270.53L540.17,272.66L538.84,273.54L536.52,273.5L533.67,275.42L532.52,276.73L531.62,279.21L533.53,283.6L531.61,284.48L531.57,286.14L531.69,285.68L533.06,285.15L533.92,285.36L531.12,287.57L530.41,289.38L531.07,290.2L529.77,291.34L528.13,292.08L525.67,295.61L516.58,298.57L512.98,300.4L509.8,302.63L506.85,305.17L504.88,307.75L502.69,307.03L501.36,308.45L500.58,309.92L499.37,310.56L499.32,311.58L496.97,311.81L493.33,311.22L492.25,308.62L491.08,308.51L489.88,307.52L488.24,308.44L486,308.87L487.38,310.66L486.66,311.47L484.66,312.27L483.77,311.85L482.71,313.47L482.27,317.16L481.17,317.61L479.44,316.41L479.02,317.89L476.61,318.72L476.86,317.37L476.02,317.09L475.86,315.53L475.22,315.08L473.76,316.81L473.41,318.08L473.35,321.86L472.54,322.59L471.16,321.81L469.4,321.62L468.45,322.51L465.94,323.86L464.71,324.09L464.03,324.92L461.1,325.04L462.3,322.82L462.96,318.87L465.99,316.79L468.49,314.39L468.66,312.97L471.17,311.6L471.32,310.17L472.18,309.96L471.83,307.49L471.04,305.09L471.45,303L470.62,302.91L469.67,301.33L469.85,297.97L467.13,296.24L467.34,294.48L468.32,293.56L471.39,295.28L472.07,295L473.48,297.32L474.81,296.31L478.19,297.31L478.25,295.11L476.84,295.17L474.15,294.15L474.44,292.18L474.18,290.34L474.64,289.09L473.28,287.32L473.85,286.35L473.42,284.48L473.57,282.74L475.03,283.58L475.37,282.47L477.15,280.62L477.32,279.05L480.48,279.06L481.47,278.69L483.6,279.73L484.51,279.25L485.55,275.91L487.15,275.58L486.38,274.24L486.98,272.6L488.32,270.8L488.41,269.79L489.62,269.38L488.98,267.7L489.03,266.42L490.42,264.05L491.81,263.79L493.21,262.38L495.07,262.04L495.55,260.69ZM533.06,285.15L531.69,285.68L531.57,286.14L531.61,284.48Z" class="land" id="IN-OR" title="Odisha"/>
    <path d="M389.62,112.53L389.34,113.58L390.39,114.98L389.24,115.56L387.85,117.18L386.37,117.78L387.25,120.43L389.9,122.14L390.25,124.16L391.3,126.76L393.26,130.3L393.51,131.93L395.11,131.74L395.93,130.28L397.08,131.94L399.51,133.35L399.18,136.52L401.25,137.99L402.01,140.15L400.22,140.2L400.69,141.17L401.9,141.32L403.11,142.62L402.06,145.12L401.1,145.04L398.84,147.78L399.55,148.54L399.4,150.05L397.77,150.48L396.33,149.72L394.58,150.06L393.74,151.38L393.66,153.3L391.73,155.42L389.7,155.41L389.05,154.44L387.45,154.49L384.94,155.22L384.06,154.5L381.94,157.46L380.35,156.67L381.3,155.34L380.66,154.04L379.15,153.44L378.17,153.78L377.21,152.39L375.72,151.74L373.63,152.79L372.06,152.48L363.92,152.08L364.9,149.81L364.9,148.71L363.66,146.1L365.12,144.12L366.53,142.99L368.34,140.81L369.43,138.88L372.31,136.68L372.92,135.14L371.88,134.48L371.96,132.45L373.66,129.6L372.04,125.6L373.12,123.11L375.83,122.06L376.65,120.6L378.36,120.93L379.81,120.1L381.4,120.04L383.01,117.78L382.48,116.2L383.68,116.4L387.53,114.96Z" class="land" id="IN-PB" title="Punjab"/>
    <path d="M440.55,405.54L439.73,404.23L441.03,403.79ZM441.21,418.7L439.6,417.59L440.57,416.42L441.25,416.55Z" class="land" id="IN-PY" title="Puducherry"/>
    <path d="M364.9,148.71L364.9,149.81L363.92,152.08L372.06,152.48L372.51,153.64L371.37,154.81L373.18,155.32L372.68,158.15L373.3,158.69L372.57,160.31L373.07,161.15L375.14,161.24L376.24,160.53L377.36,161.11L377.69,162.34L379.7,163.16L383.43,162.64L383.24,165.49L383.94,166.28L384.96,168.95L385.51,172.23L386.46,173.25L389.83,175.49L391.96,177.99L390.44,179.91L391.4,180.75L390.79,183.27L392.41,183.22L393.28,181.3L396.16,179.26L397.38,179.01L398.25,180.71L401.53,178.98L402.3,177.95L403.74,179.17L403.18,181.32L403.44,182.47L402.69,185.69L403.85,186.31L404.73,183.93L405.88,184.56L407.81,184.12L408.68,186.37L408.58,188.17L409.81,189.17L409.84,190.09L411.69,191.14L412.96,192.99L411.46,195.37L413.36,195.9L409.72,197.84L410.47,198.99L413.52,197.63L414.01,196.81L415.78,197.51L418.65,196.59L420.6,197.02L419.93,198.29L418.5,198.86L418.32,200.51L417.1,200.23L414.78,202.37L412.9,203.05L409.84,205.12L408.58,205.23L406.87,206.97L405.84,206.96L404.06,208.48L402.78,209.05L401.72,211.07L399.65,211.71L398.13,213.31L398.02,217.17L399.08,219.19L400.1,219.81L403.7,220.51L405.22,219.9L406.9,220.3L408.2,218.51L409.51,221.52L409.4,223.14L408.16,223.56L406.44,223.14L405.24,223.93L404.15,223.62L402.35,224.62L403.28,226.91L401.66,227.34L402.26,228.33L404.58,228.9L405.08,230.91L404.26,232.22L402.31,232.34L402.16,234.2L403.52,236.08L402.94,237.15L401.66,237.31L399.23,235.57L398.16,236.69L395.51,235.41L392.84,236.23L393.02,237.66L390.75,238.65L390.95,239.97L389.69,240.65L387.76,241.03L385.85,241.85L384.22,240.14L384.97,238.32L385.87,239.13L386.98,238.54L388.18,239.04L387.94,237.03L388.33,235.88L387.73,233.25L388.56,232.26L390.09,232.53L390.2,230.88L388.15,228.13L386.25,229.22L384.16,229.15L381.77,228.58L382.27,227.43L381.69,226.34L382.68,225.29L382.78,224.15L380.36,224.11L379.84,226.35L378.86,226.78L376.01,225.79L376.47,227.44L378.39,227.68L378.3,228.93L376.91,229.69L375.7,227.68L374.56,231.75L375.94,232.45L375.49,234.51L376.76,235.98L378.21,238.59L377.08,240.8L377.53,242.77L376.3,245.33L373.29,246.64L372.05,248.52L373.71,249.49L374.01,250.32L371.98,251.9L370.41,251.58L369.52,252.27L368.52,250.5L366.98,250.63L367.07,249.36L365.76,248.47L363.96,248.4L363.16,246.85L361.78,247.33L359.85,243.9L357.82,242.15L357.06,240.97L357.87,239.99L357.73,238.29L355.27,237.62L353.44,236.39L354.57,234.03L353.77,232.95L352.37,232.32L351.38,234.38L350.65,233.82L348.9,233.88L348.44,232.51L346.46,231.81L345.42,233.23L344.04,231.16L343.22,231.36L342.38,230.01L341.54,230.27L340.08,228.97L338.67,230.1L337.8,229.41L335.01,230L332.76,229.42L330.29,230.37L327.82,229.33L325.72,225.7L325.06,222.7L323.4,220.97L322.2,219.18L322.38,217.34L322.1,214.76L318.64,215.24L317.09,214.7L314.71,211.2L314.53,209.33L315.7,206.86L315.64,202.43L314.32,201.73L311.9,201.99L307.08,199.56L306.77,198.72L307.15,195.66L307.99,193.5L311.67,190.03L313.67,187.79L315.5,183.72L318.21,181.17L320.76,180.99L322.18,182.54L322.26,183.65L323.29,185.43L324.93,185.71L329.97,183.61L331.74,183.26L334.97,183.21L338.07,181.91L338.53,179.42L339.34,178.24L341.79,176.02L343.31,171.49L344.39,170.02L348.62,167.49L351.61,166.13L353.52,162.83L355.88,158.25L357.44,152.56L360.29,151.29L362.57,150.63Z" class="land" id="IN-RJ" title="Rajasthan"/>
    <path d="M556.63,193.75L555.76,193.28L553.76,193.72L552.49,194.72L550.83,194.03L548,193.84L547.1,192.72L547.95,189.69L547.48,188.67L549.48,184.36L548.49,182.01L551.94,181.61L554.88,179.76L556.62,180.21L557.68,181.12L557.86,186.14L556.83,187.66L557.38,190L558.84,191.15L557.27,192.3Z" class="land" id="IN-SK" title="Sikkim"/>
    <path d="M411.37,318.43L410.97,317.64L412.03,315.93L413.79,314.83L415.1,311.37L416.46,311.17L415.31,309.39L414.19,308.99L414.11,307.88L415.37,306.25L415.4,304.59L416.54,304.05L417.8,305.02L419.41,305.49L419.57,303.08L421.21,302.46L420.7,299.62L421.68,298.92L422.36,297.23L425.03,297.49L426.49,298.19L428.17,298.31L428.34,299.71L429.77,299.81L430.41,301.32L432.48,302.41L433.34,300.32L434.96,300.88L436.27,301.9L437.21,301.2L439.77,300.45L442.36,302.35L442.79,303.23L442.4,306.39L441.3,307.3L442.29,308.43L442.26,311.69L443.3,311.93L444.58,313.17L446.61,312.6L447.57,314.4L449.41,313.83L451.34,315.32L452.56,316.82L453.36,318.94L452.67,320.06L455.38,321.3L456.53,325.27L458.18,324.42L459.4,324.97L461.1,325.04L464.03,324.92L464.71,324.09L465.94,323.86L466.25,324.7L463.59,326.14L462.63,327.99L462.51,329.91L461.5,331.1L460.32,330.7L459.57,331.66L458.46,331.63L458.22,332.85L455.99,333.57L454.88,333.27L453.94,335.66L450.4,334.13L449.39,335.32L447.79,336.4L449.47,337.12L450.72,337L450.44,339.22L449.06,338.85L447.28,337.75L446.54,335.86L443.74,336.48L443.03,337.86L444.04,338.53L442.6,340.85L440.22,339.67L438.58,340.58L436.62,341.01L435.7,341.66L433.62,341.94L433.09,342.66L433.01,346.3L430.57,346.21L428.95,347.07L427.25,349.21L425.21,348.2L424.45,348.77L422.47,348.44L420.53,349.11L420.29,350.49L418.63,351.86L415.75,350.93L414.6,351.35L412.78,351.2L410.84,350.6L410.51,347.39L411.91,344.97L407.93,344.09L410.26,341.64L410.12,337.24L410.71,335.91L410.24,334.59L408.91,333.81L410.09,330.98L413.13,329.14L409.94,328.11L410.08,326.61L411.52,325.85L411.37,324.89L412.62,322.5Z" class="land" id="IN-TG" title="Telangana"/>
    <path d="M420.07,393.01L420.97,394.33L421.98,394.88L424.75,392.77L425.16,390L426.31,388.97L428.56,388.57L429.91,388.7L431.07,389.53L432.15,389.62L433,387.91L434.17,388.43L435.5,386.89L435.73,385.41L437.12,385.58L437.7,386.45L442.17,385.24L442.64,383.71L444.04,382.56L445.11,383.34L447.19,384.09L447.61,386.08L447.02,387.86L446.45,392.6L445.18,396.77L441.65,402.14L441.03,403.79L439.73,404.23L440.55,405.54L439.99,408.78L441.04,411.54L441.25,416.55L440.57,416.42L439.6,417.59L441.21,418.7L441.57,425.52L439.81,425.8L435.17,425.25L434,425.99L433.14,427.52L433.64,428.92L432.18,430.31L431.75,431.34L430.09,433.26L428.85,436.26L429.39,437.24L431,438.63L425.74,440.05L424.7,440.85L422.53,441.1L419.91,443.11L419.39,444.12L419.4,445.93L418.56,447.15L418.9,449.17L418.07,450.83L414.66,452.43L413.92,453.36L411.7,453.91L411.38,454.68L408.33,454.1L405.49,451.78L407.68,448.64L406.25,446.02L407.39,444.42L405.95,442.42L407.5,440.69L407.7,438.75L409.37,436.05L408.18,434.78L406.21,434.61L406.94,433.09L406.82,431.19L407.87,426.69L406.35,424.86L403.86,426.68L401.9,425.53L401.74,423.96L402.03,421.71L402.91,419.26L401.87,418.06L399.69,417.24L400.85,414.63L399.35,413.78L397.59,413.55L398.27,412.37L396.59,410.5L394.88,409.96L394.2,408.77L395.81,408.53L396.76,407.52L397.81,407L398.53,408.17L401.86,408.34L402.94,405.87L404.29,405.61L405.57,406.14L407.93,405.67L409.67,406.3L410.52,403.9L412.8,403.82L414.2,401.6L413.66,400.78L410.28,400.32L412.07,398.31L412.34,396.67L411.74,396.27L411.89,394.27L413.72,394.19L414.6,392.55L416.14,391.34L416.96,392.44L417.81,391.82L418.77,392.78Z" class="land" id="IN-TN" title="Tamil Nadu"/>
    <path d="M601.75,231.85L602.6,235.44L603.12,236.93L602.79,239.57L602.12,241.64L602.24,242.86L600.87,242.71L599.67,244.05L598.01,243.53L598.43,246.35L596.77,247.51L595.84,249.23L596.62,251.81L595.18,253.32L593.15,253.55L591.75,249.56L590.83,250.63L590.1,249.59L589.08,246.24L587.94,244.65L587.87,242.71L588.7,242.7L588.8,240.67L590.69,237.46L592.86,237.93L594.01,237.56L594.35,236.35L595.43,235.5L597.59,236.99L598.42,233.49L600.3,233.56Z" class="land" id="IN-TR" title="Tripura"/>
    <path d="M411.54,145.56L416.32,147.93L415.11,149.95L414.43,150.13L413.34,153.55L414.99,156.57L416.58,156.03L417.05,158.41L419.01,156.47L420.21,156.05L421.51,154.68L423.53,155.5L424.04,157.24L427.39,159.46L429.17,159.75L427.43,161.64L428.88,164.29L430.52,163.97L434.05,167.22L435.38,167.53L435.5,168.66L440.22,168.13L441.25,168.84L442.13,170.49L443.32,170.42L444.08,169.05L444.69,169.07L449.01,172.02L450.54,171.15L453.39,173.57L457.16,175.62L458.86,175.98L460.29,178.39L461.89,178.9L462.34,180.07L465.24,181.48L467.61,183.38L468.69,182.33L469.98,182.41L474.92,186L478.28,185.37L478.9,187.35L478.63,188.57L481.16,188.6L482.51,189.36L484.51,189.28L486.02,191.08L487.38,189.89L487.11,188.91L490.04,189.06L493.18,190.79L493.69,192.13L494.74,192.99L494.23,194.55L495.54,195.25L495.69,197.48L498.28,198.69L499.24,200.49L498.54,201.73L496.07,201.1L495.63,202.54L493.74,202.9L495.95,204.84L497.23,204.99L497.08,206.84L495.25,208.3L497.18,210.03L500.5,211.95L501.87,212.16L503.05,213.36L501.35,215.04L499.94,214.02L499.14,215.12L496,215.62L493.94,216.75L492.41,218.87L491.54,218.88L490.11,220.04L489.04,220.21L486.39,222.17L486.68,222.99L486.63,226.61L487.06,227.85L489.06,230.1L488.5,231.52L487.14,231.89L486.92,234.54L487.26,235.24L486.24,237.58L484.5,240.13L483.17,240.74L481.25,240.78L479.55,239.54L478.26,237.87L478.98,234.86L478.25,233.54L478.97,229.83L477.61,229.05L474.28,229.28L474.38,230.51L472.06,229.48L472.17,228.27L467.73,226.3L467.6,224.87L464.95,224.14L463.45,221.96L462.24,222.8L459.6,222.36L459.5,223.78L458.2,225.36L455.53,225.83L453.97,225.7L454.43,223.75L453.51,222.67L451.88,223.99L449.75,223.32L446.6,224.33L447.7,222.69L448.63,222.27L447.08,220.63L447.17,219.21L445.65,218.8L444.74,219.92L443.41,219.85L443.1,220.92L441.16,221.32L441.27,223.35L439.84,222.7L437.93,222.88L436.53,223.58L435.35,223.14L435.56,221.05L434.66,219.99L433.55,220.32L433.79,221.94L433.26,223.1L431.73,222.41L430.33,221.21L428.51,222.39L428.07,219.72L429.09,217.3L427.01,217.94L427.12,219.63L425.03,218.79L424.58,221.06L425.27,225.27L427.12,226.75L427.28,230.58L428.64,229.91L429.97,232.74L429.74,233.99L428.6,235.85L427.06,235.34L425.88,235.53L424.71,233.94L423.76,233.42L422.84,234.78L420.67,232.65L420.69,229.52L419.35,226.45L421.45,224.77L421.46,223.49L422.2,221.97L421.04,219.39L422.5,217.12L423.51,216.41L425.62,216.65L427.65,215.81L426.89,214.01L427.84,213.29L429.45,209.86L430.21,209.22L430.65,206.54L431.91,205.41L430.96,203.12L430.06,201.97L430.08,200.49L428.42,200.2L426.48,198.81L424.54,199.43L422.26,198.45L421.76,197.73L419.93,198.29L420.6,197.02L418.65,196.59L415.78,197.51L414.01,196.81L413.52,197.63L410.47,198.99L409.72,197.84L413.36,195.9L411.46,195.37L412.96,192.99L411.69,191.14L409.84,190.09L409.81,189.17L408.58,188.17L408.68,186.37L407.81,184.12L410.97,182.29L410.45,180.64L410.63,177.16L410.39,175.2L408.62,173.79L408.6,172.32L406.66,168.5L407.01,166.44L405.82,164.96L405.75,160.93L406.04,159.96L405.35,157.6L406.09,156.03L406.57,153.03L407.74,150.9L409.61,150.02L411.69,145.86Z" class="land" id="IN-UP" title="Uttar Pradesh"/>
    <path d="M444.08,169.05L443.32,170.42L442.13,170.49L441.25,168.84L440.22,168.13L435.5,168.66L435.38,167.53L434.05,167.22L430.52,163.97L428.88,164.29L427.43,161.64L429.17,159.75L427.39,159.46L424.04,157.24L423.53,155.5L421.51,154.68L420.21,156.05L419.01,156.47L417.05,158.41L416.58,156.03L414.99,156.57L413.34,153.55L414.43,150.13L415.11,149.95L416.32,147.93L411.54,145.56L414.6,143.95L413.7,142.64L414.34,141.66L413.16,140.07L414.47,138.72L414.56,137.04L415.75,134.24L418.34,133.69L421.82,132.17L423.3,133.49L424.93,133L425.6,133.63L427.51,133.47L428.5,134.95L430.13,134.83L428.96,132.65L430.79,129.44L431.84,129.93L433.39,132.08L433.87,134L435.12,134.79L435.53,136.01L436.67,135.99L437.79,137.44L439.8,136.48L441.26,136.9L442.04,138.21L445.18,139.41L446.22,140.54L445.94,142.93L448.33,143.65L449.97,144.81L450.72,144.32L452.7,145.66L454.97,148.28L454.54,149.7L451.93,152.26L450.99,152.25L450.33,153.89L447.93,155.36L448.61,157.02L447.7,158.82L446.31,159.92L447.27,161.88L446.69,164.42L445.03,165L444.92,166.42L443.92,167.77Z" class="land" id="IN-UT" title="Uttarakhand"/>
    <path d="M547.1,192.72L548,193.84L550.83,194.03L552.49,194.72L553.76,193.72L555.76,193.28L556.63,193.75L558.16,194.32L559.36,197.01L561.02,197.45L561.55,198.7L563.17,198.57L564.74,197.85L565.81,198.72L567.1,198.59L569.89,200.27L570.96,200.21L570.97,204.84L569.58,205.75L569.17,208L567.88,207.83L568.31,209.48L566.88,210.32L564.42,210.24L561.96,208.39L561.72,205.76L559.39,203.7L558.7,204.44L559.75,205.99L557.51,206.65L556.6,205.29L553.71,203.43L551.78,201.81L551.65,203.35L553.15,203.73L552.82,204.99L551.44,206.33L551.45,207.22L549.22,208.29L548.01,211.66L548.4,213.33L550.41,213.57L552.81,215.29L552.67,216.2L555.31,217.93L557.76,218.03L557.82,219.57L559.29,221.05L558.85,222.37L556.08,221.76L554.22,222.22L552.67,221.95L552.77,224.25L551.31,225.64L549.84,225.34L549.16,226.75L547.8,228.06L547.02,229.53L548.8,231.82L551.2,233.57L552.7,233.66L556.41,235.1L555.95,236.66L556.37,240.25L554.69,241.61L554.17,244.09L555.25,244.57L556.7,247.24L556.22,249.59L557.21,250.12L558.73,249.91L559.35,250.48L558.17,251.8L558.21,253.09L559.43,255.37L558.8,256.51L559.32,257.51L559.04,259.21L558.15,259.54L557.86,261.75L557.25,263.16L555.73,264.25L554.91,265.67L554.65,267.55L552.33,268.5L549.7,270.48L548.88,267.76L547.57,267.05L546.63,269.18L544.16,271.45L540.17,272.66L539.67,270.53L537.32,269.79L536.96,267.83L534.31,269.08L534.36,267.34L533.36,266.03L531.74,265.86L530.32,264.18L531.32,264.2L532.44,263.07L530.8,259.17L529.4,259.12L528.96,257.75L527.52,257.36L526.34,256.3L526.56,254.23L524.82,252.97L523.7,253.27L521.43,251.13L519.85,251.33L518.7,249.45L519.37,248.59L519.21,246.52L521.56,246.19L524.1,247.24L525.77,246.35L525.59,245.49L526.65,244.27L527.8,244.28L529.95,243.35L531.22,243.45L531.59,241.69L532.55,240.72L535.53,241.92L537.73,240.45L537,238.43L540.17,238.82L540.32,237.38L542.86,236.89L542.18,236.01L543.72,234.7L544.42,233.23L544.37,231.26L545.42,231.01L545.44,226.87L546.54,226.25L545.29,224.36L543.98,223.46L544.13,221.61L545.02,220.78L543.76,218.96L547.16,216.34L547.51,214.85L545.57,213.71L545.73,212.53L544.59,212.25L544.84,209.75L546.47,209.22L548.76,206.74L550.67,205.28L549.82,203.51L548.26,202.65L549,201.19L549.35,199.23L548.67,196.12L546.81,194.37ZM548.66,268.94L549.1,270.79L548.3,272.42L547.36,271.73Z" class="land" id="IN-WB" title="West Bengal"/>
  </g>
</svg>