<?xml version="1.0" encoding="UTF-8"?>
<svg xmlns="http://www.w3.org/2000/svg" width="932.28" height="520.1" viewBox="13.86 -3.55 932.28 520.1">
  <!-- Created using SVG Map Generator: dojo.amcharts.com/svg-map-generator -->
  <style>
    .land { fill: #ffffff; stroke: #299e8b; stroke-width: 1.55; }
  </style>
  <rect x="13.86" y="-3.55" width="932.28" height="520.1" fill="#417ea4"/>
  <g id="polygons">
    <path d="M557.89,475.24L557.62,475.34L556.9,474.56L557.49,474.41Z" class="land" id="AW" title="Aruba"/>
    <path d="M610.94,442.1L610.04,442.27L610.4,441.15Z" class="land" id="AG" title="Antigua and Barbuda"/>
    <path d="M603.81,433.53L602.8,433.9L602.86,433.69L603.69,433.18Z" class="land" id="AI" title="Anguilla"/>
    <path d="M524.33,377.85L525.16,373.6L525.98,374.73L525.09,375.4ZM519.8,386.53L519.51,388.3L517.5,389.58L516.5,386.19L518.55,383.37ZM519.8,389.85L520.22,392.61L518.56,393.46L518.39,391.37ZM544.84,412.02L543.81,413.57L540.74,413.86L541.81,412.03Z" class="land" id="BS" title="Bahamas"/>
    <path d="M604.62,436.03L604.44,435.72L604.84,435.8Z" class="land" id="BL" title="Saint Barthelemy"/>
    <path d="M442.93,450.39L440.81,450.37L442.97,436.47L443.83,435.14L445.29,435.39L447.49,431.91L448.91,431.72L449.79,434.25L448.24,437.96L447.12,445.03L444.45,447.81Z" class="land" id="BZ" title="Belize"/>
    <path d="M607.02,331.47L606.44,331.71L607.35,330.79Z" class="land" id="BM" title="Bermuda"/>
    <path d="M622.53,470.69L621.81,470.55L622.03,468.99L622.97,470.18Z" class="land" id="BB" title="Barbados"/>
    <path d="M690.3,194L687.73,196.4L686.9,198.36L680.86,204.27L683.35,204.06L685.75,204.96L684.37,207.61L687.04,208.25L688.63,209.54L691.4,208.24L694.72,208.58L696.31,210.69L694.21,213L694.05,214.99L698.39,214.68L695.01,217.07L693.59,219.25L697.85,218.49L696.02,221.14L698.74,221.87L695.04,228L691.99,228L692.62,224.77L691.74,223.01L691.69,220.41L690.74,219.68L688.73,222.48L686.26,223.03L682.92,226.41L680.22,226.68L680.29,225.24L682.37,224.61L684.52,222.57L680.94,222.01L679.2,221.01L674.98,221.69L667.52,220.97L663,221.72L662.17,219.64L666.61,216.41L667.08,214.49L671.31,208.97L672.68,207.88L677.41,201.45L682.82,195.81L687.3,193.78ZM298.54,200.22L300.72,201.09L306.54,202.47L307.53,208.67L310.27,210.1L310.5,214.6L309,216.35L303.99,214.5L299.69,211.03L300.39,209.73L298.82,208.58L297.06,208.74L298.18,205.54L295.84,205.52L295.09,203.54L292.77,203.79L293.87,201.58L292.59,200.44L295.55,198.69ZM651.07,211.02L648.75,211.12L644.53,210.1L642.01,208.88L640.03,205.09L646.5,206.74L651.36,209.69ZM570.98,239.89L578.34,236.9L581.82,232.75L590.18,228.34L594.01,227.47L598.72,225.52L609.86,216.76L614.74,214.29L618.96,212.68L627.31,210.18L631.01,209.81L634.62,210.33L637.22,212.22L636.51,214.83L633.05,217.09L629.9,218.54L626.56,217.37L626.99,220.84L629.65,220.02L632.38,220.63L630.51,223.14L627.73,225.03L629.6,226.53L630.37,231.12L636.42,234.58L639.71,234.66L640.71,235.5L644.11,233.76L646.37,235.04L646.73,238.25L639.13,241.03L631.47,243.58L630.42,242.45L628.63,243.12L627.67,244.88L624.14,247.99L618.64,250.18L616.91,248.37L618.09,244.42L621.32,241.62L626.23,239.06L629.03,238.1L627.21,235.47L620.92,238.33L615.08,239.44L613.86,238.72L612.12,237.96L612.98,235.64L611.21,234.94L613.88,225.16L611.65,223.24L608.46,224.31L606.71,222.48L600.88,227.8L598.58,231.04L597.59,233.49L592.89,238.05L590.55,237.86L588.9,239.87L581.89,239.88ZM634.88,229.5L635.78,228.84L638.59,229.83L644.09,229.37L639.2,232.81L638.34,231.03L635.74,231.34ZM649,233.21L650.3,234.68L652.54,233.2L652.81,231.38L656.31,231.69L654.97,233.67L652.5,235.27L647.33,235.85L646.81,233.24L651.86,227.18L653.59,225.91L654.8,227.39L652.36,231.6ZM709.86,2.52L721.24,2.84L740.3,5.1L735.58,6.93L724.55,8.39L719.07,10.53L696.23,14.9L688.51,18.12L680.26,18.72L678.67,19.49L670.77,19.88L670.6,21L664.86,22.03L671.53,23.52L662.61,27.33L653.09,27.67L651.14,29.98L643.68,31.75L643.87,33.18L648.11,32.95L646.57,35.2L640.18,36.65L634.46,37.4L633.67,35.52L621.5,35.85L615.37,36.68L596.68,35.64L598.45,33.78L604.48,32.25L611.55,31.73L608.51,28.9L613.93,27.96L612.89,26.43L618.78,23.25L630.99,22.28L631.95,20.89L629.91,18.89L625.37,17.69L628.1,15.29L638.52,15.75L655.29,14.25L663.39,12.98L663.54,11.7L651.87,13.62L642.14,13.33L633.28,14.26L619.1,12.75L617.19,11.08L623.13,9.3L612.89,8.62L618.7,7.71L636.39,6.27L644.65,5.06L653.22,5.99L656.72,4.37L667.51,2.86L676.46,3.05L684.77,2.39L708.37,2.08ZM608.93,11.27L611.3,13.92L622.62,15.03L623.25,17.44L621.45,18.63L627.79,19.31L628.73,20.36L613.96,23.61L607.62,26.35L599.57,26.58L591.81,25.3L588.39,22.1L596.7,20.59L585.87,20.55L586.9,18.68L582.98,17.68L583.2,16.22L588.88,13.44L594.17,11.91L607.53,10.57ZM550.62,20.42L555.99,21.61L563.01,24.27L560.96,25.76L561.22,28.15L555.26,27.97L554.7,26.34L548.49,25.39L541.1,25.94L547.24,23.28L540.07,21.9L542.33,20.38ZM577.35,24.54L582.1,25.53L579.52,27.42L570.39,28.43L568.04,25.08L570.13,23.1L576.49,23.71ZM519.62,23.91L519.66,25.58L503.91,25.19L517.69,23.35ZM513.75,26.82L515.9,27.61L511.65,29.96L503.03,30.94L498.8,29.92L500.71,27.9ZM576.84,28.5L586.05,28.79L583.85,30.23L573.18,30.18ZM487.47,30.83L482.77,32.27L483.88,33L480.26,34.98L471.41,35.89L464.19,37.14L459.7,39.18L451.9,38.19L449.21,37.11L455.59,35.92L471.73,31.15L479.08,31.08L484.99,29.86ZM577.86,33.31L583.36,35.02L589.9,34.59L590.79,35.94L597.11,36.7L591.77,38.08L598.54,41.13L603.17,40.54L607.97,41.19L615.08,40.34L618.73,39.4L626.65,39.34L633.98,40.47L636.24,41.49L634.78,44.73L630.22,46.44L622.95,47.04L609.08,46.31L605.09,46.91L593.33,46.94L592.66,45.67L587.18,46.63L578.73,45.23L579.21,41.87L582.32,39.25L580.58,36.4L570.57,36.9L566.61,34.47L567.37,32.98L572.7,32.47ZM512.14,38.07L517.8,38.78L523.36,38.78L522.98,39.82L518.51,42.95L511.42,44.46L504.63,43.67L493,46.11L484.77,47.39L480.37,47.31L479.38,45.38L486.28,44.19L479.67,43.54L473.33,44.23L471.1,43.07L466.65,42.5L475.51,37.97L482.09,35.94L488.26,35.86L488.54,37.23L493.48,37.26L497.25,40.93L505.76,41.17L507.39,40.08L505.32,36.05L511.25,34.15L514.95,34.28ZM560.83,35.78L557.84,40.91L554.09,43.38L550.16,43.99L542.72,44L542.48,41.73L547.33,40.18L534.87,41.12L537.44,39.63L542.11,38.43L540.43,36.79L549.74,34.96L555.73,34.96ZM538.71,38.3L532.66,39.71L530.17,37.37L538.45,36.81ZM572.68,43.89L571.19,45.81L565.82,46.09L560.02,44.5L559.51,43.48L565.45,41.04L571.26,40.68L573.17,42.06ZM450.66,49.14L459.47,48.26L462.41,48.8L467.08,52.01L466.42,53.06L446.41,57.48L442.63,59.39L438.29,60.26L432.48,64.47L418.41,66.75L417.75,63.44L412.23,60.71L418.32,58.05L421.76,55.18L430.4,51.14L429.67,47.78L445.89,46.74ZM570.58,48.86L574.05,49.95L579.33,49.74L582.05,50.55L569.41,57.07L564.03,56.79L557.58,61.36L552.26,61.36L554.02,58.55L553.86,56.91L557.44,51.56L561.94,49.55ZM538.82,50.11L541.66,51.35L549.49,50.44L551.12,51.73L545.83,53.95L546.36,57.76L544.89,62.51L533.12,65.68L531.07,65.29L527.97,60.62L523.52,59.66L521.14,56.9L526.02,55.29L527.2,57.11L531.27,56.96L533.77,54.92L529.89,53.1L534.05,50.92ZM587.94,67.43L592.87,66.58L596.61,66.93L599.05,63.72L596.67,63.46L594.81,61.6L599.09,59.03L599.06,56.95L604.08,53.66L616.29,51.36L621.6,51.92L623.48,57.12L618.49,60.28L622.3,60.25L626.57,59.21L631.21,59.39L631.76,57.97L634.93,57.24L639.65,57.42L645.68,58.95L645.86,60.93L650.08,63.19L658.99,64.4L661.62,66.87L661.57,69.07L664.74,68.43L668.13,68.91L671.18,70.36L674.38,73.32L673.59,75.22L670.04,75.02L667.64,76.09L675.15,77.56L669.65,79.38L666.87,82.37L671,83.75L673.81,86.02L678.18,86.14L681.52,86.92L682.74,89.81L687.09,90.51L685.48,91.82L689.41,92.56L691.69,91.85L693.95,94.16L690.36,96.26L689.02,98L684.75,100.49L681.05,101.1L679.76,103.78L675.94,104.11L673.7,103.46L671.71,99.71L672.84,98.17L667.9,96.47L667.17,94.74L663.93,96.32L663.79,98.01L658.3,98.61L661.66,101.48L662.75,103.95L665.22,105.45L667.45,105.46L669.28,106.87L668.92,110.83L670.61,110.71L669.42,115.6L666.67,115.6L664.25,119.13L661.44,117.29L659.34,117.12L653.41,114.41L650.92,112.64L648.79,112.78L651.14,116.19L653.24,116.69L658.08,121.79L656.73,124.59L651.87,122.77L647.38,122.23L644.33,121.13L642.95,118.94L639.56,118.82L635.27,117.02L632.82,114.53L632.39,112.75L628.48,108.19L623.97,106.62L620.59,107.98L611.76,109.34L606.89,108.55L605.8,106.95L607.22,104.92L611.11,103.51L612.64,101.67L619.24,103.1L631.3,101.1L628.88,97.35L637.48,93.66L639.59,91.78L643.01,90.38L640.83,84.12L635.95,81.41L635.56,79.72L627.57,81.5L627.88,79.56L630.81,79.43L632.54,77.67L627.32,75.64L621.81,70.01L619.75,70.61L621.21,72.44L620.15,73.66L616.46,74.16L610.19,72.97L604.42,74.49L600.53,73.5L596.78,73.75L585.91,72.65L585.46,71.1L578.93,72L575.54,70.36L575.27,67.09L580.98,67.79L582.75,66.24L577.46,65.77L574.72,64.55L575.72,61.83L578.22,60.59L578.34,59.08L583.72,55.22L587.62,53.26L593.37,51.4L598.11,50.76L605.5,50.91L594.94,56.38L593.35,60.8L593.41,62.89L596.5,65.38ZM630.14,51.8L635.84,51.73L640.14,52.7L642.85,55.15L641.44,56.67L635.16,56.23L627.06,57.06L625.45,56.42L625.64,54.31L623.3,53.4L624.45,51.41ZM510.03,56.09L507.82,53.84L505.3,52.82L507.75,51.56L513.08,51.15L516.26,52.03L515.31,53.55ZM466.23,58.02L471.42,57.42L476.32,55.71L481.72,57.31L486.32,57.61L488.82,55.72L492.42,58.57L491.03,63.01L495.89,62.15L495.32,60.64L497.49,55L500.94,53.7L505.92,54.47L508.83,56.87L507.89,59.07L507.38,64.9L504.83,66.87L506.13,68.92L510.65,70.37L514.48,72.71L516.78,73.35L515.58,75.26L512.15,75.36L510.03,74.48L507.41,76.71L509.32,77.13L508.2,79.47L502.4,80.7L499.62,80.79L493.49,79.12L488.56,78.63L487.39,76.93L481.68,79.61L476.99,80.02L473.42,81.09L468,81.88L461.16,82.43L452.29,82.72L451.64,80.61L453.02,78.43L446.44,78L440.85,77.02L439.99,74.71L441.35,72.92L454.33,71.63L463.04,72.16L466.58,70.82L460.12,69.35L449.18,69.98L441.96,69.72L440.14,68.17L443.64,66.54L452.03,65.34L443.35,64.88L441.53,63.39L442.76,61.61L447.59,59.97L448.29,58.36L453.63,56.61L469.75,53.44L471.37,54.04L469.5,56.44ZM570.98,239.89L568.11,240.64L559.07,246.63L556.14,249.69L545.39,249.72L542.49,250.85L541.81,255.6L534,258.72L527.8,259.85L520.02,263.68L518.59,263.68L516.67,261.52L517.79,259.19L521.51,256.87L523.3,253.67L525.96,250.11L527.79,237.45L523.1,234.12L523.72,231.99L521.62,232.22L521.58,228.93L519.29,229.58L518.67,226.45L508.24,219.76L503.02,216.56L496.23,218.72L493.06,217.86L489.42,217.96L489.16,217.28L485.01,218.29L478.46,214.4L476.37,214.36L474.29,215L469.91,213.48L470.32,209.54L468.86,209.09L467.68,211.73L450,211.72L433.61,211.72L421.91,211.72L407.86,211.72L398.49,211.72L389.13,211.72L375.08,211.72L358.69,211.72L346.99,211.72L332.94,211.72L315.99,211.72L314.56,211.72L314.81,208.46L312.04,208.29L311.73,206.13L309.93,206.02L308.67,201.36L302.39,200.99L303.58,199.07L300.25,198.64L297.92,196.67L299.65,194.4L299.25,193.54L301.15,189.75L298.73,189.7L303.13,184.88L301.37,184.76L301.93,182.23L299.22,181.21L297.09,182.18L295.1,178.94L298.53,176.14L297.79,174.18L304.1,169.12L305.22,165.95L306.78,164.22L306.04,161.91L302.05,159.43L301.48,158.13L301.23,148.56L300.85,145.36L298.07,141.5L299.02,139.58L297.97,138.17L292.66,139.41L288.97,142.4L283.25,144.05L284.15,141.91L280.58,136.26L282.52,134.55L279.4,134.65L277.1,135.6L272.5,134.83L283.87,121.51L293.85,110.26L302.32,100.99L312.67,90.02L326.77,75.65L334.52,76.47L337.31,78.69L342.43,80.3L346.58,80.13L349.76,77.72L353.27,76.76L359.45,76.52L362.4,76.97L365.17,75.65L370.02,75.02L378.98,72.66L382.14,73.54L376.9,75.62L387.85,73.77L392.22,72.18L395.25,72.08L394.91,75.16L396.53,77.06L404.99,73.59L406.13,75.63L403.3,77.3L407.14,77.31L412.2,74.68L416.72,74.64L421.11,75.59L423.01,77.05L428.89,78.05L431.45,79.36L440.12,80.5L442.76,79.78L446.43,81.17L447.85,83.31L443.41,84.1L438.55,86.24L439.45,86.88L444.83,87.58L451.71,87.72L459.13,87.06L464.54,85.91L465.37,87.42L467.9,87.55L471.05,90.37L467.92,91.58L473.36,92.7L473.3,87.42L475.69,85.57L480.54,84.97L482.67,83.56L477.73,83.72L473.84,84.84L472.4,84.06L475.73,82L480.25,81.52L487.34,80.11L489.39,81.34L488.74,82.94L492.72,85.58L496.52,85.05L498.93,86.93L503.86,87.66L509.74,86.76L515.52,87.47L519.44,86.84L523.18,88.14L525.35,86.66L520.34,85.36L522.45,83.81L527.55,82.97L528.1,84.19L532.19,84.79L528.11,88.53L529.48,90.76L532.28,90.34L532.32,87.39L534.38,85.63L538,85.33L545.1,82.42L546.34,80.31L545.62,76.72L539.03,74.55L538.19,72.77L541.19,70.25L540.81,68.64L543.45,65.85L551.7,62.1L555.23,62.92L558.82,64.73L559.43,65.92L557.6,68.38L559.54,69.59L561.49,72.45L554.06,75.26L557.28,76.38L563.57,76.54L561.47,77.84L561.48,80.45L559.46,82.84L562.95,82.55L565.86,79.53L569.71,77.99L572.78,80.77L572.35,83.27L569.35,83.99L568.11,87.21L570.41,90.82L575.14,88.76L579.97,85.32L583.05,81.89L585.64,81.2L588.81,79.16L586.91,78.2L588.61,74.46L594.52,74.53L596.73,75.35L601.63,75.4L600.68,76.82L605.69,78.88L604.29,81.72L597.51,83.02L598.21,86.62L600.21,89.11L597.92,91.53L593.34,93.44L586.13,95.89L580.26,97.1L576.19,94.66L571.08,94.89L570.56,96.2L572.11,98.08L563.62,102.29L560.28,102.32L553.77,98.62L551.79,98.96L555.37,102.33L564.35,103.28L561.77,105.63L555.4,109.72L552.07,110.83L545.9,110.37L544.59,112.14L536.97,114.04L539.3,115.04L537.19,117.64L533.79,118.56L529.3,118.46L519.86,125.66L516.55,127.12L514.49,129.35L508.89,134.07L506.48,137.11L503.03,144.05L504.55,145.29L509.89,145.02L509.06,154.89L509.14,156.67L515.86,155.12L518.5,155.23L521.87,156.86L525.83,157.73L529.15,160.32L530.52,163.09L538.36,165.79L541.28,168.3L547.44,168.1L553.98,169.23L554.89,171.51L552.5,174.62L552.41,178.3L549.33,184.17L551.39,187.81L550.68,188.77L554.62,192.47L555.03,195.43L557.5,196.52L560.38,193.77L563.63,192.64L567.63,189.06L567.38,186.47L568.27,178.99L569.69,177.04L568.65,176.38L568.08,172.3L572.61,171.04L578.98,168.64L584,165.74L587.95,162.74L590.32,158.7L591.38,155.52L591.38,151.66L590.76,149.92L585.69,145.51L586.79,144.05L591.65,140.89L592.71,138.94L595.09,138.14L595.93,136.53L595.33,131.65L598,127.41L598.06,123.05L599.18,121.45L603.33,120.05L610.33,121.71L615.59,122.56L621.7,120.81L627.37,125.51L629.08,129.22L634.61,129.81L636.81,132.28L633.95,137.17L634.39,141.17L632.47,144.27L636.85,144.04L637.96,146.09L640.89,148.63L646.71,146.4L653.28,142.67L659.6,135.15L661.84,135.04L663.2,139.14L664.43,141.2L665.1,144.35L667.23,146.89L666.45,147.92L667.54,150.23L669.39,150.97L668.52,154.18L670.37,156.66L668.02,160.84L669.08,164.37L670.64,163.75L673.86,168.48L678.56,169.23L679.05,171.34L682.2,171.15L685.78,173.16L683.84,174.42L681.37,174.66L678.19,176.71L673.14,178.19L671.41,178.18L670.68,180.44L673.68,179.49L676.31,177.91L679.82,176.7L680.9,175.5L684.9,175.94L685.68,178.1L683.44,179.56L683.95,180.69L687.11,178.84L689.16,178.66L690.71,179.87L691.65,182.45L689.73,188.65L690.15,189.85L681.95,194.55L677.59,194.77L673.32,195.68L668.77,199.25L662.76,202.91L656.07,203.27L653.5,203.96L652.69,203.06L648.5,202.58L645.52,202.99L642.95,202.56L636.71,202.76L634.62,202.45L629.7,203.28L627.7,203.21L624.8,204.73L621.05,209.23L615.73,210.29L611.38,212.87L607.96,215.98L605.13,218.01L603.84,219.88L597.91,224.76L594.05,227.19L590.42,227.95L585.1,230.78L583.25,231.34L579.47,234.67L575.81,236.36L575.83,237.47ZM531.71,75.7L535.83,77.51L536.22,81.24L531.73,82.86L526.95,82.41L519.84,80.45L519.1,79.41L525.61,77.57L528.29,75.02ZM616.95,74.82L612.65,76.35L611.08,75.04ZM614.77,80.56L619.45,77.35L620.96,77.76ZM629.83,83.78L632.03,84.32L629.93,88.63L625.99,90.2L620.05,90.31L620.04,87.58L624.46,84.34ZM637.92,87.1L633.51,86.82L635.28,85.19L639.4,85.95ZM574.88,102.88L577.04,101.7L578.82,103.15L581.74,103.87L584.26,105.92L586.84,106.79L587.4,108.17L586.4,110.75L591.01,110.31L592.54,112.41L587.86,114.33L582.07,112.76L582.37,111.35L577.87,110.25L575.74,112.08L572.1,113.54L569.53,115.31L564.66,116.4L565.37,113.07L558.11,112.98L560.5,111.37L564.39,110.01L565.3,107.28L571.37,100.08L575.2,99.51L574.2,101.31ZM603.63,114.27L604.73,115.45L602.18,116.56L600.33,115ZM581.45,117.59L579.89,119.53L573.91,122.39L570.32,122.71L570.37,120.67L574.42,117.91ZM591.95,121.09L591.84,123.58L588.9,126.06L586.45,124.93L589.35,121.53ZM576.42,161.67L574.06,164.24L570.73,164.77L569.86,163.92L572.88,161.82ZM284.6,176.18L289.02,177.15L284.06,182.08L281.01,182.57L280.33,181.77L280.86,178.57L282.51,176.07ZM301.11,184.32L299.49,187.22L297.74,185.13L300.05,181.99ZM285.12,182.56L284.51,184.44L281.85,187.06L281.09,184.55L281.68,182.97ZM556.93,185.64L551.58,184.2L552.18,182.63L556.04,182.49Z" class="land" id="CA" title="Canada"/>
    <path d="M472.01,486.33L472.98,489.58L476.75,495.33L478.04,496L475.65,496.92L475.48,502.03L474.83,504.72L475.44,506.87L474.04,504.83L473.89,503.13L470.35,502.94L471.14,499.9L469.64,498.17L465.08,495.49L464.85,493.67L462.22,495.96L461.09,494.31L459.21,493.65L458.26,491.98L458.18,490.07L459.38,487.57L459.07,485.28L459.9,484.4L464.18,486.12L465.53,485.35L467.67,485.87L468.68,487.31L470.88,487.58Z" class="land" id="CR" title="Costa Rica"/>
    <path d="M493.22,397.73L497.11,398.48L500.37,398.17L501.93,399.32L503.69,399.33L505.89,400.78L507.97,403.21L511.51,403.5L514.55,405.37L516.03,406.89L518.24,407.09L522.85,411.35L526.2,412.44L528.32,412.61L528.45,415.34L533.02,415.94L535.04,417.87L537.07,418.54L536.36,420.08L534,420.23L530.92,421.37L528.25,421.44L524.63,420.73L519.39,421.43L514.99,421.7L516.18,420.06L518.46,418.48L518.68,415.99L514.06,415.47L511.38,413.02L510.95,409.67L509.92,408.92L507.11,409.33L501.6,407.09L500.16,405.71L497.34,405.78L494.56,404.83L492.29,404.71L492.94,402.78L492.28,401.24L487.22,401.17L482.8,404.55L479.57,404.93L478.53,406.57L476.88,405.63L477,403.42L479.25,401.33L484.38,399.15L488.06,398.6L491.65,397.53ZM487.08,409.27L485.17,410.19L484.14,407.68L486.49,406.96Z" class="land" id="CU" title="Cuba"/>
    <path d="M564.8,478.07L564.47,478.18L563.33,477.48L562.42,476.35L562.92,476.03L563.26,476.84L564.37,477.36Z" class="land" id="CW" title="Curaçao"/>
    <path d="M492.16,425.37L493.62,425.38L492.5,425.93Z" class="land" id="KY" title="Cayman Islands"/>
    <path d="M612.57,455.03L611.5,453.04L612.52,452.6Z" class="land" id="DM" title="Dominica"/>
    <path d="M549.9,434.85L550.17,432.66L548.91,430.81L550.59,429.83L550.4,427.99L551.44,426.95L551.17,422.69L552.67,421.41L556.38,421.28L561.2,423.29L562.28,423.03L563.31,425.73L565.79,426.44L569.46,428.59L571.18,431.24L569.11,433.53L567.56,432.18L562.46,431.92L559.78,433.31L557.94,433.56L557.02,432.7L554.62,433.16L551.89,437.69L550.54,436.78Z" class="land" id="DO" title="Dominican Republic"/>
    <path d="M612.85,447.94L611.65,447.95L611.72,446.46L612.5,446.22Z" class="land" id="GP" title="Guadeloupe"/>
    <path d="M608.32,478.42L608.39,477.17L609.08,476.89L608.88,478.12Z" class="land" id="GD" title="Grenada"/>
    <path d="M871.98,67.97L871.82,69.58L867.79,70.78L866.1,70.18L859.94,70.78L861.36,68.11L864.73,68.32L870.32,67.23ZM910.21,41.73L911.71,44.09L906.87,44.04L906.33,42.23ZM870.46,0.15L886.01,1.33L891.29,3.14L902.83,4.4L887.17,7.13L902.87,6.82L903.18,8.57L907.68,9.19L919.05,9.83L926.33,7.92L940.01,8.79L942.59,9.86L929.74,13.08L920.15,14.02L923.45,14.91L919.35,15.9L908.65,15.6L905.17,17.91L908.65,18.52L908.99,21.27L900.33,24.41L896.08,28.51L900.04,27.86L902.21,30.81L910.31,31.64L909.16,34.05L902.5,33.23L898.62,33.45L894.2,35.19L895.26,36.74L901.64,37.16L903.83,39.75L903.71,42.74L899.07,42.26L897.05,43.15L900.98,44.19L903.93,47.03L903.1,48.15L889.79,49.62L898.21,50.67L897.23,52.74L892.46,53.1L889.41,54.04L881.76,53.29L889.73,56.1L887.76,60.82L880,58.57L877.2,58.94L888.62,63.38L889.62,64.63L889.78,70.34L887.74,70.84L881.28,70.8L879.22,70.17L877.13,66.62L870.62,64.07L870.83,66.39L866.03,67.79L861.57,67.53L856.97,70.64L859.33,71.09L865.34,70.65L866.6,72.19L870.89,71.39L881.66,72.83L881.83,74.24L878.65,75.79L864.51,81.61L850.91,83.92L847.97,83.84L842.35,85.39L837.27,83.39L835.98,86.24L831.34,88.08L825.52,93.68L822.53,95.5L813.16,99.29L806.1,100.78L801.84,100.59L795.27,101.02L796.79,102.38L790.81,105.06L792.41,107.83L789.69,110.05L789.35,112.64L786.53,113.99L785.83,115.53L779.44,120.07L777.9,122.76L778.46,124.68L776.37,126.75L773.57,131.77L770.61,134.62L769.1,137.28L765.29,137.3L759.07,135.47L758.56,133.4L756.41,132.76L757.46,129.62L752.58,131.46L747.93,131.37L743.08,128.44L741.84,126.41L741.77,122.24L738.41,120.69L739.04,118.4L737.47,116.97L735.08,113.18L735.72,111.49L734.99,109.1L733.63,108.24L734.4,103.55L732.9,100.8L730.77,100.78L732.06,98.37L729.99,97.25L730.47,95.63L734.28,93.05L730.9,91.13L734.13,88.4L733.96,86.77L736.84,84.48L738.29,82L741.99,81.45L744.13,82.39L747.08,81.21L748.92,78.34L753.24,73.91L745.28,73.17L742.24,71.7L737.89,70.98L736.18,69.56L738.13,68.58L744.31,68.99L749.56,70.87L752.6,67.67L744.16,65.62L746.31,64.49L743.28,63.67L737.01,65.29L733.28,64.18L735.94,60.87L735.48,58.84L739.66,57.73L740.47,56.37L736.56,55.58L738.89,54.09L735.98,52.36L737.64,50.4L734.98,48.53L735.74,45.92L729.63,41.85L730.86,40.13L719.64,37.38L711.03,36.49L694.93,38.56L689.4,38.01L684.88,36.53L686.61,34.56L680.49,33.55L682.45,31.76L689.54,31.75L693.84,30.74L701.2,30.67L701.13,29.1L694.99,29.99L688.85,30.27L680.42,27.92L676.46,26.34L679.43,24.68L695.31,22.82L702.69,21.46L709.2,21.37L712.25,20.29L717.23,16.9L708.87,16.52L709.48,14.82L722.02,11.92L729.1,10.91L735.3,11.27L738.47,8.33L749.93,6.7L767.13,5.51L774.98,5.65L781.33,7.63L786.49,7.27L782.7,5.01L791.2,5.26L804.15,7.94L807.32,7.84L809.93,5.43L802.51,2.81L816.63,1.48L823.83,2.15L828.24,1.14L838.77,0.48L858.42,0ZM742.79,73.86L745.7,74.7L744.66,76.63L737.22,78.05L736.83,76.53L732.6,75.89L733.45,72.55L735.97,71.61L740.41,72.19Z" class="land" id="GL" title="Greenland"/>
    <path d="M442.97,436.47L440.81,450.37L442.93,450.39L446.89,451.56L441.82,455.8L440.08,457.8L440.2,459.68L438.87,461.05L435.45,463.73L433.85,465.96L430.83,464.57L427.5,464.6L423.57,462.41L421.25,460.12L422.66,456.3L422.17,454.51L425.58,449.1L433.52,449.08L433.97,446.78L432.45,444.48L428.65,440.51L431.21,440.54L431.75,436.46Z" class="land" id="GT" title="Guatemala"/>
    <path d="M477.57,456.88L475.99,456.77L471.48,458.78L468.8,459.48L466.94,458.21L464.87,460.26L464.63,461.58L460.53,465.18L458.39,464.1L457.12,465.72L454.63,465.77L454.47,469.02L452.1,471.34L450.37,471.44L449.68,468.73L447.7,468.4L448.6,465.41L446.04,464.15L444.1,465.14L440.69,461.68L438.87,461.05L440.2,459.68L440.08,457.8L441.82,455.8L446.89,451.56L450.8,450.25L455.05,451.32L458.46,451.17L462.16,449.58L463.93,450.33L467.14,449.67L471.4,450.88L474.02,455.24L476.45,455.1Z" class="land" id="HN" title="Honduras"/>
    <path d="M551.17,422.69L551.44,426.95L550.4,427.99L550.59,429.83L548.91,430.81L550.17,432.66L549.9,434.85L548.25,433.48L543.19,434.03L540.14,433.32L537.87,433.76L536.91,434.83L533.88,432.63L535.31,430.34L539.09,431.35L543.94,431.99L546.84,430.25L544.32,427.38L545.29,424.7L543.29,423.47L543.14,421.35L546.08,421.37L548.5,422.5Z" class="land" id="HT" title="Haiti"/>
    <path d="M516.54,431.82L518.65,432.31L521.88,434.03L522.54,435.76L520.58,436.1L518.65,435.32L515.41,436.34L512.95,436.02L510.68,431.89L512.84,431.36Z" class="land" id="JM" title="Jamaica"/>
    <path d="M605.45,440.63L604.23,439.92L604.54,439.46L605.01,439.81Z" class="land" id="KN" title="Saint Kitts and Nevis"/>
    <path d="M614.22,465.35L613.23,464.67L614.37,463.98Z" class="land" id="LC" title="Saint Lucia"/>
    <path d="M603.65,434.64L602.96,434.64L603.36,434.3Z" class="land" id="MF" title="Saint Martin"/>
    <path d="M404.24,377.43L403.2,380.16L400.65,384.3L398.78,388.83L396.68,396.69L396.32,399.33L395.21,401.63L395.25,409.04L397.19,416.2L400.4,421.6L400.83,425.41L402.38,427.5L403.06,429.67L406.92,430.06L409.08,431.41L410.28,433.87L412.49,433.72L416.63,432.02L420.77,431.74L421.98,430.7L426.6,429.95L427.4,431.73L429.04,431.83L430.79,430.61L430.65,428.61L434.81,425.35L435.49,422.61L436.82,421.29L437.66,416.62L438.96,413.34L442.51,411.42L448.41,410.41L453.19,408.95L458.37,410.17L459.31,408.91L460.94,410.36L460.96,412.32L460.11,414.25L457.53,416.98L455.6,419.92L455.33,423.67L452.15,431.9L451.42,433.19L449.75,429.93L448.91,431.72L447.49,431.91L445.29,435.39L443.83,435.14L442.97,436.47L431.75,436.46L431.21,440.54L428.65,440.51L432.45,444.48L433.97,446.78L433.52,449.08L425.58,449.1L422.17,454.51L422.66,456.3L421.25,460.12L418.19,455.83L412.15,449.22L409.53,447.54L407.69,448.14L406.42,446.58L402.55,449.79L397.68,451.82L395.82,452.12L391.9,450.26L388.44,449.84L386.3,448.11L384.04,447.4L382.77,445.74L377.24,444.4L375.39,442.94L370.61,440.92L366.45,437.65L365.22,435.7L360.14,434.68L355.88,432.78L353.57,429.14L347.85,425.66L345.33,420.83L344.7,417.86L347.45,416.46L346.29,415.03L348.29,412.54L348.96,409.86L347.77,408.93L346.95,406.25L347.44,403.79L346.98,401.61L344.09,397.49L341.88,392.52L339.03,389.05L339.33,388.11L336.87,387.2L335.24,383L333.34,381.33L331.76,380.92L330.02,379.13L330.29,376.91L332.12,374.93L331.12,371.99L329.47,372.05L329,369.32L326.23,367.55L326.01,365.15L326.92,363.62L323.56,362.87L322.25,359.84L321.17,359.22L319.35,355.24L319.48,353.42L317.85,348.22L317.99,345.93L317.32,342.35L318.53,339.55L315.46,338.34L314.16,336.28L312.69,337.17L309.24,335.06L307.57,339.72L307.65,344.44L306.98,346.38L307.78,349.34L310.23,352.18L311.16,355.9L312.67,356.84L312.78,358.92L313.94,359.55L313.62,363.9L315.48,366.09L316.38,370.13L318.55,372.02L318.96,376.24L318.62,378.67L319.72,380.58L320.65,385.94L319.98,387.38L320.51,390.11L323.62,390.4L326.19,395.43L325.56,397.36L322.24,399.74L321.43,398.88L320.67,394.53L319.25,393.57L317.37,390.9L315.41,389.27L312.29,385.57L312.3,384.09L313.49,380.87L313.51,377.79L312.81,375.6L309.59,372.92L308.98,370.93L306.37,371.91L305.36,370.13L302.19,368.31L302.02,366.76L299.88,364.55L304.3,363.56L306.89,359.54L306.66,358.24L303.16,352.58L299.87,349.88L300.17,345.91L299.34,345.1L299.79,342.28L298.76,341.07L299.05,339.38L297.91,336.76L298.8,334.67L297.79,333.62L297.37,329.72L312,328.41L310.87,329.91L323.26,335.28L330.75,338.5L337.05,338.49L347.55,338.46L348.5,335.2L358.91,335.27L359.62,336.9L363.96,342.25L365.41,343.42L366.19,347.14L366.38,350.46L368.18,352.57L372.58,355.36L375.16,353.8L376.88,350.7L380.08,349.05L384.85,349.73L388.24,354.88L389.12,360.25L391.36,364.59L392.55,365.91L392.09,369.62L393.17,373.9L398.75,376.68L400.41,376.84L402.83,378.09Z" class="land" id="MX" title="Mexico"/>
    <path d="M608.1,444.25L608.03,444.68L607.62,444.54L607.65,444.17Z" class="land" id="MS" title="Montserrat"/>
    <path d="M614.98,460.49L613.5,460.69L612.72,458.25L614.54,458.75Z" class="land" id="MQ" title="Martinique"/>
    <path d="M477.57,456.88L476.52,458.65L476.92,461.6L475.3,464.09L473.89,468.97L473.67,475.53L471.79,479L472.35,481.09L470.82,483.56L472.01,486.33L470.88,487.58L468.68,487.31L467.67,485.87L465.53,485.35L464.18,486.12L459.9,484.4L459.07,485.28L457.88,483.33L454.97,480.39L453.45,477.37L448.28,471.98L450.37,471.44L452.1,471.34L454.47,469.02L454.63,465.77L457.12,465.72L458.39,464.1L460.53,465.18L464.63,461.58L464.87,460.26L466.94,458.21L468.8,459.48L471.48,458.78L475.99,456.77Z" class="land" id="NI" title="Nicaragua"/>
    <path d="M475.44,506.87L474.83,504.72L475.48,502.03L475.65,496.92L478.04,496L479.17,497.07L479.78,499.93L482.63,500.47L485.2,501.75L488.44,500.98L490.34,499.57L492.99,498.64L496.57,495.85L503.15,497.23L505.69,498.46L509.86,502.62L509.57,504.29L510.63,507.13L509.66,509.5L507.15,510.71L506.08,512.93L504.51,510.66L503.13,506.94L505.16,504.64L502.98,504.15L502.77,502.84L499.36,500.18L497.16,500.12L495.57,501.24L495.08,503.08L492.65,504.85L491.12,505.29L490.49,506.82L492.71,509.78L490.32,512.61L487.77,513L486.77,509.46L485.29,510.07L483.86,509.38L482.62,506.38L476.78,505.05Z" class="land" id="PA" title="Panama"/>
    <path d="M584.78,431.91L587.81,432.38L587.76,433.38L585.43,435.32L582.72,435.49L577.92,435.18L578.51,431.52Z" class="land" id="PR" title="Puerto Rico"/>
    <path d="M438.87,461.05L440.69,461.68L444.1,465.14L446.04,464.15L448.6,465.41L447.7,468.4L446.84,469.98L443.25,469.96L438.72,467.83L435.52,467.23L433.85,465.96L435.45,463.73Z" class="land" id="SV" title="El Salvador"/>
    <path d="M677.52,226.89L677.24,225.27L677.8,225.25L677.45,226.07Z" class="land" id="PM" title="Saint Pierre and Miquelon"/>
    <path d="M602.96,434.64L603.65,434.64L603.54,435Z" class="land" id="SX" title="Sint Maarten"/>
    <path d="M553.69,407.87L552.68,407.68L552.89,407.24L553.71,407.37Z" class="land" id="TC" title="Turks and Caicos Islands"/>
    <path d="M611.93,491.97L610.91,492.38L608.96,491L609.28,489.05L608.57,487.55L611.99,488.11Z" class="land" id="TT" title="Trinidad and Tobago"/>
    <path d="M293.65,148.97L295.84,149.09L295.26,151.52L293.42,154.48L289.37,156.35L291.22,153.51L291.11,152.47ZM288.64,148.42L291.42,149.71L288.26,153.31L286.88,152.3L283.94,152.22L282.91,150.24L283.84,149.41ZM197.49,151.22L199.65,151.04L197.9,153.69L195.97,153.7L193.34,155.14L188.06,156.81L184.83,157.27L185.29,154.49L189.24,152.47L191.4,152.75ZM288.06,154.38L286.72,158.63L284.61,161.43L283.52,157.93L285.23,156.55L283.63,154.61L287.01,153.17ZM294.68,156.71L296.22,157.54L292.83,160.33L290.79,160.34L292.39,156.27ZM290.64,157.78L290.05,159.54L287.44,160.68L288.6,157.82ZM296.88,162.73L293.85,162.94L297.36,160.11ZM290.37,161.18L292.18,161.31L293.18,165.58L292.27,166.96L293.29,168.82L291.36,171.57L288.27,169.91L288.35,164.84L290.04,164ZM299.88,166.92L298.28,168.43L294.23,168.73L298.11,164.61L300.57,163.77ZM125.61,170.37L124.81,172.04L120.35,172.82L116.34,174.3L115.95,172.91L119.45,171.05L123.88,169.98ZM102.64,177.73L102.1,179.43L99.34,180.64L97.68,180.29L101.07,177.31ZM476.37,214.36L478.46,214.4L485.01,218.29L489.16,217.28L489.42,217.96L493.06,217.86L496.23,218.72L503.02,216.56L508.24,219.76L518.67,226.45L519.29,229.58L521.58,228.93L521.62,232.22L523.72,231.99L523.1,234.12L527.79,237.45L525.96,250.11L523.3,253.67L521.51,256.87L517.79,259.19L516.67,261.52L518.59,263.68L520.02,263.68L527.8,259.85L534,258.72L541.81,255.6L542.49,250.85L545.39,249.72L556.14,249.69L559.07,246.63L568.11,240.64L570.98,239.89L581.89,239.88L588.9,239.87L590.55,237.86L592.89,238.05L597.59,233.49L598.58,231.04L600.88,227.8L606.71,222.48L608.46,224.31L611.65,223.24L613.88,225.16L611.21,234.94L612.98,235.64L612.12,237.96L613.86,238.72L613.41,240.74L608.08,243.81L606.1,243.43L603.83,244.83L602.11,243.95L600.85,246.35L596.2,248.43L593.94,248.71L591.19,251.69L588.43,255.44L588.66,256.55L586.24,258.97L587.8,259.7L588.57,264.02L586.96,264.69L582.75,263.98L581.73,265.8L573.95,266.62L569.27,268.37L564.8,271.34L565.81,273.35L563.43,277.68L561.35,280.13L558.2,281.87L555.94,280.47L555.25,282.25L556.23,286.5L551.42,292.8L551.63,290.47L549.17,287.53L550.33,283.99L548.38,283.65L547.81,286.29L548.01,290.91L547.06,294.79L546,295.83L547.81,298L548,299.85L545.85,302.58L543.48,304.39L547.39,305.32L546.96,307.15L544.13,309.28L542,309.88L540.09,312.27L539.78,313.96L537.43,313.96L533.1,317.02L530.95,319.73L527.56,320.01L525.19,321.56L522.24,325.36L517.01,329.1L515.71,329.42L511.3,332.77L508.59,335.74L508.45,337L505.38,341.76L505.37,349.61L506.39,355.01L507.84,359.1L506.67,361.32L507.9,368.39L508.34,369.29L508.19,373.02L506.75,378.36L504.68,382L502.23,383.27L500.25,382.09L499.27,378.37L497.35,377.27L497.02,373.99L494.38,369.46L493.96,364.67L493.04,363.75L495.04,359.11L495.67,356.19L492.68,352.09L490.98,348.65L489.17,347.36L486.85,348.78L480.91,350.44L481.01,349.01L479.06,346.9L476.83,345.7L476.59,344.53L472.15,344.99L467.14,346L465.2,345.45L460.7,345.1L458.11,345.6L456.22,346.91L452.77,345.36L451.26,347.09L455.8,348.73L454.54,350.88L455.45,352.32L458.09,353.9L455.86,354.87L453.34,352.05L451.56,354.05L450.08,353.23L447.6,354.42L444.63,353.28L444.75,351.64L441.93,349.3L439.27,351.33L436.88,351.04L434.18,349.72L431.06,349.79L428.48,350.51L423.26,352.68L420.27,355.64L415.17,358.37L412.62,358.32L411.57,359.97L407.63,361.59L407.11,363.51L405.11,366.85L404.08,367.61L403.34,370.13L403.36,374.27L404.24,377.43L402.83,378.09L400.41,376.84L398.75,376.68L393.17,373.9L392.09,369.62L392.55,365.91L391.36,364.59L389.12,360.25L388.24,354.88L384.85,349.73L380.08,349.05L376.88,350.7L375.16,353.8L372.58,355.36L368.18,352.57L366.38,350.46L366.19,347.14L365.41,343.42L363.96,342.25L359.62,336.9L358.91,335.27L348.5,335.2L347.55,338.46L337.05,338.49L330.75,338.5L323.26,335.28L310.87,329.91L312,328.41L297.37,329.72L297.58,325.62L297.17,324.2L294.59,321.1L292.7,320.94L292.81,318.96L289.3,318.28L287.35,316.06L282.35,315.67L281.66,314.89L283.02,311.29L282.45,309.19L279.12,302.2L280.74,299.3L280.79,297.8L279.28,297.43L278.56,295.86L279.94,291.31L277.79,289.44L278.22,288.14L275.96,283.59L277.83,276.72L276.53,273.91L277.02,272.18L279.91,268.74L281.62,265.76L282.42,260.47L283.67,257.16L283.69,255.53L288.91,249.25L293.23,241.5L296.82,235.82L298.78,231.83L298.59,230.84L301.02,228.15L300.32,227.55L302.09,221.1L301.68,219.37L303.44,216.06L306.26,217.51L312.11,218.06L312.44,219.53L315.22,218.62L315.99,211.72L332.94,211.72L346.99,211.72L358.69,211.72L375.08,211.72L389.13,211.72L398.49,211.72L407.86,211.72L421.91,211.72L433.61,211.72L450,211.72L467.68,211.73L468.86,209.09L470.32,209.54L469.91,213.48L474.29,215ZM575.35,268.62L570.8,271.01L567.41,271.45L567.14,270.02L569.13,269.1ZM19.72,406.65L17.41,405.86L19.07,404.54L20.44,404.57ZM28.33,410.1L26.16,411.1L25.7,409.17L27.83,408.33ZM35.3,413.9L36.62,413.76L37.07,415.98L35,416.18ZM37.31,427.81L35.57,427.39L36.07,425.13L35.76,422.47L37.64,420.55L38.06,418.66L41.41,420.7L42.97,424.1L41.08,425.58L39.41,426.01ZM326.77,75.65L312.67,90.02L302.32,100.99L293.85,110.26L283.87,121.51L272.5,134.83L277.1,135.6L279.4,134.65L282.52,134.55L280.58,136.26L284.15,141.91L283.25,144.05L288.97,142.4L292.66,139.41L297.97,138.17L299.02,139.58L298.07,141.5L300.85,145.36L301.23,148.56L301.48,158.13L302.05,159.43L306.04,161.91L306.78,164.22L304.75,166.27L303.95,168.22L301.74,170.06L298.64,171.81L297.36,171.55L297.95,169.17L299.89,167.83L301.36,165.25L300.74,163.39L294.43,165.35L298.53,162.39L297.74,156.46L294.99,155.58L297.13,152.08L297.09,148.64L294.64,147.03L290.91,148.34L289.67,146.21L287.13,147.71L284.24,148.41L281.02,146.18L279.52,142.83L274.55,139.79L273.38,138.61L270.3,138.46L267.28,137.01L261.48,136.17L256.63,136.72L252.85,134.6L248.59,133.67L246.66,130.22L243.09,130.29L238.33,131.21L235.11,135.7L232.9,136.88L227.86,136.8L221.43,139.66L219.45,139.67L215.66,141.79L211.34,142.16L212.04,140.72L216.03,136.88L218.74,135.47L222.58,131.94L228.71,130.1L229.49,128.29L221.49,130.84L220.48,131.86L212.82,135.24L210.41,137.33L208.37,137.63L200.31,141L198.66,142.61L201.41,144.17L195.55,146.77L192.44,148.99L187.67,149.94L181.06,152.93L176.02,154.54L174.74,156.03L166.25,159.19L160.73,160.53L160.07,162.14L156.16,163.55L148.26,165.07L144.87,166.46L140.64,167.49L137.17,167.59L132.06,169.9L125.73,171.08L136.9,165.36L143.62,163.32L144.07,165.01L146,164.31L150.13,161.35L157.66,158.83L166.26,154.74L171.75,152.71L177.05,147.24L181.76,145.15L181.74,144.21L175.78,145.79L174.57,144.4L169.29,146.92L168.94,143.99L166.23,143.07L158.75,145.59L156.37,145.98L158.69,143.3L159.14,141.53L162.03,139.51L163.62,135.63L160.75,136.87L156.53,137.82L152.78,138.08L152.09,134.81L150.1,133.25L155.15,130.96L152.66,129.59L154.66,125.03L157.44,124.6L158.49,123.1L163.52,120.69L172.35,115.91L174.16,115.61L176.46,117L186.02,114.38L191.05,113.71L194.35,112.04L196.15,109.28L198.58,107.2L199.61,105.01L196.09,105.69L187.99,108.5L184.96,107.14L178.27,107.95L172.97,107.18L173.98,104.99L173.13,103.92L175.59,102.39L172.56,101.86L170.86,100.37L177.32,99L180.12,97.9L193.66,94.75L197.84,94.9L194.43,96.87L195.17,97.7L204.09,97.89L206.68,96.65L214.25,95.59L212.87,94.02L209.49,94.77L208.28,93.83L210.13,91.66L204.98,91.8L202.68,90.75L203.59,88.2L200.63,85.49L198.67,84.8L198.57,83.15L202.67,80.32L212.06,80.01L220.64,77.25L224.24,74.99L233.32,71.52L237.26,71.68L249.13,68.23L255.03,68.42L263.96,65.58L269.94,66.9L272.42,68.69L277.79,67.9L281.62,68.63L280.58,70.79L283.72,70.99L293.39,70.5L298.86,72.21L307.31,72.56L309.28,73.47L319.23,72.82L324.87,75.63ZM140.21,113.19L145.74,112.81L146.35,114.14L149.95,116.19L144.81,116.69ZM203.06,147.65L203.5,148.97L198.04,150.07L196.49,149.47L202.25,147.05ZM145.11,134.29L146.72,134.74L144.85,137.38L140.91,138.3L137.57,136.75L143.37,134.29Z" class="land" id="US" title="United States"/>
    <path d="M612.18,470.14L611.56,469.77L612.22,468.71L612.55,469.16Z" class="land" id="VC" title="Saint Vincent and the Grenadines"/>
    <path d="M595.43,431.77L595.28,431.42L595.9,431.39Z" class="land" id="VG" title="British Virgin Islands"/>
    <path d="M592.7,436.62L593.13,437.26L591.88,437.29L591.95,436.78Z" class="land" id="VI" title="US Virgin Islands"/>
    <path d="M568.21,477.46L567.72,477.27L567.24,476.65L567.28,476.33L568.17,476.84Z" class="land" id="BQ" title="Bonair, Saint Eustachius and Saba"/>
  </g>
</svg>