<?xml version="1.0" encoding="UTF-8"?>
<svg xmlns="http://www.w3.org/2000/svg" width="960" height="513" viewBox="0 0 960 513">
  <!-- Created using SVG Map Generator: dojo.amcharts.com/svg-map-generator -->
  <style>
    .land { fill: #ffffff; stroke: #299e8b; stroke-width: 1.3; }
  </style>
  <rect x="0" y="0" width="960" height="513" fill="#417ea4"/>
  <g id="polygons">
    <path d="M632.84,313.93L628.36,310.77L625.41,311.58L622.92,319.6L622.84,321.94L624.95,325.53L626.24,330.09L622.93,329.12L621.2,333.29L619.42,330.83L620.4,326.1L620.05,323L621.07,320.01L619.59,314.8L620.89,308.91L620.55,301.98L621.19,296.71L618.91,292.83L619.39,280.44L622.69,279.59L625.97,280.78L626.44,286.1L625.65,290.18L627.06,294.84L628.76,303.7L631.65,312.64ZM846.43,158.98L842.77,165.21L835.51,167.44L835.5,171.68L832.16,175.47L831.76,179.93L818.38,172.09L817.26,166.92L812.73,165.3L806.83,166.77L804.16,161.6L798.89,171.46L798.89,168.72L798.89,165.95L798.89,163.16L798.89,160.34L798.89,157.49L798.89,154.61L798.89,151.71L798.89,148.77L798.89,145.81L798.89,142.81L798.89,139.79L798.89,136.73L798.89,133.65L798.89,130.52L798.89,127.37L798.89,124.18L804.18,127.17L811.08,133.7L820.77,140.8L824.99,147.83L828.61,147.33L837.46,149.9ZM801.21,97.54L798.89,96.54L798.89,93.77L798.89,90.61L798.89,88.57L806.63,88.7L809.13,95.46ZM609.34,59.05L615.91,51.7L619.9,50.87L626.54,56.68L625.83,62.41ZM643.37,30.68L646.06,23.7L658.32,27.81L655.94,35.92L648.86,34.97ZM596.74,27.52L599.07,14.78L605.24,9.13L613.15,19L617.8,10.35L635.52,20.97L629.71,31.01L620.16,31.98L606.58,37.99L601.84,35.48ZM567.03,358.14L566.27,356.66L568.82,354.31L569.73,350.89L569.7,346.73L568.88,341.2L573.09,338.98L577.6,340.41L578.78,337.3L581.95,332.22L583.39,324.98L586.14,322.1L585.25,317.84L583.98,317.47L576.53,320.48L575.44,322.1L568.32,322.14L567.58,317.7L561.6,310.68L557.7,308.68L554.39,308.91L552.05,306.69L552.46,304.24L549.34,297.63L546.46,287.76L543.34,282.77L539.4,282.05L533.74,278.8L527.77,279.29L520.09,281.75L517.22,284.76L520.07,287.03L519.98,291.03L517.09,293.86L512.98,302.98L512.77,305.67L509.5,306.91L506.78,309.31L501.18,307.06L498.6,305.69L494.56,306.14L489.96,303.76L484.64,307.25L484.13,308.57L476.04,310.45L473.65,311.82L466.17,310.6L463.24,310.69L460.51,308.73L460.11,306.32L456.75,305.85L454.29,303.48L448.05,302.29L439.82,304.75L433.5,301.46L432.67,295.73L429.24,294.98L417.33,290.29L413.09,295.77L412.52,298.49L414.65,301.85L413.82,305.2L409.62,307.73L408.57,306.63L403.24,305.68L401.69,306.42L397.42,305.6L395.71,301.68L384.21,300.66L374.05,306.48L374.1,307.83L370.23,309.78L367.22,309.76L365.44,311.84L363.13,312.39L359.8,308.61L357.76,309.41L353.2,308.21L352.16,305.32L348.72,303.65L347.25,300.06L344.49,298.42L340.43,300.41L335.6,300.32L332.83,296.27L328.64,300.06L321.54,285.91L317.91,280.13L312.6,275.65L311.15,272.69L302.62,278L297.67,276.7L295.39,274.34L286.83,273.49L287.26,270.37L285.16,264.59L282.54,265.76L276.88,263.89L272.63,267.43L263.92,269.81L260.42,270.17L258.92,272.27L255.64,272.11L243.73,275.62L240.94,274.8L239.27,278.21L240.31,280.85L238.44,285.09L239.08,288.68L235.77,290.64L233.29,287.28L230.14,286.16L229.99,281.7L234.12,275.66L232.92,272.72L229.75,270.92L223.48,275.33L220.44,271.42L216.25,264.24L225.73,262.55L228.51,258.06L227.99,254.44L224.45,251.49L225.39,247.42L229.02,242.83L231.99,236.89L234.97,228.48L237.22,213.63L240.39,180.09L249.16,173.26L257.24,164.13L263.83,158.88L270.14,152.39L273.55,145.62L274.83,124.39L272.31,117.59L267.88,114.71L268.92,100.19L267.19,92.33L273.55,86.41L277.17,71.24L280.02,67.62L288.74,67.37L294.91,70.9L294.02,80.41L290.67,88.42L294.53,98.99L293.57,122.9L298.37,129.49L296.51,138.48L288.98,151.95L286.1,154.47L281.11,150.93L277.9,154.1L283.28,156.89L290.7,158.01L293.05,154.32L299.51,149.13L304.11,139.71L302.33,131.46L303.22,127.2L312.05,124.24L309.9,120.86L304.32,122.77L299.44,121.34L298.42,114.53L301.96,101.4L296.2,89.94L298.95,83.97L306.36,84.44L321.57,75.54L325.99,75.77L335.81,85.46L342.74,85.42L338.97,77.98L332.59,74.09L331.45,56.69L345.37,55.05L359.69,51.22L359.98,37.53L364.77,29.46L376.59,20.87L392.41,15.86L397.24,10.07L408.07,14.37L424.26,3.56L427.39,-6.92L441.62,-22.82L450.46,-17.53L445.84,-10.79L457.68,-5.58L460.48,-1.3L475,-1.39L482.08,5.48L487.96,15.82L486.75,26.44L478.54,36.5L469.01,43.87L461.29,54.59L459.18,63.18L469.08,58.27L470.99,49.12L479.85,54.34L488.85,56.42L494.86,54.45L509.49,56.33L509.4,61.99L515.6,66.32L531.64,66.7L532.32,57.27L537.41,53.57L543.19,57.48L553.17,58.13L558.57,62.9L561.03,76.78L556.08,80.27L562.68,94.71L571.14,97.87L575.84,83.21L583.09,90.92L591.46,87.19L598.19,91.2L609.38,86.14L608.94,73.97L620.51,70.43L636.61,73.25L641.82,76.98L650.32,76.83L655.49,79.11L660.65,88.83L669.63,98.82L685.55,95.06L695.62,95.87L701.8,99.45L704.88,106.24L704.06,113.47L712.08,118.93L716.02,115.31L736.92,117.33L740.72,114.08L743.89,120.37L748.63,122.91L750.04,126.75L756.55,123.36L754.16,109.05L767.28,112.94L780.58,112.44L784.43,115.35L793.47,118.83L798.89,124.18L798.89,171.46L791.93,176.6L786.82,178.33L792.54,183.51L792.81,188.22L795.75,191.7L796.87,196.89L794.75,200.63L786.43,197.92L776.64,202.83L773.09,205.62L765.3,209.13L763.12,213.11L754.73,219.14L751.79,222.63L748.23,217.6L743.11,217.82L737.59,220.36L734.72,218.67L728.76,222.33L722.62,222.87L720.88,224.81L720.24,229.75L714.92,237.53L714.07,240.84L717.92,247.17L718.03,251.9L720.16,252.96L720.53,256.84L716.74,256.6L714.65,258.04L712.98,264.15L714.75,269.12L712.97,270.9L708.49,270.84L705.2,273.68L704.37,280.11L698.31,284.09L697.63,288.49L695.94,292.28L689.56,298.61L688.4,294.81L687.76,286.91L686.51,283.05L683.95,264.23L685.96,252.9L689.47,248.96L692.86,243.3L700.32,237.74L704.13,231.36L713.1,221.82L714.27,219.28L722.29,214.52L723.68,210.36L724.86,196.8L720.52,198.29L719,205.94L716.1,207.22L708.45,216.09L700.51,204.63L692.95,205.86L685.35,215.86L681.2,219.7L678.02,224.82L682.13,229.22L676.69,231.83L673.64,230.56L671.38,233.08L667.19,231.06L664.82,227.7L656.15,225.41L654.09,228.04L646.15,230.06L641.11,228.57L625.82,229.13L620.34,232.53L610.82,244.29L604.52,250.57L599.96,257.62L592.83,264.2L588.54,267.56L591.31,270.49L595.76,270.19L595.22,275.74L598.25,278.86L604.52,277.23L604.68,272.63L609.44,272.97L617.41,281.66L616.31,288L617.8,289.46L614.05,296.64L613.05,301.75L613.25,308.71L611.62,316.41L607.86,320.9L604.17,326.67L602.99,330.2L599.93,335.13L595.78,339.47L592.68,343.99L591.42,344.75L587.92,350.29L581.24,354.77L578.65,355.62L574.63,354.43L571.89,352.38ZM423.98,-43.52L430.22,-61.22L435.86,-62.28L447.72,-40.4L440.23,-34.76L419.39,-29.72ZM411.4,-82.87L423.03,-72.3L420.1,-48.4L411.25,-48.21L397.6,-55.61L390.16,-64.94L399.17,-80.9ZM383.42,-85.68L390.13,-106.44L403,-115.35L412.54,-100.79L409.46,-84.88L397.19,-81.71L393.93,-78.54Z" class="land" id="RU" title="Russia - Asia"/>
    <path d="M202.16,498.64L198.59,500.38L198.07,503.5L193.87,505.6L190.13,506.51L184.59,508.46L181.39,511.31L178.2,511.32L175.46,513.19L172.55,514.14L167.23,514.75L164.32,517.28L162.34,517.27L159.11,518.24L156.97,517.17L155.83,515.1L156.06,513.3L155.16,511.5L154.83,508.86L153.4,503.51L153.79,499.99L155.51,498.44L155.63,495.14L156.7,494.37L159.05,495.31L164.83,494.81L166.05,495.34L172.05,495.59L173.43,497.14L175.62,496.36L176.27,494.71L179.05,491.21L183.14,489.1L196.95,487.04L200.48,495.43Z" class="land" id="YE" title="Yemen"/>
    <path d="M119.24,421.97L116.89,421.29L116.91,418.2L118.03,416.12L119.71,416.89Z" class="land" id="PS" title="Palestinian Territories"/>
    <path d="M460.23,474.45L457.58,475.58L457.32,476.74L454.13,477.22L453.39,480.59L450.88,482.34L449.17,487.19L450.43,489.49L453.3,492.25L453.2,493.37L456.5,497.41L460.49,500.2L464.22,504.85L465.45,508.08L466.48,512.25L466.34,515.04L467.05,516.6L466.08,518.1L465.99,522.53L464.21,524.49L461.63,526.32L456.88,528.88L454.77,528.71L453.64,532.5L448.61,535.11L447.77,536.5L445.4,536.5L445.52,532.66L446.38,530.46L443.55,528.82L445.55,528.23L448.07,526.29L451.74,525.94L450.27,524.59L450.25,522.96L452.55,522.73L452.9,521.45L458.03,519.45L457.89,516.24L458.5,514.27L457.21,510.94L458.1,508.13L458.72,505.45L456.54,503.05L457.52,501.61L454.22,499.57L453.31,497.14L449.5,493.28L448.4,491.22L444.92,488L441.06,485.33L441.7,483.66L444.12,483.98L445.91,481.95L444.29,478.79L441.79,477.31L439.83,478.54L437.34,477.56L435.41,473.67L432.74,470.04L434.58,468.2L436.87,469.66L438.26,468.08L443.3,468.38L445.29,467.33L447.54,465.11L450.21,467.27L453.5,467.34L453.47,469.95L454.38,471.96L457.31,473.94Z" class="land" id="VN" title="Vietnam"/>
    <path d="M286.14,358.48L285.64,359.93L282.54,362.76L285.37,364.7L288.31,365.49L290.11,363.75L294.18,367.15L296.32,367.67L289.64,371.58L286.19,371.05L283.48,369.72L285.22,367.95L283.76,366.19L280.33,368.47L278.93,367.6L275.04,374.75L270.96,374.83L269.22,377.15L272.51,380.61L273.66,384.43L271.41,387.67L271.15,389.53L265.33,388.49L265.58,384.56L261.06,383.2L254.24,378.89L247.13,373.39L243.61,365.75L236.81,364.95L235.09,363.84L235.17,360.64L234,358.19L232.08,358.16L228.03,355.1L226.48,355.68L224.39,358.85L222.36,359.07L220.39,360.96L220.65,364.69L215.75,364.32L215.75,349.69L215.74,340.64L227.87,336.89L239.41,344.61L244.03,350.5L249.75,349.62L255.56,350.12L257.73,349.06L263.35,353.74L262.92,360.03L265.22,360.09L266.7,365.45L271.98,365.11L273.65,368.47L277.29,364.04Z" class="land" id="UZ" title="Uzbekistan"/>
    <path d="M521.52,468.81L519.51,470.15L518.31,469.21L517.12,466.11L517.52,463.24L521.67,456.41L524.27,455.15L525.85,456.72L522.87,467.04Z" class="land" id="TW" title="Taiwan"/>
    <path d="M540.61,622.98L539.92,620.26L541.12,618.86L544.07,618.12L547.9,617.96L549.29,619.18L542.21,621.85Z" class="land" id="TL" title="Timor-Leste"/>
    <path d="M265.33,388.49L261.77,387.18L260.79,389.07L257.31,389.77L255.88,394.41L252.83,396.33L249.28,397.45L249.04,399.6L245.26,400.73L240.6,398.6L239.93,392.65L236.27,392.67L234.96,390.76L232.61,389.49L231.1,387.47L227.31,386.77L222.55,384.93L221.47,383.33L217.93,383.13L216.94,384.18L213.88,384.02L211.51,385.2L209.96,387.58L206.05,388.52L205.63,385.05L205.84,378.92L202.34,375.99L203.97,374.55L201.69,372.59L200.5,370.06L202.44,367.42L205.84,368.52L209.79,367.01L209.24,365.13L206.9,363.09L205.73,359.48L201.61,360.21L199.37,361.44L202.93,358.75L207.03,357.93L210.7,360.57L213.72,364.7L215.75,364.32L220.65,364.69L220.39,360.96L222.36,359.07L224.39,358.85L226.48,355.68L228.03,355.1L232.08,358.16L234,358.19L235.17,360.64L235.09,363.84L236.81,364.95L243.61,365.75L247.13,373.39L254.24,378.89L261.06,383.2L265.58,384.56Z" class="land" id="TM" title="Turkmenistan"/>
    <path d="M286.19,371.05L283.81,372.22L281.53,371.28L279.48,371.92L278.06,373.98L279.8,375.13L288.29,374.98L291.29,376.48L298.76,375.89L299.56,380.98L304,381.57L304.68,389.18L301.71,388.1L299.31,389.18L298.05,387.76L295.3,388.97L290.16,392.34L288.42,389.8L289.12,385.43L287.59,382.79L285.82,381.89L282.62,385.3L282.57,387.11L279.92,387.04L278.23,389.91L276.8,388.63L272.6,390.84L271.15,389.53L271.41,387.67L273.66,384.43L272.51,380.61L269.22,377.15L270.96,374.83L275.04,374.75L278.93,367.6L280.33,368.47L283.76,366.19L285.22,367.95L283.48,369.72Z" class="land" id="TJ" title="Tajikistan"/>
    <path d="M423.32,480.45L425.29,481.59L424.61,483.26L425.68,484.53L428.17,484.14L428.79,487.14L427.68,489.97L427.94,494.55L432.62,490.94L435.52,492.52L437.27,491.3L439.14,489.91L441.31,490.4L445.38,495.43L445.08,498.64L446.47,501.03L449.18,503.28L448.66,504.94L448.48,508.98L447.11,509.87L445.21,509.48L437.78,509.94L433.65,513.78L434.49,517.98L435.7,519.15L436.54,522.61L435.73,521.15L430.84,517.89L426.8,517.77L427.27,514.3L425.82,513.87L422.82,514.68L422.69,520.38L420.99,523.78L420.33,526.53L418.82,529.26L418.79,532.06L419.89,534.53L421.44,534.05L422.56,537.12L424.05,539.03L425.5,544.21L427.53,545.71L429.78,545.69L432.62,548.63L431.55,550.6L428.65,550.78L427.69,548.63L424.36,547.18L423.3,547.69L421.31,545.63L418.28,540.84L416.06,538.67L414.46,538.29L415.08,534.17L416.64,529.88L416.9,527.62L418.93,525.5L420.93,522.26L419.94,518.57L419.07,517.64L418.68,512.93L414.49,507.6L414.23,505.7L415.99,504.73L416.58,500.32L415.4,497.03L412.36,493.56L410.91,489.54L412.18,488.91L412.48,484.73L414.46,483.58L417.65,483.17L422.22,479.91Z" class="land" id="TH" title="Thailand"/>
    <path d="M151.72,389.91L149.04,392.91L147.29,393.39L146.49,395.97L147,398.48L146.25,403.5L143.87,405.99L134.86,411.43L125.67,417.33L123.57,416.94L120.82,415L121.21,411.09L121.55,409.76L124.57,406.62L123.86,404.38L121.71,404.3L121.56,400.88L120.71,398.88L122.42,397.38L124.92,391.71L128.58,392.64L132.13,391.13L134.83,392.35L137.61,392.42L143.95,389.97Z" class="land" id="SY" title="Syria"/>
    <path d="M441.41,571.78L440.7,572.09L439.9,571.81L440.69,571.24Z" class="land" id="SG" title="Singapore"/>
    <path d="M171.34,434.95L175.58,435.52L176.7,437.97L180.32,437.92L182.51,442.79L184.85,445.16L187.58,447.02L188.65,449.75L187.8,450.79L190.27,456.13L191.43,457.67L193.61,458.61L195.02,460.27L195.14,461.34L199.66,467.22L211.65,468.8L212.03,468.38L214.17,471.95L211.05,482.06L196.95,487.04L183.14,489.1L179.05,491.21L176.27,494.71L175.62,496.36L173.43,497.14L172.05,495.59L166.05,495.34L164.83,494.81L159.05,495.31L156.7,494.37L155.63,495.14L155.51,498.44L153.79,499.99L151.42,494.77L148.86,492.55L146.41,488.62L144.2,483.26L138.81,479.44L136.37,475.45L135.87,472.56L136.38,469.97L135.65,467.48L133.41,463.23L130.85,460.79L129.08,460.24L127.37,457.51L127.22,455.07L124.26,450.82L123,448.25L117.97,440.63L115.32,440.03L116.89,433.56L121.9,434.44L125.37,430.79L128.73,430.09L131.13,427.34L126.33,421.9L135.91,419.05L136.61,418.4L142.37,419.43L150.38,424.17L154.07,427.37L162.81,434.42Z" class="land" id="SA" title="Saudi Arabia"/>
    <path d="M193.61,458.61L191.43,457.67L191.24,454.27L192.37,451.47L194.9,451.88L195.18,455.81Z" class="land" id="QA" title="Qatar"/>
    <path d="M566.27,356.66L567.03,358.14L565.95,358.14L562.65,361.87L562.43,367.22L555.82,372.3L552.36,373.86L551.54,377.35L553.39,378.1L556.15,380.89L554.58,382.78L550.49,382.8L547.97,385.92L544.72,385.37L542.4,386.23L541.19,384.39L538.83,383.85L540.6,381.29L542.21,376.87L541.98,375.42L538.2,373.8L537.29,372.49L539.77,369.69L544.94,366.93L549.24,361.44L550.53,363.01L554.91,363.9L554.6,360.14L558.73,359.81L560.57,357.43L562.48,357.04L563.32,353.69Z" class="land" id="KP" title="North Korea"/>
    <path d="M685.84,609.56L684.72,610.39L682.96,609.72L682.29,607.76L680.32,606.17L681.33,604.13ZM666.84,598.27L669.14,598.47L669.12,600.31L667.3,601.6L667.91,603.27L664.96,604.19L663.61,605.93L659.85,607.61L656.2,607.68L650.31,605.19L650.05,604.15L659.24,604.11L662.31,603.58L664.07,601.4L665.69,601.03L665.13,598.5ZM615.4,621.1L615.4,607.94L615.39,596.98L615.39,590.32L616.39,590.4L621.21,592.55L627.31,594.19L629.7,595.85L631.87,596.04L634.74,598.51L635.9,598.68L637.93,600.75L638.33,603.81L640.92,604.49L643.89,605.92L645.5,606.07L647.5,607.8L647.7,609.44L644.29,609.72L643.54,610.7L644.62,612.83L647.13,615.19L649.03,616.27L649.59,618.42L651.17,620.78L654.29,620.87L654.09,622.47L657.24,625.36L660.97,626.53L660.1,628.35L657.91,628.06L656.68,626.99L647.34,625.64L642.3,620.65L639.18,616.14L634.2,614.84L632.02,613.73L627.8,616.73L625.36,617.26L626.64,620.35L623.26,622.1L621.3,621.34L616.14,621.59ZM671.78,600.43L670.44,599.22L670.05,596.84L672.02,597.36L672.56,598.53Z" class="land" id="PG" title="Papua New Guinea"/>
    <path d="M545.02,534.02L546.49,536.29L547.04,541.1L547.72,543.87L545.36,546.31L544.16,543.47L542.17,546.01L543.43,549.88L542.43,551.37L538.58,549.79L535.95,547.87L535.51,545.08L536.56,543.17L535.44,541.9L533.2,541.22L532.72,543.12L526.8,541.2L527.77,540.17L530.46,539.56L532.93,536.96L536.65,539.02L537.71,537.42L539.02,537.63L539.67,535.68L542.8,534.88L542.74,531.93ZM538.38,531.8L535.28,532.58L536.4,530.14ZM531.5,535.25L528.83,533.25L528.4,530.97L530.2,530.37L530.02,528.38L530.81,526.54L533.55,527.05L531.64,531.43L532.33,533.85ZM504.13,538.22L504.32,536.92L507.91,533.9L512.19,529.09L513.3,526.74L515.29,528.15L512.98,530.49L511.05,531.18L509.42,534.33ZM538.29,524.36L539.96,524.22L540.35,527.03L541.48,529.52L539.26,529.98L539.29,527.05L537.68,526.37ZM528.52,523.05L531.63,523.44L529.8,526.85L527.11,527.81L526.01,526.62L526.67,522.92ZM541.41,518.66L542.81,520.28L542.43,521.43L543.24,525.37L541.38,525.31L539.74,522.28L537.68,520.47L536.97,518.46ZM520.09,514.07L522.43,514.3L523.93,515.76L524.02,518.13L522.59,520.15L521.11,518.74L519.17,515.13ZM521.96,488.93L525.46,490.52L527.59,489.99L526.89,493.19L528.62,496.3L526.82,500.91L524.28,502.14L523.32,505.12L524.75,507.97L525.24,511L528.49,509.99L530.21,510.34L531.97,512.77L536.26,516.21L535.87,518.47L532.34,516.18L531.65,514.25L528.98,512L528.09,514.01L525.14,511.86L522.43,513.3L519.68,510.64L520.95,508.08L517.16,507.42L515.98,500.22L517.53,501.58L518.7,497.13L518.46,493.77L519.6,489.47Z" class="land" id="PH" title="Philippines"/>
    <path d="M318.35,399.32L314.83,401.54L312.69,403.69L308.53,405.02L301.91,403.52L300.31,404.15L301.2,410.67L300.47,412.16L303.59,416.21L306.76,417.54L302.89,420.68L303.47,424.42L300.02,427.69L299.6,429.55L297.59,430.42L295.33,435.31L292.7,436.8L290.48,441.02L285.15,442.26L283.58,440.68L279.65,445.2L279.19,447.15L282.42,448.9L282.05,451L282.93,452.9L284.75,454.38L286.61,458.2L286.59,459.68L284.26,459.59L280.35,460.86L275.71,460.38L275.69,461.93L273.06,462.48L270.72,462.72L269.04,460.85L268.39,457.84L266.18,457.3L266.16,455.4L264.89,453.59L261.37,454.73L257.13,454.98L256.57,455.62L252.16,454.57L251.08,455.49L246.76,455.26L245.55,455.88L242.13,455.53L243.46,450.1L246.14,448.43L249.56,447.88L249.55,444.78L247.66,444.79L247.55,440.8L245.73,438.6L242.3,436.59L240.86,433.46L238.63,430.83L246.31,433.27L251.44,432.78L253.94,433.35L255.92,432.42L258.62,432.45L263.71,430.95L264.75,425.09L267.22,422.93L268.93,423.41L270.3,421.82L273.29,420.16L276.37,421.11L278.29,419.44L278.12,416.68L279.34,413.4L283.02,411.44L281.07,408.46L286.63,407.59L286.22,404.86L289.31,401.12L288.4,397.36L287.26,396.15L289.31,393.85L294.02,391.55L299.41,391.2L303.04,390.42L306.82,391.06L309.15,392.6L309.64,396.29L311.08,397.49L316.7,399.43Z" class="land" id="PK" title="Pakistan"/>
    <path d="M217.68,456.69L218.87,459.32L221.59,462.14L227.98,463.58L233.73,470.84L231.71,474.5L229.47,476.45L227.49,480L224.61,480.81L223.92,484L224.38,486.94L221.39,487.51L218.94,489.07L218.45,491.16L217.13,492.23L213.41,492.76L211.46,496.72L206.78,496.88L204.62,498.09L202.16,498.64L200.48,495.43L196.95,487.04L211.05,482.06L214.17,471.95L212.03,468.38L212.1,466.7L214.73,460.5L216.16,457.93Z" class="land" id="OM" title="Oman"/>
    <path d="M366.83,441.51L366.24,445.41L367.08,447.57L366.58,449.12L362.97,449.48L361.69,448.46L358.64,448.36L353.59,447.48L350.73,445.9L350.38,444.54L347.94,443.52L344.17,444.15L337.42,441.52L331.46,437.35L329.03,436.38L330.59,431.53L333.45,429.17L335.37,428.23L338.31,428.28L338.86,429.44L343.54,432.16L345.55,434.48L347.99,434.28L348.59,435.94L352.79,439.13L355.4,439.34L358.84,441.2L359.52,440.36L362.28,441.68Z" class="land" id="NP" title="Nepal"/>
    <path d="M432.62,548.63L436.76,552.02L438.8,555.21L439.05,557.37L438.55,560.31L438.91,564.25L440.66,565.91L442.9,571.08L440.11,571.23L435.56,569.32L428.83,564.47L428.85,562.74L426.11,559.38L425.63,556.15L424.4,551.73L424.35,549.86L423.3,547.69L424.36,547.18L427.69,548.63L428.65,550.78L431.55,550.6ZM505.37,558.42L503.14,557.63L497.48,557.58L495.94,559.51L495.4,563.77L493.67,564.68L494.11,566.18L492.26,567.46L492.47,568.73L491.13,571.14L488.11,571.3L486.79,572.23L481.4,570.71L478.08,573.34L474.17,573.26L472.14,573.99L468.13,570.45L468.01,568.51L469.69,569.97L474.18,570.91L475.18,569.86L475.6,566.59L477.88,564.62L484.07,562.97L488.21,558.07L488.87,556.43L491.43,559.11L492.52,557.37L492.08,555.84L493.39,554.98L493.92,554.98L495.71,554.27L495.24,552.55L497.01,551.97L498.62,549.17L500.3,547.31L504.05,546.58L505.54,547.36L505.57,550.06L507.39,549.53L510.17,551.71L513.13,552.56L512.7,554.03L508.24,555.31L509.71,557.51Z" class="land" id="MY" title="Malaysia"/>
    <path d="M501.18,307.06L495.89,320.49L497.49,322.3L501.55,321.02L504.32,322.54L506.29,320.19L509.72,320.22L515.42,326.03L515.4,329.77L508.82,329.01L504.24,331.44L500.61,331.93L499.1,335.27L496.47,337.54L491,338.17L486.63,342.29L478.68,340.18L476.35,344.79L478.85,349.08L474.49,351.48L471.64,355.13L467.14,357.16L461.16,357.22L454.57,358.23L447.18,361.71L443.89,360.83L440.19,361.63L437.19,360.02L432.02,358.69L430.8,357.1L422.66,355.75L420.24,356.45L409.6,355.03L405.74,355.47L403.52,352.35L400.88,345.37L397.88,344.9L392.91,341.26L388.83,340.37L383.17,340.1L379.85,339.3L378.83,337.1L380.43,333.65L379.81,327.38L377.19,322.37L373.66,320.08L371.24,320.09L366.22,316.19L365.44,311.84L367.22,309.76L370.23,309.78L374.1,307.83L374.05,306.48L384.21,300.66L395.71,301.68L397.42,305.6L401.69,306.42L403.24,305.68L408.57,306.63L409.62,307.73L413.82,305.2L414.65,301.85L412.52,298.49L413.09,295.77L417.33,290.29L429.24,294.98L432.67,295.73L433.5,301.46L439.82,304.75L448.05,302.29L454.29,303.48L456.75,305.85L460.11,306.32L460.51,308.73L463.24,310.69L466.17,310.6L473.65,311.82L476.04,310.45L484.13,308.57L484.64,307.25L489.96,303.76L494.56,306.14L498.6,305.69Z" class="land" id="MN" title="Mongolia"/>
    <path d="M428.1,474.15L426.3,475.44L423.91,478.37L423.32,480.45L422.22,479.91L417.65,483.17L414.46,483.58L412.48,484.73L412.18,488.91L410.91,489.54L412.36,493.56L415.4,497.03L416.58,500.32L415.99,504.73L414.23,505.7L414.49,507.6L418.68,512.93L419.07,517.64L419.94,518.57L420.93,522.26L418.93,525.5L416.9,527.62L416.64,529.88L415.52,527.55L416.51,526.07L416.82,523.17L416.04,515.61L414.49,512.84L412.45,507.38L411.55,499.19L410.4,499.26L409.47,496.61L406.86,499.05L402.82,500.99L401.06,503.17L398.96,502.7L397.29,500.4L395.54,501.2L397.3,494.11L396.56,490.99L394.86,487.55L393.14,486.89L394.52,484.83L391.53,481.75L389.84,481.66L388.58,479.22L386.65,478.07L385.97,475.54L387.92,474.66L387.83,472.07L389.66,471.94L390.59,470.13L390.2,468.31L391.55,466.2L391.27,461.63L395.13,462.38L397.86,456.33L397.46,454.45L399.85,451.15L399.84,448.24L404.22,444.97L407.06,444.32L410.21,441.15L410.15,439.65L411.16,438.09L413.8,440.06L414.74,443.21L416.4,443.09L416.78,448.31L416.41,451.8L412,456.4L411.13,459.21L411.86,462.27L414.34,461.18L416.93,461.15L417.4,465.9L419.64,466.38L419.62,469.43L418.95,471.32L422.35,471.82L423.75,474.68L426.67,473.71Z" class="land" id="MM" title="Myanmar"/>
    <path d="M298.2,558.45L298.01,558.42L298.16,558.12L298.27,558.07Z" class="land" id="MV" title="Maldives"/>
    <path d="M486.11,470.97L486.19,470.74L486.44,470.82Z" class="land" id="MO" title="Macau"/>
    <path d="M328.62,531.68L329.89,531.76L332.05,533.81L335.16,538.26L335.45,539.74L337.52,543.68L337.45,545.52L336.4,547.77L332.11,549.88L329.15,549.06L328.04,545.86L327.73,542.27L328.37,536.03L329.26,534Z" class="land" id="LK" title="Sri Lanka"/>
    <path d="M121.21,411.09L119.05,413.09L117.63,413.05L121.71,404.3L123.86,404.38L124.57,406.62L121.55,409.76Z" class="land" id="LB" title="Lebanon"/>
    <path d="M432.74,470.04L435.41,473.67L437.34,477.56L439.83,478.54L441.79,477.31L444.29,478.79L445.91,481.95L444.12,483.98L441.7,483.66L441.06,485.33L444.92,488L448.4,491.22L449.5,493.28L453.31,497.14L454.22,499.57L457.52,501.61L456.54,503.05L458.72,505.45L458.1,508.13L454.81,510.03L453.31,508.75L450.85,509.89L450.5,511.92L447.11,509.87L448.48,508.98L448.66,504.94L449.18,503.28L446.47,501.03L445.08,498.64L445.38,495.43L441.31,490.4L439.14,489.91L437.27,491.3L435.52,492.52L432.62,490.94L427.94,494.55L427.68,489.97L428.79,487.14L428.17,484.14L425.68,484.53L424.61,483.26L425.29,481.59L423.32,480.45L423.91,478.37L426.3,475.44L428.1,474.15L428.5,475.89L430.76,476.26L430.94,473.09L429.91,470.68Z" class="land" id="LA" title="Lao People's Democratic Republic"/>
    <path d="M180.32,437.92L176.7,437.97L175.58,435.52L171.34,434.95L174.08,430.27L176.71,429.54L178.14,430.16L178.1,432.14Z" class="land" id="KW" title="Kuwait"/>
    <path d="M556.15,380.89L557.3,383.57L560.67,388.93L561.32,392.06L560.99,396.09L561.73,396.7L560.1,401.13L556.79,401.59L556.48,402.92L553.05,402.43L549.84,404.42L547.25,405.07L546.36,401.29L548.36,397.74L547.57,393.61L546.01,391.31L548.5,389.41L547.97,385.92L550.49,382.8L554.58,382.78Z" class="land" id="KR" title="South Korea"/>
    <path d="M443.55,528.82L442.78,528.2L439.35,527.89L440.24,526.53L439.35,525.3L437.56,526.42L437.44,523.79L436.54,522.61L435.7,519.15L434.49,517.98L433.65,513.78L437.78,509.94L445.21,509.48L447.11,509.87L450.5,511.92L450.85,509.89L453.31,508.75L454.81,510.03L458.1,508.13L457.21,510.94L458.5,514.27L457.89,516.24L458.03,519.45L452.9,521.45L452.55,522.73L450.25,522.96L450.27,524.59L451.74,525.94L448.07,526.29L445.55,528.23Z" class="land" id="KH" title="Cambodia"/>
    <path d="M329.69,358.85L329.72,359.85L325.38,361.43L321,364.01L319.88,365.86L313.77,366.45L312.15,369.75L309.29,370.65L307.94,368.79L300.45,372.25L300.09,374.93L298.76,375.89L291.29,376.48L288.29,374.98L279.8,375.13L278.06,373.98L279.48,371.92L281.53,371.28L283.81,372.22L286.19,371.05L289.64,371.58L296.32,367.67L294.18,367.15L290.11,363.75L288.31,365.49L285.37,364.7L282.54,362.76L285.64,359.93L286.14,358.48L287.59,355.39L290.23,354.82L295.11,356.49L297.77,356.29L298.41,353.66L301.48,352.13L305.42,354.29L314.34,353.86L324.77,355.23L326.31,357.15Z" class="land" id="KG" title="Kyrgyzstan"/>
    <path d="M363.13,312.39L360.46,312.95L359.5,316.37L355.74,317.39L354.69,320.7L355.3,325.3L351.21,328.23L343.72,325.78L342.83,326.83L339.64,337.13L340.36,339.78L336.24,338.53L328.98,340.56L330.85,342.29L330.37,346.56L332.4,352.64L329.48,355.82L329.69,358.85L326.31,357.15L324.77,355.23L314.34,353.86L305.42,354.29L301.48,352.13L298.41,353.66L297.77,356.29L295.11,356.49L290.23,354.82L287.59,355.39L286.14,358.48L277.29,364.04L273.65,368.47L271.98,365.11L266.7,365.45L265.22,360.09L262.92,360.03L263.35,353.74L257.73,349.06L255.56,350.12L249.75,349.62L244.03,350.5L239.41,344.61L227.87,336.89L215.74,340.64L215.75,349.69L215.75,364.32L213.72,364.7L210.7,360.57L207.03,357.93L202.93,358.75L199.37,361.44L199.86,355.22L196.32,354.26L193.77,350.57L191.55,345.93L191.69,343.07L194.3,338.22L199.55,337.94L202.39,332.6L202.55,329.34L201.36,327.38L197.94,328.17L193.19,326.31L183.81,331.53L182.76,328.62L178.76,321.89L173.98,320.47L171.95,317.2L173.61,312.3L172.61,310.37L175.08,303.76L176.86,302.99L180.29,307.02L182.21,305.67L182.05,301.34L185.29,297.75L188.81,296.21L191.38,292.89L195.21,294.74L198.61,293.25L199.74,294.76L203.34,294.75L208.44,300.01L209.87,298.39L214.91,301.34L218.17,298.23L222.64,299.21L226.95,297.9L229.42,300.65L233.78,301.49L241.2,299.41L241.08,295.06L236.85,293.48L235.77,290.64L239.08,288.68L238.44,285.09L240.31,280.85L239.27,278.21L240.94,274.8L243.73,275.62L255.64,272.11L258.92,272.27L260.42,270.17L263.92,269.81L272.63,267.43L276.88,263.89L282.54,265.76L285.16,264.59L287.26,270.37L286.83,273.49L295.39,274.34L297.67,276.7L302.62,278L311.15,272.69L312.6,275.65L317.91,280.13L321.54,285.91L328.64,300.06L332.83,296.27L335.6,300.32L340.43,300.41L344.49,298.42L347.25,300.06L348.72,303.65L352.16,305.32L353.2,308.21L357.76,309.41L359.8,308.61Z" class="land" id="KZ" title="Kazakhstan"/>
    <path d="M569.32,410.13L571.24,409.84L572.71,412.08L573.09,414.39L571.94,415.79L570.08,422.38L566.56,423.63L564.71,418.59L566.81,415.65L561.82,412.19L568.28,408.6ZM584.28,406.42L586.08,408.89L583.46,412.13L580.87,410.64L579.25,411.49L577.79,414.4L575.53,413.98L574.92,410.63L576.89,407.92L580.64,407.78L582.96,405.84ZM616.6,364.01L617.69,368.75L620.11,373.47L619.75,377.94L618.61,378.76L617.71,382.2L616.03,382.6L615.18,384.92L615.37,390.53L613.76,393.46L613.74,396.05L614.92,397.99L612.96,399.23L612.29,401.28L609.87,402.42L609.17,399.82L607.29,400.57L606.03,403.9L604.12,401.68L602.3,404.48L596.17,403.29L596.02,406.04L593.56,406.87L591.61,410.36L589.43,410.4L587.78,406.24L589.11,405.03L586.08,403.52L578.57,406.16L574.32,406.59L571.98,407.58L568.12,408.02L568.52,405.65L570.16,405.53L577.54,399.23L583.61,399.07L588.12,397.86L590.5,399.27L595.29,392.06L598.32,391.9L599.13,390.83L602.91,389.26L605.57,385.55L608,383.77L610.99,376.12L610.45,368.83L612.14,367.29L616.07,367.07ZM628.79,346.43L633.38,347.59L634.8,348.73L635.96,352.54L632.59,354.02L629.48,354.44L627.65,356.25L626.03,360.05L619.52,356.38L615.45,357.88L612.3,357.94L613.92,361.22L612.62,363.09L609.97,357.6L610.3,355.93L614.49,352.3L616.91,352.39L618.55,347.07L619.19,342.49L618.26,339.57L619.92,337.2L623.53,341.81Z" class="land" id="JP" title="Japan"/>
    <path d="M136.61,418.4L135.91,419.05L126.33,421.9L131.13,427.34L128.73,430.09L125.37,430.79L121.9,434.44L116.89,433.56L117,432.47L119.24,421.97L119.71,416.89L120.82,415L123.57,416.94L125.67,417.33L134.86,411.43Z" class="land" id="JO" title="Jordan"/>
    <path d="M120.82,415L119.71,416.89L118.03,416.12L116.91,418.2L116.89,421.29L119.24,421.97L117,432.47L113.57,423.46L114.66,421.39L115.61,419.67L117.63,413.05L119.05,413.09L121.21,411.09Z" class="land" id="IL" title="Israel"/>
    <path d="M163.04,389.71L165.84,396.31L167.54,397.35L169.47,401.44L167.33,403.33L166,408.04L169.53,412.23L169.37,413.75L175.29,416.73L177.44,420.23L176.74,424.59L178.29,424.66L178.32,427.53L180.82,430.27L178.14,430.16L176.71,429.54L174.08,430.27L171.34,434.95L162.81,434.42L154.07,427.37L150.38,424.17L142.37,419.43L136.61,418.4L134.86,411.43L143.87,405.99L146.25,403.5L147,398.48L146.49,395.97L147.29,393.39L149.04,392.91L151.72,389.91L153.68,388.35L157.16,389.1L160.17,388.88L160.76,390.68Z" class="land" id="IQ" title="Iraq"/>
    <path d="M206.05,388.52L209.96,387.58L211.51,385.2L213.88,384.02L216.94,384.18L217.93,383.13L221.47,383.33L222.55,384.93L227.31,386.77L231.1,387.47L232.61,389.49L234.96,390.76L236.27,392.67L239.93,392.65L240.6,398.6L239.74,403L236.95,407.34L237.07,409.92L238.98,410.68L237.3,412.74L238.56,417.71L238.68,421.95L242.47,422.5L243.06,425.52L239.86,429.36L238.63,430.83L240.86,433.46L242.3,436.59L245.73,438.6L247.55,440.8L247.66,444.79L249.55,444.78L249.56,447.88L246.14,448.43L243.46,450.1L242.13,455.53L241.3,456.05L232.11,454.08L226.22,453.5L222.13,452.46L220.48,446.62L217.53,445.06L214.21,446.23L210.67,448.45L205.07,447.56L200.3,444.41L199.29,442.85L195.48,441.64L193.66,440.12L192.64,436.93L190.82,434.68L190.7,433.2L187.57,428.93L185.56,429.91L182.57,429.41L180.82,430.27L178.32,427.53L178.29,424.66L176.74,424.59L177.44,420.23L175.29,416.73L169.37,413.75L169.53,412.23L166,408.04L167.33,403.33L169.47,401.44L167.54,397.35L165.84,396.31L163.04,389.71L162.08,386.14L160.43,385.17L161.46,382.49L159.55,376.32L162.2,373.94L166.39,378.57L171.45,379.19L177.18,374.67L178.22,374.45L179.38,378.74L178.35,379.71L181.03,382.16L182.2,382L183.33,386.6L188.26,388.15L190.16,390.47L192.91,392.06L197.95,392.77L206.54,390.83Z" class="land" id="IR" title="Iran"/>
    <path d="M293.4,612.83L293.28,612.78L293.32,612.51L293.14,612.13L293.41,612.28Z" class="land" id="IO" title="British Indian Ocean Territory"/>
    <path d="M322.68,419.71L323.27,422.95L325.59,424.03L325.74,424.17L328.31,425.19L328.35,425.21L329.6,426.97L333.45,429.17L330.59,431.53L329.03,436.38L331.46,437.35L337.42,441.52L344.17,444.15L347.94,443.52L350.38,444.54L350.73,445.9L353.59,447.48L358.64,448.36L361.69,448.46L362.97,449.48L366.58,449.12L367.08,447.57L366.24,445.41L366.83,441.51L369.24,440.33L370.31,441.52L370.51,444.45L370.35,446.32L374.61,447.69L377.35,446.69L379.2,447.32L385.12,446.88L385.52,444.58L383.39,442.09L385.02,442.25L388.25,441.09L390.8,437.66L394.07,436.52L397.46,433.78L401.21,435.17L404.1,433.06L405.98,435.19L407.58,438.86L410.15,439.65L410.21,441.15L407.06,444.32L404.22,444.97L399.84,448.24L399.85,451.15L397.46,454.45L397.86,456.33L395.13,462.38L391.27,461.63L391.55,466.2L390.2,468.31L390.59,470.13L389.66,471.94L387.83,472.07L387.44,468.48L386.28,463.37L384.83,464.29L383.34,466.98L381.91,466.34L381.18,463.49L382.15,461.27L384.55,460.74L386.31,457.13L385.36,455.7L377.79,455.76L374.85,454.99L374.89,451.68L368.39,449.43L366.71,451.95L368.44,453.59L368.46,455.6L367,459.24L369.77,460.56L368.98,463.42L369.8,464.64L371.26,471.49L371.26,473.71L367.51,473.88L366.07,472.85L362.09,474.49L360.96,475.82L361.5,478.52L360.44,480.47L358.23,482.44L354.91,483.57L351.14,486.4L348,490.54L345.89,491.64L343.74,493.91L339.8,496.44L339.32,499.07L336.99,500.2L334.53,500.52L333.31,503L331.74,502.33L330.08,503.23L328.95,506.34L329.23,510.52L330.31,514.64L329.78,517.88L328.04,521.26L327.94,529.24L325.84,529.32L323.99,532.3L323.9,534.27L321.28,535.05L320.2,536.07L319.58,538.48L317.03,539.93L314.44,538.37L312.5,536.01L311.42,533.4L311.52,531.16L308.6,524.27L306.12,520.93L304.11,516.01L303.65,513.16L302.29,509.15L300.25,506.33L300.17,504.76L298.03,501.55L297.38,499.56L296.52,493.85L295.18,488.6L294.23,482.88L295.23,479.21L294.92,476.43L293.64,473.5L293.86,470.55L292.65,470.59L291.26,472.86L292.28,474.34L291.16,476.23L286.5,478.33L285.07,478.32L282.28,476.54L277.02,470.97L282.52,469.05L282.87,467.02L280.11,468.1L278.09,467.65L275.29,465.9L273.06,462.48L275.69,461.93L275.71,460.38L280.35,460.86L284.26,459.59L286.59,459.68L286.61,458.2L284.75,454.38L282.93,452.9L282.05,451L282.42,448.9L279.19,447.15L279.65,445.2L283.58,440.68L285.15,442.26L290.48,441.02L292.7,436.8L295.33,435.31L297.59,430.42L299.6,429.55L300.02,427.69L303.47,424.42L302.89,420.68L306.76,417.54L303.59,416.21L300.47,412.16L301.2,410.67L300.31,404.15L301.91,403.52L308.53,405.02L312.69,403.69L314.83,401.54L318.35,399.32L318.41,399.38L320.63,404.15L323.7,405.88L322.84,407.38L323.07,410.71L324.53,412.25L324.64,412.55L325.02,415.95L325.03,416.3L321.13,416.2Z" class="land" id="IN" title="India"/>
    <path d="M516.84,622.32L519.15,623.75L520.69,625.48L518.84,626.71L514.9,624.22L512.48,623.9L512.95,622.37ZM540.61,622.98L537.59,626.01L534.91,626.94L533.65,625.14L534.22,623.47L535.76,622.16L537.67,621.44L539.92,620.26ZM500.98,618.7L499.74,620.2L498.26,617.86L499.86,616.75ZM529.86,618.69L524.54,620.05L521.64,620.23L515.87,619.1L516.39,617.9L519.65,616.92L523.57,618.53L526.02,617.94L527.42,618.75ZM508.52,617.29L512.02,617.39L512.1,619.34L508.27,619.77L502.96,621.01L501.68,620.57L501.9,618.31L503.45,617.52L505.34,617.81L507.93,616.36ZM495.37,616.52L496.58,617.71L494.38,619.57L490.8,616.35ZM603.93,617.08L602.8,617.71L599.93,617.03L601.44,614.08L602.8,613.12L605.03,612.89L606.06,614.34ZM570.03,615.78L569.72,613.27L571.75,613.12ZM487.84,611.54L486.08,612.07L482.75,611.7L483.24,610.57L488.45,610.44ZM585.13,608.4L584.28,610.16L582.88,609.95L583.39,607.14ZM457.41,606.34L458.79,607.33L461.74,607.56L463.54,610.05L471.76,610.79L473.22,608.54L475.19,609.47L477,609.37L479.57,610.53L481.7,610.69L482.9,613.66L485.03,614.44L488.9,614.04L490.65,615.29L490.67,618.44L489.32,618.76L485.05,617.14L482.35,617.72L476.86,617.23L472.61,616.49L469.94,615.26L463.84,614.2L462.48,614.81L459.97,614.47L456.99,613.27L453.92,613.01L453.4,611.29L448.52,610L451.3,605.9L454.83,606.77ZM586.11,604.92L586.16,607.11L584.68,607.89L584.21,604.95ZM529.21,602.85L527.92,600.48L529.48,599.78ZM549.04,592.57L550.76,594L550.77,595.14L548.22,596.03L546,595.01L545.11,592.96ZM562.64,591.52L565.58,592.11L567.84,594.84L567.58,596.2L563.06,593.7L561.29,594.29L558.94,593.69L556.36,594.11L554.78,593.02L555.33,591.52L561.1,591.17ZM461.33,592.14L458.54,593.14L458.79,590.11L460.7,590.26ZM540.14,586.06L537.55,587.47L537.37,585.98ZM451.17,585.89L452.67,589.64L454.14,590.76L453.52,592.42L450.95,591.33L449.94,588.3L446.87,587.65L449,585.22ZM555.11,585.85L552.33,586.17L552.73,584.31ZM418.81,586.4L417.45,585.87L416.17,583.68L417.42,582.35L419.29,585.7ZM615.39,590.32L615.39,596.98L615.4,607.94L615.4,621.1L610.51,616.26L605.44,616.47L606.52,613.82L604.93,612.23L605.48,610.37L603.47,607.93L601.7,603.78L597.13,601.23L591.91,599.37L588.23,598.99L583.3,595.91L580.97,593.87L579.07,597.16L577.75,597.31L576.74,595.47L576.73,593.54L574.84,592.04L578.8,589.51L580.76,590.02L582.23,587.93L577.73,588.73L574.65,588.59L573.31,587.4L572.87,585.38L569.88,584.6L569.71,582.07L572.28,581.35L573.8,580.18L576.14,579.73L580.12,581.46L582.48,581.54L583.82,584.45L583.1,586.14L583.34,588.37L587.48,593.72L589.59,593.78L593.15,590.19L593.84,588.74L595.97,588.38L597.29,586.7L600.5,585.02L604.47,586.47L609.83,589.09L613.74,589.55ZM410.9,571.15L413.02,573.46L412.76,575.09L410.54,573.59ZM539.76,573.36L537.59,575.83L534.43,576.61L531.27,575.76L525.44,575.99L523.48,575.72L518.42,575.93L516.83,579.49L517.23,581.1L519.21,582.93L519.92,584.49L521.64,584.66L523.92,582.07L526.04,582.43L527.5,581.6L530.36,581.59L528.56,584.38L524.86,586.8L525.47,589.01L528.06,593.1L527.37,595.08L530.31,597.38L530.4,598.51L527.15,599.21L525.79,600.86L523.77,599.61L524.38,597.3L521.08,594.77L521.72,590.99L519.85,590.59L517.97,592.41L518.83,595.49L518.75,599.78L518.24,604.14L515.45,604.86L513.85,603.59L514.95,598.86L515.01,597.03L514.05,594.39L512.05,594.69L511.06,591.05L512.51,589.72L513.59,587.12L513.53,584.67L515.71,580.32L515.88,576.92L518.04,573.48L519.21,574.2L521.07,571.98L524.26,573.02L528.23,573.26L530.38,574.05L532.19,573.68L534.86,574.1L536.87,573.24L540.24,570.04L541.39,570.98ZM553.14,574.06L556.39,570.91L557.7,572.84L555.8,573.92L557.64,576.35L552.3,575.74L551.67,572.16L552.66,569.37L554.44,570.04L554.45,571.78ZM505.37,558.42L505.63,560.93L503.45,561.14L505.54,563.63L507.69,567.14L506.74,568.79L507.75,570.04L512,573.43L509.89,574.22L506.17,574.61L505.13,576.94L504.85,579.57L505.32,581.67L500.58,584.98L499.96,587.7L500.63,588.86L497.76,594.96L491.83,597.67L491.09,594.49L488.95,593.47L487.6,594.31L486.34,593.02L483.73,593.04L481.98,594.04L480.5,593.67L478.33,594.66L478.33,592.43L476.19,591.84L474.67,592.42L470.85,591.8L469.85,584.62L468.76,582.8L467.19,582.13L465.81,580.37L466.27,577.9L464.79,576.37L464.61,574.31L465.41,571.01L468.01,568.51L468.13,570.45L472.14,573.99L474.17,573.26L478.08,573.34L481.4,570.71L486.79,572.23L488.11,571.3L491.13,571.14L492.47,568.73L492.26,567.46L494.11,566.18L493.67,564.68L495.4,563.77L495.94,559.51L497.48,557.58L503.14,557.63ZM406.25,553.42L410.76,553.39L412.91,555.07L414.5,557.27L414.78,558.78L421.48,563.07L424.89,567.43L427.66,567.43L429.68,570.08L431.13,570.42L434.35,574.38L437.16,575.73L439.1,575.79L440.55,577.82L438.86,578.94L438.87,580.55L440.24,582.21L443.24,582.93L444.69,589.26L448.11,589.24L451.16,592.66L450.22,595.04L450.42,601.63L450.09,604.78L447.89,604.18L446.63,605.1L444.55,604.04L444.37,605.85L440.75,601.96L434.67,597.58L432.74,594.98L430.16,592.94L426.73,588.13L426.76,587.14L424.19,581.93L420.85,577.56L418.79,576.39L417.08,571.01L415.99,569.1L411.93,566.95L411.41,564.65L408.49,561.22L406.03,560.09L401.56,555.63L400.2,553.16L402.19,551.63L404.56,553.12Z" class="land" id="ID" title="Indonesia"/>
    <path d="M488.64,469.36L489.81,469.21L489.83,470.46Z" class="land" id="HK" title="Hong Kong"/>
    <path d="M473.94,482.08L474.53,483.76L472.45,486.17L471.88,488.28L467.5,490.9L463.66,489.33L463.62,485.34L468.12,482.12L472.53,481.67ZM566.27,356.66L563.32,353.69L562.48,357.04L560.57,357.43L558.73,359.81L554.6,360.14L554.91,363.9L550.53,363.01L549.24,361.44L544.94,366.93L539.77,369.69L537.29,372.49L536.08,373.49L532.52,373.97L527.76,376.39L525.17,376.18L523.91,374.73L527.47,369.18L525.52,367.32L522.3,366.95L519.03,371.1L514.85,373.12L511.66,377.6L506.36,377.8L505.29,380.88L507.44,383.52L511.79,384.37L512.49,386.4L511.85,388.59L514.19,389.81L520.31,385.61L524.49,387.83L529.01,388.03L528.62,390.86L525.86,390.79L521.43,392.91L517.03,397.2L513.09,402.1L514.81,404.57L517.72,406.03L520.87,413.42L520.79,415.41L523.36,417.02L523.13,419.87L525.61,425.06L521.47,427.02L522.23,428.42L525.92,430.64L524.85,434.08L524.31,438.86L521.94,439.27L518.09,445.6L514.61,453.5L512.19,455.42L510.01,458.75L507.78,458.51L507.64,460.48L500.5,465.96L500.18,467.15L495.61,468.31L489.81,469.21L488.64,469.36L486.78,467.58L486.44,470.82L486.19,470.74L486.11,470.97L483.9,471.36L481.92,473.09L478.9,472.73L477.3,474.19L473.38,475.07L470.67,476.83L472.16,479.44L470.34,480.72L468.17,477.44L469.43,474.59L461.88,473.51L460.23,474.45L457.31,473.94L454.38,471.96L453.47,469.95L453.5,467.34L450.21,467.27L447.54,465.11L445.29,467.33L443.3,468.38L438.26,468.08L436.87,469.66L434.58,468.2L432.74,470.04L429.91,470.68L430.94,473.09L430.76,476.26L428.5,475.89L428.1,474.15L426.67,473.71L423.75,474.68L422.35,471.82L418.95,471.32L419.62,469.43L419.64,466.38L417.4,465.9L416.93,461.15L414.34,461.18L411.86,462.27L411.13,459.21L412,456.4L416.41,451.8L416.78,448.31L416.4,443.09L414.74,443.21L413.8,440.06L411.16,438.09L410.15,439.65L407.58,438.86L405.98,435.19L404.1,433.06L401.21,435.17L397.46,433.78L394.07,436.52L390.8,437.66L388.25,441.09L385.02,442.25L383.39,442.09L383.27,441.07L377.38,440.39L375.63,439.16L373.54,440.24L370.51,444.45L370.31,441.52L369.24,440.33L366.83,441.51L362.28,441.68L359.52,440.36L358.84,441.2L355.4,439.34L352.79,439.13L348.59,435.94L347.99,434.28L345.55,434.48L343.54,432.16L338.86,429.44L338.31,428.28L335.37,428.23L333.45,429.17L329.6,426.97L328.35,425.21L328.31,425.19L325.74,424.17L325.59,424.03L323.27,422.95L322.68,419.71L321.13,416.2L325.03,416.3L325.02,415.95L324.64,412.55L324.53,412.25L323.07,410.71L322.84,407.38L323.7,405.88L320.63,404.15L318.41,399.38L318.35,399.32L316.7,399.43L311.08,397.49L309.64,396.29L309.15,392.6L306.82,391.06L303.04,390.42L304.68,389.18L304,381.57L299.56,380.98L298.76,375.89L300.09,374.93L300.45,372.25L307.94,368.79L309.29,370.65L312.15,369.75L313.77,366.45L319.88,365.86L321,364.01L325.38,361.43L329.72,359.85L329.69,358.85L329.48,355.82L332.4,352.64L330.37,346.56L330.85,342.29L328.98,340.56L336.24,338.53L340.36,339.78L339.64,337.13L342.83,326.83L343.72,325.78L351.21,328.23L355.3,325.3L354.69,320.7L355.74,317.39L359.5,316.37L360.46,312.95L363.13,312.39L365.44,311.84L366.22,316.19L371.24,320.09L373.66,320.08L377.19,322.37L379.81,327.38L380.43,333.65L378.83,337.1L379.85,339.3L383.17,340.1L388.83,340.37L392.91,341.26L397.88,344.9L400.88,345.37L403.52,352.35L405.74,355.47L409.6,355.03L420.24,356.45L422.66,355.75L430.8,357.1L432.02,358.69L437.19,360.02L440.19,361.63L443.89,360.83L447.18,361.71L454.57,358.23L461.16,357.22L467.14,357.16L471.64,355.13L474.49,351.48L478.85,349.08L476.35,344.79L478.68,340.18L486.63,342.29L491,338.17L496.47,337.54L499.1,335.27L500.61,331.93L504.24,331.44L508.82,329.01L515.4,329.77L515.42,326.03L509.72,320.22L506.29,320.19L504.32,322.54L501.55,321.02L497.49,322.3L495.89,320.49L501.18,307.06L506.78,309.31L509.5,306.91L512.77,305.67L512.98,302.98L517.09,293.86L519.98,291.03L520.07,287.03L517.22,284.76L520.09,281.75L527.77,279.29L533.74,278.8L539.4,282.05L543.34,282.77L546.46,287.76L549.34,297.63L552.46,304.24L552.05,306.69L554.39,308.91L557.7,308.68L561.6,310.68L567.58,317.7L568.32,322.14L575.44,322.1L576.53,320.48L583.98,317.47L585.25,317.84L586.14,322.1L583.39,324.98L581.95,332.22L578.78,337.3L577.6,340.41L573.09,338.98L568.88,341.2L569.7,346.73L569.73,350.89L568.82,354.31Z" class="land" id="CN" title="China"/>
    <path d="M383.39,442.09L385.52,444.58L385.12,446.88L379.2,447.32L377.35,446.69L374.61,447.69L370.35,446.32L370.51,444.45L373.54,440.24L375.63,439.16L377.38,440.39L383.27,441.07Z" class="land" id="BT" title="Bhutan"/>
    <path d="M493.39,554.98L492.08,555.84L492.52,557.37L491.43,559.11L488.87,556.43L492.52,554.76L493.39,554.98L493.92,554.98Z" class="land" id="BN" title="Brunei"/>
    <path d="M190.5,451.98L189.84,451.55L189.77,450.37L190.52,450.72Z" class="land" id="BH" title="Bahrain"/>
    <path d="M387.83,472.07L387.92,474.66L385.97,475.54L386.65,478.07L385.39,476.14L385.16,473.56L383.68,469.4L382.35,467.91L380.17,468.93L377.77,468.14L378.49,470.65L376.47,472.89L374.84,472.05L372.12,473.37L371.26,471.49L369.8,464.64L368.98,463.42L369.77,460.56L367,459.24L368.46,455.6L368.44,453.59L366.71,451.95L368.39,449.43L374.89,451.68L374.85,454.99L377.79,455.76L385.36,455.7L386.31,457.13L384.55,460.74L382.15,461.27L381.18,463.49L381.91,466.34L383.34,466.98L384.83,464.29L386.28,463.37L387.44,468.48Z" class="land" id="BD" title="Bangladesh"/>
    <path d="M217.26,453.2L217.68,456.69L216.16,457.93L214.73,460.5L212.1,466.7L212.03,468.38L211.65,468.8L199.66,467.22L195.14,461.34L195.02,460.27L196.61,461.82L200.1,460.95L205.95,461.35L208.32,460.32L209.97,457.56L215.58,452.45L216.24,451.04Z" class="land" id="AE" title="United Arab Emirates"/>
    <path d="M304.68,389.18L303.04,390.42L299.41,391.2L294.02,391.55L289.31,393.85L287.26,396.15L288.4,397.36L289.31,401.12L286.22,404.86L286.63,407.59L281.07,408.46L283.02,411.44L279.34,413.4L278.12,416.68L278.29,419.44L276.37,421.11L273.29,420.16L270.3,421.82L268.93,423.41L267.22,422.93L264.75,425.09L263.71,430.95L258.62,432.45L255.92,432.42L253.94,433.35L251.44,432.78L246.31,433.27L238.63,430.83L239.86,429.36L243.06,425.52L242.47,422.5L238.68,421.95L238.56,417.71L237.3,412.74L238.98,410.68L237.07,409.92L236.95,407.34L239.74,403L240.6,398.6L245.26,400.73L249.04,399.6L249.28,397.45L252.83,396.33L255.88,394.41L257.31,389.77L260.79,389.07L261.77,387.18L265.33,388.49L271.15,389.53L272.6,390.84L276.8,388.63L278.23,389.91L279.92,387.04L282.57,387.11L282.62,385.3L285.82,381.89L287.59,382.79L289.12,385.43L288.42,389.8L290.16,392.34L295.3,388.97L298.05,387.76L299.31,389.18L301.71,388.1Z" class="land" id="AF" title="Afghanistan"/>
  </g>
</svg>