<?xml version="1.0" encoding="UTF-8"?>
<svg xmlns="http://www.w3.org/2000/svg" width="966.6" height="276.78" viewBox="-3.3 118.11 966.6 276.78">
  <!-- Created using SVG Map Generator: dojo.amcharts.com/svg-map-generator -->
  <style>
    .land { fill: #ffffff; stroke: #299e8b; stroke-width: 1.3; }
  </style>
  <rect x="-3.3" y="118.11" width="966.6" height="276.78" fill="#417ea4"/>
  <g id="polygons">
    <path d="M160.68,207.88L159.26,206.56L157.58,206.9L154.24,210.29L153.59,211.29L153.72,212.85L153.2,214.86L151.78,214.43L149.82,216.28L149.55,215.18L151.28,213.1L151.91,211.75L153.2,210.46L153.82,208.25L156.02,205.79L157.67,202.97L159.36,200.87L159.26,199.34L162.74,194.62L164.57,194.3L165.86,194.74L164.71,196.75L163.26,198.31L162.75,200.13L161.29,203.66L160.42,207.34ZM292.33,158.5L289.83,159.95L286.29,160.48L285.66,161.5L283.61,162.44L282.76,163.54L277.97,161.6L278.25,160.36L276.48,159.98L273.64,160.32L273.25,159.11L269.37,161.45L269.8,160.79L270.24,160.13L270.67,159.47L271.11,158.81L271.55,158.15L271.99,157.5L272.43,156.84L272.87,156.19L273.32,155.54L273.76,154.89L274.21,154.24L274.66,153.59L275.1,152.95L275.55,152.3L276.01,151.66L276.46,151.01L278.32,151.62L280.39,152.96L283.6,154.46L284.46,155.98L286.11,155.87L289.64,156.44ZM281.07,145.98L280.22,145.8L280.58,145.31L280.99,144.76L281.25,144.4L284.49,144.43L284.69,145.61ZM206.59,139.63L210.51,138.54L212.28,138.42L214.08,139.28L212.85,140.15ZM224.98,135.59L227.09,134.67L231.46,135.21L229.32,136.3L226.58,136.17ZM206.53,135.17L209.44,133.54L212.77,132.84L214.48,134.07L217.63,132.99L223.22,134.32L219.38,135.64L215.35,135.77L208.88,136.58L207.35,136.24ZM896.31,199.48L891.64,198.35L891.41,200.49L892.04,201.57L894.23,202.91L894.95,204.27L893.71,205.31L892.82,204.86L889.85,204.47L889.33,204.77L886.93,204.43L884.79,202.85L878.76,202.44L875.6,204.79L876.06,205.35L874.75,206.15L873.25,206.14L873.02,207.01L872.04,207.24L869.19,205.67L868.42,206L865.77,205.51L864.36,204.32L862.13,203.64L860.29,202.2L858.41,201.54L857.02,202.34L854.6,202.3L852,200.69L851.08,202.2L843.33,196.68L839.84,194.5L835.94,192.85L834.37,191.77L831.78,193.71L829,193.23L827.22,192.37L822.83,192.06L822.16,190.93L819.52,188.88L818.59,189.29L815.35,188.63L814.28,189.88L810.74,190.73L809.15,190.86L808.99,191.61L807.37,191.56L802.54,192.84L800.97,192.54L801.06,193.79L802.27,194.77L802.48,196.36L803.74,197.73L802.64,198.49L800.54,197.2L798.7,196.77L797.46,195.09L797.89,192.85L796.54,191.78L794.54,191.13L792.65,192.73L790.17,191.31L786.33,188.75L790.45,188.16L790.63,186.61L789.46,185.38L787.02,184.39L786.44,183.04L787,181.54L786.91,179.64L786.21,177.03L783.61,172.62L777.16,163.59L779.54,161.89L781.07,159.7L782.81,158.47L784.15,157L784.15,155.5L780.17,151.06L777.69,149.72L775.2,149.16L772.78,146.45L770.55,145.06L772.11,144.03L770.82,141.53L771.35,140.96L774.93,140.92L778.14,141.48L779.56,143.03L779.69,144.38L783.4,146.24L787.93,150.76L791.42,152.09L792.59,153.96L792.33,156.9L791.64,157.46L788.64,156.67L787.95,157.38L790.95,158.02L794.48,158.27L794.67,157.43L796.32,156.27L796.18,154.22L793.57,152.49L793.02,151.62L796.18,151.03L794.52,150.36L792.53,150.73L790.12,150.45L788.24,149.12L787.04,146.67L782.32,144.64L782.31,143.62L785.51,143.7L790.14,142.23L792.03,142.26L798.08,143.87L800.99,143.87L797.89,142.62L794.45,141.99L790.62,139.28L796.05,139.03L801.21,138.47L798.73,136.52L799.19,135.43L802.4,134.31L807.86,133.67L808.74,132.96L813.89,133.49L818.37,132.18L818.24,131.95L840.2,147.45L860.43,164L879.24,181.37L896.31,199.48ZM141.76,131.95L144.36,130.96L152.8,129.23L155.38,129.8L152.38,130.53L156.18,131.12L156.54,131.61L162.35,131.6L163.98,132.4L164.53,133.67L162.13,135.03L156.93,136.38L151.62,137.41L146.33,138.96L143.71,140.27L148.8,139.52L151.41,138.16L154.03,138.93L157.33,139.24L160.19,138.94L165.86,139.22L164.74,140.08L166.47,140.75L173.05,140.81L175.1,139.37L177.88,138.81L179.55,139.4L183.55,139.49L184.92,140.22L183.39,142.43L180.66,143L180.65,145.47L183.61,146.04L188.39,143.49L189.99,144.81L194.21,144.17L196.3,144.86L201.93,143.99L203.89,141.97L209.31,141.4L215.55,141.85L217.1,142.46L220.68,142.44L222.47,142.81L223.03,144.45L225.15,146.21L232.51,145.54L236.64,145.68L238.68,146.32L238.9,147.56L237.38,148.92L239.91,149.98L242.19,149.28L250.83,149.67L252.97,149.04L253.35,150.26L254.99,150.76L255,151.53L258.33,150.85L259.47,148.08L264.5,148.82L270.26,148.73L271.49,149.28L274.88,149.96L276.46,151.01L269.37,161.45L265.43,162.71L262.86,163.14L264.57,164.45L263.9,165.67L264.65,166.58L264.29,167.96L262.69,168.97L259.36,168.24L254.03,169.58L251.91,170.35L247.69,171.34L245.95,172.47L240.93,174.23L238.9,175.26L238.22,173.78L235.82,173.84L232.76,174.59L231.76,174.09L228.26,175.17L225.31,175.34L224.1,175.92L222.77,177.42L218.64,179.84L217.53,180.9L217.99,182.96L217.02,184.52L217.8,184.88L217.14,186.19L215.38,186.11L214.07,186.6L211.93,188.72L211.68,190.48L210.42,191.12L208.27,191.1L206.05,192.13L204.18,194.49L200.32,195.98L198.97,197.66L197.27,199.13L192.65,201.62L192.97,200.12L194.51,197.06L194.8,195.59L197.97,188.75L201.54,184.86L204.11,183.54L206.99,181.69L211.73,179.91L214.9,177.92L221.1,175.02L222.17,174.27L226.86,172.88L228.34,171.69L231.55,167.93L229.29,168.34L227.07,170.44L225.49,170.8L220.15,173.34L218.87,170.08L215.16,170.42L209.53,173.27L206.77,174.39L204.16,175.92L205.09,177.26L201.97,178.06L200.83,177.67L199.2,178.45L197.7,177.82L197.36,176.79L193.86,176.1L192.29,176.89L188.1,177.51L186.11,177.06L178.84,177.23L175.44,178.28L168,182.01L163.4,184.08L159.38,186.46L154.21,188.74L151.24,189.93L151.78,190.97L154.01,190.87L152.25,192.88L152.88,194.03L156.36,193.43L157.67,191.74L159.88,191.87L161.46,195.07L159.26,197.47L159.6,198.03L155.86,200.84L154.01,202.88L152.26,205.71L149.41,208.93L146.33,210.84L142.93,213.35L141.39,214.9L138.53,217.1L135.25,219.07L132.46,221.15L131.61,221.5L128.34,224.09L123.7,226.22L122.13,226.62L120.38,226.05L119.52,225.08L115.44,227.83L115.44,227.83L115.45,227.12L117.41,225.99L118.81,224.37L119.93,222.42L121.04,219.86L123.81,218.85L125.71,219.5L127.16,218.08L130.17,215.8L132.89,212.61L135.07,211.36L135.8,209.54L135.26,209.38L130.68,210.66L129.68,211.36L126.08,211.38L126.97,209.48L125.97,206.53L124.6,205.7L122.89,205.79L122.36,204.88L123.28,203.88L123.65,201.23L125.11,197.38L125.04,195.49L123.33,195.22L121.54,194.01L118.49,194.19L114.01,195.11L111.7,196.24L112.41,197.1L111.16,198.64L108.88,199.74L104.06,203.37L103.14,204.47L101.13,204.97L99.04,205.96L96.95,205.03L96.09,204.47L93.94,204.66L92.41,203.69L88.66,205.11L87.99,205.65L83.36,206.43L81.72,207L78.38,206.49L76.89,206.53L76.17,205.72L76.76,204.73L75.24,204.54L74.8,203.57L72.1,203.09L67.2,204.09L65.17,202.76L66.7,200.48L65.26,200.18L63.69,199.48L80.76,181.37L99.57,164L119.8,147.45L141.76,131.95ZM150.14,126.94L154.73,125.55L157.08,125.46L158.15,127.47L154.28,128.02L147.63,128.37L150.14,126.94ZM812.37,128.37L810.49,128.52L809.95,127.17L809.95,127.17L809.86,126.94L812.37,128.37ZM798.8,123.76L804.9,124.61L807.63,126.71L804.21,126.73L797.71,126.05L793.38,125.23L794.42,123.92ZM787.68,123.54L787.25,122.02L790.85,121.41L796.56,122.42L797.75,123.6L793.53,123.85L792.76,124.1Z" class="land" id="RU" title="Russia - Asia"/>
    <path d="M829.17,307.34L827.37,308.43L827.42,310.41L825.27,311.74L823.27,312.32L820.35,313.56L818.82,315.38L817.03,315.38L815.66,316.58L814.11,317.19L811.17,317.58L809.75,319.19L808.63,319.19L806.89,319.81L805.6,319.12L804.78,317.8L804.76,316.65L804.1,315.5L803.68,313.82L802.37,310.41L802.23,308.19L803.03,307.21L802.75,305.13L803.26,304.65L804.68,305.24L807.86,304.92L808.6,305.26L811.98,305.42L812.93,306.39L814.07,305.9L814.24,304.86L815.39,302.67L817.43,301.35L824.87,300.07L827.87,305.32Z" class="land" id="YE" title="Yemen"/>
    <path d="M772.24,261.31L770.85,260.92L770.33,259.19L770.57,258.03L771.61,258.46Z" class="land" id="PS" title="Palestinian Territories"/>
    <path d="M30.03,292.28L28.35,292.97L27.99,293.68L26.13,293.97L25.11,296.06L23.4,297.14L21.62,300.16L21.94,301.59L23.1,303.32L22.87,304.02L24.09,306.56L25.92,308.32L27.36,311.27L27.62,313.32L27.68,315.98L27.26,317.76L27.48,318.76L26.77,319.72L26.24,322.57L25.04,323.83L23.4,325.01L20.48,326.66L19.3,326.56L18.32,329.01L15.25,330.7L14.66,331.6L13.33,331.6L13.72,329.11L14.4,327.69L12.96,326.63L14.14,326.24L15.75,324.99L17.86,324.77L17.17,323.9L17.32,322.84L18.64,322.7L18.97,321.88L22.08,320.59L22.37,318.53L22.94,317.27L22.63,315.14L23.49,313.35L24.19,311.65L23.3,310.13L24.05,309.21L22.5,307.92L22.35,306.39L20.81,303.96L20.53,302.67L19.11,300.66L17.42,299L18.06,297.96L19.35,298.16L20.71,296.9L20.38,294.95L19.26,294.03L17.94,294.79L16.74,294.19L16.41,291.8L15.64,289.57L17.03,288.45L18,289.34L19.09,288.38L21.81,288.56L23.13,287.92L24.82,286.57L25.87,287.89L27.67,287.93L27.14,289.52L27.26,290.75L28.5,291.96Z" class="land" id="VN" title="Vietnam"/>
    <path d="M846.48,228L846.62,228.7L845.77,230.08L847.76,231.03L849.5,231.41L849.98,230.56L853.01,232.23L854.27,232.49L851.83,234.44L849.89,234.17L848.12,233.51L848.56,232.63L847.33,231.76L846.14,232.89L845.18,232.46L845.02,236.04L842.91,236.08L842.59,237.25L845.2,239.02L846.77,240.98L846.4,242.67L846.72,243.65L843.39,243.1L842.54,241.05L839.82,240.35L835.16,238.14L830.06,235.35L826.31,231.55L822.56,231.15L821.39,230.61L820.63,229.04L819.41,227.86L818.41,227.84L815.54,226.37L814.89,226.65L814.6,228.18L813.6,228.28L813.04,229.2L814.09,231.02L811.45,230.84L807.86,223.81L805.59,219.6L810.83,217.9L818.72,221.44L822.62,224.19L825.33,223.77L828.45,224.01L829.29,223.51L833.43,225.72L834.86,228.75L836.07,228.78L838.25,231.4L840.91,231.23L842.66,232.89L843.39,230.71Z" class="land" id="UZ" title="Uzbekistan"/>
    <path d="M65.03,288.82L63.68,289.64L63.18,289.07L63.09,287.18L63.85,285.45L67.45,281.33L69.13,280.58L69.69,281.52L66.1,287.75Z" class="land" id="TW" title="Taiwan"/>
    <path d="M67.38,388.12L66.8,386.36L67.38,385.45L68.99,384.97L71.15,384.87L72.01,385.66L68.2,387.39Z" class="land" id="TL" title="Timor-Leste"/>
    <path d="M843.39,243.1L841.18,242.42L841.12,243.4L839.45,243.77L839.81,246.22L838.64,247.24L837.02,247.84L837.39,248.99L835.64,249.6L832.67,248.45L830.93,245.28L828.99,245.3L827.85,244.29L826.31,243.62L825.03,242.57L822.87,242.2L819.93,241.25L818.98,240.42L817.07,240.31L816.79,240.86L815.14,240.78L814.16,241.39L813.88,242.63L812.03,243.11L811.02,241.31L809.73,238.15L807.21,236.66L807.73,235.93L806.09,234.95L804.87,233.68L805.26,232.37L807.3,232.91L809,232.17L808.26,231.24L806.55,230.24L805.08,228.48L803.12,228.83L802.25,229.44L803.45,228.13L805.38,227.73L807.92,229.01L810.49,231.03L811.45,230.84L814.09,231.02L813.04,229.2L813.6,228.28L814.6,228.18L814.89,226.65L815.54,226.37L818.41,227.84L819.41,227.86L820.63,229.04L821.39,230.61L822.56,231.15L826.31,231.55L830.06,235.35L835.16,238.14L839.82,240.35L842.54,241.05Z" class="land" id="TM" title="Turkmenistan"/>
    <path d="M849.89,234.17L848.95,234.76L847.51,234.29L846.61,234.61L846.41,235.65L847.61,236.23L852.03,236.15L853.99,236.91L857.76,236.61L859.53,239.21L862.02,239.51L864.38,243.46L862.53,242.89L861.54,243.46L860.51,242.72L859.36,243.35L857.5,245.13L855.93,243.78L855.18,241.5L853.7,240.14L852.53,239.67L851.72,241.44L852.16,242.38L850.74,242.34L850.56,243.84L849.49,243.17L847.81,244.33L846.72,243.65L846.4,242.67L846.77,240.98L845.2,239.02L842.59,237.25L842.91,236.08L845.02,236.04L845.18,232.46L846.14,232.89L847.33,231.76L848.56,232.63L848.12,233.51Z" class="land" id="TJ" title="Tajikistan"/>
    <path d="M9.08,296.51L9.3,296.68L8.82,297.4L9.08,296.51ZM951.18,297.4L951.15,297.71L951.31,297.86L955.98,317.19L955.98,317.19L954.93,317.53L955.53,321.19L954.94,323.38L954.86,325.15L954.27,326.91L954.52,328.72L955.36,330.32L956.19,330.01L957.08,332L958.08,333.24L958.71,335.02L959.09,338.68L959.09,338.68L958.82,338.55L958.25,338.88L956.99,337.54L954.95,334.42L953.53,333.01L952.59,332.77L952.61,330.09L953.1,327.31L953.03,325.85L953.97,324.48L954.75,322.39L953.78,320.02L953.18,319.43L952.38,316.41L949.33,313.01L948.93,311.81L949.78,311.19L949.47,308.4L948.31,306.32L946.07,304.14L944.6,301.62L945.21,301.23L944.66,298.63L945.56,297.91L947.26,297.66L949.22,295.64L949.92,295.97L949.92,295.97L950.92,296.51L951.18,297.4ZM8.69,297.86L8.99,298.5L10.44,298.26L10.26,300.12L9.16,301.89L8.56,304.76L11.76,302.5L13.12,303.48L14.3,302.72L15.57,301.86L16.7,302.16L18.17,305.32L17.51,307.34L17.94,308.85L19.14,310.27L18.62,311.32L17.98,313.89L17.09,314.46L16.07,314.21L11.84,314.5L9.03,316.96L9,319.65L9.54,320.4L9.63,322.62L9.34,321.68L6.96,319.59L4.69,319.51L5.37,317.29L4.62,317.01L4.02,317.19L8.69,297.86ZM1.29,335.02L1.5,336.62L2.55,337.59L3.83,337.58L5.26,339.5L4.54,340.79L2.89,340.9L2.47,339.5L0.91,338.68L1.29,335.02Z" class="land" id="TH" title="Thailand"/>
    <path d="M783.57,243.84L782.76,245.42L781.93,245.68L782.02,247.05L782.79,248.39L783.37,251.09L782.58,252.45L778.77,255.43L774.9,258.7L773.7,258.48L771.87,257.4L771.38,255.24L771.32,254.51L772.37,252.79L771.57,251.57L770.41,251.53L769.69,249.68L768.86,248.6L769.49,247.8L769.73,244.79L771.85,245.28L773.43,244.48L775.11,245.13L776.59,245.16L779.47,243.88Z" class="land" id="SY" title="Syria"/>
    <path d="M9.42,354.65L9.02,354.86L8.57,354.67L9.02,354.3Z" class="land" id="SG" title="Singapore"/>
    <path d="M802.76,268.71L805.17,269.04L806.22,270.46L808.18,270.43L810.23,273.27L811.92,274.66L813.73,275.76L814.78,277.37L814.48,277.99L816.71,281.17L817.6,282.09L818.95,282.66L819.99,283.65L820.22,284.3L823.62,287.85L830.5,288.82L830.65,288.56L832.37,290.74L832.07,296.97L824.87,300.07L817.43,301.35L815.39,302.67L814.24,304.86L814.07,305.9L812.93,306.39L811.98,305.42L808.6,305.26L807.86,304.92L804.68,305.24L803.26,304.65L802.75,305.13L803.03,307.21L802.23,308.19L800.35,304.9L798.68,303.51L796.87,301.05L795.01,297.71L791.55,295.35L789.69,292.89L789.05,291.12L788.99,289.53L788.25,288.01L786.43,285.44L784.67,283.97L783.62,283.64L782.29,282L781.86,280.53L779.61,278L778.53,276.48L774.61,272.01L773.06,271.66L772.89,267.91L775.76,268.42L777.05,266.32L778.76,265.92L779.59,264.35L776.05,261.27L780.73,259.66L780.99,259.3L784.28,259.88L789.46,262.54L792.03,264.36L798.03,268.41Z" class="land" id="SA" title="Saudi Arabia"/>
    <path d="M818.95,282.66L817.6,282.09L816.94,280.06L817.1,278.39L818.56,278.63L819.36,280.98Z" class="land" id="QA" title="Qatar"/>
    <path d="M115.45,227.12L115.44,227.83L114.88,227.83L112.16,229.64L110.6,232.27L105.8,234.8L103.57,235.58L102.21,237.35L102.97,237.74L103.7,239.16L102.37,240.13L100.21,240.14L98.06,241.76L96.49,241.48L95.04,241.92L94.89,240.97L93.79,240.69L95.4,239.37L97.44,237.11L97.71,236.37L96.17,235.56L96.05,234.9L98.11,233.5L101.57,232.13L105.32,229.43L105.56,230.2L107.59,230.64L108.46,228.8L110.69,228.64L112.29,227.49L113.39,227.3L114.74,225.7Z" class="land" id="KP" title="North Korea"/>
    <path d="M148.71,379.39L148.11,379.94L147.09,379.5L146.62,378.22L145.44,377.18L145.94,375.85ZM137.54,372.02L138.85,372.15L138.89,373.36L137.9,374.2L138.31,375.29L136.67,375.89L135.97,377.03L133.91,378.13L131.85,378.17L128.41,376.55L128.22,375.87L133.43,375.84L135.15,375.49L136.07,374.06L136.97,373.83L136.58,372.17ZM109.5,386.9L108.76,378.34L108.34,371.17L108.18,366.81L108.75,366.87L111.53,368.27L115.03,369.35L116.42,370.43L117.66,370.56L119.35,372.18L120.02,372.29L121.24,373.64L121.57,375.64L123.07,376.09L124.81,377.02L125.72,377.12L126.93,378.25L127.12,379.32L125.2,379.5L124.82,380.14L125.54,381.53L127.08,383.06L128.21,383.77L128.66,385.16L129.69,386.69L131.46,386.75L131.45,387.79L133.42,389.66L135.6,390.42L135.24,391.59L133.99,391.41L133.21,390.72L127.85,389.84L124.67,386.61L122.64,383.68L119.75,382.84L118.46,382.11L116.24,384.07L114.89,384.41L115.8,386.42L114.01,387.55L112.85,387.06L109.95,387.22ZM140.4,373.44L139.6,372.64L139.32,371.09L140.45,371.43L140.79,372.19Z" class="land" id="PG" title="Papua New Guinea"/>
    <path d="M69.81,329.99L70.47,331.46L70.46,334.59L70.68,336.4L69.21,337.98L68.69,336.13L67.42,337.79L67.93,340.31L67.3,341.28L65.19,340.25L63.8,339L63.7,337.18L64.41,335.94L63.85,335.11L62.63,334.67L62.24,335.9L59.01,334.66L59.62,333.98L61.19,333.59L62.76,331.9L64.72,333.24L65.43,332.2L66.16,332.33L66.66,331.07L68.49,330.55L68.68,328.64ZM66.23,328.55L64.42,329.06L65.24,327.48ZM62.08,330.79L60.72,329.49L60.66,328.01L61.73,327.63L61.79,326.34L62.4,325.16L63.9,325.49L62.46,328.32L62.65,329.88ZM46.4,332.72L46.59,331.87L48.86,329.91L51.67,326.8L52.51,325.29L53.5,326.19L51.99,327.71L50.85,328.15L49.67,330.19ZM66.81,323.75L67.77,323.65L67.74,325.47L68.16,327.08L66.87,327.38L67.14,325.48L66.29,325.04ZM61.43,322.91L63.14,323.15L61.8,325.35L60.2,325.97L59.69,325.2L60.4,322.82ZM69.12,320.08L69.74,321.13L69.42,321.86L69.51,324.4L68.47,324.36L67.83,322.41L66.84,321.24L66.64,319.96ZM57.61,317.14L58.9,317.29L59.59,318.22L59.38,319.74L58.37,321.04L57.68,320.13L56.97,317.82ZM61.95,301.24L63.66,302.24L64.93,301.9L64.08,303.91L64.61,305.86L62.98,308.77L61.39,309.55L60.48,311.43L60.93,313.25L60.85,315.18L62.79,314.54L63.72,314.76L64.43,316.31L66.47,318.51L66.02,319.96L64.27,318.49L64.09,317.26L62.84,315.82L62.11,317.1L60.69,315.73L59.01,316.65L57.76,314.95L58.79,313.32L56.74,312.9L57,308.33L57.68,309.2L58.94,306.39L59.28,304.27L60.55,301.58Z" class="land" id="PH" title="Philippines"/>
    <path d="M874.26,248.84L872.95,250.03L872.35,251.2L870.46,251.92L866.55,251.1L865.85,251.45L867.91,255.01L867.88,255.83L870.52,258.08L872.54,258.82L871.19,260.58L872.36,262.69L871.23,264.55L871.41,265.61L870.51,266.1L870.34,268.92L869.22,269.78L868.89,272.23L866.23,272.96L865.06,272.04L863.82,274.68L863.95,275.83L866.06,276.87L866.26,278.11L867.1,279.24L868.39,280.12L870.12,282.41L870.38,283.3L869.07,283.24L867.15,284.01L864.5,283.72L864.77,284.65L863.41,284.99L862.16,285.13L860.91,284L860.01,282.19L858.7,281.87L858.35,280.73L857.32,279.65L855.59,280.33L853.3,280.48L853.11,280.87L850.5,280.24L850.07,280.78L847.65,280.65L847.09,281.02L845.15,280.81L844.91,277.58L846.07,276.59L847.85,276.26L847.26,274.44L846.23,274.45L845.4,272.11L843.98,270.83L841.72,269.66L840.32,267.85L838.58,266.34L843.24,267.74L845.93,267.46L847.41,267.79L848.3,267.25L849.77,267.27L852.23,266.41L851.55,263.07L852.42,261.84L853.45,262.12L853.84,261.22L855.08,260.29L856.96,260.82L857.63,259.88L856.91,258.34L856.82,256.52L858.34,255.44L856.59,253.8L859.36,253.32L858.49,251.83L859.23,249.81L857.82,247.79L856.91,247.15L857.43,245.92L859.34,244.71L862.11,244.52L863.83,244.11L866.01,244.45L867.64,245.26L868.85,247.22L869.92,247.86L873.41,248.9Z" class="land" id="PK" title="Pakistan"/>
    <path d="M831.89,281.5L832.99,283.08L834.95,284.78L838.71,285.65L843.04,290.07L842.48,292.3L841.52,293.5L840.94,295.69L839.45,296.2L839.51,298.17L840.15,300L838.56,300.35L837.4,301.33L837.39,302.64L836.79,303.3L834.77,303.64L834.16,306.13L831.56,306.23L830.49,306.99L829.17,307.34L827.87,305.32L824.87,300.07L832.07,296.97L832.37,290.74L830.65,288.56L830.42,287.54L830.9,283.79L831.26,282.25Z" class="land" id="OM" title="Oman"/>
    <path d="M910.71,272.52L911.26,274.81L912.19,276.08L912.26,277L910.36,277.21L909.44,276.6L907.74,276.55L904.78,276.03L902.88,275.1L902.39,274.3L900.83,273.7L898.91,274.07L894.64,272.53L890.47,270.1L888.93,269.54L888.69,266.74L889.7,265.39L890.52,264.85L892.13,264.88L892.69,265.54L895.87,267.1L897.5,268.44L898.78,268.33L899.49,269.28L902.5,271.13L903.98,271.25L906.27,272.34L906.46,271.85L908.26,272.62Z" class="land" id="NP" title="Nepal"/>
    <path d="M959.41,342.5L959.1,341.52L958.97,340.3L958.25,338.88L958.82,338.55L959.09,338.68L959.41,342.5ZM0.91,338.68L2.47,339.5L2.89,340.9L4.54,340.79L5.26,339.5L5.26,339.5L7.42,341.71L8.42,343.8L8.47,345.21L8.07,347.13L8.16,349.71L9.11,350.8L10.28,354.19L8.7,354.29L6.15,353.04L2.43,349.86L2.5,348.72L1.05,346.52L0.91,344.41L0.59,342.5L0.91,338.68ZM46.01,345.89L44.78,345.38L41.57,345.34L40.63,346.61L40.2,349.4L39.19,349.99L39.41,350.98L38.33,351.82L38.43,352.65L37.63,354.23L35.91,354.33L35.16,354.95L32.12,353.95L30.2,355.68L27.99,355.62L26.83,356.1L24.6,353.78L24.56,352.51L25.49,353.46L28.02,354.08L28.61,353.39L28.9,351.25L30.24,349.96L33.8,348.87L36.3,345.67L36.74,344.59L38.09,346.34L38.77,345.21L38.58,344.2L39.36,343.64L39.66,343.64L40.7,343.18L40.51,342.06L41.55,341.68L42.6,339.85L43.64,338.64L45.81,338.16L46.61,338.67L46.49,340.43L47.54,340.08L49.01,341.51L50.64,342.06L50.34,343.02L47.76,343.86L48.51,345.3Z" class="land" id="MY" title="Malaysia"/>
    <path d="M917.52,226.85L916.3,226.68L915.27,227.02L909.31,226.34L907.46,226.55L905.32,225.06L901.71,221.79L900.02,221.57L896.31,219.89L893.94,219.48L890.96,219.36L889.01,218.99L887.8,217.99L887.52,216.44L885.2,213.66L882.27,211.48L879.76,210.49L878.55,210.5L874.79,208.83L873.02,207.01L873.25,206.14L874.75,206.15L876.06,205.35L875.6,204.79L878.76,202.44L884.79,202.85L886.93,204.43L889.33,204.77L889.85,204.47L892.82,204.86L893.71,205.31L894.95,204.27L894.23,202.91L892.04,201.57L891.41,200.49L891.64,198.35L896.31,199.48L917.52,226.85ZM63.69,199.48L65.26,200.18L66.7,200.48L65.17,202.76L67.2,204.09L72.1,203.09L74.8,203.57L75.24,204.54L76.76,204.73L76.17,205.72L76.89,206.53L78.38,206.49L81.72,207L83.36,206.43L87.99,205.65L88.66,205.11L92.41,203.69L93.94,204.66L96.09,204.47L96.95,205.03L96.95,205.03L90.13,210.67L90.37,211.45L92.81,210.89L93.73,211.55L95.45,210.54L97.16,210.55L98.27,213.07L97.13,214.71L94.03,214.38L90.97,215.45L88.98,215.67L87.18,217.17L85.15,218.19L82.16,218.48L78.66,220.36L75.26,219.39L72.62,221.52L72.57,223.52L69.59,224.65L66.98,226.39L64.03,227.36L60.92,227.39L57.19,227.87L52.26,229.56L50.83,229.14L48.66,229.52L47.62,228.74L45.36,228.1L45.25,227.33L42.48,226.85L63.69,199.48Z" class="land" id="MN" title="Mongolia"/>
    <path d="M950.16,294L949.87,294.69L949.92,295.97L949.22,295.64L947.26,297.66L945.56,297.91L944.66,298.63L945.21,301.23L944.6,301.62L946.07,304.14L948.31,306.32L949.47,308.4L949.78,311.19L948.93,311.81L949.33,313.01L952.38,316.41L953.18,319.43L953.78,320.02L954.75,322.39L953.97,324.48L953.03,325.85L953.1,327.31L952.25,325.81L952.66,324.85L952.53,322.98L951.23,318.12L950.02,316.36L948.16,312.87L946.48,307.68L945.85,307.73L944.93,306.06L943.84,307.6L941.86,308.82L941.19,310.2L939.94,309.91L938.68,308.45L937.81,308.95L937.73,304.48L936.83,302.53L935.32,300.38L934.25,299.97L934.67,298.69L932.47,296.77L931.51,296.72L930.39,295.21L929.1,294.5L928.27,292.94L929.19,292.4L928.65,290.82L929.64,290.74L929.81,289.63L929.24,288.52L929.57,287.24L928.49,284.47L930.78,284.93L931,281.29L930.38,280.16L930.97,278.2L930.3,276.48L931.95,274.55L933.36,274.17L934.32,272.31L933.93,271.44L934.1,270.53L936.02,271.68L937.29,273.51L938.17,273.44L939.61,276.52L940.21,278.59L938.8,281.33L938.94,283.02L939.99,284.86L941.12,284.2L942.55,284.18L943.8,287.05L945.14,287.35L945.75,289.2L945.75,290.36L947.74,290.66L949.08,292.42L949.6,292.2L950.16,294ZM10.4,292.2L11.55,291.82L12.26,292.09L12.26,292.09L11.01,292.88L9.84,294L10.4,292.2Z" class="land" id="MM" title="Myanmar"/>
    <path d="M887.88,345.91L887.78,345.89L887.85,345.7L887.92,345.67Z" class="land" id="MV" title="Maldives"/>
    <path d="M45.03,290.14L45.11,290L45.23,290.05Z" class="land" id="MO" title="Macau"/>
    <path d="M903.57,328.47L904.29,328.53L905.67,329.85L907.76,332.74L908.03,333.71L909.45,336.27L909.53,337.46L909.06,338.94L906.74,340.31L905.02,339.78L904.22,337.69L903.83,335.35L903.77,331.3L904.11,329.98Z" class="land" id="LK" title="Sri Lanka"/>
    <path d="M771.38,255.24L770.58,256.35L769.81,256.32L770.41,251.53L771.57,251.57L772.37,252.79L771.32,254.51Z" class="land" id="LB" title="Lebanon"/>
    <path d="M951.31,297.86L951.15,297.71L951.18,297.4L951.31,297.86ZM8.82,297.4L9.3,296.68L9.08,296.51L9.84,294L9.84,294L11.01,292.88L12.26,292.09L12.14,293.16L13.33,293.39L14.04,291.44L13.94,289.96L15.64,289.57L15.64,289.57L16.41,291.8L16.74,294.19L17.94,294.79L19.26,294.03L20.38,294.95L20.71,296.9L19.35,298.16L18.06,297.96L17.42,299L19.11,300.66L20.53,302.67L20.81,303.96L22.35,306.39L22.5,307.92L24.05,309.21L23.3,310.13L24.19,311.65L23.49,313.35L21.39,314.56L20.72,313.74L19.19,314.47L18.74,315.77L17.09,314.46L17.98,313.89L18.62,311.32L19.14,310.27L17.94,308.85L17.51,307.34L18.17,305.32L16.7,302.16L15.57,301.86L14.3,302.72L13.12,303.48L11.76,302.5L8.56,304.76L9.16,301.89L10.26,300.12L10.44,298.26L8.99,298.5L8.69,297.86L8.82,297.4ZM950.92,296.51L949.92,295.97L949.87,294.69L950.16,294L950.92,296.51Z" class="land" id="LA" title="Lao People's Democratic Republic"/>
    <path d="M808.18,270.43L806.22,270.46L805.17,269.04L802.76,268.71L803.41,266.02L804.71,265.6L805.6,265.95L805.94,267.09Z" class="land" id="KW" title="Kuwait"/>
    <path d="M103.7,239.16L103.6,240.54L104,243.33L103.55,244.98L102.37,247.11L102.61,247.44L100.65,249.81L98.77,250.06L98.28,250.78L96.57,250.52L94.36,251.59L92.82,251.95L93.28,249.9L95.24,247.99L95.86,245.8L95.63,244.58L97.44,243.58L98.06,241.76L100.21,240.14L102.37,240.13Z" class="land" id="KR" title="South Korea"/>
    <path d="M12.96,326.63L12.58,326.22L10.67,326.03L11.31,325.15L10.93,324.35L9.81,325.07L10.01,323.38L9.63,322.62L9.54,320.4L9,319.65L9.03,316.96L11.84,314.5L16.07,314.21L17.09,314.46L18.74,315.77L19.19,314.47L20.72,313.74L21.39,314.56L23.49,313.35L22.63,315.14L22.94,317.27L22.37,318.53L22.08,320.59L18.97,321.88L18.64,322.7L17.32,322.84L17.17,323.9L17.86,324.77L15.75,324.99L14.14,326.24Z" class="land" id="KH" title="Cambodia"/>
    <path d="M869.14,228.18L869.45,228.66L867.65,229.43L866.11,230.69L866.04,231.6L863.03,231.89L863.1,233.53L861.85,233.98L860.63,233.05L857.67,234.78L858.2,236.13L857.76,236.61L853.99,236.91L852.03,236.15L847.61,236.23L846.41,235.65L846.61,234.61L847.51,234.29L848.95,234.76L849.89,234.17L851.83,234.44L854.27,232.49L853.01,232.23L849.98,230.56L849.5,231.41L847.76,231.03L845.77,230.08L846.62,228.7L846.48,228L846.39,226.51L847.59,226.24L850.58,227.04L851.9,226.94L851.5,225.69L852.65,224.96L855.29,225.99L859.77,225.78L865.55,226.43L866.9,227.36Z" class="land" id="KG" title="Kyrgyzstan"/>
    <path d="M872.04,207.24L870.88,207.47L871.48,208.91L869.91,209.35L870.41,210.76L872.16,212.75L870.99,214.03L866.45,212.96L866.33,213.42L867.84,218.01L869,219.21L866.52,218.64L863.42,219.57L864.89,220.36L865.91,222.34L868.74,225.2L868.16,226.72L869.14,228.18L866.9,227.36L865.55,226.43L859.77,225.78L855.29,225.99L852.65,224.96L851.5,225.69L851.9,226.94L850.58,227.04L847.59,226.24L846.39,226.51L846.48,228L843.39,230.71L842.66,232.89L840.91,231.23L838.25,231.4L836.07,228.78L834.86,228.75L833.43,225.72L829.29,223.51L828.45,224.01L825.33,223.77L822.62,224.19L818.72,221.44L810.83,217.9L805.59,219.6L807.86,223.81L811.45,230.84L810.49,231.03L807.92,229.01L805.38,227.73L803.45,228.13L802.25,229.44L801.02,226.43L798.96,225.97L796.76,224.22L794.51,222.05L793.89,220.72L794.05,218.5L796.66,218.38L796.78,215.97L796.05,214.52L794.96,213.66L793.43,214.01L790.57,213.19L787.09,215.49L785.85,214.2L782.22,211.27L779.47,210.66L777.67,209.26L777.33,207.2L776.37,206.4L776.01,203.69L776.71,203.38L779.38,205.02L780.01,204.47L778.88,202.71L779.6,201.28L780.96,200.67L781.41,199.36L783.75,200.09L785.05,199.51L785.99,200.1L787.76,200.09L791.61,202.18L791.9,201.53L795.15,202.71L795.96,201.47L798.42,201.86L800.21,201.34L802.15,202.44L804.53,202.77L807.65,201.94L806.43,200.21L803.93,199.59L802.64,198.49L803.74,197.73L802.48,196.36L802.27,194.77L801.06,193.79L800.97,192.54L802.54,192.84L807.37,191.56L808.99,191.61L809.15,190.86L810.74,190.73L814.28,189.88L815.35,188.63L818.59,189.29L819.52,188.88L822.16,190.93L822.83,192.06L827.22,192.37L829,193.23L831.78,193.71L834.37,191.77L835.94,192.85L839.84,194.5L843.33,196.68L851.08,202.2L852,200.69L854.6,202.3L857.02,202.34L858.41,201.54L860.29,202.2L862.13,203.64L864.36,204.32L865.77,205.51L868.42,206L869.19,205.67Z" class="land" id="KZ" title="Kazakhstan"/>
    <path d="M103.43,254.71L104.52,254.56L104.79,255.79L104.46,257.07L103.53,257.84L101.04,261.54L98.86,262.24L98.99,259.4L100.79,257.76L98.92,255.85L103.22,253.87ZM112.31,252.68L112.7,254.03L110.55,255.81L109.51,254.99L108.44,255.46L106.99,257.07L105.87,256.84L106.31,254.99L108,253.5L110.04,253.42L111.74,252.36ZM139.64,230.69L139.03,233.03L139.14,235.39L137.87,237.65L137.08,238.07L135.78,239.84L134.8,240.04L133.8,241.24L132.57,244.17L131.04,245.72L130.43,247.09L130.61,248.13L129.28,248.79L128.46,249.89L126.91,250.51L127.13,249.11L125.95,249.51L124.52,251.31L124.01,250.11L122.39,251.63L119.39,250.98L118.68,252.47L117.17,252.93L115.34,254.84L114.15,254.86L114.22,252.58L115.22,251.92L113.95,251.1L109.31,252.54L106.94,252.77L105.45,253.32L103.28,253.55L104.05,252.26L104.96,252.19L110.41,248.79L113.68,248.7L116.37,248.06L117.31,248.81L121.57,244.98L123.21,244.89L123.9,244.33L126.28,243.5L128.57,241.57L130.28,240.64L133.72,236.73L135.23,233.07L136.5,232.31L138.6,232.2ZM150.34,222.28L152.41,222.82L152.85,223.36L152.5,225.16L150.4,225.86L148.69,226.06L147.3,226.92L145.52,228.76L143.06,226.98L140.58,227.71L138.93,227.74L138.94,229.33L137.8,230.24L137.82,227.57L138.41,226.77L141.5,225.04L142.72,225.08L144.92,222.58L146.43,220.45L146.7,219.11L148.16,218.04L148.82,220.14Z" class="land" id="JP" title="Japan"/>
    <path d="M780.99,259.3L780.73,259.66L776.05,261.27L779.59,264.35L778.76,265.92L777.05,266.32L775.76,268.42L772.89,267.91L772.78,267.28L772.24,261.31L771.61,258.46L771.87,257.4L773.7,258.48L774.9,258.7L778.77,255.43Z" class="land" id="JO" title="Jordan"/>
    <path d="M771.87,257.4L771.61,258.46L770.57,258.03L770.33,259.19L770.85,260.92L772.24,261.31L772.78,267.28L769.43,262.15L769.66,260.98L769.88,260.01L769.81,256.32L770.58,256.35L771.38,255.24Z" class="land" id="IL" title="Israel"/>
    <path d="M789.52,243.74L792.38,247.23L793.49,247.78L795.36,249.98L794.6,251L794.83,253.57L797.54,255.87L797.76,256.71L801.52,258.37L803.36,260.33L803.8,262.79L804.66,262.83L805.21,264.45L807.07,266.02L805.6,265.95L804.71,265.6L803.41,266.02L802.76,268.71L798.03,268.41L792.03,264.36L789.46,262.54L784.28,259.88L780.99,259.3L778.77,255.43L782.58,252.45L783.37,251.09L782.79,248.39L782.02,247.05L781.93,245.68L782.76,245.42L783.57,243.84L784.28,243.03L786.28,243.42L787.83,243.3L788.52,244.25Z" class="land" id="IQ" title="Iraq"/>
    <path d="M812.03,243.11L813.88,242.63L814.16,241.39L815.14,240.78L816.79,240.86L817.07,240.31L818.98,240.42L819.93,241.25L822.87,242.2L825.03,242.57L826.31,243.62L827.85,244.29L828.99,245.3L830.93,245.28L832.67,248.45L833.21,250.82L832.69,253.18L833.33,254.6L834.52,255.01L834.07,256.15L835.82,258.91L836.78,261.29L838.95,261.61L839.89,263.31L838.95,265.5L838.58,266.34L840.32,267.85L841.72,269.66L843.98,270.83L845.4,272.11L846.23,274.45L847.26,274.44L847.85,276.26L846.07,276.59L844.91,277.58L845.15,280.81L844.79,281.12L839.38,279.94L836.04,279.6L833.62,278.98L831.68,275.52L829.79,274.6L828.18,275.29L826.63,276.6L823.4,276.08L820.24,274.22L819.41,273.31L817.12,272.6L815.85,271.71L814.72,269.86L813.32,268.55L812.99,267.7L810.49,265.25L809.58,265.81L807.86,265.53L807.07,266.02L805.21,264.45L804.66,262.83L803.8,262.79L803.36,260.33L801.52,258.37L797.76,256.71L797.54,255.87L794.83,253.57L794.6,251L795.36,249.98L793.49,247.78L792.38,247.23L789.52,243.74L788.26,241.87L787.19,241.37L787.17,239.98L784.84,236.83L785.71,235.63L788.92,237.98L791.71,238.29L793.72,235.99L794.22,235.89L795.78,238.06L795.46,238.56L797.4,239.81L797.98,239.73L799.59,242.11L802.54,242.92L804.04,244.14L805.85,244.98L808.68,245.35L812.8,244.33Z" class="land" id="IR" title="Iran"/>
    <path d="M884.47,381.52L884.41,381.49L884.44,381.32L884.36,381.07L884.51,381.17Z" class="land" id="IO" title="British Indian Ocean Territory"/>
    <path d="M881.64,260.04L882.73,261.86L884.24,262.47L884.35,262.55L885.98,263.12L886.01,263.14L887.1,264.13L889.7,265.39L888.69,266.74L888.93,269.54L890.47,270.1L894.64,272.53L898.91,274.07L900.83,273.7L902.39,274.3L902.88,275.1L904.78,276.03L907.74,276.55L909.44,276.6L910.36,277.21L912.26,277L912.19,276.08L911.26,274.81L910.71,272.52L911.75,271.83L912.61,272.52L913.38,274.24L913.71,275.34L916.35,276.15L917.63,275.56L918.78,275.93L921.93,275.67L921.62,274.32L919.89,272.86L920.82,272.95L922.31,272.27L922.89,270.28L924.4,269.62L925.58,268.04L927.96,268.84L929.01,267.62L930.57,268.85L932.33,270.98L933.93,271.44L934.32,272.31L933.36,274.17L931.95,274.55L930.3,276.48L930.97,278.2L930.38,280.16L931,281.29L930.78,284.93L928.49,284.47L929.57,287.24L929.24,288.52L929.81,289.63L929.64,290.74L928.65,290.82L927.75,288.62L926.09,285.52L925.48,286.08L925.18,287.71L924.27,287.32L923.3,285.6L923.38,284.25L924.6,283.93L924.82,281.76L923.99,280.91L919.84,280.95L918.06,280.49L917.37,278.51L913.32,277.18L912.94,278.68L914.24,279.65L914.67,280.85L914.62,283.03L916.41,283.83L916.55,285.55L917.24,286.29L919.36,290.46L919.77,291.82L917.72,291.92L916.74,291.29L914.82,292.3L914.43,293.12L915.21,294.78L914.95,295.98L914.05,297.2L912.4,297.9L910.75,299.66L909.64,302.24L908.63,302.94L907.77,304.36L905.92,305.95L906.03,307.61L904.87,308.32L903.54,308.53L903.18,310.09L902.21,309.67L901.4,310.24L901.16,312.21L901.82,314.88L902.89,317.51L902.94,319.58L902.3,321.75L902.98,326.9L901.8,326.95L901,328.88L901.11,330.16L899.69,330.66L899.15,331.32L898.97,332.89L897.63,333.83L896.06,332.82L894.8,331.28L893.99,329.59L893.87,328.14L891.63,323.69L889.92,321.54L888.3,318.39L887.73,316.56L886.52,314L885.05,312.21L884.82,311.21L883.22,309.18L882.6,307.92L881.37,304.32L879.88,301.03L878.5,297.48L878.49,295.21L877.86,293.49L876.68,291.69L876.31,289.89L875.64,289.91L875.25,291.3L876.06,292.2L875.75,293.37L873.49,294.66L872.69,294.66L870.87,293.56L867.05,290.14L869.77,288.97L869.62,287.74L868.28,288.39L867.08,288.12L865.24,287.06L863.41,284.99L864.77,284.65L864.5,283.72L867.15,284.01L869.07,283.24L870.38,283.3L870.12,282.41L868.39,280.12L867.1,279.24L866.26,278.11L866.06,276.87L863.95,275.83L863.82,274.68L865.06,272.04L866.23,272.96L868.89,272.23L869.22,269.78L870.34,268.92L870.51,266.1L871.41,265.61L871.23,264.55L872.36,262.69L871.19,260.58L872.54,258.82L870.52,258.08L867.88,255.83L867.91,255.01L865.85,251.45L866.55,251.1L870.46,251.92L872.35,251.2L872.95,250.03L874.26,248.84L874.31,248.87L876.71,251.45L878.79,252.38L878.71,253.2L879.66,255.03L880.83,255.88L880.96,256.05L882,257.94L882.09,258.13L879.96,258.07Z" class="land" id="IN" title="India"/>
    <path d="M53.91,387.69L55.32,388.62L56.34,389.74L55.4,390.53L52.97,388.92L51.57,388.72L51.71,387.72ZM67.38,388.12L65.92,390.08L64.49,390.69L63.63,389.52L63.81,388.43L64.58,387.59L65.61,387.12L66.8,386.36ZM44.67,385.34L44.09,386.32L43.07,384.8L43.9,384.08ZM61,385.34L58.09,386.22L56.46,386.33L53.12,385.6L53.33,384.82L55.1,384.19L57.43,385.23L58.77,384.85L59.62,385.38ZM48.83,384.43L50.82,384.49L51.01,385.76L48.87,386.04L45.97,386.84L45.21,386.55L45.16,385.09L45.98,384.58L47.07,384.77L48.43,383.82ZM41.35,383.93L42.11,384.7L41.01,385.91L38.75,383.82ZM102.76,384.29L102.17,384.7L100.5,384.26L101.18,382.34L101.89,381.71L103.14,381.57L103.81,382.51ZM83.51,383.45L83.19,381.81L84.33,381.71ZM36.76,380.68L35.79,381.03L33.89,380.79L34.1,380.05L37.03,379.97ZM91.65,378.64L91.25,379.79L90.45,379.65L90.6,377.82ZM19.23,377.3L20.07,377.94L21.75,378.09L22.92,379.71L27.61,380.2L28.31,378.73L29.47,379.34L30.49,379.27L32.02,380.03L33.23,380.13L34.1,382.07L35.36,382.58L37.52,382.31L38.59,383.13L38.83,385.17L38.09,385.38L35.56,384.33L34.07,384.71L30.93,384.39L28.48,383.91L26.88,383.11L23.35,382.42L22.63,382.82L21.18,382.59L19.42,381.82L17.66,381.64L17.25,380.53L14.41,379.69L15.75,377.01L17.79,377.58ZM92.04,376.37L92.17,377.8L91.37,378.31L90.97,376.39ZM59.73,375.02L58.89,373.47L59.75,373.01ZM70.61,368.29L71.62,369.22L71.66,369.97L70.24,370.56L68.95,369.88L68.4,368.54ZM78.3,367.6L79.98,367.98L81.33,369.78L81.22,370.66L78.59,369.03L77.6,369.41L76.25,369.02L74.8,369.3L73.88,368.58L74.15,367.6L77.42,367.37ZM20.87,368.01L19.32,368.66L19.38,366.68L20.47,366.77ZM65.44,364.02L63.99,364.95L63.87,363.97ZM14.98,363.91L15.9,366.36L16.76,367.1L16.46,368.19L14.97,367.47L14.33,365.49L12.58,365.06L13.74,363.47ZM73.93,363.88L72.35,364.09L72.56,362.87ZM956.55,364.24L955.79,363.89L955.09,362.46L955.82,361.58L956.84,363.78ZM108.18,366.81L108.34,371.17L108.76,378.34L109.5,386.9L106.43,383.76L103.58,383.89L104.04,382.17L103.05,381.14L103.26,379.92L102.01,378.33L100.82,375.62L98.14,373.95L95.11,372.74L93.01,372.49L90.12,370.47L88.75,369.14L87.76,371.29L87.02,371.39L86.4,370.19L86.34,368.93L85.23,367.94L87.42,366.28L88.54,366.62L89.34,365.25L86.8,365.77L85.05,365.68L84.27,364.9L83.99,363.57L82.29,363.06L82.17,361.4L83.62,360.93L84.48,360.16L85.8,359.87L88.07,361L89.41,361.06L90.19,362.97L89.8,364.07L89.97,365.53L92.43,369.04L93.63,369.08L95.57,366.73L95.93,365.77L97.14,365.54L97.86,364.44L99.66,363.34L101.92,364.29L105,366L107.23,366.31ZM952.09,354.24L953.31,355.76L953.18,356.82L951.91,355.84ZM65.19,355.69L63.94,357.31L62.15,357.82L60.36,357.26L57.05,357.41L55.94,357.23L53.07,357.37L52.17,359.71L52.4,360.77L53.53,361.97L53.95,362.99L54.93,363.1L56.2,361.4L57.4,361.64L58.22,361.1L59.85,361.09L58.85,362.92L56.78,364.51L57.17,365.95L58.73,368.64L58.4,369.93L60.13,371.44L60.23,372.18L58.41,372.63L57.7,373.72L56.51,372.89L56.78,371.39L54.82,369.73L55.09,367.25L54.02,366.99L52.99,368.18L53.57,370.2L53.67,373.01L53.57,375.86L52.02,376.33L51.05,375.5L51.48,372.41L51.45,371.21L50.82,369.48L49.7,369.68L49.04,367.29L49.83,366.42L50.4,364.71L50.33,363.1L51.53,360.25L51.62,358.02L52.87,355.76L53.52,356.24L54.6,354.78L56.4,355.47L58.65,355.62L59.86,356.14L60.89,355.9L62.4,356.17L63.55,355.61L65.49,353.51L66.13,354.13ZM72.77,356.14L74.64,354.08L75.36,355.35L74.28,356.05L75.31,357.65L72.29,357.25L71.95,354.9L72.55,353.07L73.55,353.51L73.53,354.65ZM46.01,345.89L46.08,347.54L44.83,347.68L45.95,349.31L47.08,351.61L46.52,352.69L47.07,353.51L49.45,355.73L48.24,356.25L46.13,356.51L45.53,358.03L45.37,359.76L45.64,361.14L42.99,363.31L42.68,365.09L43.08,365.85L41.61,369.85L38.34,371.62L37.81,369.54L36.57,368.88L35.83,369.42L35.08,368.58L33.6,368.59L32.64,369.25L31.79,369.01L30.58,369.66L30.52,368.19L29.29,367.81L28.45,368.19L26.26,367.78L25.56,363.08L24.92,361.88L24.03,361.44L23.23,360.29L23.48,358.66L22.65,357.66L22.56,356.31L23.05,354.15L24.56,352.51L24.6,353.78L26.83,356.1L27.99,355.62L30.2,355.68L32.12,353.95L35.16,354.95L35.91,354.33L37.63,354.23L38.43,352.65L38.33,351.82L39.41,350.98L39.19,349.99L40.2,349.4L40.63,346.61L41.57,345.34L44.78,345.38ZM0.09,351.73L0.13,351.8L1.7,351.8L2.8,353.54L3.61,353.76L5.4,356.36L6.98,357.24L8.08,357.28L8.9,358.62L7.94,359.35L7.95,360.41L8.74,361.5L10.45,361.96L11.37,366.12L13.31,366.1L15.12,368.34L14.66,369.91L15.04,374.22L15,376.28L13.73,375.88L13.06,376.49L11.83,375.79L11.82,376.98L9.58,374.43L5.94,371.57L4.75,369.86L3.23,368.53L1.16,365.37L1.16,364.73L0,362.14L0.09,351.73ZM960,362.14L959.66,361.31L957.78,358.45L956.6,357.67L955.59,354.15L954.94,352.89L952.6,351.48L952.25,349.98L950.49,347.73L949.05,346.99L946.35,344.07L945.47,342.46L946.51,341.45L947.93,342.43L948.9,342.63L948.9,342.63L951.45,342.61L952.75,343.7L953.75,345.14L953.97,346.13L957.91,348.94L959.91,351.73L960,362.14Z" class="land" id="ID" title="Indonesia"/>
    <path d="M46.73,289.16L47.41,289.07L47.18,289.83Z" class="land" id="HK" title="Hong Kong"/>
    <path d="M36.28,296.98L36.33,298.02L34.77,299.52L34.11,300.83L31.24,302.47L29.35,301.49L29.98,299L33.04,297L35.57,296.73ZM949.6,292.2L949.08,292.42L947.74,290.66L945.75,290.36L945.75,289.2L945.14,287.35L943.8,287.05L942.55,284.18L941.12,284.2L939.99,284.86L938.94,283.02L938.8,281.33L940.21,278.59L939.61,276.52L938.17,273.44L937.29,273.51L936.02,271.68L934.1,270.53L933.93,271.44L932.33,270.98L930.57,268.85L929.01,267.62L927.96,268.84L925.58,268.04L924.4,269.62L922.89,270.28L922.31,272.27L920.82,272.95L919.89,272.86L919.59,272.27L916.21,271.87L914.97,271.15L914.08,271.78L913.38,274.24L912.61,272.52L911.75,271.83L910.71,272.52L908.26,272.62L906.46,271.85L906.27,272.34L903.98,271.25L902.5,271.13L899.49,269.28L898.78,268.33L897.5,268.44L895.87,267.1L892.69,265.54L892.13,264.88L890.52,264.85L889.7,265.39L887.1,264.13L886.01,263.14L885.98,263.12L884.35,262.55L884.24,262.47L882.73,261.86L881.64,260.04L879.96,258.07L882.09,258.13L882,257.94L880.96,256.05L880.83,255.88L879.66,255.03L878.71,253.2L878.79,252.38L876.71,251.45L874.31,248.87L874.26,248.84L873.41,248.9L869.92,247.86L868.85,247.22L867.64,245.26L866.01,244.45L863.83,244.11L864.38,243.46L862.02,239.51L859.53,239.21L857.76,236.61L858.2,236.13L857.67,234.78L860.63,233.05L861.85,233.98L863.1,233.53L863.03,231.89L866.04,231.6L866.11,230.69L867.65,229.43L869.45,228.66L869.14,228.18L868.16,226.72L868.74,225.2L865.91,222.34L864.89,220.36L863.42,219.57L866.52,218.64L869,219.21L867.84,218.01L866.33,213.42L866.45,212.96L870.99,214.03L872.16,212.75L870.41,210.76L869.91,209.35L871.48,208.91L870.88,207.47L872.04,207.24L873.02,207.01L874.79,208.83L878.55,210.5L879.76,210.49L882.27,211.48L885.2,213.66L887.52,216.44L887.8,217.99L889.01,218.99L890.96,219.36L893.94,219.48L896.31,219.89L900.02,221.57L901.71,221.79L905.32,225.06L907.46,226.55L909.31,226.34L915.27,227.02L916.3,226.68L917.52,226.85L936.48,259.44L949.6,292.2ZM42.48,226.85L45.25,227.33L45.36,228.1L47.62,228.74L48.66,229.52L50.83,229.14L52.26,229.56L57.19,227.87L60.92,227.39L64.03,227.36L66.98,226.39L69.59,224.65L72.57,223.52L72.62,221.52L75.26,219.39L78.66,220.36L82.16,218.48L85.15,218.19L87.18,217.17L88.98,215.67L90.97,215.45L94.03,214.38L97.13,214.71L98.27,213.07L97.16,210.55L95.45,210.54L93.73,211.55L92.81,210.89L90.37,211.45L90.13,210.67L96.95,205.03L99.04,205.96L101.13,204.97L103.14,204.47L104.06,203.37L108.88,199.74L111.16,198.64L112.41,197.1L111.7,196.24L114.01,195.11L118.49,194.19L121.54,194.01L123.33,195.22L125.04,195.49L125.11,197.38L123.65,201.23L123.28,203.88L122.36,204.88L122.89,205.79L124.6,205.7L125.97,206.53L126.97,209.48L126.08,211.38L129.68,211.36L130.68,210.66L135.26,209.38L135.8,209.54L135.07,211.36L132.89,212.61L130.17,215.8L127.16,218.08L125.71,219.5L123.81,218.85L121.04,219.86L119.93,222.42L118.81,224.37L117.41,225.99L115.45,227.12L115.45,227.12L114.74,225.7L113.39,227.3L112.29,227.49L110.69,228.64L108.46,228.8L107.59,230.64L105.56,230.2L105.32,229.43L101.57,232.13L98.11,233.5L96.05,234.9L95.14,235.4L93.15,235.64L89.98,236.87L88.68,236.76L88.43,236.02L91.84,233.24L91.34,232.32L89.77,232.14L86.89,234.2L84.13,235.21L81.2,237.48L78.36,237.58L76.93,239.15L77.32,240.52L79.39,240.95L79.2,242.01L78.26,243.15L79.17,243.79L83.54,241.6L85.15,242.75L87.49,242.86L86.53,244.34L85.09,244.3L82.17,245.42L78.7,247.7L75.31,250.34L75.6,251.67L76.78,252.47L76.61,256.53L76.08,257.63L77.07,258.53L76.26,260.13L76.37,263.05L73.67,264.17L73.76,264.96L75.25,266.23L73.9,268.21L72.54,270.98L71.17,271.21L67.69,274.92L64.15,279.6L62.43,280.74L60.57,282.74L59.39,282.6L58.92,283.78L53.93,287.09L53.53,287.81L50.78,288.52L47.41,289.07L46.73,289.16L46.03,288.08L45.23,290.05L45.11,290L45.03,290.14L43.73,290.38L42.31,291.44L40.7,291.22L39.55,292.12L37.22,292.65L35.39,293.73L35.76,295.35L34.52,296.13L33.89,294.11L35.11,292.36L31.12,291.7L30.03,292.28L28.5,291.96L27.26,290.75L27.14,289.52L27.67,287.93L25.87,287.89L24.82,286.57L23.13,287.92L21.81,288.56L19.09,288.38L18,289.34L17.03,288.45L15.64,289.57L13.94,289.96L14.04,291.44L13.33,293.39L12.14,293.16L12.26,292.09L11.55,291.82L10.4,292.2L23.52,259.44L42.48,226.85Z" class="land" id="CN" title="China"/>
    <path d="M919.89,272.86L921.62,274.32L921.93,275.67L918.78,275.93L917.63,275.56L916.35,276.15L913.71,275.34L913.38,274.24L914.08,271.78L914.97,271.15L916.21,271.87L919.59,272.27Z" class="land" id="BT" title="Bhutan"/>
    <path d="M39.36,343.64L38.58,344.2L38.77,345.21L38.09,346.34L36.74,344.59L38.87,343.5L39.36,343.64L39.66,343.64Z" class="land" id="BN" title="Brunei"/>
    <path d="M816.16,278.69L815.73,278.44L815.49,277.74L815.96,277.94Z" class="land" id="BH" title="Bahrain"/>
    <path d="M928.65,290.82L929.19,292.4L928.27,292.94L929.1,294.5L928.06,293.31L927.46,291.73L925.85,289.18L924.82,288.28L923.81,288.9L922.33,288.42L923.21,289.95L922.51,291.32L921.45,290.8L920.19,291.61L919.36,290.46L917.24,286.29L916.55,285.55L916.41,283.83L914.62,283.03L914.67,280.85L914.24,279.65L912.94,278.68L913.32,277.18L917.37,278.51L918.06,280.49L919.84,280.95L923.99,280.91L924.82,281.76L924.6,283.93L923.38,284.25L923.3,285.6L924.27,287.32L925.18,287.71L925.48,286.08L926.09,285.52L927.75,288.62Z" class="land" id="BD" title="Bangladesh"/>
    <path d="M831.07,279.42L831.89,281.5L831.26,282.25L830.9,283.79L830.42,287.54L830.65,288.56L830.5,288.82L823.62,287.85L820.22,284.3L819.99,283.65L821.11,284.59L822.9,284.06L826.19,284.3L827.33,283.68L827.79,282.03L830.02,278.97L830.13,278.14Z" class="land" id="AE" title="United Arab Emirates"/>
    <path d="M864.38,243.46L863.83,244.11L862.11,244.52L859.34,244.71L857.43,245.92L856.91,247.15L857.82,247.79L859.23,249.81L858.49,251.83L859.36,253.32L856.59,253.8L858.34,255.44L856.82,256.52L856.91,258.34L857.63,259.88L856.96,260.82L855.08,260.29L853.84,261.22L853.45,262.12L852.42,261.84L851.55,263.07L852.23,266.41L849.77,267.27L848.3,267.25L847.41,267.79L845.93,267.46L843.24,267.74L838.58,266.34L838.95,265.5L839.89,263.31L838.95,261.61L836.78,261.29L835.82,258.91L834.07,256.15L834.52,255.01L833.33,254.6L832.69,253.18L833.21,250.82L832.67,248.45L835.64,249.6L837.39,248.99L837.02,247.84L838.64,247.24L839.81,246.22L839.45,243.77L841.12,243.4L841.18,242.42L843.39,243.1L846.72,243.65L847.81,244.33L849.49,243.17L850.56,243.84L850.74,242.34L852.16,242.38L851.72,241.44L852.53,239.67L853.7,240.14L855.18,241.5L855.93,243.78L857.5,245.13L859.36,243.35L860.51,242.72L861.54,243.46L862.53,242.89Z" class="land" id="AF" title="Afghanistan"/>
  </g>
</svg>