<?xml version="1.0" encoding="UTF-8"?>
<svg xmlns="http://www.w3.org/2000/svg" width="310.32" height="519.6" viewBox="324.84 -3.3 310.32 519.6">
  <!-- Created using SVG Map Generator: dojo.amcharts.com/svg-map-generator -->
  <style>
    .land { fill: #ffffff; stroke: #299e8b; stroke-width: 1.3; }
  </style>
  <rect x="324.84" y="-3.3" width="310.32" height="519.6" fill="#417ea4"/>
  <g id="polygons">
    <path d="M447.61,263.01L452.83,270.24L457.56,274.62L464.73,277.19L467.93,279.94L477.58,285.15L478.97,287.2L474.72,294.65L474.71,296.54L471.82,300.38L474.62,301.46L485.45,303.59L487.27,301.82L490.07,302.54L492.06,299.44L496.5,295.8L497.78,288.5L502.34,289.21L503.5,293.45L502.05,300.29L495.6,303.57L493.75,305.98L489.67,308.56L481.44,319.17L476.98,323.7L472.61,336.95L472.29,341.13L469.6,350.22L470.75,357.99L476.55,361.84L476.29,369.11L479.62,371.26L479.54,374.49L474.63,381.28L473.52,383.87L469.48,386.53L459.25,389.58L451.38,390.75L445.61,390.19L443.84,397.59L442.73,405.12L439.24,406.77L434.32,407.08L427.96,404.54L426.25,405.04L426.26,413.26L429.89,416.76L434.83,416.56L434.07,419.56L431.43,419.98L424.24,425.76L423.42,432.11L421.56,436.08L418.32,435.76L413.78,437.94L409.89,443.26L409.71,446.06L414.05,450.97L418.56,451.62L419.96,453.48L419.28,457.9L411.9,462.98L407.88,467.54L407.07,472.04L400.24,475.87L398.34,480.03L399.25,485.03L402.31,490.26L393.85,487.73L382.75,487.59L380.09,484.33L381,479.73L379.74,477.52L376.03,478.48L373.85,470.01L379.57,464.19L381.17,461.04L380.34,457.42L384.06,452.42L385.44,447.79L385.2,441.43L387.78,437.74L386.42,435.87L388.81,431.84L385.23,431.4L386.17,428L383.6,420.94L383.88,415.74L386.1,414.26L385.29,410.86L385.37,403.62L386.87,400.92L386.87,395.62L388.79,390.7L391.72,388.83L390.61,381.41L391.55,372L395.64,368.49L395.4,362.89L396.63,358.37L399.44,354.49L399.96,348.2L398.61,347.23L397.84,341.13L395.42,334.24L398.27,325.63L399.57,325L399.32,317.11L401.81,310.16L404.94,306.42L407.15,300.54L410.34,299.58L408.95,295.69L410.07,292.91L409.01,287.81L410.45,284.81L409.37,282.87L411.43,279.47L417.19,276.74L419.59,268.86L418.44,267.49L421.63,262.88L425.63,259.98L427.67,261.99L435.11,262.98L436.48,267.03L439.17,261.78L446.44,261.21ZM400.12,508.24L401.14,492.4L404.26,498.98L408.05,502.48L418.52,508.41L411.96,509.51L409.68,508.75Z" class="land" id="AR" title="Argentina"/>
    <path d="M476.93,247.25L476.89,244.61L471.17,240.56L465.27,240.65L453.93,243.29L450.4,250.28L450.28,254.11L447.61,263.01L446.44,261.21L439.17,261.78L436.48,267.03L435.11,262.98L427.67,261.99L425.63,259.98L421.63,262.88L418.44,267.49L414.06,267.5L412.27,255.9L410.43,250.65L408.87,249.49L409.27,243.87L410.83,241.68L407.63,238.14L406.93,231.16L404.3,227.01L403.6,224.68L407.57,220.44L405.1,212.54L406.73,209.76L405.44,207.68L408.72,201.87L407.51,197.95L408.2,191.85L410.14,188.98L404.44,177.21L412.12,177.72L423.07,169.8L431.79,167.81L431.69,179.45L434.21,184.98L437.88,188.51L446.65,190.25L448.57,192.74L452.38,193.78L454.83,196.75L459.47,196.48L463.12,198.76L464.33,205.06L464.83,217.61L475.41,218.06L476.13,224.94L479.71,227.06L481.19,232.9L479.53,239L477.23,244.05Z" class="land" id="BO" title="Bolivia"/>
    <path d="M490.56,79.46L492.86,76.75L500.21,74.53L502.77,76.55L505.96,78.11L508.33,76.33L513.59,77.63L515.31,76.27L519.9,66.13L522.08,63.4L524.92,63.16L526.06,69.31L528.69,78.03L530.01,80.31L533.3,81.6L533.7,85.37L531.11,87.85L527.7,92.87L524.65,94.82L521.89,99.95L520.27,106.2L527.03,102.63L528.5,107.53L530.37,109.45L534.85,108.78L537.52,107.3L539.63,108.05L545.39,99.77L550.09,98.93L553.93,100.09L561.56,104.39L565.28,105.29L568.05,107.41L570.26,113.39L571.54,113.87L579.25,112.86L583.73,115.34L586.18,114.99L589.82,116.43L595.35,115.36L598.69,115.86L608.37,122.35L611.11,126.13L616.75,131.41L620.55,132.81L627.36,133.05L629.35,136.37L631.86,149.42L631.53,154.6L627.93,164.15L620.71,173.66L617.1,176.21L613.81,181.35L611.83,185.93L608.01,191.58L604.47,191.11L602.25,197.23L603.05,200.59L602.06,205.34L602.77,214.53L600,225.56L600.23,228.52L597.95,230.69L596.03,235.64L595.99,240.5L590.88,250.33L588.19,252.9L586.23,257.46L585.44,261.87L581.59,263.59L579.1,268.45L569.53,269.2L567.47,268.17L562.47,269.28L557.13,274.08L553.58,274.92L547.65,278.28L540.85,284.09L536.2,290.33L534.9,297.1L535.42,300.86L534.52,307.58L533.12,311.39L526.73,317.4L522.66,325.52L517.32,325.05L515.02,330.3L511.66,332.83L510.25,338.81L506.43,346.21L501.63,350.82L500.96,346.46L503.72,343.15L500.13,337.96L495.28,333.6L487.45,330.43L485.76,327.06L481.88,323.08L476.98,323.7L481.44,319.17L489.67,308.56L493.75,305.98L495.6,303.57L502.05,300.29L503.5,293.45L502.34,289.21L497.78,288.5L500.75,276.84L498.4,275.05L493.61,276.41L491.11,263.58L486.86,262.01L484.16,263.3L477.52,261.58L478.82,253.6L476.93,247.25L477.23,244.05L479.53,239L481.19,232.9L479.71,227.06L476.13,224.94L475.41,218.06L464.83,217.61L464.33,205.06L463.12,198.76L459.47,196.48L454.83,196.75L452.38,193.78L448.57,192.74L446.65,190.25L437.88,188.51L434.21,184.98L431.69,179.45L431.79,167.81L423.07,169.8L412.12,177.72L404.44,177.21L397.51,177.66L397.63,166.03L393.68,169.73L387.53,170.02L386.26,166.27L380.85,165.52L382.4,162.35L378.67,157.44L375.73,151.45L377.39,149.78L377.34,146.52L381.41,143.18L380.78,140.4L383.08,133L389.91,128.32L395.61,127.15L396.76,125.8L402.21,126.28L405.97,103.23L404.22,97.83L401.58,95.23L401.69,89.8L407.52,87.63L403.01,86.15L403.02,81.23L413.97,81.15L419.37,78.37L422.5,84.91L425.43,87.95L434.11,85.78L440.58,81.91L441.09,79.75L445.29,77.34L441.81,75.6L439.86,69.89L439.83,66.99L437.55,64.63L445.89,64.46L448.03,66.94L449.7,63.73L453.35,63.12L460.86,59.81L463.44,56.33L462.53,54.76L467.45,55.66L466.7,59.99L468.52,60.26L470.39,64.37L468.42,66.99L467.54,73.79L469.12,79.78L472.57,83.75L474.99,85.06L478.4,82.15L483.28,81.26L486.39,78.92ZM535.48,95.92L538.83,95.42L543.66,96.85L540.05,105.41L535.72,107.15L529.7,107.73L528.06,103.58L528.82,96.25L531.42,95.06ZM521.03,105.04L522.92,99.1L524.68,101.92Z" class="land" id="BR" title="Brazil"/>
    <path d="M418.44,267.49L419.59,268.86L417.19,276.74L411.43,279.47L409.37,282.87L410.45,284.81L409.01,287.81L410.07,292.91L408.95,295.69L410.34,299.58L407.15,300.54L404.94,306.42L401.81,310.16L399.32,317.11L399.57,325L398.27,325.63L395.42,334.24L397.84,341.13L398.61,347.23L399.96,348.2L399.44,354.49L396.63,358.37L395.4,362.89L395.64,368.49L391.55,372L390.61,381.41L391.72,388.83L388.79,390.7L386.87,395.62L386.87,400.92L385.37,403.62L385.29,410.86L386.1,414.26L383.88,415.74L383.6,420.94L386.17,428L385.23,431.4L388.81,431.84L386.42,435.87L387.78,437.74L385.2,441.43L385.44,447.79L384.06,452.42L380.34,457.42L381.17,461.04L379.57,464.19L373.85,470.01L376.03,478.48L379.74,477.52L381,479.73L380.09,484.33L382.75,487.59L393.85,487.73L402.31,490.26L397.85,489.16L395.97,490.73L388.88,493.24L387.43,500.53L380.86,499.47L385.36,495.69L376.03,496.67L370.74,492.3L373.67,487.97L371.14,486.1L371.67,482.81L366.48,480.85L364.94,478.06L369.42,472.88L369.62,462.74L367.95,456.13L371,450.73L362.26,448.03L366.61,444.67L365.81,442.55L371.17,441.75L374.8,439.63L375.99,435.86L379.72,434.03L380.23,431.8L376.72,429.8L378.42,425.77L379.93,415.76L381.7,413.35L378.69,410.05L375.61,411.96L373.05,406.84L375,399.01L377.82,392.51L375.41,380.93L375.85,377.06L378.21,376.89L382.09,364.86L384.64,361.14L386.16,354.04L388.34,350.13L387.95,345.88L389.83,342.56L388.76,331.19L388.85,324.79L390.56,323.36L391.17,319.59L390,314.07L392.18,309.88L395.9,294.25L395.55,290.09L397.34,285.42L396.6,281.39L397.27,274.81L396.88,269.29L398.39,267.7L400.13,257.37L399.52,251.52L399.94,244.51L398.36,233.4L401.55,232.34L402.08,228.52L404.3,227.01L406.93,231.16L407.63,238.14L410.83,241.68L409.27,243.87L408.87,249.49L410.43,250.65L412.27,255.9L414.06,267.5ZM373.85,423.62L370.4,423.01L372.52,411.95L375.56,412.71L375.93,420.54ZM373.89,431.49L373.82,436.91L371.59,438.45L368.63,433.38ZM368.74,466.81L368.06,473.01L363.89,471.95L364.67,466.34ZM401.14,492.4L400.12,508.24L394.22,507.22L389.88,507.92L387.8,504.55L388.11,501.29L392.63,497.93L391.07,495.1L394.71,492.97ZM394.26,508.7L402.02,511.1L401.84,513L395.68,512.45Z" class="land" id="CL" title="Chile"/>
    <path d="M393.04,4.24L388.9,5.72L387.03,9.29L384.17,12.02L382.16,19.97L379.9,24.23L383.55,25.13L386.06,30.64L385.92,37.67L388.27,40.39L395.28,41.17L397.61,40.5L401.28,41.6L405.6,47.68L411.93,47.52L415.93,46.51L418.68,48.51L416.19,54.24L416.02,60.02L417.31,64.89L419.61,68.29L416.2,72.26L420.29,76.07L422.5,84.91L419.37,78.37L413.97,81.15L403.02,81.23L403.01,86.15L407.52,87.63L401.69,89.8L401.58,95.23L404.22,97.83L405.97,103.23L402.21,126.28L399.78,123.08L397.19,122.84L401.53,115.02L396.04,110.99L392.88,111.87L390.55,110.49L386.34,112.58L381.37,111.44L381.09,108.05L379.13,107.01L378.03,103.64L374.22,101.53L370.59,95.7L367.43,94.98L360.7,90.78L359.5,92.4L353.42,90.96L353.12,89.36L347.59,86.25L344.01,83.15L345.86,80.74L345.59,76.7L348.85,75.32L351.79,72.37L355.09,64.91L353.38,63.41L354.3,58.4L353.54,53.13L354.53,50.37L353.09,47.36L353.8,44.88L350.26,39.39L357.1,32.85L356.86,28.84L360.85,26.04L361.76,23.94L365,22.54L364.77,16.88L366.23,13.73L370.13,9.95L372.68,10.86L375.24,8.19L380.09,8.53L386.83,4.03L390.44,0L393.39,0.64Z" class="land" id="CO" title="Colombia"/>
    <path d="M367.43,94.98L367.56,98.39L365.55,105.78L362.15,110.34L358.28,113.6L350.55,116.77L347.36,120.18L346.88,122.8L342.58,132L340.92,131.52L338.91,127.94L333.2,125.02L335.37,123.56L334.41,119.85L337.05,117.59L338.31,113.72L333.59,114.08L331.49,109.91L330.63,102.36L332.91,100.6L333.38,96.97L335.66,94.22L335.96,88.23L343.74,85.04L344.01,83.15L347.59,86.25L353.12,89.36L353.42,90.96L359.5,92.4L360.7,90.78Z" class="land" id="EC" title="Ecuador"/>
    <path d="M449.07,483.76L454.88,483.5L450.79,487.45ZM457.38,482.36L462.8,485.56L455.48,488.93Z" class="land" id="FK" title="Falkland Islands"/>
    <path d="M522.08,63.4L519.9,66.13L515.31,76.27L513.59,77.63L508.33,76.33L505.96,78.11L502.77,76.55L505.51,72.82L506.81,66.98L504.42,63.46L503.69,56.18L505.61,53.57L507.59,50.35L513.82,53.07L517.84,56.73Z" class="land" id="GF" title="French Guiana"/>
    <path d="M485.71,52.13L484.86,56.13L482.37,56.35L480.18,62.56L489.1,78.75L490.56,79.46L486.39,78.92L483.28,81.26L478.4,82.15L474.99,85.06L472.57,83.75L469.12,79.78L467.54,73.79L468.42,66.99L470.39,64.37L468.52,60.26L466.7,59.99L467.45,55.66L462.53,54.76L458.34,49.41L459.94,47.08L459.79,43.44L464.68,41.54L462.51,37.34L463.83,34.96L466.95,33.13L467,29.37L472.38,32.97L476.18,36.98L477.18,40.84L480.46,42.75L485.7,47.97Z" class="land" id="GY" title="Guyana"/>
    <path d="M402.21,126.28L396.76,125.8L395.61,127.15L389.91,128.32L383.08,133L380.78,140.4L381.41,143.18L377.34,146.52L377.39,149.78L375.73,151.45L378.67,157.44L382.4,162.35L380.85,165.52L386.26,166.27L387.53,170.02L393.68,169.73L397.63,166.03L397.51,177.66L404.44,177.21L410.14,188.98L408.2,191.85L407.51,197.95L408.72,201.87L405.44,207.68L406.73,209.76L405.1,212.54L407.57,220.44L403.6,224.68L404.3,227.01L402.08,228.52L401.55,232.34L398.36,233.4L392.5,228.35L391.27,225.4L385.27,220.94L376.53,216.72L368.28,211.09L362.93,205.17L360.65,201.37L361.35,196.68L357.16,187.82L355.08,185.62L354.65,182.61L351.97,179.76L351.3,176.34L348.38,170.67L344.63,159.5L340.61,153.57L338.1,147.74L335.82,144.58L331.23,141.79L328.14,126.93L331.31,122.45L334.41,119.85L335.37,123.56L333.2,125.02L338.91,127.94L340.92,131.52L342.58,132L346.88,122.8L347.36,120.18L350.55,116.77L358.28,113.6L362.15,110.34L365.55,105.78L367.56,98.39L367.43,94.98L370.59,95.7L374.22,101.53L378.03,103.64L379.13,107.01L381.09,108.05L381.37,111.44L386.34,112.58L390.55,110.49L392.88,111.87L396.04,110.99L401.53,115.02L397.19,122.84L399.78,123.08Z" class="land" id="PE" title="Peru"/>
    <path d="M476.93,247.25L478.82,253.6L477.52,261.58L484.16,263.3L486.86,262.01L491.11,263.58L493.61,276.41L498.4,275.05L500.75,276.84L497.78,288.5L496.5,295.8L492.06,299.44L490.07,302.54L487.27,301.82L485.45,303.59L474.62,301.46L471.82,300.38L474.71,296.54L474.72,294.65L478.97,287.2L477.58,285.15L467.93,279.94L464.73,277.19L457.56,274.62L452.83,270.24L447.61,263.01L450.28,254.11L450.4,250.28L453.93,243.29L465.27,240.65L471.17,240.56L476.89,244.61Z" class="land" id="PY" title="Paraguay"/>
    <path d="M505.61,53.57L503.69,56.18L504.42,63.46L506.81,66.98L505.51,72.82L502.77,76.55L500.21,74.53L492.86,76.75L490.56,79.46L489.1,78.75L480.18,62.56L482.37,56.35L484.86,56.13L485.71,52.13L487.15,48.76L493.9,50.25L494.62,49L501.12,48.8L506.23,50.16Z" class="land" id="SR" title="Suriname"/>
    <path d="M501.63,350.82L498.7,355.68L496.16,357.89L491.49,359.89L486.82,358.69L484,359.7L477.74,356.23L473.66,356.42L470.4,352.11L470.99,347.14L472.84,344.35L472.29,341.13L472.61,336.95L476.98,323.7L481.88,323.08L485.76,327.06L487.45,330.43L495.28,333.6L500.13,337.96L503.72,343.15L500.96,346.46Z" class="land" id="UY" title="Uruguay"/>
    <path d="M467,29.37L466.95,33.13L463.83,34.96L462.51,37.34L464.68,41.54L459.79,43.44L459.94,47.08L458.34,49.41L462.53,54.76L463.44,56.33L460.86,59.81L453.35,63.12L449.7,63.73L448.03,66.94L445.89,64.46L437.55,64.63L439.83,66.99L439.86,69.89L441.81,75.6L445.29,77.34L441.09,79.75L440.58,81.91L434.11,85.78L425.43,87.95L422.5,84.91L420.29,76.07L416.2,72.26L419.61,68.29L417.31,64.89L416.02,60.02L416.19,54.24L418.68,48.51L415.93,46.51L411.93,47.52L405.6,47.68L401.28,41.6L397.61,40.5L395.28,41.17L388.27,40.39L385.92,37.67L386.06,30.64L383.55,25.13L379.9,24.23L382.16,19.97L384.17,12.02L387.03,9.29L388.9,5.72L393.04,4.24L388.99,7.63L391.32,13.38L387.98,19.77L390.79,25.41L393.33,25L394.9,20.6L392.7,16.36L392.12,11.05L400.15,7.95L399.77,4.06L401.58,1.84L404.06,7.14L409.29,7.5L412.11,9.56L413.23,14.05L415.59,14.79L426.17,13.57L428.78,16.42L435.32,17.63L441.63,13.33L449.25,12.68L448.37,15.2L450.53,17.03L461.86,23.22L460.18,25.23L458.61,30.43L461.88,29.05Z" class="land" id="VE" title="Venezuela"/>
  </g>
</svg>