<?xml version="1.0" encoding="UTF-8"?>
<svg xmlns="http://www.w3.org/2000/svg" width="960" height="513" viewBox="0 0 960 513">
  <!-- Created using SVG Map Generator: dojo.amcharts.com/svg-map-generator -->
  <style>
    .land { fill: #ffffff; stroke: #299e8b; stroke-width: 2.2; }
  </style>
  <rect x="0" y="0" width="960" height="513" fill="#417ea4"/>
  <g id="polygons">
    <path d="M699.61,421.52L687.88,421.37L699.21,344.16L731.94,317.72L736.99,331.82L728.6,352.4L722.7,391.7Z" class="land" id="BZ" title="Belize"/>
    <path d="M862.65,621.24L868.12,639.34L896.41,675L883.14,680.11L882.26,735.39L873.54,714.65L853.87,713.6L858.14,696.71L824.34,672.18L808.46,674.81L791.67,661.94L785.87,642.06L790.66,615.42Z" class="land" id="CR" title="Costa Rica"/>
    <path d="M699.21,344.16L687.88,421.37L699.61,421.52L721.71,428.02L684.13,462.7L677.55,480.77L649.83,508.06L614.48,500.47L579.56,475.58L584.43,444.42L603.14,414.31L647.26,414.2L649.7,401.42L634.01,366.77L636.86,344.11Z" class="land" id="GT" title="Guatemala"/>
    <path d="M892.45,457.59L858.69,468.12L828.92,467.25L798.1,503.74L786.13,497.7L765.31,506.98L764.51,525.05L741.84,538.48L726.91,521.61L731.8,505L706.76,503.47L677.55,480.77L684.13,462.7L721.71,428.02L743.35,420.76L786,425.84L806.51,417.01L834.17,417.52L857.87,424.25L872.66,448.47Z" class="land" id="HN" title="Honduras"/>
    <path d="M731.94,317.72L699.21,344.16L636.86,344.11L634.01,366.77L649.7,401.42L647.26,414.2L603.14,414.31L584.43,444.42L579.56,475.58L562.36,451.75L528.5,414.98L496.52,400.34L475.15,418.16L437.86,431.12L396.75,418.46L365.05,395.64L334.25,388.2L297.21,368.87L267.04,339.83L238.76,334.19L214.97,323.62L201.9,303.4L169.91,284.03L152.01,240.71L171.65,211.15L175.18,196.2L163.79,176.18L163.65,150.39L147.32,127.49L134.71,99.88L106.48,70.29L97.17,46.93L67.85,25.43L79.23,2.11L61.45,-29.11L45.92,-38.94L49.41,-60.78L30.68,-64.93L6.65,-107.37L-5.73,-178.99L0.7,-194.54L-51.32,-219.53L-60.16,-193.63L-62.85,-156.57L-42.64,-121.45L-38.79,-103.66L-23.04,-83.39L-24.5,-59.24L-13.97,-47.02L-8.65,-24.6L3.59,-14.11L4.45,22.9L16.25,63.29L15.77,86.45L33.09,88.05L47.7,116.04L26.03,139.98L16.95,111L-30.21,61.22L-23.9,35.07L-28.06,5.81L-64.17,-14.67L-87.66,-34.72L-100.79,-55.61L-76.29,-61.14L-62.24,-83.46L-83.58,-122.14L-102.1,-137.14L-103.21,-179.41L-114.16,-210.1L-117.83,-249.17L-36.61,-256.5L-42.76,-248.15L68.52,-200.4L161.91,-200.6L166.92,-218.75L224.78,-218.38L263.01,-170.51L270.06,-129.76L302.51,-106.66L326.04,-132.6L343.68,-141.77L370.24,-137.97L389.54,-109.37L394.87,-79.49L414.4,-48.03L412.1,-27.4L418.43,-3.6L472.44,19.64L474.68,31.16L450.75,79.36L431.76,150.52L432.41,191.65L443.66,231.47L461.78,261.48L464.39,282.65L477.05,306.35L498.52,308.52L517.38,329.67L552.6,319.4L575.54,317.86L607.88,307.9L612.41,317.79L653.27,282.31L664.2,259.78L675.64,215.58L695.26,204.91L754.45,191.15L797.63,198.99L793.24,220.61L768.53,252.12L767.23,272.99L750,318.76Z" class="land" id="MX" title="Mexico"/>
    <path d="M892.45,457.59L889.03,483.83L872.49,524.77L871.5,561.25L861.17,580.53L855.93,605.88L862.65,621.24L790.66,615.42L767.71,588.28L741.84,538.48L764.51,525.05L765.31,506.98L786.13,497.7L798.1,503.74L828.92,467.25L858.69,468.12Z" class="land" id="NI" title="Nicaragua"/>
    <path d="M882.26,735.39L883.14,680.11L896.41,675L906.19,696.85L936.33,706.94L979.6,689.7L999.42,674.15L1050.17,688.66L1073.44,711.84L1077.83,736.87L1072.46,750.03L1043.88,756.52L1036.14,735.8L1047.36,723.01L1015.05,698.25L1002.81,697.9L991.3,714.35L969.36,726.64L978.31,751.58L965.06,767.3L950.91,769.5L945.24,749.82L929.07,749.4L922.14,732.71L889.65,725.33Z" class="land" id="PA" title="Panama"/>
    <path d="M677.55,480.77L706.76,503.47L731.8,505L726.91,521.61L702.19,530.26L649.83,508.06Z" class="land" id="SV" title="El Salvador"/>
  </g>
</svg>