<?xml version="1.0" encoding="UTF-8"?>
<svg xmlns="http://www.w3.org/2000/svg" width="960" height="513" viewBox="0 0 960 513">
  <!-- Created using SVG Map Generator: dojo.amcharts.com/svg-map-generator -->
  <style>
    .land { fill: #ffffff; stroke: #299e8b; stroke-width: 1.55; }
  </style>
  <rect x="0" y="0" width="960" height="513" fill="#417ea4"/>
  <g id="polygons">
    <path d="M826.25,991.43L778.25,1018.68L773.61,1067.72L716.68,1100.68L589.6,1145.82L546.9,1190.93L502.42,1191.1L465.44,1220.77L425.42,1235.81L351.53,1245.56L312.34,1285.65L240.03,1300.95L209.6,1283.9L192.55,1251.02L194.89,1222.46L152.1,1067.79L155.26,1012.67L178.12,988.29L177.61,936.8L225.06,939.46L305.03,931.56L322.28,939.84L405.68,943.79L426.05,968L455.89,955.85L499.34,875.53L554.21,842.82L743.37,811L800.14,941.32Z" class="land" id="YE" title="Yemen"/>
    <path d="M-379.61,-150.75L-411.73,-160.24L-414.09,-203.32L-377.81,-221.37Z" class="land" id="PS" title="Palestinian Territories"/>
    <path d="M17.07,-584.06L-14.42,-544.8L-36.84,-538.45L-38.5,-404.18L-67.1,-370.56L-180.96,-296.61L-297.76,-215.35L-364.72,-247.55L-363.24,-301.25L-322.73,-362.03L-334.45,-392.23L-363.01,-393.42L-381.47,-465.91L-360.4,-485.92L-333.26,-560.53L-284.13,-548.35L-239.07,-568.16L-165.52,-551.28L-85,-583.21Z" class="land" id="SY" title="Syria"/>
    <path d="M335.3,32.96L393.3,41.2L411.47,76.41L460.44,75.66L496.12,146.11L570.31,207.81L577.89,263.16L635.74,365.01L666.7,379.03L687.95,403.79L690.8,419.76L759.72,508.01L926.19,532.01L930.96,525.64L964.68,579.71L933.23,734.1L743.37,811L554.21,842.82L499.34,875.53L455.89,955.85L426.05,968L405.68,943.79L322.28,939.84L305.03,931.56L225.06,939.46L177.61,936.8L178.12,988.29L155.26,1012.67L118.81,930.99L81.83,896.37L45.23,835.43L10.86,752.56L-66.26,693.93L-102.85,632.96L-111.83,588.95L-106.79,549.6L-152.78,448L-189.74,411.57L-214.4,403.34L-239.8,362.64L-243.77,326.36L-381.06,114.83L-417.5,106.09L-401.4,13.14L-333.04,25.71L-289.34,-26.4L-244.7,-36.34L-214.95,-75.27L-284.62,-151.74L-158.99,-191.46L-150.32,-200.51L-72.2,-186.21L40.46,-119.99L93.56,-74.9L219.42,25.48Z" class="land" id="SA" title="Saudi Arabia"/>
    <path d="M666.7,379.03L635.74,365.01L629,314.52L640.96,273.13L676.06,279.25L684.72,337.38Z" class="land" id="QA" title="Qatar"/>
    <path d="M993.2,350.38L1013.02,389.59L1054.1,431.78L1143.53,453.28L1232.18,562.9L1209.22,618.45L1180.85,648.18L1157.89,702.49L1119.1,715L1113.23,764.02L1122.81,809.37L1082.09,818.19L1049.84,842.42L1028.01,891.38L976.95,899.62L953.73,961.42L888.85,963.98L826.25,991.43L800.14,941.32L743.37,811L933.23,734.1L964.68,579.71L930.96,525.64L929.76,500.19L958,407.14Z" class="land" id="OM" title="Oman"/>
    <path d="M-363.24,-301.25L-409.08,-274.4L-363.01,-393.42L-334.45,-392.23L-322.73,-362.03Z" class="land" id="LB" title="Lebanon"/>
    <path d="M460.44,75.66L411.47,76.41L393.3,41.2L335.3,32.96L366.47,-33.72L421.08,-35.39L423.08,-7.16Z" class="land" id="KW" title="Kuwait"/>
    <path d="M-150.32,-200.51L-158.99,-191.46L-284.62,-151.74L-214.95,-75.27L-244.7,-36.34L-289.34,-26.4L-333.04,25.71L-401.4,13.14L-400.84,-2.41L-379.61,-150.75L-377.81,-221.37L-364.72,-247.55L-297.76,-215.35L-180.96,-296.61Z" class="land" id="JO" title="Jordan"/>
    <path d="M-364.72,-247.55L-377.81,-221.37L-414.09,-203.32L-411.73,-160.24L-379.61,-150.75L-400.84,-2.41L-454.37,-129.88L-441.45,-158.91L-409.08,-274.4L-363.24,-301.25Z" class="land" id="IL" title="Israel"/>
    <path d="M165.47,-586.65L211.49,-500.08L235.38,-486.29L266.58,-431.77L240.78,-406.44L229.55,-342.74L281.99,-285.64L281.94,-264.72L364.97,-223.58L398.53,-175.04L394.88,-113.99L419.97,-72.59L457.22,-33.83L421.08,-35.39L366.47,-33.72L335.3,32.96L219.42,25.48L93.56,-74.9L40.46,-119.99L-72.2,-186.21L-150.32,-200.51L-180.96,-296.61L-67.1,-370.56L-38.5,-404.18L-36.84,-538.45L-14.42,-544.8L17.07,-584.06L40.73,-604.27Z" class="land" id="IQ" title="Iraq"/>
    <path d="M457.22,-33.83L419.97,-72.59L394.88,-113.99L398.53,-175.04L364.97,-223.58L281.94,-264.72L281.99,-285.64L229.55,-342.74L240.78,-406.44L266.58,-431.77L235.38,-486.29L211.49,-500.08L165.47,-586.65L147.94,-632.91L125.03,-645.44L134.83,-679.85L101.2,-758.02L132.32,-787.95L193.65,-729.63L260.47,-721.78L328.12,-778.78L363.26,-727.5L405.12,-686.02L427.21,-626.97L494.39,-606.97L561.8,-555.94L629.3,-546.66L738.97,-572.07L728.55,-602.11L778.15,-614.25L794.15,-644.98L874.31,-671.6L921.01,-669.07L938.26,-648.48L1004.21,-624.74L1055.24,-615.7L1133.67,-547.91L1181.79,-548.28L1204.74,-464.53L1200.16,-410.84L1171.51,-352.28L1186.5,-278.56L1212.64,-210.13L1222.02,-151.06L1273.87,-143.3L1287.27,-100.88L1237.23,-25.79L1271.91,11.68L1296.67,56.48L1346.62,85.52L1375.04,117.34L1383.33,175.31L1409.07,175.14L1414.37,220.38L1368.67,228.47L1334.94,253.03L1326.49,326.74L1314.89,340.9L1186.42,311.67L1078.62,298.42L1048,287.76L1016.95,201.91L974.62,179.17L931.25,196.32L886.15,228.81L808.82,215.76L739.75,169.65L723.87,147.09L670.61,129.43L643.87,107.37L594.52,8.03L546.37,-52.84L520.6,-38.94L479.66,-46.03Z" class="land" id="IR" title="Iran"/>
    <path d="M616.23,280.71L606.63,274.34L604.31,257L614.83,262.11Z" class="land" id="BH" title="Bahrain"/>
    <path d="M982.59,298.62L993.2,350.38L958,407.14L929.76,500.19L930.96,525.64L926.19,532.01L759.72,508.01L690.8,419.76L687.95,403.79L711.54,426.94L758.27,413.91L838.89,419.9L870.02,404.42L888.96,363.39L958.66,287.59L965.63,266.89Z" class="land" id="AE" title="United Arab Emirates"/>
  </g>
</svg>