<?xml version="1.0" encoding="UTF-8"?>
<svg xmlns="http://www.w3.org/2000/svg" width="960" height="513" viewBox="0 0 960 513">
  <!-- Created using SVG Map Generator: dojo.amcharts.com/svg-map-generator -->
  <style>
    .land { fill: #ffffff; stroke: #299e8b; stroke-width: 2.2; }
  </style>
  <rect x="0" y="0" width="960" height="513" fill="#417ea4"/>
  <g id="polygons">
    <path d="M517.16,-19.24L516.72,-19.09L515.56,-20.35L516.5,-20.59Z" class="land" id="AW" title="Aruba"/>
    <path d="M602.47,-72.79L601.03,-72.51L601.59,-74.34Z" class="land" id="AG" title="Antigua and Barbuda"/>
    <path d="M590.84,-86.65L589.21,-86.05L589.31,-86.39L590.64,-87.21Z" class="land" id="AI" title="Anguilla"/>
    <path d="M598.67,385.32L608.2,396.44L616.42,403.15L628.02,407.11L633.55,411.33L649.57,419.34L652.2,422.49L647.46,433.94L647.91,436.86L644.44,442.74L649.01,444.4L666.2,447.69L668.54,444.96L673.02,446.06L675.29,441.3L681.22,435.72L681.4,424.49L688.58,425.58L691.39,432.1L690.87,442.61L681.8,447.65L679.57,451.36L673.98,455.32L664.22,471.63L658.64,478.59L655.82,498.95L656.61,505.37L657.72,511.08L655.56,512.87L655.34,519.34L659.66,531.29L669.86,537.2L671.97,548.38L677.84,551.68L678.87,556.64L673.78,567.08L673.03,571.06L667.82,575.14L653.24,579.83L641.6,581.63L632.53,580.77L633.66,586.07L632.67,592.14L633.96,603.71L629.27,606.25L621.84,606.72L611.04,602.82L608.61,603.59L612.01,616.23L619.06,621.6L626.56,621.29L626.68,625.9L622.8,626.55L617.19,622.73L614.33,625.36L620.55,628.83L614.26,635.42L615.82,645.19L614.76,651.29L609.64,650.79L603.65,654.15L600.15,662.33L601.19,666.62L610.21,674.17L617.45,675.17L620.52,678.03L621.64,684.82L612.83,692.62L608.98,699.63L610.06,706.55L601.57,712.45L600.87,718.83L604.96,726.51L612.55,734.55L598.15,730.67L581.02,730.46L575.15,725.44L574.06,718.38L570.94,714.98L565.76,716.45L560.52,709.55L557.95,703.43L563.76,694.49L564.63,689.65L561.55,684.08L564.83,676.4L564.72,669.29L561.35,659.51L563.62,653.85L560.65,650.96L562.52,644.77L556.82,644.1L556.74,638.88L549.72,628.03L547.92,620.04L550.7,617.76L548.05,612.53L545.21,601.4L546.44,597.26L544.34,589.12L545.39,581.55L549.18,578.67L544.71,567.28L542.76,552.81L547.81,547.41L545.5,538.81L545.88,531.86L548.91,525.91L547.67,516.23L545.28,514.75L542.19,505.37L536.38,494.79L536.17,489.86L538.24,481.55L540.05,480.58L537.44,468.45L539.38,457.78L543.21,452.03L545.1,442.99L549.75,441.52L546.64,435.54L547.68,431.27L544.83,423.44L546.34,418.82L544.22,415.84L546.61,410.61L554.85,406.42L556.83,394.31L554.77,392.21L558.72,385.12L564.27,380.66L567.82,383.75L579.45,385.27L582.39,391.5L585.44,383.44L596.5,382.56ZM619.5,762.18L611.95,737.84L620.48,747.96L628.32,753.33L647.87,762.45L638.44,764.14L634.49,762.96Z" class="land" id="AR" title="Argentina"/>
    <path d="M461.4,-176.61L462.64,-183.48L463.99,-181.65L462.57,-180.56Z" class="land" id="BS" title="Bahamas"/>
    <path d="M592.18,-82.61L591.89,-83.1L592.53,-82.98Z" class="land" id="BL" title="Saint Barthelemy"/>
    <path d="M331.11,-59.4L327.7,-59.44L330.99,-81.88L334.73,-83.65L340.51,-89.57L341.98,-85.47L339.54,-79.49L337.82,-68.06Z" class="land" id="BZ" title="Belize"/>
    <path d="M640.66,361.1L640.11,357.04L630.6,350.82L621.54,350.95L604.59,355.02L600.44,365.76L601,371.65L598.67,385.32L596.5,382.56L585.44,383.44L582.39,391.5L579.45,385.27L567.82,383.75L564.27,380.66L558.72,385.12L554.77,392.21L548.04,392.22L542.93,374.39L539.09,366.33L536.48,364.54L536.06,355.91L538.05,352.53L532.52,347.1L530.27,336.37L525.55,330L524.1,326.42L529.54,319.9L524.59,307.76L526.7,303.48L524.44,300.28L528.71,291.36L526.35,285.33L526.68,275.97L529.33,271.55L519.32,253.47L531.18,254.24L534.25,250.57L539.03,248.26L547.25,242.08L560.48,239.01L561.43,256.9L565.87,265.41L571.9,270.83L585.58,273.5L588.82,277.33L594.8,278.92L598.93,283.5L606.02,283.08L611.92,286.58L614.59,296.26L617.12,315.54L633.45,316.23L635.61,326.82L641.44,330.07L644.67,339.04L643.16,348.42L640.52,356.18Z" class="land" id="BO" title="Bolivia"/>
    <path d="M647.69,103.25L651.28,99.09L662.63,95.67L666.52,98.77L671.39,101.16L675.06,98.44L683.12,100.43L685.8,98.34L693.12,82.75L696.57,78.57L700.93,78.19L702.49,87.64L706.32,101.05L708.31,104.56L713.35,106.53L713.91,112.32L709.91,116.13L704.65,123.85L699.95,126.85L695.74,134.74L693.31,144.34L703.65,138.85L705.98,146.38L708.89,149.33L715.76,148.29L719.83,146.03L723.08,147.17L731.85,134.45L739.06,133.16L744.98,134.94L756.74,141.56L762.47,142.94L766.76,146.19L770.27,155.39L772.25,156.12L784.07,154.57L791.01,158.38L794.77,157.85L800.4,160.06L808.88,158.42L814.01,159.19L829.08,169.16L833.43,174.97L842.32,183.07L848.22,185.23L858.69,185.6L861.91,190.7L866.53,210.76L866.37,218.72L861.59,233.39L851.33,248.01L846.03,251.93L841.5,259.83L838.95,266.86L833.71,275.54L828.21,274.83L825.53,284.23L827.19,289.39L826.29,296.69L828.65,310.81L826.06,327.77L826.89,332.31L823.74,335.66L821.61,343.25L822.39,350.72L816.35,365.83L812.7,369.78L810.58,376.8L810.25,383.58L804.69,386.22L801.87,393.68L787.32,394.84L783.94,393.25L776.49,394.95L769.33,402.33L764.05,403.62L755.69,408.79L746.56,417.71L740.88,427.31L740.55,437.71L742.3,443.49L742.65,453.81L741.51,459.67L733.32,468.91L729.35,481.38L721.01,480.65L719.01,488.73L714.59,492.61L714.23,501.81L710.66,513.17L704.76,520.26L702.33,513.57L705.53,508.48L700.48,504.56L698.42,500.51L689.65,493.8L682.85,490.76L679.42,486.66L676.68,488.93L673.1,483.75L666,477.64L658.64,478.59L664.22,471.63L673.98,455.32L679.57,451.36L681.8,447.65L690.87,442.61L691.39,432.1L688.58,425.58L681.4,424.49L683.29,406.57L679.28,403.82L672.22,405.92L665.63,386.19L658.78,383.79L654.9,385.76L644.34,383.13L644.76,370.85L640.66,361.1L640.52,356.18L643.16,348.42L644.67,339.04L641.44,330.07L635.61,326.82L633.45,316.23L617.12,315.54L614.59,296.26L611.92,286.58L606.02,283.08L598.93,283.5L594.8,278.92L588.82,277.33L585.58,273.5L571.9,270.83L565.87,265.41L561.43,256.9L560.48,239.01L547.25,242.08L539.03,248.26L534.25,250.57L531.18,254.24L519.32,253.47L508.71,254.15L507.82,236.28L502.08,241.97L492.65,242.41L490.37,236.65L481.99,235.5L484.11,230.63L477.99,223.08L473.04,213.88L475.48,211.31L475.2,206.3L481.25,201.17L480.12,196.89L482.52,191.49L483.28,185.53L493.58,178.32L502.3,176.53L504.01,174.46L512.41,175.19L517.61,139.77L514.89,131.48L510.82,127.48L511,119.13L519.98,115.8L517.99,113.47L513.05,113.53L513.14,105.96L529.97,105.84L538.31,101.57L543.02,111.62L547.5,116.29L560.85,112.96L570.85,107.01L571.67,103.69L578.16,99.98L572.86,97.3L570.01,88.54L570.05,84.08L566.63,80.44L579.44,80.18L582.66,84.01L585.32,79.07L590.96,78.14L602.63,73.04L606.74,67.69L605.41,65.28L611.46,64.85L612.94,66.67L611.59,73.32L614.38,73.73L617.1,80.06L613.98,84.08L612.44,94.54L614.79,99.38L614.74,103.73L619.98,109.84L623.68,111.85L628.96,107.38L636.48,106.01L641.3,102.41ZM716.6,128.53L721.76,127.77L729.18,129.97L723.69,143.13L717.07,145.8L707.82,146.68L705.25,140.31L706.37,129.04L710.37,127.22ZM694.46,142.56L697.31,133.43L700.04,137.76Z" class="land" id="BR" title="Brazil"/>
    <path d="M621.56,-26.6L620.39,-26.83L620.73,-29.35L622.26,-27.42Z" class="land" id="BB" title="Barbados"/>
    <path d="M554.77,392.21L556.83,394.31L554.85,406.42L546.61,410.61L544.22,415.84L546.34,418.82L544.83,423.44L547.68,431.27L546.64,435.54L549.75,441.52L545.1,442.99L543.21,452.03L539.38,457.78L537.44,468.45L540.05,480.58L538.24,481.55L536.17,489.86L536.38,494.79L542.19,505.37L545.28,514.75L547.67,516.23L548.91,525.91L545.88,531.86L545.5,538.81L547.81,547.41L542.76,552.81L544.71,567.28L549.18,578.67L545.39,581.55L544.34,589.12L546.44,597.26L545.21,601.4L548.05,612.53L550.7,617.76L547.92,620.04L549.72,628.03L556.74,638.88L556.82,644.1L562.52,644.77L560.65,650.96L563.62,653.85L561.35,659.51L564.72,669.29L564.83,676.4L561.55,684.08L564.63,689.65L563.76,694.49L557.95,703.43L560.52,709.55L565.76,716.45L570.94,714.98L574.06,718.38L575.15,725.44L581.02,730.46L598.15,730.67L612.55,734.55L605.1,732.87L603.07,735.27L593.58,739.14L595.5,750.34L584.79,748.71L589.55,742.9L575.77,744.41L565.17,737.7L567.27,731.03L562.36,728.17L561.38,723.1L552.35,720.09L548.49,715.8L552.64,707.85L547.74,692.26L541.88,682.11L543.94,673.81L529.21,669.65L534.3,664.5L532.08,661.24L539.94,660L544.53,656.75L544.63,650.95L549.53,648.14L549.3,644.72L543.02,641.63L543.84,635.44L541.86,620.07L543.56,616.35L537.57,611.29L533.63,614.23L527.59,606.36L527.43,594.32L529.23,584.33L521.17,566.54L520.43,560.58L524,560.33L525.73,541.85L528.37,536.12L528.35,525.21L530.43,519.21L528.47,512.68L530.32,507.57L525.24,490.1L523.51,480.26L525.73,478.06L525.61,472.27L522.29,463.79L524.51,457.35L526.23,433.33L524.68,426.94L526.33,419.76L524.26,413.57L523.81,403.46L522.02,394.97L524,392.53L524.56,376.65L522.49,367.66L521.83,356.89L517.46,339.81L522.19,338.18L522.38,332.31L525.55,330L530.27,336.37L532.52,347.1L538.05,352.53L536.06,355.91L536.48,364.54L539.09,366.33L542.93,374.39L548.04,392.22ZM535.88,632.14L530.31,631.2L528.88,614.21L533.86,615.37L537.74,627.42ZM539.43,644.24L537.49,645.39L541.77,652.57L539.05,654.93L532.2,647.15ZM548.46,698.51L550.62,708.04L543.66,706.42L541.96,697.79ZM611.95,737.84L619.5,762.18L609.83,760.62L603.57,761.69L598.39,756.51L596.98,751.5L602,746.35L598,742L602.39,738.72ZM577.77,747.05L585.18,750.65L576.23,752.16ZM610.76,762.9L624.11,766.58L624.98,769.5L615.17,768.66Z" class="land" id="CL" title="Chile"/>
    <path d="M502.52,-12.36L496,-10.08L492.76,-4.6L488.09,-0.39L484.25,11.81L480.41,18.37L485.96,19.75L489.37,28.22L488.65,39.03L492.09,43.2L502.81,44.39L506.44,43.36L512.01,45.05L518.29,54.41L528.02,54.16L534.22,52.61L538.34,55.68L534.22,64.48L533.7,73.37L535.5,80.86L538.93,86.08L533.57,92.18L539.77,98.03L543.02,111.62L538.31,101.57L529.97,105.84L513.14,105.96L513.05,113.53L517.99,113.47L519.98,115.8L511,119.13L510.82,127.48L514.89,131.48L517.61,139.77L512.41,175.19L508.55,170.28L504.56,169.9L511.01,157.89L502.47,151.7L497.64,153.04L494.03,150.93L487.6,154.14L479.94,152.39L479.45,147.18L476.43,145.58L474.69,140.4L468.81,137.16L463.2,128.19L458.34,127.1L448.01,120.64L446.16,123.12L436.82,120.91L436.37,118.46L427.89,113.68L422.42,108.92L425.3,105.21L424.97,99L430,96.88L434.6,92.34L439.88,80.89L437.31,78.58L438.92,70.87L437.99,62.78L439.66,58.55L437.61,53.92L438.84,50.1L433.74,41.66L435.47,38.07L439.5,36.11L441.06,32.28L439.78,25L444.64,25.45L450.98,21.15L452.56,17.92L457.65,15.77L457.81,7.07L460.34,2.24L466.71,-3.58L470.53,-2.18L474.74,-6.28L482.17,-5.75L492.99,-12.68L498.99,-18.87L503.45,-17.88Z" class="land" id="CO" title="Colombia"/>
    <path d="M378.51,-1.34L380.1,3.93L386.23,13.21L388.32,14.29L384.46,15.78L384.21,31.85L381.67,25.82L375.96,25.51L377.2,20.61L374.76,17.8L367.37,13.47L362.75,14.24L357.87,10.5L356.19,4.72L357.58,-3.03L358.91,-4.45L365.84,-1.66L371.49,-2.07L373.13,0.26Z" class="land" id="CR" title="Costa Rica"/>
    <path d="M411.54,-144.48L423.09,-143.78L432.06,-139.56L435.47,-135.63L441.2,-135.16L448.56,-129.69L452.14,-129.36L459.65,-122.48L468.52,-120.45L468.78,-116.03L476.17,-115.06L481.63,-108.38L472.86,-106.29L462.68,-107.32L447.13,-105.76L452.69,-110.96L453,-114.98L445.53,-115.82L441.15,-119.78L440.39,-125.19L428.19,-127.85L422.9,-131.6L410.16,-133.2L410.08,-138.82L401.9,-138.93L394.82,-133.47L385.27,-131.73L389.02,-138.67L397.27,-142.2Z" class="land" id="CU" title="Cuba"/>
    <path d="M528.35,-14.67L527.82,-14.5L525.97,-15.62L524.49,-17.45L525.29,-17.96L525.85,-16.67L527.66,-15.82Z" class="land" id="CW" title="Curaçao"/>
    <path d="M410.3,-99.83L411.16,-99.99L412.67,-99.8L410.85,-98.93Z" class="land" id="KY" title="Cayman Islands"/>
    <path d="M605.29,-51.9L603.52,-55.12L605.17,-55.83Z" class="land" id="DM" title="Dominica"/>
    <path d="M503.74,-84.5L506.11,-97.27L505.61,-104.15L508.01,-106.22L514,-106.44L521.82,-103.19L525.27,-99.25L535.26,-94.63L538.07,-90.34L534.76,-86.65L532.23,-88.82L523.99,-89.24L519.69,-86.99L511.34,-87.24L507,-79.92Z" class="land" id="DO" title="Dominican Republic"/>
    <path d="M458.34,127.1L458.56,132.33L455.53,143.69L450.38,150.71L444.51,155.71L432.7,160.59L427.9,165.82L427.25,169.85L421.01,183.99L418.43,183.25L415.18,177.74L406.3,173.26L409.58,171.02L407.99,165.32L411.98,161.85L413.81,155.9L406.57,156.44L403.26,150.04L401.82,138.43L405.31,135.74L406.02,130.15L409.52,125.93L410,116.73L413.5,114.45L421.99,111.82L422.42,108.92L427.89,113.68L436.37,118.46L436.82,120.91L446.16,123.12L448.01,120.64Z" class="land" id="EC" title="Ecuador"/>
    <path d="M680.84,724.56L689.64,724.17L685.5,730.23ZM692.85,722.41L702.93,727.33L693.53,732.5Z" class="land" id="FK" title="Falkland Islands"/>
    <path d="M605.64,-63.36L603.7,-63.33L603.8,-65.74L605.05,-66.14Z" class="land" id="GP" title="Guadeloupe"/>
    <path d="M598.67,-14.12L598.78,-16.13L599.88,-16.57L599.57,-14.6Z" class="land" id="GD" title="Grenada"/>
    <path d="M330.99,-81.88L327.7,-59.44L331.11,-59.4L337.53,-57.51L326.61,-47.42L324.7,-42.17L316.64,-34.24L311.74,-36.48L306.36,-36.44L299.99,-39.98L296.21,-43.68L298.44,-49.86L297.63,-52.74L303.06,-61.49L315.89,-61.52L316.6,-65.24L307.91,-75.35L312.04,-75.31L312.87,-81.9Z" class="land" id="GT" title="Guatemala"/>
    <path d="M696.57,78.57L693.12,82.75L685.8,98.34L683.12,100.43L675.06,98.44L671.39,101.16L666.52,98.77L670.81,93.05L672.98,84.06L669.43,78.65L668.61,67.47L671.67,63.45L674.87,58.51L684.32,62.68L690.33,68.31Z" class="land" id="GF" title="French Guiana"/>
    <path d="M641.17,61.24L639.67,67.4L635.84,67.73L632.2,77.28L645.47,102.15L647.69,103.25L641.3,102.41L636.48,106.01L628.96,107.38L623.68,111.85L619.98,109.84L614.74,103.73L614.79,99.38L612.44,94.54L613.98,84.08L617.1,80.06L614.38,73.73L611.59,73.32L612.94,66.67L611.46,64.85L605.41,65.28L599.23,57.07L601.82,53.49L601.81,47.89L609.44,44.97L606.39,38.51L608.57,34.85L613.5,32.05L613.85,26.27L621.86,31.8L627.41,37.97L628.7,43.89L633.61,46.83L641.36,54.84Z" class="land" id="GY" title="Guyana"/>
    <path d="M387.17,-48.91L377.36,-45.85L368.7,-46.1L359.74,-35.49L356.26,-37.25L350.21,-34.55L349.98,-29.3L343.39,-25.39L339.05,-30.3L340.47,-35.13L336.31,-37.16L333.19,-35.57L327.64,-41.15L324.7,-42.17L326.61,-47.42L337.53,-57.51L343.83,-59.62L350.72,-57.9L356.22,-58.14L362.19,-60.71L370.23,-60.56L377.12,-58.6L381.42,-51.56Z" class="land" id="HN" title="Honduras"/>
    <path d="M505.61,-104.15L506.11,-97.27L503.74,-84.5L501.06,-86.72L492.88,-85.82L487.96,-86.99L482.76,-84.54L477.82,-88.1L480.1,-91.8L494.07,-89.13L498.73,-91.94L494.61,-96.58L497.36,-106.29Z" class="land" id="HT" title="Haiti"/>
    <path d="M449.8,-89.4L458.46,-85.82L448.04,-82.1L444.06,-82.62L440.32,-89.29Z" class="land" id="JM" title="Jamaica"/>
    <path d="M593.58,-75.16L591.6,-76.32L592.1,-77.06L592.86,-76.49Z" class="land" id="KN" title="Saint Kitts and Nevis"/>
    <path d="M608.07,-35.23L606.45,-36.33L608.29,-37.44Z" class="land" id="LC" title="Saint Lucia"/>
    <path d="M590.59,-84.85L589.48,-84.85L590.12,-85.4Z" class="land" id="MF" title="Saint Martin"/>
    <path d="M340.51,-89.57L334.73,-83.65L330.99,-81.88L312.87,-81.9L312.04,-75.31L307.91,-75.35L316.6,-65.24L315.89,-61.52L303.06,-61.49L297.63,-52.74L298.44,-49.86L296.21,-43.68L291.21,-50.61L281.37,-61.3L272.07,-65.55L265.86,-60.37L255.02,-56.6L248.66,-59.61L243.07,-60.28L235.93,-64.23L233.85,-66.92L224.9,-69.08L214.13,-74.7L207.37,-79.98L205.36,-83.14L197.14,-84.78L190.22,-87.85L186.42,-93.73L177.12,-99.36L172.99,-107.17L171.92,-111.96L177.63,-120.55L178.66,-124.9L175.34,-130.72L175.3,-138.21L170.56,-144.87L166.89,-152.9L158.68,-161.5L155.98,-168.29L147.45,-174.54L150.76,-181.32L145.59,-190.4L141.08,-193.25L142.09,-199.6L136.65,-200.81L129.66,-213.15L127.07,-224.49L126.06,-233.97L127.93,-238.49L118.44,-242.34L112.81,-245.75L110.24,-238.22L109.46,-227.45L110.83,-222.67L115.33,-217.24L116.45,-212.07L121.03,-206.18L120.61,-199.15L123.67,-195.6L125.21,-189.08L128.77,-186.04L129.02,-175.28L132.45,-163.53L132.31,-156.8L137.35,-156.34L141.6,-148.2L140.62,-145.09L135.3,-141.24L132.66,-149.66L118.95,-164.14L120.78,-171.74L119.57,-180.24L114.31,-184.58L109.07,-186.2L102.25,-192.03L98.43,-198.1L105.55,-199.71L109.63,-206.2L103.43,-217.44L98.05,-221.8L97.72,-234.09L94.54,-243.01L93.47,-254.37L117.09,-256.5L115.3,-254.07L131.42,-247.13L147.65,-240.19L174.8,-240.25L176.25,-245.53L193.07,-245.42L194.26,-242.77L204.19,-231.5L206.24,-219.66L215.67,-212.94L219.8,-215.47L222.51,-220.48L227.64,-223.15L235.36,-222.04L240.97,-213.73L242.52,-205.04L248.2,-195.9L247.53,-189.9L249.37,-182.98L265.07,-176.22L265.72,-172.88L258.77,-158.86L253.25,-138.18L253.43,-126.22L256.7,-114.64L261.97,-105.92L262.73,-99.76L266.41,-92.88L272.65,-92.24L278.13,-86.1L288.37,-89.08L295.04,-89.53L304.44,-92.42L305.76,-89.55L311.22,-91.36L310.97,-94.58L317.64,-99.86L320.82,-106.41L324.14,-119.26L329.85,-122.37L347.05,-126.36L359.6,-124.08L358.33,-117.8L351.15,-108.64L350.77,-102.57L345.76,-89.27Z" class="land" id="MX" title="Mexico"/>
    <path d="M597.92,-69.32L597.8,-68.63L597.15,-68.84L597.18,-69.46Z" class="land" id="MS" title="Montserrat"/>
    <path d="M609.24,-43.09L606.86,-42.76L605.56,-46.71L608.51,-45.9Z" class="land" id="MQ" title="Martinique"/>
    <path d="M387.17,-48.91L386.18,-41.28L383.58,-37.27L381.37,-29.38L381.08,-18.77L378.08,-13.17L376.55,-5.8L378.51,-1.34L373.13,0.26L371.49,-2.07L365.84,-1.66L358.91,-4.45L357.58,-3.03L350.91,-10.92L348.42,-15.8L340.01,-24.52L343.39,-25.39L349.98,-29.3L350.21,-34.55L356.26,-37.25L359.74,-35.49L368.7,-46.1L377.36,-45.85Z" class="land" id="NI" title="Nicaragua"/>
    <path d="M439.78,25L441.06,32.28L439.5,36.11L435.47,38.07L433.74,41.66L428.94,31.97L432.2,28.25L422.81,21.05L419.25,20.95L415.91,25.73L409.53,29.3L408.51,31.78L412.13,36.56L408.28,41.13L404.17,41.77L402.52,36.04L397.81,35.92L395.8,31.07L386.36,28.93L384.21,31.85L384.46,15.78L388.32,14.29L391.16,20.65L399.92,23.58L405.17,22.33L412.51,18.57L418.27,14.05L428.9,16.28L433.02,18.26Z" class="land" id="PA" title="Panama"/>
    <path d="M512.41,175.19L504.01,174.46L502.3,176.53L493.58,178.32L483.28,185.53L482.52,191.49L480.12,196.89L481.25,201.17L475.2,206.3L475.48,211.31L473.04,213.88L477.99,223.08L484.11,230.63L481.99,235.5L490.37,236.65L492.65,242.41L502.08,241.97L507.82,236.28L508.71,254.15L519.32,253.47L529.33,271.55L526.68,275.97L526.35,285.33L528.71,291.36L524.44,300.28L526.7,303.48L524.59,307.76L529.54,319.9L524.1,326.42L525.55,330L522.38,332.31L522.19,338.18L517.46,339.81L507.62,332.06L505.27,327.53L495.36,320.67L481.29,314.19L467.81,305.52L463.02,299.53L458.78,296.44L454.77,290.6L455.25,283.38L447.78,269.76L444.34,266.4L443.35,261.77L438.94,257.39L437.57,252.12L432.55,243.41L425.83,226.24L419.23,217.13L414.97,208.17L411.28,203.31L404.06,199.03L400.59,184.42L398.17,180.24L398.6,176.2L403.31,169.32L407.99,165.32L409.58,171.02L406.3,173.26L415.18,177.74L418.43,183.25L421.01,183.99L427.25,169.85L427.9,165.82L432.7,160.59L444.51,155.71L450.38,150.71L455.53,143.69L458.56,132.33L458.34,127.1L463.2,128.19L468.81,137.16L474.69,140.4L476.43,145.58L479.45,147.18L479.94,152.39L487.6,154.14L494.03,150.93L497.64,153.04L502.47,151.7L511.01,157.89L504.56,169.9L508.55,170.28Z" class="land" id="PE" title="Peru"/>
    <path d="M560.06,-89.25L561.15,-83.75L549.02,-83.98L549.93,-89.89Z" class="land" id="PR" title="Puerto Rico"/>
    <path d="M640.66,361.1L644.76,370.85L644.34,383.13L654.9,385.76L658.78,383.79L665.63,386.19L672.22,405.92L679.28,403.82L683.29,406.57L681.4,424.49L681.22,435.72L675.29,441.3L673.02,446.06L668.54,444.96L666.2,447.69L649.01,444.4L644.44,442.74L647.91,436.86L647.46,433.94L652.2,422.49L649.57,419.34L633.55,411.33L628.02,407.11L616.42,403.15L608.2,396.44L598.67,385.32L601,371.65L600.44,365.76L604.59,355.02L621.54,350.95L630.6,350.82L640.11,357.04Z" class="land" id="PY" title="Paraguay"/>
    <path d="M324.7,-42.17L327.64,-41.15L333.19,-35.57L336.31,-37.16L340.47,-35.13L339.05,-30.3L337.66,-27.75L331.86,-27.78L316.64,-34.24Z" class="land" id="SV" title="El Salvador"/>
    <path d="M671.67,63.45L668.61,67.47L669.43,78.65L672.98,84.06L670.81,93.05L666.52,98.77L662.63,95.67L651.28,99.09L647.69,103.25L645.47,102.15L632.2,77.28L635.84,67.73L639.67,67.4L641.17,61.24L643.55,56.07L653.85,58.36L655.01,56.43L665.01,56.12L672.8,58.22Z" class="land" id="SR" title="Suriname"/>
    <path d="M589.48,-84.85L590.59,-84.85L590.42,-84.27Z" class="land" id="SX" title="Sint Maarten"/>
    <path d="M509.42,-128.11L507.8,-128.41L508.12,-129.13L509.45,-128.91Z" class="land" id="TC" title="Turks and Caicos Islands"/>
    <path d="M604.63,7.79L599.82,6.22L604.7,1.54Z" class="land" id="TT" title="Trinidad and Tobago"/>
    <path d="M704.76,520.26L701.84,527.73L698.68,531.14L692.16,534.2L684.58,532.36L680.59,533.91L669.81,528.58L663.61,528.87L657.18,522.25L656.49,514.61L658.45,510.32L656.61,505.37L655.82,498.95L658.64,478.59L666,477.64L673.1,483.75L676.68,488.93L679.42,486.66L682.85,490.76L689.65,493.8L698.42,500.51L700.48,504.56L705.53,508.48L702.33,513.57Z" class="land" id="UY" title="Uruguay"/>
    <path d="M604.82,-27.48L603.83,-28.09L604.88,-29.8L605.41,-29.07Z" class="land" id="VC" title="Saint Vincent and the Grenadines"/>
    <path d="M613.85,26.27L613.5,32.05L608.57,34.85L606.39,38.51L609.44,44.97L601.81,47.89L601.82,53.49L599.23,57.07L605.41,65.28L606.74,67.69L602.63,73.04L590.96,78.14L585.32,79.07L582.66,84.01L579.44,80.18L566.63,80.44L570.05,84.08L570.01,88.54L572.86,97.3L578.16,99.98L571.67,103.69L570.85,107.01L560.85,112.96L547.5,116.29L543.02,111.62L539.77,98.03L533.57,92.18L538.93,86.08L535.5,80.86L533.7,73.37L534.22,64.48L538.34,55.68L534.22,52.61L528.02,54.16L518.29,54.41L512.01,45.05L506.44,43.36L502.81,44.39L492.09,43.2L488.65,39.03L489.37,28.22L485.96,19.75L480.41,18.37L484.25,11.81L488.09,-0.39L492.76,-4.6L496,-10.08L502.52,-12.36L495.93,-7.14L498.95,1.7L493.22,11.51L497.06,20.18L500.99,19.55L503.78,12.79L500.77,6.28L500.4,-1.88L513.05,-6.66L512.87,-12.64L515.91,-16.04L519.14,-7.9L527.15,-7.34L531.26,-4.18L532.54,2.72L536.11,3.86L552.47,1.99L556.21,6.36L566.16,8.22L576.26,1.62L588.04,0.61L586.44,4.49L589.6,7.3L606.45,16.81L603.71,19.91L600.89,27.9L606.01,25.77Z" class="land" id="VE" title="Venezuela"/>
    <path d="M577.26,-89.48L577.01,-90.05L578.02,-90.1Z" class="land" id="VG" title="British Virgin Islands"/>
    <path d="M572.92,-81.65L573.62,-80.61L571.61,-80.56L571.72,-81.38Z" class="land" id="VI" title="US Virgin Islands"/>
    <path d="M533.86,-15.66L533.06,-15.97L532.29,-16.97L532.34,-17.49L533.78,-16.67Z" class="land" id="BQ" title="Bonair, Saint Eustachius and Saba"/>
  </g>
</svg>