<?xml version="1.0" encoding="UTF-8"?>
<svg xmlns="http://www.w3.org/2000/svg" width="497.72" height="519.6" viewBox="231.14 -3.3 497.72 519.6">
  <!-- Created using SVG Map Generator: dojo.amcharts.com/svg-map-generator -->
  <style>
    .land { fill: #ffffff; stroke: #299e8b; stroke-width: 1.3; }
  </style>
  <rect x="231.14" y="-3.3" width="497.72" height="519.6" fill="#417ea4"/>
  <g id="polygons">
    <path d="M666.25,347.81L666.13,347.81L666.11,347.68L666.22,347.66Z" class="land" id="GO" title="Glorioso Islands"/>
    <path d="M636.64,386.91L636.54,386.9L636.53,386.74L636.66,386.83Z" class="land" id="JU" title="Juan De Nova Island"/>
    <path d="M565.4,424.85L555.78,423.03L553.97,423.37L552.16,420.64L546.3,418.94L544.22,415.31L544.58,411.51L535.68,404.44L530.69,392.02L534.29,393.15L541.28,393.19L547.08,385.63L552.18,383.04L553.25,379.17L558.29,376.73L562.33,376.72L562.49,379.22L567.31,379.43L571.45,382.31L577.46,384.32L577.19,396.05L575.29,400.62L576.71,406.83L573.21,412.81L572.33,417.24Z" class="land" id="ZW" title="Zimbabwe"/>
    <path d="M579.09,332.42L581.64,335.65L583.37,340.82L580.89,342.97L580.54,347.52L581.36,354.31L579.04,355.3L578.57,359.53L576.68,362.27L579.79,365.13L561.51,372.08L562.33,376.72L558.29,376.73L553.25,379.17L552.18,383.04L547.08,385.63L541.28,393.19L534.29,393.15L530.69,392.02L524.82,389.79L519.38,390.93L512.18,383.51L511.28,378.94L511.81,357.94L523.15,357.94L524.15,353.83L524.25,342.81L527.52,346.84L531.61,345.45L532.55,348.15L536.62,350.05L542.25,350.11L550.7,354.25L554.51,360.55L559.25,360.72L559.52,351.93L555.03,353.31L550.89,347.15L552.76,341.38L552.85,335.43L551.54,331.12L555.14,325.73L566.04,323.81L573.18,329.91Z" class="land" id="ZM" title="Zambia"/>
    <path d="M565.4,424.85L566.49,432.55L568.68,439.53L567.74,450.22L564.68,448.71L560.73,453.47L561.93,458.46L567.12,459.84L568.28,456.51L572.85,456.58L570.05,466.23L568.35,469.24L562.34,474.64L555.32,486.01L546.22,495.46L540,500.88L531.31,505.91L521.82,508.83L514.73,507.52L506.93,508.12L504.15,510.28L496.84,510.93L491.55,513L487.03,508.4L482.06,500.22L484.34,498.01L484.42,491.52L481.55,486.36L477.8,474.82L475.07,469.21L478.82,465.02L480.94,469.79L484.74,471.02L491.46,471.24L495.93,468.02L497.09,441.79L499.18,443.6L501.68,451.38L500.95,456.58L506.32,456.62L512.48,451.03L514.1,446.65L516.47,445.28L525.08,449.22L530.12,447.71L532.4,441.58L538.09,437.97L540.21,432.85L546.88,426.93L553.97,423.37L555.78,423.03ZM541.97,471.29L537.03,476.68L538.69,481.34L542.21,483.66L544.66,480.13L548.92,478.5L550.97,473.86L546.81,468.95Z" class="land" id="ZA" title="South Africa"/>
    <path d="M585.93,272.81L566.56,272.85L565.14,273.27L562.63,275.41L559.42,275.55L560.29,265.01L561.67,259.9L569.66,251.21L566.43,248.3L567.06,240.96L568.96,238.87L572.91,238.75L574.78,240.69L579.28,238.78L583.27,239.09L586.22,235.79L588.81,239.54L592.4,251.09L591.35,256.98L589.48,258.32L586.19,264.48Z" class="land" id="UG" title="Uganda"/>
    <path d="M585.93,272.81L593.85,277.61L608.77,287.3L609.66,291.76L618.29,298.97L615.69,307.38L615.96,310.6L619.54,314.48L618.31,319.01L618.24,325.58L620.87,336.02L624.88,339.92L621.91,342.45L612.64,346.66L609.18,345.82L606.78,348.52L600.54,348.81L596.14,346.94L591.09,347.83L589,343.99L588.76,336.84L587.58,334.72L579.09,332.42L573.18,329.91L566.04,323.81L563.5,316.79L559.88,312.62L558.54,308.43L559.27,305.77L557.79,301.03L558.2,297.25L562.78,294.67L566.77,288.92L565.1,286.39L565.37,282.72L567.06,282.29L566.98,276.79L565.14,273.27L566.56,272.85Z" class="land" id="TZ" title="Tanzania"/>
    <path d="M444.98,29.62L445.16,35.1L441.28,37.48L437.25,41.89L437.97,46.75L433.99,50.7L430.89,37.54L426.67,34.18L423.25,29.26L421.67,23.21L425.8,18.56L426.57,15.21L425.38,5.65L427.29,2.87L433.57,0L438.73,3.28L439.07,10.34L442.27,14.95L436.7,21.79L437.03,24.86Z" class="land" id="TN" title="Tunisia"/>
    <path d="M383.68,187.74L382.95,192.23L386.3,194.81L387.96,201.53L388.11,221.63L385.45,222.53L381.4,217.13L382.07,213.57L380.73,204.35L381.42,199.34L379.79,198.37L380.4,193.11L377.84,190.31L377.77,186.87Z" class="land" id="TG" title="Togo"/>
    <path d="M517.5,188.26L515.25,187.72L510.66,192.19L504.96,199.01L502.36,200.98L495.07,201.77L494.88,204.33L490.94,208.75L486.02,209.1L480.77,212.17L478.28,211.23L472.8,212.36L470.51,205.03L465.67,200.44L463.47,196.98L465.07,194.93L472.99,195.07L470.43,190.19L470,181.69L466.45,173.63L463.69,172.93L460.84,168.48L459.8,163.67L465.22,153.94L471.75,145.7L472.82,124.37L474.04,121.52L469.2,112.83L467.7,102.33L473.61,99.13L493.15,110.42L510.75,120.53L522.53,127.27L523.45,153.72L518.15,154.28L514.85,165.47L512.47,168.3L513.28,171.15L510.92,174.97L514.14,175.9L515.54,182.94L517.82,185.24Z" class="land" id="TD" title="Chad"/>
    <path d="M718.18,298.98L717.24,298.38L717.69,298.03Z" class="land" id="SC" title="Seychelles"/>
    <path d="M567.74,450.22L568.28,456.51L567.12,459.84L561.93,458.46L560.73,453.47L564.68,448.71Z" class="land" id="SZ" title="Eswatini"/>
    <path d="M419,264.85L418.17,263.3L419.16,262.84L419.55,263.98Z" class="land" id="ST" title="Sao Tome and Principe"/>
    <path d="M632.66,277.73L629.29,271.88L629.12,245.76L634.66,237.51L640.19,235.28L642.19,232.78L647.44,230.61L653.27,230.88L659.2,223.19L671.32,209L665.21,209L646.95,201.99L643.56,199.19L638.23,190.38L639.74,187.69L641.57,184.14L645.47,189.22L648.81,191.74L652.2,191.69L657.42,188.85L662.01,189.5L667,186.46L676.1,185.88L683.36,183.93L687.36,180.7L690.23,181.79L689.36,185.31L689.92,190.13L688.57,192.99L688.35,198.85L679.9,216.14L678.22,221.94L671.9,233.83L660.3,248.16L649.83,255.85L644.55,261.3L635.42,272.6Z" class="land" id="SO" title="Somalia"/>
    <path d="M315.39,205.54L313.13,210.69L307.83,216.74L301.87,213.34L299.48,210L297.04,201.54L300.34,199.24L301.93,195.77L309.84,194.95L312.94,199.66Z" class="land" id="SL" title="Sierra Leone"/>
    <path d="M343.72,379.24L343.22,378.95L343.62,378.59Z" class="land" id="SH" title="Saint Helena"/>
    <path d="M303.7,160.63L305.23,164.91L304.96,168.99L308.93,173.9L308.9,177.72L303.4,178.26L298.61,176.09L294.69,175.8L285.76,175.76L283.44,177.11L276.51,178.07L276.28,173.03L281.94,172.38L283.96,169.32L277.57,169.31L274.04,161.83L274.2,159.82L278.05,153.31L280.38,148.27L286.78,147.57L291.68,148.03L294.24,151.11L297,151.74L300.25,157.54Z" class="land" id="SN" title="Senegal"/>
    <path d="M586.15,198.61L586.4,204.85L581.18,206.17L579.89,209.32L583.93,211.31L590.45,218.48L594.01,226.77L586.22,235.79L583.27,239.09L579.28,238.78L574.78,240.69L572.91,238.75L568.96,238.87L567.06,240.96L563.08,237.48L559.87,233.19L556.66,234.6L550.8,234.87L545.91,229.49L543.9,224.75L540.39,222.68L539.4,218.66L533.33,213.71L530.02,208.01L526.57,206.91L525.64,204.26L527.97,202.69L529.4,196.39L531.26,192.57L535.48,191.8L540.21,198.15L548.34,197.63L549.38,199.56L554.23,199.57L561.14,192.82L565.73,196.61L568.68,196.22L575.63,187.28L575.07,182.61L580.22,179.04L579.59,183.49L580.35,188.75L584.87,193.38Z" class="land" id="SS" title="South Sudan"/>
    <path d="M599.01,109.45L601.09,115.82L602.35,126.66L604.01,132.09L611.2,137.89L609.22,140.89L604.33,144.61L601.9,144.63L601.59,150.05L599.03,158.33L599.89,164.56L597.79,175.43L594.72,176.77L591.96,181.89L591.07,188.65L587.15,191.04L586.15,198.61L584.87,193.38L580.35,188.75L579.59,183.49L580.22,179.04L575.07,182.61L575.63,187.28L568.68,196.22L565.73,196.61L561.14,192.82L554.23,199.57L549.38,199.56L548.34,197.63L540.21,198.15L535.48,191.8L531.26,192.57L529.4,196.39L527.97,202.69L525.64,204.26L521.9,203.19L522.44,196.05L517.5,188.26L517.82,185.24L515.54,182.94L514.14,175.9L510.92,174.97L513.28,171.15L512.47,168.3L514.85,165.47L518.15,154.28L523.45,153.72L522.53,127.27L522.39,123.72L528.32,123.72L527.79,109.46L550.67,109.47L566.45,109.46L577.39,109.46Z" class="land" id="SD" title="Sudan"/>
    <path d="M326.9,69.07L326.85,71.72L326.68,80.93L306.9,80.93L306.42,98.97L300.32,102.3L300.13,114.18L276.45,114.22L275.84,117.94L276.77,110.15L279.36,107.06L281.34,101.6L285.28,94.65L288.65,91.25L292.74,79.09L297.81,75.65L300.36,69.1Z" class="land" id="EH" title="Western Sahara"/>
    <path d="M565.14,273.27L566.98,276.79L567.06,282.29L565.37,282.72L561.55,282.29L561.15,284.96L555.92,284.99L556.66,278.89L559.42,275.55L562.63,275.41Z" class="land" id="RW" title="Rwanda"/>
    <path d="M712.81,417.28L710.25,416.81L710.19,414.17L712.3,414.19Z" class="land" id="RE" title="Reunion"/>
    <path d="M278.28,31.86L281.14,32.65L280.26,33.43L278.35,32.91Z" class="land" id="PT" title="Madeira"/>
    <path d="M460.84,168.48L463.69,172.93L464.57,177.86L467.21,179.81L466.86,184.2L462.83,186.7L457.09,198.86L456.38,202.69L453.94,204.75L448.83,218.23L446.4,220.06L443.03,215.63L440.21,216.1L433.62,223.1L430.56,232L428.96,233.4L421.99,233.7L415.39,235.29L412.39,232.76L407.93,222.98L403.42,220.25L394.74,220.55L394.6,209.88L395.13,201.54L396.78,201.29L401.56,190.48L399.43,184.88L400.08,182.75L400.37,176.82L402.2,175.08L403.39,170.23L411.54,167.28L416.99,169.19L420.37,173.43L425.52,171.09L431.4,174.14L436.67,174.83L440.09,171.57L447.54,170.97L453.95,172.82L455.1,171.16Z" class="land" id="NG" title="Nigeria"/>
    <path d="M467.7,102.33L469.2,112.83L474.04,121.52L472.82,124.37L471.75,145.7L465.22,153.94L459.8,163.67L460.84,168.48L455.1,171.16L453.95,172.82L447.54,170.97L440.09,171.57L436.67,174.83L431.4,174.14L425.52,171.09L420.37,173.43L416.99,169.19L411.54,167.28L403.39,170.23L402.2,175.08L400.37,176.82L400.08,182.75L395.7,177.98L392.73,181.32L390.09,175.56L387.71,176.08L384.19,173.19L384.13,169.57L381.95,168.48L379.18,162.84L379.51,159.9L384.01,159.36L386.07,157.34L399.43,156.74L401.67,153.9L403.79,145.07L403.65,129.79L413.32,127.4L423.1,117.47L440.48,105.14L449.62,98.61L458.72,101.02L463.3,105.02Z" class="land" id="NE" title="Niger"/>
    <path d="M519.38,390.93L524.82,389.79L530.69,392.02L525.21,393.33L520.39,396.71L518.79,393.68L504.7,395.76L503.78,421.98L497.83,421.98L497.09,441.79L495.93,468.02L491.46,471.24L484.74,471.02L480.94,469.79L478.82,465.02L475.07,469.21L470.95,464.55L468.87,460.42L466.91,452.79L466.43,443.62L464.6,437.69L465.05,426.99L463.92,423.34L458.92,414.26L457.35,409.04L453.26,400.09L449.26,393.5L449.15,388.15L454.02,387.88L457.39,386.14L462.4,389.14L480.37,389.16L489.33,389.21L491.85,391.82L507.44,393.49Z" class="land" id="NA" title="Namibia"/>
    <path d="M652.88,357.76L652.24,357.19L652.69,355.87L653.22,356.17Z" class="land" id="YT" title="Mayotte"/>
    <path d="M591.09,347.83L589.26,347.91L587.29,352.32L588.24,360.49L592.24,364.3L595.66,369.81L594.66,379.67L590.94,383.24L586.38,380.68L585.59,378.46L587.55,374.26L586.54,367.94L582.27,369.08L579.79,365.13L576.68,362.27L578.57,359.53L579.04,355.3L581.36,354.31L580.54,347.52L580.89,342.97L583.37,340.82L581.64,335.65L579.09,332.42L587.58,334.72L588.76,336.84L589,343.99Z" class="land" id="MW" title="Malawi"/>
    <path d="M724.53,411.18L723.11,409.36L724.41,407.71L725.56,409.24Z" class="land" id="MU" title="Mauritius"/>
    <path d="M303.7,160.63L300.25,157.54L297,151.74L294.24,151.11L291.68,148.03L286.78,147.57L280.38,148.27L278.05,153.31L278.11,150.12L281.07,141.16L281.2,134.22L278.76,128.23L280.75,122.06L279.52,119.04L275.84,117.94L276.45,114.22L300.13,114.18L300.32,102.3L306.42,98.97L306.9,80.93L326.68,80.93L326.85,71.72L336.75,78.82L349.51,88.06L338.97,88.07L341.19,114.53L342.26,126.93L344.14,148.12L345.75,150.15L344.79,155.74L322.58,155.74L313.37,156.26L312.14,158.2L308.5,154.74L306.2,159.3Z" class="land" id="MR" title="Mauritania"/>
    <path d="M572.85,456.58L568.28,456.51L567.74,450.22L568.68,439.53L566.49,432.55L565.4,424.85L572.33,417.24L573.21,412.81L576.71,406.83L575.29,400.62L577.19,396.05L577.46,384.32L571.45,382.31L567.31,379.43L562.49,379.22L562.33,376.72L561.51,372.08L579.79,365.13L582.27,369.08L586.54,367.94L587.55,374.26L585.59,378.46L586.38,380.68L590.94,383.24L594.66,379.67L595.66,369.81L592.24,364.3L588.24,360.49L587.29,352.32L589.26,347.91L591.09,347.83L596.14,346.94L600.54,348.81L606.78,348.52L609.18,345.82L612.64,346.66L621.91,342.45L624.88,339.92L624.3,346.08L625.02,355.34L624.83,367.81L625.87,370.66L623.96,375.51L619.28,382.36L614.47,386.18L608.7,388.1L603.07,391.64L598.52,397.17L588.41,406.4L586.67,410.61L589.56,419.5L589.51,424.81L590.79,428.85L587.51,440.11L576.39,445.24L572.9,447.98Z" class="land" id="MZ" title="Mozambique"/>
    <path d="M403.65,129.79L403.79,145.07L401.67,153.9L399.43,156.74L386.07,157.34L384.01,159.36L379.51,159.9L373.58,158.93L367.46,162.92L363.27,164.43L356.45,172.11L351.88,172.64L351.24,178.19L345.99,181.81L344.51,191.77L341.39,193.41L340.03,189.65L334.86,193.35L331.48,191.76L329.46,193.63L328,191.68L326.98,184.95L324.47,182.91L323.17,177.73L318.41,180.29L315.66,179.08L313.19,181.3L308.9,177.72L308.93,173.9L304.96,168.99L305.23,164.91L303.7,160.63L306.2,159.3L308.5,154.74L312.14,158.2L313.37,156.26L322.58,155.74L344.79,155.74L345.75,150.15L344.14,148.12L342.26,126.93L341.19,114.53L338.97,88.07L349.51,88.06L358.77,95.3L370.46,104.47L385.06,115.83L388.32,120.99L397.46,125.18L398.68,130.89Z" class="land" id="ML" title="Mali"/>
    <path d="M679.57,353.9L681.77,358.45L682.92,370.24L684.13,374.89L677.01,388.08L676.85,392.76L670.21,410.99L664.81,425.31L661.81,435.35L658.92,441.86L656,444.45L646.15,447.26L640.09,443.35L638.43,438.8L639.14,432.89L637.59,428.3L637.28,422.33L639.07,417.39L641.34,415.4L645.24,407.17L645.76,403.66L643.85,395.54L643.89,389.16L646.86,384.25L647.39,380.8L658.84,377.22L668.29,368.91L669.63,364.76L674.76,359.83L675.68,354.09Z" class="land" id="MG" title="Madagascar"/>
    <path d="M365.39,15.92L367.82,18.43L368.45,28.65L371.99,34.72L370.76,37.42L363.92,37.13L355.86,40.47L354.88,45.81L349.09,49.01L346.22,52.64L340.03,53.7L333.02,56.98L327.2,61.49L326.9,69.07L300.36,69.1L301.77,67.23L310.82,63.89L316.5,59.01L321.5,51.55L320.39,47.21L320.91,42.16L324.4,33.97L328.29,29.59L338.24,24.01L341.51,18.26L344.12,11.06L347.17,10.04L348.79,13.33L353.23,15.51L356.91,14.67Z" class="land" id="MA" title="Morocco"/>
    <path d="M541.97,471.29L546.81,468.95L550.97,473.86L548.92,478.5L544.66,480.13L542.21,483.66L538.69,481.34L537.03,476.68Z" class="land" id="LS" title="Lesotho"/>
    <path d="M524.95,40.52L523.36,42.8L524.33,46.79L523.09,51.4L525.08,58.18L525.93,72.61L527.11,95.05L527.79,109.46L528.32,123.72L522.39,123.72L522.53,127.27L510.75,120.53L493.15,110.42L473.61,99.13L467.7,102.33L463.3,105.02L458.72,101.02L449.62,98.61L446.74,92.93L439.24,90.95L437.62,85.66L434.23,80.42L436.59,76.96L435.81,71.4L436.74,68.15L436.1,59.71L433.99,50.7L437.97,46.75L437.25,41.89L441.28,37.48L445.16,35.1L444.98,29.62L449.56,31.93L455.38,31.53L466.53,35.27L468.62,40.51L472.39,43.31L479.62,44.61L484.63,46.79L489.17,50.26L493.65,48.85L496,44.64L494.4,39.36L498.15,33.92L503.9,31.37L512.5,33.64L513.82,36.53L522.06,37.94Z" class="land" id="LY" title="Libya"/>
    <path d="M326.32,212.12L327.47,215.55L325.57,219.57L329.94,221.5L332.58,224.29L332,234.86L322.29,229.87L315.32,222.62L307.83,216.74L313.13,210.69L315.39,205.54L320.05,206.53L322.45,214.55Z" class="land" id="LR" title="Liberia"/>
    <path d="M634.66,237.51L629.12,245.76L629.29,271.88L632.66,277.73L629.36,279.53L627.18,283.71L624.58,284.77L623.89,288.75L619.96,297.46L618.29,298.97L609.66,291.76L608.77,287.3L593.85,277.61L585.93,272.81L586.19,264.48L589.48,258.32L591.35,256.98L592.4,251.09L588.81,239.54L586.22,235.79L594.01,226.77L596.94,227.82L597.11,231.62L599.09,234.16L604.14,234.43L611.43,239.84L620.07,241.21L622.17,238.4L627.78,235.42L630.6,237.75Z" class="land" id="KE" title="Kenya"/>
    <path d="M436.96,258.4L438.23,249.37L439.33,250.34L447.59,250.35L447.65,258.62Z" class="land" id="GQ" title="Equatorial Guinea"/>
    <path d="M286.52,188.11L284.41,186.15L283.8,182.55L279.95,181.18L276.51,178.07L283.44,177.11L285.76,175.76L294.69,175.8L294.58,182.46L288.77,184.08Z" class="land" id="GW" title="Guinea-Bissau"/>
    <path d="M276.28,173.03L277.57,169.31L283.96,169.32L281.94,172.38Z" class="land" id="GM" title="Gambia"/>
    <path d="M308.9,177.72L313.19,181.3L315.66,179.08L318.41,180.29L323.17,177.73L324.47,182.91L326.98,184.95L328,191.68L329.46,193.63L330.41,205.66L327.88,212.13L326.32,212.12L322.45,214.55L320.05,206.53L315.39,205.54L312.94,199.66L309.84,194.95L301.93,195.77L300.34,199.24L297.04,201.54L294.61,195.85L290.21,193.03L288.15,188.18L286.52,188.11L288.77,184.08L294.58,182.46L294.69,175.8L298.61,176.09L303.4,178.26Z" class="land" id="GN" title="Guinea"/>
    <path d="M377.77,186.87L377.84,190.31L380.4,193.11L379.79,198.37L381.42,199.34L380.73,204.35L382.07,213.57L381.4,217.13L385.45,222.53L384,224.52L379.78,224.89L373.31,228.65L365.94,231.95L359.13,229.63L359.3,229.35L359.71,229.33L361.08,228.95L358.61,220.7L358.4,217.44L361.14,209.47L362.88,207.5L361.74,198.47L360.95,187.7L375.19,187.64Z" class="land" id="GH" title="Ghana"/>
    <path d="M459.63,250.39L459.52,256.91L465.08,256L466.64,259.96L463.27,264.36L463.12,267.15L466.92,270.09L466.32,279.11L464.49,283.2L457.78,282.11L449.1,282.7L448.87,285.82L451.28,289.24L446.34,293.47L441.57,287.07L437.15,282.49L434.96,278.65L432.25,270.73L435.16,268.2L436.96,258.4L447.65,258.62L447.59,250.35L447.71,249.41L459.18,249.71Z" class="land" id="GA" title="Gabon"/>
    <path d="M636,177.27L632.53,183.51L632.89,187.83L639.74,187.69L638.23,190.38L643.56,199.19L646.95,201.99L665.21,209L671.32,209L659.2,223.19L653.27,230.88L647.44,230.61L642.19,232.78L640.19,235.28L634.66,237.51L630.6,237.75L627.78,235.42L622.17,238.4L620.07,241.21L611.43,239.84L604.14,234.43L599.09,234.16L597.11,231.62L596.94,227.82L594.01,226.77L590.45,218.48L583.93,211.31L579.89,209.32L581.18,206.17L586.4,204.85L586.15,198.61L587.15,191.04L591.07,188.65L591.96,181.89L594.72,176.77L597.79,175.43L599.89,164.56L604.28,163.15L606.28,165.32L607.96,160.32L611.86,163.36L615.25,161.91L622.27,163.32L625.7,165.35Z" class="land" id="ET" title="Ethiopia"/>
    <path d="M294.46,65.41L295.73,61.57L296.74,62.44L296.07,64.81Z" class="land" id="ES" title="Canary Islands"/>
    <path d="M611.2,137.89L614.92,146.97L617.56,155.49L621.97,159.17L628,161.97L631.14,166.5L634.84,169.31L638.42,174.45L640.42,175.56L636,177.27L625.7,165.35L622.27,163.32L615.25,161.91L611.86,163.36L607.96,160.32L606.28,165.32L604.28,163.15L599.89,164.56L599.03,158.33L601.59,150.05L601.9,144.63L604.33,144.61L609.22,140.89Z" class="land" id="ER" title="Eritrea"/>
    <path d="M599.01,109.45L577.39,109.46L566.45,109.46L550.67,109.47L527.79,109.46L527.11,95.05L525.93,72.61L525.08,58.18L523.09,51.4L524.33,46.79L523.36,42.8L524.95,40.52L537.33,42.5L548.29,46.41L555.67,41.93L560.26,41L565.86,44.54L574.98,44.27L578.07,43.11L583.26,56.07L581.16,66.5L576.19,67.34L579.31,76.27L587.77,91.78L590.55,94.7L590.25,99.15L591.53,102.69Z" class="land" id="EG" title="Egypt"/>
    <path d="M427.29,2.87L425.38,5.65L426.57,15.21L425.8,18.56L421.67,23.21L423.25,29.26L426.67,34.18L430.89,37.54L433.99,50.7L436.1,59.71L436.74,68.15L435.81,71.4L436.59,76.96L434.23,80.42L437.62,85.66L439.24,90.95L446.74,92.93L449.62,98.61L440.48,105.14L423.1,117.47L413.32,127.4L403.65,129.79L398.68,130.89L397.46,125.18L388.32,120.99L385.06,115.83L370.46,104.47L358.77,95.3L349.51,88.06L336.75,78.82L326.85,71.72L326.9,69.07L327.2,61.49L333.02,56.98L340.03,53.7L346.22,52.64L349.09,49.01L354.88,45.81L355.86,40.47L363.92,37.13L370.76,37.42L371.99,34.72L368.45,28.65L367.82,18.43L365.39,15.92L367.16,15.99L372.91,11.9L378.46,10.25L385.4,5.84L393.06,5.26L399.83,3.16L405.43,3.16L407.97,4.72L415.31,1.81L417.85,2.99Z" class="land" id="DZ" title="Algeria"/>
    <path d="M641.57,184.14L639.74,187.69L632.89,187.83L632.53,183.51L636,177.27L640.42,175.56L642.36,179.24L638.78,182.44Z" class="land" id="DJ" title="Djibouti"/>
    <path d="M236.03,159.22L234.44,159.55L234.53,157.34Z" class="land" id="CV" title="Cape Verde"/>
    <path d="M642.79,350.13L641.38,349.06L642.35,348.09Z" class="land" id="KM" title="Comoros"/>
    <path d="M492.16,241.05L488.91,251.44L487.89,257.78L486.98,269.6L481.62,274.4L477.53,281.15L477.08,290.26L468.66,300.06L466.1,296.19L460.3,300L458.22,298.57L454.01,298.45L451.75,301.19L446.34,293.47L451.28,289.24L448.87,285.82L449.1,282.7L457.78,282.11L464.49,283.2L466.32,279.11L466.92,270.09L463.12,267.15L463.27,264.36L466.64,259.96L465.08,256L459.52,256.91L459.63,250.39L466.93,250.43L474.63,252.13L477.33,249.61L480.3,240.65L484.98,239.59Z" class="land" id="CG" title="Republic of Congo"/>
    <path d="M545.91,229.49L550.8,234.87L556.66,234.6L559.87,233.19L563.08,237.48L567.06,240.96L566.43,248.3L569.66,251.21L561.67,259.9L560.29,265.01L559.42,275.55L556.66,278.89L555.92,284.99L557.19,287.35L557.14,293.43L558.2,297.25L557.79,301.03L559.27,305.77L558.54,308.43L559.88,312.62L563.5,316.79L566.04,323.81L555.14,325.73L551.54,331.12L552.85,335.43L552.76,341.38L550.89,347.15L555.03,353.31L559.52,351.93L559.25,360.72L554.51,360.55L550.7,354.25L542.25,350.11L536.62,350.05L532.55,348.15L531.61,345.45L527.52,346.84L524.25,342.81L523.42,343.82L515.66,344.12L514.02,338.47L511.3,332.86L511.95,327.35L511.15,317.5L504.16,317.31L503.42,314.74L497.57,316.37L496.36,322.2L485.32,322.97L482.02,317.16L480.45,309.96L478.01,307.3L458.14,307.29L454.12,308.15L452.92,306.54L454.83,302.21L458.22,298.57L460.3,300L466.1,296.19L468.66,300.06L477.08,290.26L477.53,281.15L481.62,274.4L486.98,269.6L487.89,257.78L488.91,251.44L492.16,241.05L491.87,235.52L494.91,231.03L498.68,229.4L504.05,234.07L515.48,236.39L517.49,232.76L521.54,232.65L527.04,230.3L532.73,230.09L534.4,228.05L542.36,229.82Z" class="land" id="CD" title="Democratic Republic of Congo"/>
    <path d="M472.8,212.36L471.39,214.21L467.62,224.13L468.23,232.63L470.83,238.58L476.59,245.09L477.33,249.61L474.63,252.13L466.93,250.43L459.63,250.39L459.18,249.71L447.71,249.41L447.59,250.35L439.33,250.34L438.23,249.37L438.68,242.24L435.91,237.9L433.3,236.7L430.56,232L433.62,223.1L440.21,216.1L443.03,215.63L446.4,220.06L448.83,218.23L453.94,204.75L456.38,202.69L457.09,198.86L462.83,186.7L466.86,184.2L467.21,179.81L464.57,177.86L463.69,172.93L466.45,173.63L470,181.69L470.43,190.19L472.99,195.07L465.07,194.93L463.47,196.98L465.67,200.44L470.51,205.03Z" class="land" id="CM" title="Cameroon"/>
    <path d="M344.51,191.77L349.97,196.82L358.53,195.53L361.74,198.47L362.88,207.5L361.14,209.47L358.4,217.44L358.61,220.7L361.08,228.95L359.71,229.33L353.48,228.63L344.13,229.63L332,234.86L332.58,224.29L329.94,221.5L325.57,219.57L327.47,215.55L326.32,212.12L327.88,212.13L330.41,205.66L329.46,193.63L331.48,191.76L334.86,193.35L340.03,189.65L341.39,193.41Z" class="land" id="CI" title="Côte d'Ivoire"/>
    <path d="M517.5,188.26L522.44,196.05L521.9,203.19L525.64,204.26L526.57,206.91L530.02,208.01L533.33,213.71L539.4,218.66L540.39,222.68L543.9,224.75L545.91,229.49L542.36,229.82L534.4,228.05L532.73,230.09L527.04,230.3L521.54,232.65L517.49,232.76L515.48,236.39L504.05,234.07L498.68,229.4L494.91,231.03L491.87,235.52L492.16,241.05L484.98,239.59L480.3,240.65L477.33,249.61L476.59,245.09L470.83,238.58L468.23,232.63L467.62,224.13L471.39,214.21L472.8,212.36L478.28,211.23L480.77,212.17L486.02,209.1L490.94,208.75L494.88,204.33L495.07,201.77L502.36,200.98L504.96,199.01L510.66,192.19L515.25,187.72Z" class="land" id="CF" title="Central African Republic"/>
    <path d="M530.69,392.02L535.68,404.44L544.58,411.51L544.22,415.31L546.3,418.94L552.16,420.64L553.97,423.37L546.88,426.93L540.21,432.85L538.09,437.97L532.4,441.58L530.12,447.71L525.08,449.22L516.47,445.28L514.1,446.65L512.48,451.03L506.32,456.62L500.95,456.58L501.68,451.38L499.18,443.6L497.09,441.79L497.83,421.98L503.78,421.98L504.7,395.76L518.79,393.68L520.39,396.71L525.21,393.33Z" class="land" id="BW" title="Botswana"/>
    <path d="M379.51,159.9L379.18,162.84L381.95,168.48L384.13,169.57L384.19,173.19L387.71,176.08L390.09,175.56L392.73,181.32L390.25,184.72L386.88,184.52L383.68,187.74L377.77,186.87L375.19,187.64L360.95,187.7L361.74,198.47L358.53,195.53L349.97,196.82L344.51,191.77L345.99,181.81L351.24,178.19L351.88,172.64L356.45,172.11L363.27,164.43L367.46,162.92L373.58,158.93Z" class="land" id="BF" title="Burkina Faso"/>
    <path d="M400.08,182.75L399.43,184.88L401.56,190.48L396.78,201.29L395.13,201.54L394.6,209.88L394.74,220.55L388.11,221.63L387.96,201.53L386.3,194.81L382.95,192.23L383.68,187.74L386.88,184.52L390.25,184.72L392.73,181.32L395.7,177.98Z" class="land" id="BJ" title="Benin"/>
    <path d="M565.37,282.72L565.1,286.39L566.77,288.92L562.78,294.67L558.2,297.25L557.14,293.43L557.19,287.35L555.92,284.99L561.15,284.96L561.55,282.29Z" class="land" id="BI" title="Burundi"/>
    <path d="M452.92,306.54L451.75,301.19L454.01,298.45L458.22,298.57L454.83,302.21ZM524.25,342.81L524.15,353.83L523.15,357.94L511.81,357.94L511.28,378.94L512.18,383.51L519.38,390.93L507.44,393.49L491.85,391.82L489.33,389.21L480.37,389.16L462.4,389.14L457.39,386.14L454.02,387.88L449.15,388.15L449.35,378.06L450.69,376.66L454.45,361.04L457.15,356.34L459.81,354.52L462.12,349.5L462.56,344.11L457.54,329.87L459.9,325.06L453.45,308.91L458.14,307.29L478.01,307.3L480.45,309.96L482.02,317.16L485.32,322.97L496.36,322.2L497.57,316.37L503.42,314.74L504.16,317.31L511.15,317.5L511.95,327.35L511.3,332.86L514.02,338.47L515.66,344.12L523.42,343.82Z" class="land" id="AO" title="Angola"/>
  </g>
</svg>