<?xml version="1.0" encoding="UTF-8"?>
<svg xmlns="http://www.w3.org/2000/svg" width="722.58" height="519.6" viewBox="118.71 -3.3 722.58 519.6">
  <!-- Created using SVG Map Generator: dojo.amcharts.com/svg-map-generator -->
  <style>
    .land { fill: #ffffff; stroke: #299e8b; stroke-width: 1.3; }
  </style>
  <rect x="118.71" y="-3.3" width="722.58" height="519.6" fill="#417ea4"/>
  <g id="polygons">
    <path d="M517.12,238.96L497.15,238.33L492.32,237.96L492.8,233.41L496.59,232.68L497.97,229.82L498.46,229.9L497.23,232.81L502.01,233.27L500.65,230.04L508.09,232.01L511.9,232.05L515.08,234.22ZM606.77,97.15L618.32,100L616.58,102.88L611.01,104L604.37,99.26ZM787.13,365.94L786.82,368.45L784.32,372.49L778.88,371.43L772.26,366.27L769.25,365.46L761.22,362.21L760.63,359.41L757.21,358.84L752.22,356.5L749.27,356.57L745.65,358.46L743.34,356.59L729.85,351.66L723.02,351.71L713.87,348.46L709.63,348.09L708.95,349.64L694.48,340.68L689.48,339.33L685.45,336.45L681.69,336.08L675.18,330.38L680.47,329.48L679.26,327.56L679.68,323.08L681.23,322.12L676.84,316.77L684.97,311.79L678.13,311.07L676.39,311.93L674.54,307.16L677.89,304.15L684.62,304.26L684.31,300.26L677.95,292.45L679.94,290.5L675.6,286.74L669.23,283.87L667.38,284.19L660.92,281.89L659.98,283.23L652.35,278.28L644.27,279.59L635.82,276.98L632.28,271.92L622.73,269.23L619.45,265.55L621.06,264.54L612.76,258.91L603.41,259.27L602.73,261.21L598.75,261.34L596.15,259.23L590.05,250.44L596.24,251.48L599.21,249.05L588.12,241.93L584.34,240.55L579.61,236.09L576.37,234.76L576.22,232.14L572.69,227.05L565.98,224.36L561.19,225.93L558.92,223.44L554.49,223.4L548.45,221.45L545.81,217.53L541.73,214.4L539.07,210.04L534.5,208L535.7,204.98L531.22,200.85L528.05,196.4L527.94,189.22L526.51,186.92L532.78,185.93L531.47,182.49L525.84,178.51L520.03,179.22L527.67,169.69L532.78,160.13L532.53,157.17L527.9,154.17L516.72,149.71L517.79,146.65L512.73,143.47L509.88,139.8L505.23,137.94L501.74,131.95L504.04,131.43L499.99,127.71L488.47,119.75L490.57,114.57L482.99,109.97L477.6,108.83L474.13,106.18L473.94,101.45L481.71,94.74L486.33,95.56L488.09,93.24L496.01,95.01L494.09,97.41L504.19,98.9L519.87,99.95L536.3,104.37L560.85,112.03L565.77,113.09L573.85,121.06L571.96,124.49L565.59,127.33L559.81,127.95L537.26,124.95L530.94,123L512.37,120.25L524.14,125.62L531.3,127.37L535.83,129.76L536.36,134.03L541.96,137.78L545.33,141.68L552.1,143.35L559.78,146.81L568.78,148.56L571.81,146.6L568.93,143.89L562.83,143.08L555.14,139.05L555.41,136.07L560.42,136.66L565.43,138.76L579.97,141.53L580.7,137.67L574.77,134.45L573.13,132.19L576.65,128.87L581,127.41L583.24,123.83L598.56,126.4L598.03,122.45L593.44,118.59L588.72,117.2L586.18,110.57L580.74,105.64L593.95,106.25L604.34,111.88L597.01,112.69L595.07,115.2L607.11,120.82L612.24,121.07L617.64,119.09L614.6,114.24L620.39,112.93L629,107.41L638.8,105.25L644.05,101.68L651.55,108.5L655.26,108.09L662.31,104.75L670.55,105.59L674.87,102.62L679,101.61L690.72,106.77L692.93,101.76L682.44,96.43L685.9,94.14L703.41,95.68L730.8,102.1L735.49,102.76L745.14,106.33L758.62,116.92L758.62,121.99L754.11,126.98L748.24,131.11L743.04,138.52L735.01,144.24L756.78,174.76L765.58,189.64L767.96,198.46L768.26,204.87L766.36,209.92L768.33,214.48L776.54,217.83L780.5,221.99L779.88,227.24L773.83,228.5L765.98,229.23L778.96,237.86L787.31,242.65L793.71,237.24L800.47,239.44L805.02,243.06L803.43,245.97L803.58,250.61L807.77,256.3L813.97,257.74L820.68,263.44L825.41,265.83L833.85,267.93L837.03,270.05L837.99,273.76L833.4,275.74L827.14,274.38L827.46,276.56L819.42,275.43L812.87,271.72L808.6,271.44L806.82,273.47L802.29,271.71L798.51,272.16L795.76,276.36L793.76,276.36L784.81,272.38L783.8,274.57L778.68,271.2L770.82,267.52L764.82,267.53L761.67,265.53L757.29,267.51L749.37,265.06L747.85,269.46L743.26,271.52L743.33,273.85L740.81,276.36L741.47,278.85L744.65,282.29L742.53,284.15L733.49,278.61L731.13,279.66L730.99,283.91L732.34,288.81L735.59,291.53L734.81,294.5L736.73,298.48L740.2,299.78L742.82,303.21L746.74,304.67L752.09,305.27L758.04,309.59L764.37,315.17L762.72,317.3L768.55,319.52L764.21,325.37L759.24,327.18L759.86,333.11L758,336.89L759.22,339.32L764.28,341.67L770.06,348.71L772.09,353.61ZM677.68,95.28L671.54,93.77L665.03,90.5L666.9,88.77L680.69,93.16ZM603.34,74.88L608.28,72.91L607.15,64.47L614.15,63.71L625.56,65.25L626.93,68.74L624.98,71.51L629.22,76.04L639.31,81.12L648.66,84.75L653.27,87.69L635.34,86.9L628.28,85.73L619.71,79.43L609.76,79.86L604.86,77.4ZM672.63,36.72L671.92,39.73L662.99,42.17L638.01,47.63L635.64,51.9L627.5,54.37L630.31,57.45L627.58,63.86L624.7,64.44L613.96,63.12L610.24,63.99L603.05,60.49L607.08,58.87L607.17,53.3L610.08,50.57L609.91,47.06L616.96,43.22L628.26,41.07L627.62,39.76L639.33,40.12L653.91,37.09L660.4,33.94L667.18,34.53ZM570.42,6.5L569.87,5.08L581.07,4.54L587.15,6.51L583.23,7.94ZM509.75,7.24L507.48,5.05L515.86,4.39L523.74,6L510.11,8.29L505.08,10.17L497.17,8.8ZM538.77,5.29L537.18,2.96L558.71,5.25L548.49,6.36ZM542.34,2.45L546.5,0L555.95,1.07L553.35,2.83Z" class="land" id="RU" title="Russia"/>
    <path d="M357.96,425.15L358.04,425.67L357.86,425.53L357.82,425.33Z" class="land" id="GI" title="Gibraltar"/>
    <path d="M387.14,268.48L385.33,270.28L380.32,268.57ZM387.14,268.48L381.87,267.81L385.38,259.26L384.97,252.97L386.92,252.89L390.01,258.48L392.57,256.42L389.01,251.44L392.99,248.35L398.67,248.01L402.31,249.59L404.93,258.56L404.63,263.24L399.06,264.72L402.11,267.46L401.85,272.52L403.58,274.87L402.02,274.82L401.13,274.62L400.74,271.1L397.63,269.6L388.95,267.6Z" class="land" id="NL" title="Netherlands"/>
    <path d="M489.26,365.38L489.19,365.39L489.16,365.31L489.22,365.3Z" class="land" id="VA" title="Vatican City"/>
    <path d="M676.39,311.93L671.09,312.11L670.27,313.72L663.06,316.35L659.59,316.7L653.87,321.15L657.66,326.16L663.88,330.16L668.15,328.7L671.71,329.31L671.83,332.68L667.88,333.3L664.21,332.35L662.5,335.39L659.47,335.34L654.88,339.66L650.37,337.95L648.67,332.35L642.32,329.78L638.74,329.21L645.5,323.64L640.66,321.29L635.25,322.24L630.85,320.42L628.19,315.84L619.47,317.44L619.29,322.01L618.06,324.46L613.93,326.35L616.72,330.69L612.15,329.22L609.17,330.95L603.75,328.73L606.94,322.58L605.03,318.75L606.31,317.7L612.71,319.51L610.77,314.61L607.67,313.23L606.13,310.35L602.01,308.22L600.22,303.87L595.71,301.46L591.94,301.03L584.21,297.82L577.85,300.04L575.48,302.75L570.29,303.58L566.63,305.55L563.12,303.38L560.04,303.63L551.43,301.82L549.46,303.21L541.42,298.56L541.55,291.79L540.23,287.07L544.59,278.62L546.48,278.29L545.39,273.92L538.13,267.17L542.27,263.67L554.24,263.21L564.57,264.83L566.29,266.21L577.04,266.92L580.84,266.17L583.73,268.53L591.87,266.38L592.95,261.89L598.75,261.34L602.73,261.21L603.41,259.27L612.76,258.91L621.06,264.54L619.45,265.55L622.73,269.23L632.28,271.92L635.82,276.98L644.27,279.59L652.35,278.28L659.98,283.23L660.92,281.89L667.38,284.19L669.23,283.87L675.6,286.74L679.94,290.5L677.95,292.45L684.31,300.26L684.62,304.26L677.89,304.15L674.54,307.16Z" class="land" id="UA" title="Ukraine"/>
    <path d="M730.46,369.33L738.7,370.14L740.78,368.85L748.28,373.59L752.41,377.62L752.22,380.08L755.93,384.37L760.2,384.68L765.7,388.19L766.34,388.74L763.8,391.11L760.95,391.58L768.81,402.22L768.88,406.9L772.51,408.61L773.92,411.84L776.38,413.36L773.37,416.62L771.82,414.27L765.83,413.83L759.08,412.51L757.4,415.05L755.21,413.5L749.65,415.46L742.81,415.37L738.09,418.21L733.11,419.72L728.09,419.6L722.43,417.42L717.08,420.12L709.91,418.46L710.22,422.06L709.11,428.61L704.65,423.61L706.5,419.96L704.37,417.32L701.26,420.6L692.66,418.64L689.46,423.28L687.27,424.95L680.21,426.47L676.15,424.93L671.87,421.25L665.25,418.47L659.05,417.8L659.72,423.6L653.56,425.21L648.1,422.7L646.15,419.59L641.09,418.45L637.34,416.08L630.77,416.19L631.39,413.79L628.36,412.32L626.09,409.21L626.32,406.17L620.91,403.88L621.76,402.06L619.7,398.54L621.12,396.69L616.82,392.47L617,389.65L611.42,390.64L609.99,385.2L613.02,380.94L617.33,380.36L619.45,381.77L625.87,380.91L629.48,379.55L633.15,376.68L629.7,374.63L631.09,372.34L636.34,373.14L639.67,372.66L643.97,373.82L647.56,373.59L648.35,371.38L653.61,367.13L661.23,364.15L672.76,364.77L674.4,363.67L678.27,367.14L684.69,367.62L686.87,370.27L690.32,371.98L692.09,370.93L695.26,372.79L707.27,375.49L715.11,373.6L722.7,375.11L727.31,372.5ZM617.25,364.65L622.05,369.86L628.89,372.32L627.64,374.97L622.18,373.86L617.06,374.98L616.19,377.95L606.95,378.74L605.95,377.54L607.46,375.17L606.33,372.23L608.11,370.53L604.33,367.27L605.75,364.69L610.87,363.5L613.5,365.15Z" class="land" id="TR" title="Türkiye"/>
    <path d="M461.43,130.3L454.45,130.94L445.61,133.92L447.37,136.5L446.19,139.4L451.08,143.34L449.1,148.06L440.38,153.89L438.22,157.07L434.5,157.68L437.15,167.86L435.98,169.41L441.67,177.66L447.45,178.71L453.72,181.9L459.5,186.62L454.05,191.25L457.96,192.8L453.15,195.2L449.41,199.27L451.44,201.38L451.94,205.26L455.59,212.45L455.88,220.67L446.97,221.26L444.3,224.48L446.76,227.46L439.86,229.23L436.23,228.6L435.57,225.84L430.49,221.5L430.34,216.83L425.44,214.02L412.16,202.31L405.57,193.95L407.12,193.49L408.89,191.07L406.48,188.19L409.79,183.29L408.77,180.03L403.74,174.81L406.19,171.52L398.97,168.05L397.06,162.76L394.07,159.9L392.64,156.1L389.51,153.39L390.77,147.39L394.59,146.15L399.64,146.71L397.99,142.57L394.3,141.49L396.17,134.89L391.94,127.36L397.53,125.76L396.05,124.09L399.62,119L395.53,115.66L399.81,109.6L404.73,110.84L404.3,105.52L416.5,107.35L416.77,101.31L429.43,105.89L435.64,107.04L444.31,110.93L446.32,115.45L453.96,121.2L454.02,124.18ZM470.71,205.03L469.43,206.28L471.03,210.76L468.75,212.31L465.14,207.73L466.7,205.08Z" class="land" id="SE" title="Sweden"/>
    <path d="M504.79,317.98L498.93,321.04L500.33,324.8L497.93,325.83L499.5,328.56L494.43,328.14L487.83,328.95L485.05,328.05L485.92,327.32L480.43,319.84L482.04,317.77L488.93,318.82L492.07,316.68L499.56,316.16L499.87,314.26Z" class="land" id="SI" title="Slovenia"/>
    <path d="M541.55,291.79L541.42,298.56L538.82,299.24L535.33,297.06L527.79,297.32L527.59,299.67L524.86,301.34L516.61,302.67L517.01,304.84L509.39,305.01L503.46,302.62L499.3,298.19L499.33,296.59L500.04,293.93L504.45,293.66L505.99,289.92L510.16,287.36L514.58,286.48L519.3,290.58L524.83,288.56L532.84,288.36Z" class="land" id="SK" title="Slovakia"/>
    <path d="M536.46,321.98L542.29,325.66L543.41,328.38L550.75,332.1L550.94,334.69L558.07,338.07L561.62,338.61L564.33,341.2L562.97,343.57L566.33,349.28L570.88,352.03L568.1,355.61L570.17,359.76L569.2,361.08L563.04,361.76L562.93,357.39L559.64,356.55L555.55,353.03L552.23,353.62L550.75,355.76L542.75,351.79L538.55,348.47L540.28,346.71L535.13,340.54L534.53,334.81L531.65,334.7L529.32,327.94L526.42,323.8L530.52,321.5Z" class="land" id="RS" title="Serbia"/>
    <path d="M482.36,344.67L481.52,344.33L481.7,343.83L482.41,344.14Z" class="land" id="SM" title="San Marino"/>
    <path d="M603.75,328.73L609.17,330.95L612.15,329.22L616.72,330.69L617.41,334.97L613.66,335.85L612.44,340.6L614.39,346.31L609.67,345.48L607.6,343.78L600.31,341.93L593.91,343.58L589.48,347.05L570.08,344.95L564.33,341.2L561.62,338.61L558.07,338.07L550.94,334.69L550.75,332.1L543.41,328.38L542.29,325.66L536.46,321.98L542.95,319.98L545.77,305.44L549.46,303.21L551.43,301.82L560.04,303.63L563.12,303.38L566.63,305.55L570.29,303.58L575.48,302.75L577.85,300.04L581.23,301.1L586.54,306.34L595.55,313.08L599.41,318.47L600.45,323.37Z" class="land" id="RO" title="Romania"/>
    <path d="M338.05,414.52L334.87,416.33L328.17,415.12L325.62,411.89L322.15,400.6L316.94,398.32L316.66,392.93L318.74,383.9L317.85,374.39L314.9,367.93L314.4,364.94L318.51,362.94L321.61,365.53L326.01,366.05L332.17,364.93L333.55,367.73L336.66,369.18L332.19,374.61L334.97,381.53L333.63,382.93L334.75,388.08L331.82,389.92L336.77,396.49L335.43,401.17L337.87,405.88L336.24,410.28Z" class="land" id="PT" title="Portugal"/>
    <path d="M492.32,237.96L497.15,238.33L517.12,238.96L523.51,241.07L524.82,243.08L532.66,252.12L534.2,255.73L531.23,259.78L535.13,261.32L538.13,267.17L545.39,273.92L546.48,278.29L544.59,278.62L540.23,287.07L541.55,291.79L532.84,288.36L524.83,288.56L519.3,290.58L514.58,286.48L510.16,287.36L506.34,283.64L500.49,282.7L492.94,278.61L490.49,281.44L482.87,276.26L476.83,274.25L472.34,273.78L472.18,269.82L466.29,264.02L466.33,261.53L463.22,257.08L457.79,253.6L458.1,249.58L454.79,245.16L453.77,243.76L453.38,242.97L466.93,239.62L468.5,237.02L473.01,235.29L480.59,234.22L485.29,238.23L488.06,239.04Z" class="land" id="PL" title="Poland"/>
    <path d="M341.38,9.16L349.56,8.06L378.34,9.82L382.55,11.68L377.19,15.42L368.46,16.98L347.89,15.46L332,12.75L327.36,10.55ZM319.05,11.67L332.58,14.16L338.84,17.26L347.48,17.47L356.2,20.43L347.05,21.33L343.16,25.94L345.43,29.87L342.49,30.84L342.32,37.37L323.13,32.14L319.43,30.48L323.53,28.56L313.44,25.92L320.78,24.96L316.72,22.92L308.7,24.29L296.86,20.61L290.52,17.47L283.73,12.49L295.41,12.64L301.4,14.83L314.82,13.34ZM358.65,21.53L372.61,26.2L380.32,26.92L380.85,30.06L375.96,31.82L369.62,30.04L363.75,26.79L350.98,22.44Z" class="land" id="SJ" title="Svalbard and Jan Mayen"/>
    <path d="M401.05,92.25L403.94,93.1L400.87,96.53L396.75,94.87ZM392.05,96.38L397.52,99.89L391.19,100.42ZM481.71,94.74L473.94,101.45L473.39,97.46L470.73,95.72L459.59,92.29L451.33,93.58L449.57,95.88L452.14,101.73L449.19,105.24L440.36,103.36L437.73,104.75L431.01,104.12L422.13,99.25L416.77,101.31L416.5,107.35L404.3,105.52L404.73,110.84L399.81,109.6L395.53,115.66L399.62,119L396.05,124.09L397.53,125.76L391.94,127.36L396.17,134.89L394.3,141.49L397.99,142.57L399.64,146.71L394.59,146.15L390.77,147.39L389.51,153.39L392.64,156.1L394.07,159.9L397.06,162.76L398.97,168.05L406.19,171.52L403.74,174.81L408.77,180.03L409.79,183.29L406.48,188.19L408.89,191.07L407.12,193.49L402.27,192.08L394.42,194.36L387.47,202.05L379.36,203.21L367.32,198.41L364.96,196.46L366.37,194.23L364.45,190.46L359.75,191.68L359.08,187.71L356.81,185.89L354.22,178.9L352.13,177.6L346.42,168.15L347.89,162.52L352.34,159.72L359.11,159.8L355.33,156.5L362.52,155.26L362.38,151.14L371.23,150.31L370.04,148.08L373.24,142.99L376.53,140.59L376.19,138.51L380.45,136.01L379.11,132.46L381.56,128.36L379.55,123.65L385.58,115.01L384.09,112.23L386.16,109.91L390.55,108.74L392.07,104.96L396.1,103.42L398.8,100.26L398.16,97.45L402.39,96.69L402.64,95.05L407.71,93.86L415.1,93.8L414.9,91.31L422.3,89.56L426.51,91.94L431.87,86.7L431.5,84.11L439.94,85.39L450.62,83.33L462.32,85.33L478.8,90.43L471.77,93.04L474.77,95.22Z" class="land" id="NO" title="Norway"/>
    <path d="M538.55,348.47L542.75,351.79L550.75,355.76L549.55,358.66L545.87,357.82L544.56,362.54L546.23,365.68L541.09,361.75L537.29,359.84L536.14,358.53L534.62,354.3L536.62,348.84Z" class="land" id="ME" title="Montenegro"/>
    <path d="M526.85,428.39L525.85,428.71L524.99,428.19L525.54,427.3Z" class="land" id="MT" title="Malta"/>
    <path d="M569.2,361.08L574.52,364.39L577,367.26L577.74,371.21L575.09,373.47L570.47,373.59L568.45,376.06L563.46,376.26L561.06,375.45L556.67,369.29L556.29,365.63L559.2,362.55L563.04,361.76Z" class="land" id="MK" title="North Macedonia"/>
    <path d="M603.75,328.73L600.45,323.37L599.41,318.47L595.55,313.08L586.54,306.34L581.23,301.1L577.85,300.04L584.21,297.82L591.94,301.03L595.71,301.46L600.22,303.87L602.01,308.22L606.13,310.35L607.67,313.23L610.77,314.61L612.71,319.51L606.31,317.7L605.03,318.75L606.94,322.58Z" class="land" id="MD" title="Moldova"/>
    <path d="M441.72,346.22L441.3,346.42L441.46,346.01Z" class="land" id="MC" title="Monaco"/>
    <path d="M534.5,208L539.07,210.04L541.73,214.4L545.81,217.53L548.45,221.45L546.05,224.81L541.89,224.5L539.3,226.09L522.42,218.96L517.24,220.27L514.54,219.63L501.04,218.88L494.97,222.16L491.13,214.82L492.2,212.94L492.03,207.59L497.39,206.11L509.77,213.39L513.5,209.96L509.83,204.69L514.64,202.84L522.51,205.01L528.34,207.97Z" class="land" id="LV" title="Latvia"/>
    <path d="M407.09,281.2L411.32,284.45L411.56,287.95L406.84,287.08L404.96,283.23Z" class="land" id="LU" title="Luxembourg"/>
    <path d="M539.3,226.09L539.77,232.6L537.82,233.43L538.6,239.21L534.52,242.74L524.82,243.08L523.51,241.07L517.12,238.96L515.08,234.22L511.9,232.05L508.09,232.01L500.65,230.04L494.97,222.16L501.04,218.88L514.54,219.63L517.24,220.27L522.42,218.96Z" class="land" id="LT" title="Lithuania"/>
    <path d="M446.8,312.28L446.04,312.23L445.55,310.1Z" class="land" id="LI" title="Liechtenstein"/>
    <path d="M563.04,361.76L559.2,362.55L556.29,365.63L554.27,362.01L549.55,358.66L550.75,355.76L552.23,353.62L555.55,353.03L559.64,356.55L562.93,357.39Z" class="land" id="XK" title="Kosovo"/>
    <path d="M346.16,290.18L344.63,290.74L344.43,289.83Z" class="land" id="JE" title="Jersey"/>
    <path d="M527.87,403.65L526.34,411.6L529.4,416.25L528.89,419.65L523.4,418.5L519.43,415.31L517.44,415.34L502.84,407.83L509.37,404.06L512.71,405.93L519.47,405.47L521.91,404.15ZM469.57,375.93L472.27,379.9L474.57,393.78L470.12,393.02L469.69,396.43L464.91,393.37L461.89,382.05L458.39,378.32L465.62,372.61ZM482.04,317.77L480.43,319.84L485.92,327.32L481.05,325.44L480.15,326.81L474.78,328.78L475.17,330.87L478.64,333.69L477.34,336.21L480.43,341.35L483.69,343.71L492.4,348.08L499.33,357.19L508.68,363.78L511.61,365.01L518.14,364.95L520.38,370.18L530.74,374.06L539.27,378.28L545.65,384L542.86,385.76L539.87,382.18L531.46,380.34L530.27,386.56L531.6,388.86L536.8,391.55L538.61,395.54L534.44,398.49L535.35,401.67L532.81,406.55L530.03,406.58L529.54,398.51L531.26,398.03L527.8,391.83L522.86,385.2L515.83,382.61L512.8,378.15L510.39,378.52L506.76,376.5L502.27,372.26L496.92,372.17L492.34,369.83L481.28,361.35L476.55,358.78L471.35,354.64L462.05,343.44L454.78,340.36L450.15,339.3L446.38,344.49L442.11,346.05L442.5,342.8L436.02,340.76L434.98,336.27L430.27,332.15L433.5,329.24L429.16,324.99L430.5,323.86L438.01,322.93L440.9,320.58L446.47,324.84L447.13,320.16L452.39,319.39L454.56,314.24L459.42,314.94L460.48,313.12L467.95,313.53L470.76,315.9ZM482.36,344.67L482.41,344.14L481.7,343.83L481.52,344.33Z" class="land" id="IT" title="Italy"/>
    <path d="M180.42,126.46L187.15,128.35L187.77,130.75L196.87,133.2L197.65,138.91L191.52,144.11L184.81,145.81L181.58,148.08L173.73,149.49L168.82,152.33L157.21,150.95L148.39,147.44L139,148.34L143.28,144.95L141.39,142.1L134.44,137.41L137.64,133.14L131.02,132.35L124.56,133.93L122.01,133.2L123.49,127.9L131.46,124.64L141.26,129.66L141.76,133.32L144.92,133.59L148.48,131.09L147.36,128.23L157.95,127L172.33,127.34L172.59,124.49L176.21,123.87Z" class="land" id="IS" title="Iceland"/>
    <path d="M295.6,241.61L301.36,253.11L299.89,260.46L292.68,261.36L292.03,262.55L284.43,266.5L280.95,267.37L278.09,265.46L271.25,263.66L273.63,260.98L275.06,256.77L275.41,251.42L270.53,248.47L265.88,239.76L276.17,239.06L273.87,235.77L275.91,231.2L282.98,229.17L284.18,231.73L279.8,238.4L286.73,241.29L289.02,238.79L292.39,241.9Z" class="land" id="IE" title="Ireland"/>
    <path d="M309.12,240.65L306.81,241.31L307.64,238.76Z" class="land" id="IM" title="Isle of Man"/>
    <path d="M541.42,298.56L549.46,303.21L545.77,305.44L542.95,319.98L536.46,321.98L530.52,321.5L526.42,323.8L523.33,325.48L519.49,325.45L513.28,323.13L504.79,317.98L499.87,314.26L502.16,312.8L500.49,309.12L501.64,305.87L504.1,305.65L503.46,302.62L509.39,305.01L517.01,304.84L516.61,302.67L524.86,301.34L527.59,299.67L527.79,297.32L535.33,297.06L538.82,299.24Z" class="land" id="HU" title="Hungary"/>
    <path d="M528.54,355.04L536.14,358.53L537.29,359.84ZM526.42,323.8L529.32,327.94L531.65,334.7L528,332.56L521.11,332.56L510.15,331.13L509.07,333.27L504.28,331.52L505.51,335.77L509.86,338.77L511.56,341.44L527.63,353.54L527.7,354.61L520.37,349.92L511.5,347.2L502.51,341.01L503.21,339.7L498.91,336.38L497.11,332.52L492.28,329.84L490.86,335.05L487.07,332.25L485.05,328.05L487.83,328.95L494.43,328.14L499.5,328.56L497.93,325.83L500.33,324.8L498.93,321.04L504.79,317.98L513.28,323.13L519.49,325.45L523.33,325.48Z" class="land" id="HR" title="Croatia"/>
    <path d="M606.36,431.71L608.82,431.09L610.83,433.51L614.08,432.87L620.86,434.12L623.68,435.82L616.36,438L612.77,435.64L604.69,434.23ZM590.83,395.95L597.58,398.94L595.71,401.76L590.03,397.59ZM614.42,392.08L616.25,395.8L610.94,394.06ZM605.95,377.54L603.97,376.32L597.16,374.76L595.12,376.18L592.15,375.24L588.76,379.44L588.2,382.77L585.3,382.85L578.59,379.95L580,384.71L584.23,388.96L586.81,395.2L586.04,397.6L590.54,399.04L597.91,403.08L600.66,408.98L595.61,405.83L592.55,406.37L594.47,412.9L590.93,412.28L595.64,418.74L591.71,418.69L586.42,416.09L585.82,419.14L582.06,415.55L580.4,410.74L575.52,406.79L576.73,403.89L579.79,402.52L589.17,406.14L591.55,405.18L584.39,401.37L576.87,402.59L573.64,401.93L569.34,397.52L568.65,395.42L563.53,392.1L559.66,388.12L563.63,383.88L564.74,378.25L563.46,376.26L568.45,376.06L570.47,373.59L575.09,373.47L577.74,371.21L583.48,370.69L586.4,369.23L597.39,372.17L604.13,370.7L604.33,367.27L608.11,370.53L606.33,372.23L607.46,375.17Z" class="land" id="GR" title="Greece"/>
    <path d="M341.31,287.52L341.26,288.19L340.34,287.79Z" class="land" id="GG" title="Guernsey"/>
    <path d="M769.25,365.46L768.33,367.88L773.44,371.13L773.41,373.97L761.89,370.04L760.33,371.68L748.28,373.59L740.78,368.85L738.7,370.14L730.46,369.33L730.44,364.64L724.94,357.5L717.67,353.32L714.84,352.72L708.95,349.64L709.63,348.09L713.87,348.46L723.02,351.71L729.85,351.66L743.34,356.59L745.65,358.46L749.27,356.57L752.22,356.5L757.21,358.84L760.63,359.41L761.22,362.21Z" class="land" id="GE" title="Georgia"/>
    <path d="M461.75,355.99L464.67,362.98L464.2,370.71L460.39,368.6L456.34,358.63ZM406.84,287.08L411.56,287.95L415.83,290.9L421.53,290.99L427.67,292.79L426.66,296.22L426.9,302.02L428.98,306.82L425.09,309.57L420.9,318.71L426.57,318.84L430.5,323.86L429.16,324.99L433.5,329.24L430.27,332.15L434.98,336.27L436.02,340.76L442.5,342.8L442.11,346.05L441.72,346.22L441.46,346.01L441.3,346.42L436.02,352.23L433.25,353.23L426.91,351.61L423.35,349.38L420.74,350.12L414.61,347.85L409.46,351.98L408.67,354.85L411.55,359.86L402.11,360.66L398.95,359.12L396.38,358.16L389.59,355.58L389.54,357.19L384.03,357.19L381.48,355.79L372.67,353.36L367.43,349.77L369.47,348.15L368.25,337.88L365.61,325.08L363.27,319.9L357.43,317.82L354.24,314.8L353.8,312.48L342.43,305.78L336.02,304.33L332.78,304.48L329.37,301.8L330.3,298.94L327.1,297.19L337.91,294.14L343.25,297.22L344.82,296.09L352.87,296.16L349.71,290.48L345.82,285.61L350.55,285.65L352.56,288.6L360.62,289.52L363.5,287.84L361.9,285.42L369.15,282.44L370.44,279.46L368.95,274.98L370.59,272.45L374.97,271.39L378.96,275.25L391.28,279.93L392.42,282.82L396.05,282.39L398.56,284.56L404.71,287.36Z" class="land" id="FR" title="France"/>
    <path d="M260.13,163.3L257.92,164.55L255.97,162.76Z" class="land" id="FO" title="Faroe Islands"/>
    <path d="M473.94,101.45L474.13,106.18L477.6,108.83L482.99,109.97L490.57,114.57L488.47,119.75L499.99,127.71L504.04,131.43L501.74,131.95L505.23,137.94L509.88,139.8L512.73,143.47L517.79,146.65L516.72,149.71L527.9,154.17L532.53,157.17L532.78,160.13L527.67,169.69L520.03,179.22L515.93,179.2L505.51,181.14L502.64,182.46L493.4,184.63L485.92,183.58L482.7,180.9L472.96,178.65L470.29,175.14L468.49,169.27L463.64,165.53L462.99,163.34L458.85,159.61L462.26,152.04L466.71,147.8L470.28,142.1L470.5,139.47L474.99,137.56L471.87,133.27L461.43,130.3L454.02,124.18L453.96,121.2L446.32,115.45L444.31,110.93L435.64,107.04L429.43,105.89L416.77,101.31L422.13,99.25L431.01,104.12L437.73,104.75L440.36,103.36L449.19,105.24L452.14,101.73L449.57,95.88L451.33,93.58L459.59,92.29L470.73,95.72L473.39,97.46Z" class="land" id="FI" title="Finland"/>
    <path d="M527.94,189.22L528.05,196.4L531.22,200.85L535.7,204.98L534.5,208L528.34,207.97L522.51,205.01L514.64,202.84L509.83,204.69L508.63,200.04L502.91,199.97L499.3,197.11L496.14,191.97L501.12,189.33L508.71,188.86L508.51,187.74L520.46,189.54ZM492.87,197.47L498.68,198.79L492.22,202.34L489.67,198.85Z" class="land" id="EE" title="Estonia"/>
    <path d="M287.65,509.19L288.18,512.05L285.53,513L285.2,509.12ZM279.19,506.75L276.97,510.66L274.31,507.17ZM298.05,508.96L298.85,503.32L300.57,504.6L300.25,508.08ZM419.22,387.28L422.13,388.24L420.07,392.38L413.31,389.13L416.03,386.61ZM367.43,349.77L372.67,353.36L381.48,355.79L384.03,357.19L389.54,357.19L389.59,355.58L396.38,358.16L397.36,359.83L398.95,359.12L402.11,360.66L411.55,359.86L413.41,364.91L405.86,371.72L397.87,374.06L395.96,376.54L394.55,381.78L391.12,390.1L393.43,394.86L397.67,398.03L393.7,401.4L392.26,404.36L392.33,410.32L388.14,410.53L385.06,413.96L383.59,418.73L378.06,419.37L373.99,418.95L364.75,419.34L362.69,421.55L358.7,422.42L355.83,426.58L351.93,424.88L346.28,416.87L342.4,414.36L338.05,414.52L336.24,410.28L337.87,405.88L335.43,401.17L336.77,396.49L331.82,389.92L334.75,388.08L333.63,382.93L334.97,381.53L332.19,374.61L336.66,369.18L333.55,367.73L332.17,364.93L326.01,366.05L321.61,365.53L318.51,362.94L314.4,364.94L314.19,361.49L307.79,354.21L309.74,350.52L312.49,350.5L314.09,347.99L318.12,346.08L322.17,347.83L335.25,347.96L345.09,349.68L352.28,348.61L357.3,350.14L363.23,350.59Z" class="land" id="ES" title="Spain"/>
    <path d="M295.6,241.61L292.39,241.9L289.02,238.79L286.73,241.29L279.8,238.4L284.18,231.73L292.02,230.5L299.79,237.55L299.61,239.79ZM301.62,198.49L301.66,200.35L297.34,203.84L299.73,207.3L302.78,206.26L312.77,206.32L315.86,208.33L314.12,219.74L311.1,222.06L319.65,223.79L324.74,227.04L330.74,234.86L336.58,237.51L342.11,242.27L352.24,252.72L356.12,252.8L361.61,254.84L363.45,257.67L363.51,261.48L359.91,264.27L359.45,268.48L365.24,268.72L363.37,273.1L358.06,274.74L344.59,274.89L336.98,276.21L333.06,275.21L330.18,276.05L328.57,280.11L325.01,278.48L316.3,279.94L320.4,274.6L322.02,270.47L330.2,270.31L318.46,264.93L314.85,266.08L312.06,262.39L316.81,260.38L318.67,256.95L315.11,250.22L322.41,248.15L322.31,245.13L318.92,241.22L314.5,237.87L313.59,232.99L310.3,234.79L300.99,234.03L301.98,228.51L296,223.53L292.75,222.3L292.6,217.83L288.12,216.94L288.48,210.86L285.74,208.89L286.12,201.15L289.66,198.54L301.54,197.34Z" class="land" id="GB" title="United Kingdom"/>
    <path d="M418.21,226.65L421.52,231.32L415.3,231.03L412.68,227.58ZM432.02,224.94L430.85,228.06L432.69,234.45L427.91,230.8L425.02,230.63L420.23,225.56L427.75,221.69ZM414.96,234.35L406.42,233.58L403.65,228.53L399.13,226.75L394.72,216.93L395.78,212.03L402.25,210.86L403.64,207.49L408.6,208.77L408.96,213.12L410.67,216.8L415.41,217.76L416.57,219.96L412.89,220.77L413.5,224.16L410.74,227.8Z" class="land" id="DK" title="Denmark"/>
    <path d="M414.96,234.35L421.5,238.16L431.76,243.03L436.2,240.82L438.36,237.87L442.1,238.43L451.18,243.93L454.79,245.16L458.1,249.58L457.79,253.6L463.22,257.08L466.33,261.53L466.29,264.02L472.18,269.82L472.34,273.78L468.71,273.38L456.06,278.9L455.41,280.59L458.2,285.04L461.3,287.86L473.64,294.89L472,298.67L468.23,301.04L470.46,303.79L469.23,306.04L461.83,306.91L459.12,308.53L451.71,307.35L451.67,309.67L446.11,307L444.52,307.52L436.32,305.05L433.59,306.68L428.98,306.82L426.9,302.02L426.66,296.22L427.67,292.79L421.53,290.99L415.83,290.9L411.56,287.95L411.32,284.45L407.09,281.2L408.26,279.23L403.58,274.87L401.85,272.52L402.11,267.46L399.06,264.72L404.63,263.24L404.93,258.56L402.31,249.59L401.24,245.63L406.78,245.54L411.46,246.87L412.99,244.11L410.28,237.17L406.42,233.58Z" class="land" id="DE" title="Germany"/>
    <path d="M472.34,273.78L476.83,274.25L482.87,276.26L490.49,281.44L492.94,278.61L500.49,282.7L506.34,283.64L510.16,287.36L505.99,289.92L504.45,293.66L500.04,293.93L499.33,296.59L494.66,294.55L491.52,295.01L485.45,292.96L481.91,292.69L481.33,296.59L476.21,296.56L473.64,294.89L461.3,287.86L458.2,285.04L455.41,280.59L456.06,278.9L468.71,273.38Z" class="land" id="CZ" title="Czechia"/>
    <path d="M695.92,431.1L692.59,434.26L694.6,437.44L686.64,441.76L681.93,440.15L680.03,437.81L683.78,433.23L688.35,433.8Z" class="land" id="CY" title="Cyprus"/>
    <path d="M444.52,307.52L445.55,310.1L446.04,312.23L446.8,312.28L450.82,314.04L454.56,314.24L452.39,319.39L447.13,320.16L446.47,324.84L440.9,320.58L438.01,322.93L430.5,323.86L426.57,318.84L420.9,318.71L425.09,309.57L428.98,306.82L433.59,306.68L436.32,305.05Z" class="land" id="CH" title="Switzerland"/>
    <path d="M401.13,274.62L402.02,274.82L403.58,274.87L408.26,279.23L407.09,281.2L404.96,283.23L406.84,287.08L404.71,287.36L398.56,284.56L396.05,282.39L392.42,282.82L391.28,279.93L378.96,275.25L374.97,271.39L380.32,268.57L385.33,270.28L387.14,268.48L388.95,267.6L397.63,269.6L400.74,271.1Z" class="land" id="BE" title="Belgium"/>
    <path d="M548.45,221.45L554.49,223.4L558.92,223.44L561.19,225.93L565.98,224.36L572.69,227.05L576.22,232.14L576.37,234.76L579.61,236.09L584.34,240.55L588.12,241.93L599.21,249.05L596.24,251.48L590.05,250.44L596.15,259.23L598.75,261.34L592.95,261.89L591.87,266.38L583.73,268.53L580.84,266.17L577.04,266.92L566.29,266.21L564.57,264.83L554.24,263.21L542.27,263.67L538.13,267.17L535.13,261.32L531.23,259.78L534.2,255.73L532.66,252.12L524.82,243.08L534.52,242.74L538.6,239.21L537.82,233.43L539.77,232.6L539.3,226.09L541.89,224.5L546.05,224.81Z" class="land" id="BY" title="Belarus"/>
    <path d="M531.65,334.7L534.53,334.81L535.13,340.54L540.28,346.71L538.55,348.47L536.62,348.84L534.62,354.3L536.14,358.53L528.54,355.04L527.7,354.61L527.63,353.54L511.56,341.44L509.86,338.77L505.51,335.77L504.28,331.52L509.07,333.27L510.15,331.13L521.11,332.56L528,332.56Z" class="land" id="BA" title="Bosnia and Herzegovina"/>
    <path d="M614.39,346.31L614.94,349.96L611.42,352.05L612.95,356.56L610.82,359.48L617.25,364.65L613.5,365.15L610.87,363.5L605.75,364.69L604.33,367.27L604.13,370.7L597.39,372.17L586.4,369.23L583.48,370.69L577.74,371.21L577,367.26L574.52,364.39L569.2,361.08L570.17,359.76L568.1,355.61L570.88,352.03L566.33,349.28L562.97,343.57L564.33,341.2L570.08,344.95L589.48,347.05L593.91,343.58L600.31,341.93L607.6,343.78L609.67,345.48Z" class="land" id="BG" title="Bulgaria"/>
    <path d="M780.6,396.79L774.73,395.45L766.34,388.74L765.7,388.19L767.61,387.55L775.46,391.57ZM787.13,365.94L794.18,371.57L796.51,374.43L803.19,379.03L808.41,380.81L803.18,383.08L804.04,389.18L805.56,391.88L803.63,394.11L803.73,397.44L805.58,401.4L803.39,401.66L796.8,397.4L797.91,395.73L792.63,388.39L790.94,388.76L783.61,396.49L782.79,393.42L778.12,389.32L773.39,386.33L773.23,382.67L766.48,378.46L767.26,376.3L760.33,371.68L761.89,370.04L773.41,373.97L773.44,371.13L768.33,367.88L769.25,365.46L772.26,366.27L778.88,371.43L784.32,372.49L786.82,368.45Z" class="land" id="AZ" title="Azerbaijan"/>
    <path d="M499.33,296.59L499.3,298.19L503.46,302.62L504.1,305.65L501.64,305.87L500.49,309.12L502.16,312.8L499.87,314.26L499.56,316.16L492.07,316.68L488.93,318.82L482.04,317.77L470.76,315.9L467.95,313.53L460.48,313.12L459.42,314.94L454.56,314.24L450.82,314.04L446.8,312.28L445.55,310.1L444.52,307.52L446.11,307L451.67,309.67L451.71,307.35L459.12,308.53L461.83,306.91L469.23,306.04L470.46,303.79L468.23,301.04L472,298.67L473.64,294.89L476.21,296.56L481.33,296.59L481.91,292.69L485.45,292.96L491.52,295.01L494.66,294.55Z" class="land" id="AT" title="Austria"/>
    <path d="M783.61,396.49L780.6,396.79L775.46,391.57L767.61,387.55L765.7,388.19L760.2,384.68L755.93,384.37L752.22,380.08L752.41,377.62L748.28,373.59L760.33,371.68L767.26,376.3L766.48,378.46L773.23,382.67L773.39,386.33L778.12,389.32L782.79,393.42Z" class="land" id="AM" title="Armenia"/>
    <path d="M398.95,359.12L397.36,359.83L396.38,358.16Z" class="land" id="AD" title="Andorra"/>
    <path d="M463.72,180.97L466.2,181.83L463.33,183.37L461.96,181.76Z" class="land" id="AX" title="Aland Islands"/>
    <path d="M549.55,358.66L554.27,362.01L556.29,365.63L556.67,369.29L561.06,375.45L563.46,376.26L564.74,378.25L563.63,383.88L559.66,388.12L557.21,384.64L552.57,382.14L550.68,378.2L550.72,375.4L548.71,370.29L548.47,366.53L546.23,365.68L544.56,362.54L545.87,357.82Z" class="land" id="AL" title="Albania"/>
  </g>
</svg>