<?xml version="1.0" encoding="UTF-8"?>
<svg xmlns="http://www.w3.org/2000/svg" width="468.45" height="520.1" viewBox="245.78 -3.55 468.45 520.1">
  <!-- Created using SVG Map Generator: dojo.amcharts.com/svg-map-generator -->
  <style>
    .land { fill: #ffffff; stroke: #299e8b; stroke-width: 1.55; }
  </style>
  <rect x="245.78" y="-3.55" width="468.45" height="520.1" fill="#417ea4"/>
  <g id="polygons">
    <path d="M570.15,436.99L558.47,443.68L557.51,455.72L543.65,463.82L512.59,474.9L502.26,485.98L491.33,486.02L482.35,493.31L472.57,497L454.45,499.4L444.94,509.24L427.23,513L419.71,508.81L415.42,500.74L415.91,493.72L404.88,455.74L405.45,442.2L410.97,436.22L410.64,423.57L422.31,424.22L441.91,422.28L446.18,424.32L466.68,425.29L471.78,431.23L479.06,428.25L489.4,408.52L502.74,400.49L549.05,392.68L563.54,424.68Z" class="land" id="YE" title="Yemen"/>
    <path d="M267.53,156.49L259.57,154.16L258.66,143.58L267.42,139.14Z" class="land" id="PS" title="Palestinian Territories"/>
    <path d="M361.32,50.07L353.95,59.72L348.5,61.27L349.26,94.25L342.52,102.51L315.17,120.66L287.13,140.62L270.43,132.71L270.37,119.53L279.82,104.6L276.68,97.18L269.66,96.89L264.51,79.09L269.5,74.17L275.5,55.85L287.68,58.84L298.57,53.98L316.78,58.12L336.27,50.28Z" class="land" id="SY" title="Syria"/>
    <path d="M444.43,201.6L458.73,203.63L463.43,212.27L475.46,212.09L484.69,229.39L503.31,244.54L505.52,258.14L520.34,283.15L528.02,286.59L533.38,292.67L534.17,296.6L551.59,318.27L592.6,324.16L593.73,322.6L602.3,335.88L595.33,373.79L549.05,392.68L502.74,400.49L489.4,408.52L479.06,428.25L471.78,431.23L466.68,425.29L446.18,424.32L441.91,422.28L422.31,424.22L410.64,423.57L410.97,436.22L405.45,442.2L396.18,422.14L386.95,413.64L377.71,398.67L368.9,378.32L349.68,363.93L340.4,348.95L337.97,338.14L339,328.48L327.16,303.53L317.88,294.58L311.78,292.56L305.3,282.57L304.11,273.66L269.06,221.71L260.05,219.56L263.37,196.73L280.25,199.82L290.61,187.02L301.5,184.58L308.53,175.02L290.85,156.24L321.4,146.49L323.46,144.27L342.75,147.78L370.92,164.04L384.29,175.11L415.92,199.76Z" class="land" id="SA" title="Saudi Arabia"/>
    <path d="M528.02,286.59L520.34,283.15L518.38,270.75L521.07,260.58L529.72,262.09L532.2,276.36Z" class="land" id="QA" title="Qatar"/>
    <path d="M608.04,279.55L613.13,289.19L623.46,299.55L645.54,304.82L667.9,331.75L662.55,345.39L655.73,352.69L650.35,366.03L640.89,369.1L639.67,381.14L642.23,392.28L632.27,394.44L624.45,400.39L619.3,412.41L606.8,414.44L601.34,429.62L585.42,430.25L570.15,436.99L563.54,424.68L549.05,392.68L595.33,373.79L602.3,335.88L593.73,322.6L593.3,316.35L599.72,293.49Z" class="land" id="OM" title="Oman"/>
    <path d="M270.37,119.53L259.33,126.12L269.66,96.89L276.68,97.18L279.82,104.6Z" class="land" id="LB" title="Lebanon"/>
    <path d="M475.46,212.09L463.43,212.27L458.73,203.63L444.43,201.6L451.62,185.23L465.02,184.82L465.71,191.75Z" class="land" id="KW" title="Kuwait"/>
    <path d="M323.46,144.27L321.4,146.49L290.85,156.24L308.53,175.02L301.5,184.58L290.61,187.02L280.25,199.82L263.37,196.73L263.4,192.91L267.53,156.49L267.42,139.14L270.43,132.71L287.13,140.62L315.17,120.66Z" class="land" id="JO" title="Jordan"/>
    <path d="M270.43,132.71L267.42,139.14L258.66,143.58L259.57,154.16L267.53,156.49L263.4,192.91L249.33,161.61L252.28,154.48L259.33,126.12L270.37,119.53Z" class="land" id="IL" title="Israel"/>
    <path d="M397.74,49.44L409.83,70.7L415.81,74.08L423.95,87.47L417.83,93.69L415.61,109.34L428.95,123.36L429.11,128.5L449.82,138.6L458.44,150.52L458.01,165.51L464.47,175.68L473.9,185.2L465.02,184.82L451.62,185.23L444.43,201.6L415.92,199.76L384.29,175.11L370.92,164.04L342.75,147.78L323.46,144.27L315.17,120.66L342.52,102.51L349.26,94.25L348.5,61.27L353.95,59.72L361.32,50.07L366.95,45.11Z" class="land" id="IQ" title="Iraq"/>
    <path d="M473.9,185.2L464.47,175.68L458.01,165.51L458.44,150.52L449.82,138.6L429.11,128.5L428.95,123.36L415.61,109.34L417.83,93.69L423.95,87.47L415.81,74.08L409.83,70.7L397.74,49.44L393.01,38.08L387.27,35L389.35,26.55L380.34,7.35L387.68,0L403.32,14.32L419.8,16.25L435.86,2.25L444.99,14.85L455.67,25.03L461.65,39.54L478.34,44.45L495.36,56.98L512.02,59.26L538.72,53.02L535.89,45.64L547.96,42.66L551.6,35.11L571.03,28.57L582.53,29.19L586.96,34.25L603.37,40.08L615.99,42.3L635.87,58.95L647.69,58.86L654.06,79.43L653.4,92.61L646.86,106.99L651.14,125.1L658.1,141.9L660.86,156.41L673.65,158.32L677.26,168.73L665.52,187.17L674.3,196.38L680.69,207.38L693.15,214.51L700.35,222.32L702.76,236.56L709.08,236.52L710.67,247.63L699.5,249.62L691.37,255.65L689.75,273.75L686.98,277.23L655.26,270.05L628.7,266.8L621.12,264.18L612.96,243.09L602.42,237.51L591.88,241.72L581.01,249.7L561.93,246.5L544.68,235.17L540.63,229.63L527.43,225.29L520.72,219.88L507.92,195.48L495.66,180.53L489.43,183.94L479.32,182.2Z" class="land" id="IR" title="Iran"/>
    <path d="M515.04,262.45L512.64,260.88L511.97,256.62L514.58,257.88Z" class="land" id="BH" title="Bahrain"/>
    <path d="M605.12,266.85L608.04,279.55L599.72,293.49L593.3,316.35L593.73,322.6L592.6,324.16L551.59,318.27L534.17,296.6L533.38,292.67L539.31,298.36L550.71,295.16L570.54,296.63L578.1,292.83L582.51,282.75L599.18,264.13L600.76,259.05Z" class="land" id="AE" title="United Arab Emirates"/>
  </g>
</svg>