<?xml version="1.0" encoding="UTF-8"?>
<svg xmlns="http://www.w3.org/2000/svg" width="403.75" height="519.6" viewBox="278.12 -3.3 403.75 519.6">
  <!-- Created using SVG Map Generator: dojo.amcharts.com/svg-map-generator -->
  <style>
    .land { fill: #ffffff; stroke: #299e8b; stroke-width: 1.3; }
  </style>
  <rect x="278.12" y="-3.3" width="403.75" height="519.6" fill="#417ea4"/>
  <g id="polygons">
    <path d="M481.85,359.12L470.94,358.65L468.36,358.37L469.94,354.96L472.27,354.41L473.89,352.23L474.13,352.29L472.59,354.5L475.12,354.86L475.32,352.4L478.89,353.9L481,353.93L482.12,355.57ZM593.54,218.4L599.13,222.31L596.41,226.19L592.32,227.69L590.84,221.3ZM591.92,439.59L591.14,440.98L588.88,443.19L586.32,442.61L584.14,439.78L582.78,439.33L579.4,437.52L579.78,435.96L578.14,435.65L576.13,434.33L574.57,434.38L572.23,435.43L571.48,434.39L565.67,431.6L562.09,431.64L558.12,429.79L555.99,429.58L555.26,430.46L549.88,425.32L547.59,424.54L546.19,422.87L544.31,422.65L542.31,419.3L545.32,418.77L545.17,417.63L546.54,414.96L547.6,414.39L546.68,411.15L552.34,408.11L548.89,407.67L547.74,408.2L548.05,405.26L550.66,403.38L554.22,403.45L555.18,400.94L554.01,395.97L555.65,394.72L554.42,392.28L551.83,390.41L550.74,390.62L547.92,389.11L547.02,389.98L544.36,386.71L539.6,387.59L535.78,385.85L535.36,382.45L530.96,380.63L530.28,378.11L531.46,377.41L528.63,373.5L523.4,373.75L522.44,375.11L520.22,375.2L519.43,373.73L518.75,367.5L521.84,368.24L524.23,366.5L520.34,361.31L518.69,360.3L517.48,356.98L516.11,355.98L516.87,354L516.57,350.11L513.7,348.02L510.49,349.24L510.03,347.31L507.56,347.28L504.8,345.75L504.61,342.65L503.34,340.15L503.3,336.62L501.4,334.95L503.12,332.45L501.99,328.99L501.73,325.21L504.22,318.97L504.23,316.95L508.21,316.06L508.73,312.97L506.94,309.35L503.31,310L511.38,301.1L518.18,291.8L519.24,288.84L517.74,285.8L512.94,281.22L514.85,278.01L513.16,274.62L513.01,270.66L511.01,268.62L511.49,261.92L513.11,261.33L512.29,257.06L508.81,247.63L512.45,241.27L509.9,235.46L507.09,234L506.18,230.55L508.29,224.27L516.41,215.03L518.9,216.19L521.16,212.92L525.25,215.43L522.84,218.76L528.41,220.81L537.68,222.24L545.67,228.17L556.98,238.08L559.47,239.41L560.42,249.21L557.58,253.29L552.32,256.62L548.52,257.34L536.22,253.83L533.28,251.53L523.21,248.23L527.91,254.63L531.47,256.66L533.12,259.43L531.49,264.28L533.19,268.44L533.47,272.7L536.79,274.5L539.85,278.18L544.44,280.02L547.12,277.96L546.62,275.08L543.34,274.21L540.54,269.84L542.06,266.55L544.81,267.2L546.86,269.52L554.32,272.54L556.55,268.32L554.49,264.75L554.57,262.2L558.3,258.4L561.65,256.72L564.78,252.51L572.83,255.54L574.5,250.87L573.66,246.22L571.48,244.52L573.37,236.22L572.62,229.84L580.48,230.65L583.89,237.88L578.93,238.91L576.42,242.05L580.88,248.92L583.89,249.21L588.23,246.82L588.94,240.86L593.22,239.21L601.58,232.15L608.88,229.33L614.22,224.58L614.93,233.57L617.46,233.04L623.78,228.67L628.4,229.78L632.86,225.84L636.05,224.48L640.22,231.32L644.64,224.68L641.38,217.4L644.99,214.19L654.99,216.37L668.02,225.15L670.52,226.03L674.24,230.75L675.92,244.18L672.83,250.32L667.11,256.21L661.13,260.97L653.8,269.25L645.84,275.44L642.97,305.87L640.93,319.34L638.23,326.97L635.53,332.36L632.24,336.52L631.39,340.22L634.6,342.89L635.07,346.18L632.54,350.25L628.64,351.22L623.95,351.78L627.75,358.3L630.51,361.84L636.2,357.84L639.07,359.47L640.16,362.14L638.13,364.27L636.41,367.62L636.55,371.66L639.41,372.68L640.94,376.65L642.64,378.3L646.47,379.74L647.41,381.19L646.58,383.69L643.38,385.02L640.46,384.11L639.85,385.57L635.89,384.81L633.66,382.32L631.44,382.13L629.75,383.5L627.91,382.31L625.69,382.62L622.73,385.43L621.64,385.44L618.16,382.76L616.86,384.23L615.24,381.97L612.24,379.46L608.97,379.47L607.95,378.1L604.87,379.45L601.39,377.77L599.06,380.78L595.86,382.18L595.12,383.75L592.92,385.44L592.46,387.1L593.07,389.37L591.33,390.59L588.22,386.94L586.6,387.64L585.17,390.43L584.36,393.63L585.27,395.38L583.94,397.28L583.76,399.82L585.23,400.64L585.61,402.79L587.26,403.71L589.94,404.08L591.83,406.76L593.56,410.18L592.07,411.47L594.52,412.82L590.57,416.33L587.44,417.41L586.15,420.91L584.16,423.12L584.15,424.53L586.19,425.89L587.38,429.93L587.18,432.71ZM639.11,215.8L636.19,213.68L634.14,209L636.41,206.48L642.33,212.81ZM604.75,185.14L609.19,181.94L614.01,167.62L619.07,166.28L625.43,168.98L623.95,174.99L620.85,179.62L620.6,187.01L623.78,195L627.41,200.52L628.48,204.89L617.63,203.72L613.88,201.98L612.35,192.37L605.73,193.05L604.14,189.18ZM678.58,112L675.48,118.83L667.45,124.19L646.44,135.7L641.6,144.28L634.41,149.07L634.01,154.91L627.7,166.53L625.43,167.56L619.36,165.23L616.34,166.76L614.05,160.5L617.8,157.54L621.81,147.01L625.72,141.65L628.23,134.54L635.88,126.46L645.15,121.78L645.78,118.88L653.33,119.7L665.66,112.85L672.79,105.48L676.85,106.88ZM637.7,25.42L638.92,20.17L647.47,18.11L649.51,25.44L645.14,30.58ZM594.11,28.08L594.78,20.04L601.42,17.55L605.27,23.59L593.29,31.84L587.9,38.31L583.69,33.59ZM616.67,20.95L618.13,12.03L630.82,20.81L622.37,24.91ZM622.39,10.02L628.25,0L633.71,4.43L629.78,11.49Z" class="land" id="RU" title="Russia"/>
    <path d="M361.99,470.81L361.98,471.07L361.9,471L361.9,470.9Z" class="land" id="GI" title="Gibraltar"/>
    <path d="M402.77,380.12L401.39,381.34L399.03,380.18ZM402.77,380.12L400.04,379.66L403.86,373.75L405.08,369.31L406.18,369.24L406.58,373.2L408.46,371.75L407.67,368.21L410.6,365.99L413.82,365.75L415.44,366.88L414.75,373.25L413.5,376.51L410.12,377.54L411.16,379.42L409.89,382.86L410.31,384.44L409.47,384.41L409.03,384.27L409.6,381.9L408.24,380.88L403.95,379.52Z" class="land" id="NL" title="Netherlands"/>
    <path d="M437.8,439.28L437.76,439.29L437.76,439.24L437.8,439.24Z" class="land" id="VA" title="Vatican City"/>
    <path d="M547.74,408.2L544.87,408.31L544.01,409.29L539.48,410.9L537.55,411.11L533.38,413.8L534.12,416.8L536.4,419.17L539.02,418.31L540.74,418.67L539.97,420.66L537.74,421.02L536.04,420.46L534.4,422.24L532.82,422.22L529.38,424.73L527.42,423.74L527.86,420.46L525.15,418.95L523.4,418.61L528.33,415.29L526.36,413.89L523.26,414.46L521.38,413.36L521.12,410.59L516.1,411.56L514.88,414.32L513.64,415.79L511,416.91L511.45,419.48L509.39,418.62L507.41,419.64L505.08,418.33L508.21,414.66L508.12,412.35L509.06,411.72L512.01,412.81L512.18,409.84L510.87,409L510.78,407.23L509.12,405.91L509.26,403.21L507.47,401.7L505.56,401.43L502.25,399.4L498.28,400.8L496.33,402.51L493.35,403.03L490.92,404.25L489.58,402.9L487.87,403.06L483.71,401.92L482.32,402.8L479.14,399.87L480.88,395.55L481.35,392.5L485.88,386.94L486.99,386.72L487.56,383.8L485.42,379.22L488.65,376.81L495.32,376.49L500.51,377.61L501.06,378.56L506.72,379.05L509.01,378.54L509.91,380.15L514.97,378.68L516.88,375.58L520.22,375.2L522.44,375.11L523.4,373.75L528.63,373.5L531.46,377.41L530.28,378.11L530.96,380.63L535.36,382.45L535.78,385.85L539.6,387.59L544.36,386.71L547.02,389.98L547.92,389.11L550.74,390.62L551.83,390.41L554.42,392.28L555.65,394.72L554.01,395.97L555.18,400.94L554.22,403.45L550.66,403.38L548.05,405.26Z" class="land" id="UA" title="Ukraine"/>
    <path d="M561.79,441.46L565.87,441.9L567.24,441.2L570.02,443.79L571.23,445.98L570.57,447.31L571.52,449.61L573.65,449.78L575.69,451.65L575.9,451.95L574.07,453.21L572.51,453.46L574.25,459.05L573.31,461.48L574.81,462.36L574.86,464.03L575.8,464.81L573.61,466.48L573.3,465.27L570.35,465.05L567.19,464.37L565.83,465.67L565.03,464.88L561.82,465.88L558.36,465.84L555.42,467.29L552.61,468.05L550.09,467.99L547.64,466.88L544.42,468.26L541.1,467.41L540.58,469.25L538.83,472.55L537.48,470.03L539.09,468.18L538.5,466.84L536.32,468.51L532.32,467.51L529.86,469.86L528.46,470.71L524.62,471.48L522.84,470.7L521.32,468.83L518.47,467.42L515.45,467.08L514.76,470.02L511.38,470.84L509.05,469.57L508.6,467.99L506.23,467.41L504.74,466.2L501.39,466.26L502.12,465.03L500.84,464.27L500.24,462.67L500.9,461.1L498.55,459.91L499.31,458.96L498.9,457.12L499.96,456.15L498.55,453.93L499.17,452.43L496.12,452.96L496.41,450.06L498.78,447.77L501.12,447.46L501.93,448.22L505.4,447.75L507.53,447.02L509.99,445.47L508.63,444.35L509.81,443.11L512.36,443.54L514.17,443.28L516.15,443.91L518.05,443.79L518.92,442.58L522.54,440.25L527.12,438.6L532.96,438.95L534.05,438.34L535.3,440.25L538.51,440.52L539.06,441.98L540.46,442.91L541.61,442.34L542.84,443.35L548.45,444.82L552.9,443.79L556.48,444.61L559.44,443.2ZM504.23,438.88L505.65,441.75L508.68,443.1L507.5,444.54L504.9,443.94L502.04,444.55L501,446.16L496.09,446.59L495.81,445.94L497.05,444.65L497.05,443.05L498.3,442.12L497.01,440.32L498.26,438.9L501.16,438.24L502.18,439.15Z" class="land" id="TR" title="Türkiye"/>
    <path d="M487.77,260.05L483.28,260.77L476.73,264.15L476.76,267.03L474.9,270.22L476.3,274.49L473.3,279.49L465.93,285.53L463.49,288.74L461.07,289.36L459.03,299.35L457.81,300.83L458.32,308.56L461.33,309.53L463.89,312.44L465.66,316.67L460.99,320.76L462.73,322.11L459.2,324.18L455.77,327.66L456.27,329.45L455.36,332.68L455.24,338.58L452.97,345.14L447.79,345.61L445.38,348.12L445.91,350.42L441.56,351.79L439.7,351.3L440.1,349.17L438.45,345.79L439.69,342.09L437.72,339.85L433.58,330.22L432.29,323.11L433.32,322.71L435.07,320.6L434.56,318.06L438,313.7L438.44,310.74L437.18,305.92L439.68,302.83L436.59,299.53L437.22,294.4L436.42,291.57L436.86,287.76L435.92,285.01L438.75,278.79L441.47,277.48L444.29,278.07L444.79,273.65L442.97,272.49L446.5,265.24L446.77,256.65L450.78,254.79L450.53,252.83L454.71,246.71L453.53,242.62L458.64,234.98L461.16,236.57L463.13,229.69L469.92,232.08L472.7,224.09L478.57,230.17L481.91,231.68L485.57,236.69L484.84,242.36L487.06,249.37L485.83,252.92ZM466.11,332.49L464.99,333.53L464.5,337.21L462.73,338.46L462.1,334.72L463.81,332.54Z" class="land" id="SE" title="Sweden"/>
    <path d="M455.19,411.89L451.44,413.74L451.39,415.99L449.9,416.61L450.17,418.23L447.59,417.97L443.94,418.46L442.66,417.92L443.26,417.49L441.89,413.01L443.18,411.76L446.6,412.4L448.72,411.1L452.81,410.78L453.38,409.63Z" class="land" id="SI" title="Slovenia"/>
    <path d="M480.88,395.55L479.14,399.87L477.58,400.3L476.24,398.92L472.14,399.08L471.47,400.57L469.62,401.62L464.89,402.46L464.61,403.81L460.5,403.92L457.88,402.42L456.67,399.63L457.05,398.62L458.06,396.92L460.49,396.75L462.2,394.34L465.07,392.69L467.67,392.11L469.2,394.77L472.67,393.47L477.04,393.33Z" class="land" id="SK" title="Slovakia"/>
    <path d="M471.08,414.3L473.35,416.5L473.35,418.12L476.41,420.32L475.95,421.84L478.97,423.8L480.72,424.12L481.59,425.62L480.37,426.99L480.94,430.25L482.74,431.82L480.57,433.83L480.81,436.16L480.05,436.89L476.71,437.28L477.52,434.84L475.98,434.36L474.56,432.38L472.71,432.72L471.52,433.92L468.14,431.68L466.61,429.79L467.86,428.79L466.43,425.24L467.31,421.91L465.81,421.84L466.02,417.86L465.38,415.39L468.05,414.01Z" class="land" id="RS" title="Serbia"/>
    <path d="M438,427.62L437.62,427.42L437.81,427.14L438.12,427.31Z" class="land" id="SM" title="San Marino"/>
    <path d="M505.08,418.33L507.41,419.64L509.39,418.62L511.45,419.48L510.81,422L508.64,422.52L506.92,425.28L506.67,428.56L504.38,428.09L503.68,427.11L500.27,426.04L496.56,426.99L493.49,428.98L483.8,427.78L481.59,425.62L480.72,424.12L478.97,423.8L475.95,421.84L476.41,420.32L473.35,418.12L473.35,416.5L471.08,414.3L474.96,413.1L479.82,404.19L482.32,402.8L483.71,401.92L487.87,403.06L489.58,402.9L490.92,404.25L493.35,403.03L496.33,402.51L498.28,400.8L499.82,401.47L501.34,404.75L504.48,408.91L505.21,412.19L504.59,415.14Z" class="land" id="RO" title="Romania"/>
    <path d="M353.16,465.4L351.33,466.33L348.07,465.71L347.15,464.05L346.72,458.2L344.33,457.01L344.85,454.17L347.05,449.36L347.83,444.23L347.16,440.69L347.31,439.04L349.71,437.93L350.96,439.37L353.17,439.65L356.52,439.03L356.84,440.58L358.25,441.38L355.19,444.34L355.7,448.09L354.83,448.84L354.73,451.59L352.99,452.58L354.69,456.04L353.42,458.5L354.1,460.95L352.74,463.22Z" class="land" id="PT" title="Portugal"/>
    <path d="M468.36,358.37L470.94,358.65L481.85,359.12L484.78,360.68L484.91,362.16L486.63,368.7L486.45,371.26L483.68,374.11L485.39,375.18L485.42,379.22L487.56,383.8L486.99,386.72L485.88,386.94L481.35,392.5L480.88,395.55L477.04,393.33L472.67,393.47L469.2,394.77L467.67,392.11L465.07,392.69L463.91,390.26L460.98,389.64L457.9,386.93L455.88,388.81L453.02,385.37L450.23,384.02L447.91,383.7L448.79,381.03L447.02,377.06L447.67,375.33L447.1,372.21L445.01,369.75L446.22,366.88L445.56,363.68L445.37,362.66L445.36,362.08L453.78,359.6L455.37,357.67L458.37,356.38L462.9,355.57L464.37,358.58L465.68,359.18Z" class="land" id="PL" title="Poland"/>
    <path d="M473.88,34.87L480.5,31L499.31,37.12L500.75,43.36L494.11,55.33L486.88,60.12L473.72,55.45L464.61,46.89L462.98,39.61ZM456.34,43.36L464,51.39L466.16,60.97L472,61.6L475.97,70.24L469.06,72.79L463.39,85.39L462.49,95.52L459.91,97.94L455.98,113.48L446.02,101.14L444.48,97.04L448.39,92.21L443.09,85.33L448.7,82.79L447.18,77.25L440.83,80.99L434.96,70.76L432.55,61.59L431.09,46.03L439.14,46.52L441.83,53.52L452.2,48.78ZM476.91,73.38L483.34,86.08L488.13,87.98L486.43,96.01L482,100.34L478.82,95.94L476.91,87.62L471.02,75.91Z" class="land" id="SJ" title="Svalbard and Jan Mayen"/>
    <path d="M466.87,211.52L468.31,212.72L464.86,217.54L463.01,215.23ZM459.4,217.33L461.31,222.16L457.13,222.88ZM516.41,215.03L508.29,224.27L509.86,218.84L509.04,216.41L503.7,211.58L497.88,213.4L495.69,216.64L494.57,224.65L491.12,229.32L486.49,226.83L484.23,228.67L480.33,227.84L476.97,221.29L472.7,224.09L469.92,232.08L463.13,229.69L461.16,236.57L458.64,234.98L453.53,242.62L454.71,246.71L450.53,252.83L450.78,254.79L446.77,256.65L446.5,265.24L442.97,272.49L444.79,273.65L444.29,278.07L441.47,277.48L438.75,278.79L435.92,285.01L436.86,287.76L436.42,291.57L437.22,294.4L436.59,299.53L439.68,302.83L437.18,305.92L438.44,310.74L438,313.7L434.56,318.06L435.07,320.6L433.32,322.71L430.96,321.48L425.77,323.46L419.57,330.01L414.62,330.98L409.08,326.93L408.28,325.27L409.71,323.35L409.67,320.07L406.63,321.13L407.37,317.64L406.58,316.02L407.11,309.71L406.28,308.51L405.76,299.62L408.35,294.17L411.84,291.4L415.81,291.48L414.64,288.17L419.29,286.91L420.56,282.7L426.1,281.84L426.15,279.52L429.81,274.11L432.62,271.51L433.15,269.25L436.61,266.49L437.09,262.5L440.09,257.81L440.64,252.3L447.68,241.81L447.86,238.33L450.07,235.38L453.26,233.88L455.77,228.95L458.92,226.91L461.95,222.66L462.77,218.81L465.74,217.76L466.62,215.47L470.34,213.8L475.01,213.72L476.02,210.16L481.5,207.63L483.04,211.07L488.9,203.44L489.92,199.56L494.65,201.48L502.45,198.37L508.87,201.39L516.73,208.9L511,212.64L511.81,215.72Z" class="land" id="NO" title="Norway"/>
    <path d="M466.61,429.79L468.14,431.68L471.52,433.92L470.32,435.55L468.57,435.08L466.98,437.71L467.24,439.45L465.33,437.27L463.72,436.21L463.38,435.48L463.41,433.1L465.53,430.01Z" class="land" id="ME" title="Montenegro"/>
    <path d="M446.87,472.44L446.32,472.6L445.96,472.34L446.37,471.89Z" class="land" id="MT" title="Malta"/>
    <path d="M480.05,436.89L482.15,438.74L482.87,440.32L482.48,442.49L480.68,443.73L478.28,443.79L476.77,445.14L474.16,445.24L473.07,444.8L471.96,441.44L472.46,439.42L474.57,437.71L476.71,437.28Z" class="land" id="MK" title="North Macedonia"/>
    <path d="M505.08,418.33L504.59,415.14L505.21,412.19L504.48,408.91L501.34,404.75L499.82,401.47L498.28,400.8L502.25,399.4L505.56,401.43L507.47,401.7L509.26,403.21L509.12,405.91L510.78,407.23L510.87,409L512.18,409.84L512.01,412.81L509.06,411.72L508.12,412.35L508.21,414.66Z" class="land" id="MD" title="Moldova"/>
    <path d="M416.47,428.51L416.21,428.62L416.37,428.39Z" class="land" id="MC" title="Monaco"/>
    <path d="M501.4,334.95L503.3,336.62L503.34,340.15L504.61,342.65L504.8,345.75L502.36,348.37L500.13,348.13L498.17,349.37L490.96,343.79L487.62,344.82L486.31,344.32L478.94,343.73L474.51,346.31L474.61,340.49L475.81,338.98L477.42,334.61L480.94,333.39L485.61,339.34L488.83,336.56L488.49,332.22L491.85,330.67L495.6,332.48L497.91,334.93Z" class="land" id="LV" title="Latvia"/>
    <path d="M410.83,388.65L412.41,390.79L411.8,393.07L409.44,392.5L409.24,389.99Z" class="land" id="LU" title="Luxembourg"/>
    <path d="M498.17,349.37L496.39,354.35L495.04,354.98L493.71,359.3L490.39,361.9L484.91,362.16L484.78,360.68L481.85,359.12L482.12,355.57L481,353.93L478.89,353.9L475.32,352.4L474.51,346.31L478.94,343.73L486.31,344.32L487.62,344.82L490.96,343.79Z" class="land" id="LT" title="Lithuania"/>
    <path d="M425.6,408.41L425.21,408.38L425.38,407.08Z" class="land" id="LI" title="Liechtenstein"/>
    <path d="M476.71,437.28L474.57,437.71L472.46,439.42L472.12,437.42L470.32,435.55L471.52,433.92L472.71,432.72L474.56,432.38L475.98,434.36L477.52,434.84Z" class="land" id="XK" title="Kosovo"/>
    <path d="M376.13,394.52L375.21,394.87L375.27,394.29Z" class="land" id="JE" title="Jersey"/>
    <path d="M451.18,459.79L449.15,463.9L449.98,466.29L449.2,468.02L446.6,467.43L445.07,465.8L444.05,465.82L437.78,461.96L441.69,460L443.1,460.98L446.61,460.74L448.06,460.05ZM425.83,445.06L426.56,447.21L425.53,454.62L423.37,454.22L422.62,456.01L420.65,454.4L420.88,448.37L419.67,446.36L424.34,443.25ZM443.18,411.76L441.89,413.01L443.26,417.49L441.07,416.37L440.32,417.19L437.1,418.36L436.89,419.59L438.16,421.25L436.99,422.73L437.62,425.71L438.88,427.07L442.6,429.57L444.5,434.72L448.15,438.4L449.44,439.08L452.83,439.05L453.04,441.93L457.69,444.05L461.33,446.34L463.59,449.42L461.85,450.36L460.94,448.44L456.95,447.45L455.25,450.79L455.54,452.01L457.74,453.44L458,455.54L455.37,457.1L455.31,458.76L453.23,461.3L451.81,461.31L452.87,457.11L453.83,456.85L453.09,453.59L451.68,450.06L448.51,448.67L447.72,446.27L446.42,446.46L444.89,445.37L443.32,443.06L440.57,443.02L438.62,441.73L434.38,437.05L432.38,435.62L430.42,433.29L427.6,426.92L424.36,425.14L422.13,424.52L419.21,427.52L416.7,428.41L417.49,426.54L414.46,425.37L414.73,422.76L413.01,420.34L415.25,418.63L413.77,416.1L414.69,415.43L418.84,414.87L420.82,413.46L422.93,416.01L424.2,413.21L427.14,412.74L429.33,409.62L431.77,410.04L432.7,408.93L436.58,409.18L437.58,410.63ZM438,427.62L438.12,427.31L437.81,427.14L437.62,427.42Z" class="land" id="IT" title="Italy"/>
    <path d="M318.45,255.61L322.05,257.8L321.8,260.56L326.67,263.34L325.66,269.69L320.67,275.31L316.24,277.12L313.77,279.51L308.76,280.99L305.18,283.92L298.6,282.5L294.12,278.84L288.32,279.79L291.62,276.2L291.12,273.15L287.99,268.03L290.89,263.27L287.06,262.38L282.81,264.16L281.42,263.34L283.5,257.28L289.09,253.46L293.88,259.31L293.33,263.47L295.18,263.78L297.92,260.94L297.92,257.67L304.65,256.24L313.31,256.63L314.19,253.29L316.56,252.56Z" class="land" id="IS" title="Iceland"/>
    <path d="M358.22,361.07L359.04,369.41L356.76,374.59L352.64,375.21L352.05,376.04L347.15,378.76L345.09,379.35L343.88,378.04L340.48,376.8L342.28,374.95L343.86,372L345.08,368.2L342.96,366.08L342.11,359.71L347.97,359.19L347.36,356.73L349.45,353.28L353.84,351.74L353.96,353.69L350.12,358.7L353.37,360.84L355.16,358.99L356.38,361.29Z" class="land" id="IE" title="Ireland"/>
    <path d="M365.93,360.37L364.5,360.86L365.51,358.97Z" class="land" id="IM" title="Isle of Man"/>
    <path d="M479.14,399.87L482.32,402.8L479.82,404.19L474.96,413.1L471.08,414.3L468.05,414.01L465.38,415.39L463.38,416.4L461.36,416.38L458.58,414.99L455.19,411.89L453.38,409.63L454.92,408.73L454.84,406.47L456.18,404.45L457.54,404.32L457.88,402.42L460.5,403.92L464.61,403.81L464.89,402.46L469.62,401.62L471.47,400.57L472.14,399.08L476.24,398.92L477.58,400.3Z" class="land" id="HU" title="Hungary"/>
    <path d="M460.1,433.52L463.38,435.48L463.72,436.21ZM465.38,415.39L466.02,417.86L465.81,421.84L464.34,420.59L460.72,420.58L455.25,419.74L454.24,421L452.08,419.97L451.86,422.46L453.54,424.21L453.9,425.76L459.92,432.67L459.75,433.27L456.84,430.62L452.74,429.07L449.25,425.51L449.87,424.75L448.27,422.82L448.1,420.57L446.1,418.99L444.31,422.05L442.88,420.4L442.66,417.92L443.94,418.46L447.59,417.97L450.17,418.23L449.9,416.61L451.39,415.99L451.44,413.74L455.19,411.89L458.58,414.99L461.36,416.38L463.38,416.4Z" class="land" id="HR" title="Croatia"/>
    <path d="M486.48,474.11L487.82,473.79L488.44,475.01L490.19,474.69L493.4,475.31L494.55,476.16L490.52,477.24L489.09,476.07L485.24,475.37ZM484.61,455.76L487.53,457.33L486.08,458.8L483.92,456.62ZM497.39,453.72L497.64,455.68L495.24,454.77ZM495.81,445.94L495.02,445.28L491.82,444.43L490.49,445.2L489.14,444.69L486.59,446.96L485.68,448.76L484.17,448.8L481.26,447.24L481.1,449.8L482.5,452.06L482.7,455.36L481.88,456.63L483.92,457.39L486.97,459.49L487.34,462.55L485.32,460.92L483.67,461.2L483.53,464.57L481.84,464.25L483.16,467.56L481.17,467.53L478.92,466.2L478.12,467.76L476.8,465.93L476.75,463.46L474.93,461.42L476.03,459.92L477.83,459.2L481.99,461.08L483.36,460.59L480.38,458.6L476.33,459.24L474.8,458.89L473.36,456.59L473.37,455.48L471.33,453.73L470.05,451.62L472.85,449.35L474.45,446.32L474.16,445.24L476.77,445.14L478.28,443.79L480.68,443.73L482.48,442.49L485.55,442.2L487.35,441.4L492.45,443.02L496.22,442.21L497.01,440.32L498.3,442.12L497.05,443.05L497.05,444.65Z" class="land" id="GR" title="Greece"/>
    <path d="M374.03,392.79L373.88,393.22L373.46,392.96Z" class="land" id="GG" title="Guernsey"/>
    <path d="M582.78,439.33L581.72,440.66L583.58,442.45L582.89,444L577.87,441.85L576.68,442.75L570.02,443.79L567.24,441.2L565.87,441.9L561.79,441.46L562.87,438.87L561.7,434.9L558.92,432.54L557.59,432.21L555.26,430.46L555.99,429.58L558.12,429.79L562.09,431.64L565.67,431.6L571.48,434.39L572.23,435.43L574.57,434.38L576.13,434.33L578.14,435.65L579.78,435.96L579.4,437.52Z" class="land" id="GE" title="Georgia"/>
    <path d="M425.18,434.05L425.48,437.96L423.93,442.21L422.31,441.06L421.91,435.53ZM409.44,392.5L411.8,393.07L413.47,394.98L416.52,395.03L419.44,396.19L418.17,398.38L417.09,402.05L417.22,405.05L414.6,406.75L410.59,412.33L413.57,412.41L414.69,415.43L413.77,416.1L415.25,418.63L413.01,420.34L414.73,422.76L414.46,425.37L417.49,426.54L416.7,428.41L416.47,428.51L416.37,428.39L416.21,428.62L412.44,431.93L410.83,432.49L407.8,431.58L406.33,430.31L404.84,430.73L402.03,429.44L398.64,431.79L397.76,433.41L398.44,436.22L393.41,436.66L392.02,435.8L390.84,435.26L387.72,433.82L387.44,434.72L384.57,434.72L383.47,433.94L379.26,432.57L377.09,430.53L378.41,429.61L379.43,423.7L380.2,416.16L379.85,413.05L377.12,411.79L375.96,409.96L376.13,408.54L371.27,404.4L368.11,403.49L366.35,403.59L365,401.91L366.01,400.11L364.61,399L370.96,397.06L373.26,399.02L374.31,398.3L378.61,398.34L377.99,394.71L376.83,391.55L379.38,391.57L379.89,393.49L384.05,394.09L385.93,393L385.54,391.42L390.06,389.47L391.36,387.5L391.48,384.51L392.9,382.81L395.51,382.09L396.86,384.7L402.55,387.81L402.56,389.72L404.6,389.44L405.51,390.86L408.23,392.69Z" class="land" id="FR" title="France"/>
    <path d="M356.46,294.93L354.83,296.15L354.15,294.4Z" class="land" id="FO" title="Faroe Islands"/>
    <path d="M508.29,224.27L506.18,230.55L507.09,234L509.9,235.46L512.45,241.27L508.81,247.63L512.29,257.06L513.11,261.33L511.49,261.92L511.01,268.62L513.01,270.66L513.16,274.62L514.85,278.01L512.94,281.22L517.74,285.8L519.24,288.84L518.18,291.8L511.38,301.1L503.31,310L500.94,309.98L494.17,311.75L492.04,312.95L485.92,314.9L481.96,313.95L481.03,311.53L476.17,309.47L475.85,306.23L476.9,300.69L475.41,297.1L475.82,294.96L474.75,291.29L479.62,283.62L483.9,279.22L488.29,273.15L489.49,270.3L492.96,268.2L492.86,263.42L487.77,260.05L485.83,252.92L487.06,249.37L484.84,242.36L485.57,236.69L481.91,231.68L478.57,230.17L472.7,224.09L476.97,221.29L480.33,227.84L484.23,228.67L486.49,226.83L491.12,229.32L494.57,224.65L495.69,216.64L497.88,213.4L503.7,211.58L509.04,216.41L509.86,218.84Z" class="land" id="FI" title="Finland"/>
    <path d="M504.22,318.97L501.73,325.21L501.99,328.99L503.12,332.45L501.4,334.95L497.91,334.93L495.6,332.48L491.85,330.67L488.49,332.22L489.36,328.31L486.12,328.26L485.02,325.83L484.95,321.39L488.73,319.07L493.27,318.66L493.55,317.67L499.8,319.26ZM481.21,326.13L484.09,327.26L479.23,330.25L478.93,327.3Z" class="land" id="EE" title="Estonia"/>
    <path d="M319.06,511.25L319.11,512.56L317.74,513L317.85,511.21ZM315.07,510.12L313.7,511.92L312.64,510.32ZM324.19,511.14L325.02,508.53L325.77,509.13L325.34,510.73ZM398.16,451.17L399.51,451.68L397.85,453.88L394.86,452.15L396.62,450.81ZM377.09,430.53L379.26,432.57L383.47,433.94L384.57,434.72L387.44,434.72L387.72,433.82L390.84,435.26L391.08,436.2L392.02,435.8L393.41,436.66L398.44,436.22L398.6,439.02L393.63,442.77L389.15,444.05L387.79,445.4L386.3,448.23L383.35,452.67L383.87,455.19L385.6,456.85L383.12,458.62L381.99,460.16L381.24,463.24L379.08,463.35L377.08,465.11L375.74,467.55L372.85,467.88L370.84,467.66L366.12,467.86L364.81,468.99L362.69,469.42L360.75,471.53L358.98,470.67L357.05,466.6L355.38,465.32L353.16,465.4L352.74,463.22L354.1,460.95L353.42,458.5L354.69,456.04L352.99,452.58L354.73,451.59L354.83,448.84L355.7,448.09L355.19,444.34L358.25,441.38L356.84,440.58L356.52,439.03L353.17,439.65L350.96,439.37L349.71,437.93L347.31,439.04L347.67,437.12L345.35,433.05L346.9,430.96L348.33,430.95L349.53,429.52L351.91,428.43L353.77,429.43L360.58,429.5L365.45,430.48L369.37,429.87L371.75,430.74L374.78,431Z" class="land" id="ES" title="Spain"/>
    <path d="M358.22,361.07L356.38,361.29L355.16,358.99L353.37,360.84L350.12,358.7L353.96,353.69L358.6,352.75L361.41,358.07L360.83,359.73ZM371.48,327L371.04,328.58L367.73,331.51L368.25,334.38L370.23,333.52L375.9,333.56L377.16,335.22L373.43,344.4L371.19,346.23L375.59,347.58L377.68,350.1L379.23,356.05L381.88,358.04L383.87,361.56L387.13,369.12L389.25,369.18L391.81,370.63L392.19,372.63L391.39,375.29L388.82,377.23L387.67,380.12L390.78,380.28L388.84,383.25L385.62,384.35L378.27,384.45L373.88,385.34L371.95,384.66L370.22,385.23L368.56,387.93L366.95,386.85L361.96,387.82L365.2,384.26L366.88,381.47L371.37,381.36L366.04,377.68L363.83,378.48L363.04,375.93L366.05,374.53L367.77,372.12L367.21,367.34L371.67,365.85L372.27,363.65L371.24,360.79L369.52,358.31L370.1,354.64L367.86,356L362.84,355.43L364.61,351.23L362.37,347.38L360.82,346.42L361.75,342.89L359.42,342.19L361.02,337.29L359.93,335.68L361.98,329.25L364.63,327.04L371.72,326.02Z" class="land" id="GB" title="United Kingdom"/>
    <path d="M430.15,349.8L430.74,353.38L427.35,353.16L426.8,350.51ZM438.35,348.48L436.84,350.88L436.14,355.74L434.45,352.98L432.88,352.85L431.57,348.96L436.86,345.94ZM426.29,355.67L421.72,355.09L421.49,351.25L419.43,349.88L419.57,342.18L421.5,338.24L425.49,337.29L427.24,334.53L429.69,335.58L428.66,339.12L428.6,342.07L431,342.84L431.05,344.58L428.76,345.22L428.18,347.87L425.65,350.69Z" class="land" id="DK" title="Denmark"/>
    <path d="M426.29,355.67L428.93,358.52L433.36,362.12L436.4,360.5L438.38,358.31L440.31,358.72L443.88,362.78L445.56,363.68L446.22,366.88L445.01,369.75L447.1,372.21L447.67,375.33L447.02,377.06L448.79,381.03L447.91,383.7L446.03,383.44L437.86,387.13L437.11,388.25L437.59,391.18L438.62,393.01L443.67,397.53L441.94,399.94L439.4,401.43L439.99,403.15L438.85,404.56L434.72,405.1L432.93,406.11L429.23,405.37L428.73,406.81L426.32,405.15L425.37,405.48L421.5,403.95L419.71,404.96L417.22,405.05L417.09,402.05L418.17,398.38L419.44,396.19L416.52,395.03L413.47,394.98L411.8,393.07L412.41,390.79L410.83,388.65L411.89,387.35L410.31,384.44L409.89,382.86L411.16,379.42L410.12,377.54L413.5,376.51L414.75,373.25L415.44,366.88L415.82,364.02L418.9,363.95L421.16,364.92L422.7,362.91L422.95,357.79L421.72,355.09Z" class="land" id="DE" title="Germany"/>
    <path d="M447.91,383.7L450.23,384.02L453.02,385.37L455.88,388.81L457.9,386.93L460.98,389.64L463.91,390.26L465.07,392.69L462.2,394.34L460.49,396.75L458.06,396.92L457.05,398.62L455.02,397.32L453.23,397.61L450.44,396.3L448.6,396.13L447.41,398.62L444.67,398.6L443.67,397.53L438.62,393.01L437.59,391.18L437.11,388.25L437.86,387.13L446.03,383.44Z" class="land" id="CZ" title="Czechia"/>
    <path d="M531.74,473.8L529.51,475.38L529.97,476.97L525.25,479.11L523.14,478.31L522.58,477.15L525.25,474.87L527.45,475.15Z" class="land" id="CY" title="Cyprus"/>
    <path d="M425.37,405.48L425.38,407.08L425.21,408.38L425.6,408.41L427.38,409.49L429.33,409.62L427.14,412.74L424.2,413.21L422.93,416.01L420.82,413.46L418.84,414.87L414.69,415.43L413.57,412.41L410.59,412.33L414.6,406.75L417.22,405.05L419.71,404.96L421.5,403.95Z" class="land" id="CH" title="Switzerland"/>
    <path d="M409.03,384.27L409.47,384.41L410.31,384.44L411.89,387.35L410.83,388.65L409.24,389.99L409.44,392.5L408.23,392.69L405.51,390.86L404.6,389.44L402.56,389.72L402.55,387.81L396.86,384.7L395.51,382.09L399.03,380.18L401.39,381.34L402.77,380.12L403.95,379.52L408.24,380.88L409.6,381.9Z" class="land" id="BE" title="Belgium"/>
    <path d="M504.8,345.75L507.56,347.28L510.03,347.31L510.49,349.24L513.7,348.02L516.57,350.11L516.87,354L516.11,355.98L517.48,356.98L518.69,360.3L520.34,361.31L524.23,366.5L521.84,368.24L518.75,367.5L519.43,373.73L520.22,375.2L516.88,375.58L514.97,378.68L509.91,380.15L509.01,378.54L506.72,379.05L501.06,378.56L500.51,377.61L495.32,376.49L488.65,376.81L485.42,379.22L485.39,375.18L483.68,374.11L486.45,371.26L486.63,368.7L484.91,362.16L490.39,361.9L493.71,359.3L495.04,354.98L496.39,354.35L498.17,349.37L500.13,348.13L502.36,348.37Z" class="land" id="BY" title="Belarus"/>
    <path d="M465.81,421.84L467.31,421.91L466.43,425.24L467.86,428.79L466.61,429.79L465.53,430.01L463.41,433.1L463.38,435.48L460.1,433.52L459.75,433.27L459.92,432.67L453.9,425.76L453.54,424.21L451.86,422.46L452.08,419.97L454.24,421L455.25,419.74L460.72,420.58L464.34,420.59Z" class="land" id="BA" title="Bosnia and Herzegovina"/>
    <path d="M506.67,428.56L506.15,430.64L503.87,431.83L503.7,434.37L501.97,436L504.23,438.88L502.18,439.15L501.16,438.24L498.26,438.9L497.01,440.32L496.22,442.21L492.45,443.02L487.35,441.4L485.55,442.2L482.48,442.49L482.87,440.32L482.15,438.74L480.05,436.89L480.81,436.16L480.57,433.83L482.74,431.82L480.94,430.25L480.37,426.99L481.59,425.62L483.8,427.78L493.49,428.98L496.56,426.99L500.27,426.04L503.68,427.11L504.38,428.09Z" class="land" id="BG" title="Bulgaria"/>
    <path d="M581.43,456.2L578.72,455.5L575.9,451.95L575.69,451.65L576.81,451.31L579.94,453.45ZM591.92,439.59L594.19,442.69L594.7,444.25L597.05,446.74L599.31,447.7L596.09,448.92L595.12,452.18L595.29,453.61L593.8,454.79L593.1,456.54L593.18,458.62L592,458.75L589.57,456.53L590.51,455.65L589.45,451.76L588.5,451.96L583.04,456.05L583.29,454.43L581.8,452.26L580.05,450.66L580.79,448.7L578.28,446.43L579.18,445.26L576.68,442.75L577.87,441.85L582.89,444L583.58,442.45L581.72,440.66L582.78,439.33L584.14,439.78L586.32,442.61L588.88,443.19L591.14,440.98Z" class="land" id="AZ" title="Azerbaijan"/>
    <path d="M457.05,398.62L456.67,399.63L457.88,402.42L457.54,404.32L456.18,404.45L454.84,406.47L454.92,408.73L453.38,409.63L452.81,410.78L448.72,411.1L446.6,412.4L443.18,411.76L437.58,410.63L436.58,409.18L432.7,408.93L431.77,410.04L429.33,409.62L427.38,409.49L425.6,408.41L425.38,407.08L425.37,405.48L426.32,405.15L428.73,406.81L429.23,405.37L432.93,406.11L434.72,405.1L438.85,404.56L439.99,403.15L439.4,401.43L441.94,399.94L443.67,397.53L444.67,398.6L447.41,398.62L448.6,396.13L450.44,396.3L453.23,397.61L455.02,397.32Z" class="land" id="AT" title="Austria"/>
    <path d="M583.04,456.05L581.43,456.2L579.94,453.45L576.81,451.31L575.69,451.65L573.65,449.78L571.52,449.61L570.57,447.31L571.23,445.98L570.02,443.79L576.68,442.75L579.18,445.26L578.28,446.43L580.79,448.7L580.05,450.66L581.8,452.26L583.29,454.43Z" class="land" id="AM" title="Armenia"/>
    <path d="M392.02,435.8L391.08,436.2L390.84,435.26Z" class="land" id="AD" title="Andorra"/>
    <path d="M470,311.6L471.15,312.37L468.96,313.76L468.71,312.32Z" class="land" id="AX" title="Aland Islands"/>
    <path d="M470.32,435.55L472.12,437.42L472.46,439.42L471.96,441.44L473.07,444.8L474.16,445.24L474.45,446.32L472.85,449.35L470.05,451.62L469.42,449.76L467.48,448.42L467.22,446.29L467.75,444.77L467.66,441.99L468.25,439.92L467.24,439.45L466.98,437.71L468.57,435.08Z" class="land" id="AL" title="Albania"/>
  </g>
</svg>