<?xml version="1.0" encoding="UTF-8"?>
<svg xmlns="http://www.w3.org/2000/svg" width="960" height="513" viewBox="0 0 960 513">
  <!-- Created using SVG Map Generator: dojo.amcharts.com/svg-map-generator -->
  <style>
    .land { fill: #ffffff; stroke: #299e8b; stroke-width: 1.55; }
  </style>
  <rect x="0" y="0" width="960" height="513" fill="#417ea4"/>
  <g id="polygons">
    <path d="M649.24,693.99L648.7,694.18L647.27,692.62L648.44,692.32Z" class="land" id="AW" title="Aruba"/>
    <path d="M754.85,627.7L753.06,628.05L753.75,625.79Z" class="land" id="AG" title="Antigua and Barbuda"/>
    <path d="M740.44,610.55L738.43,611.29L738.55,610.87L740.2,609.86Z" class="land" id="AI" title="Anguilla"/>
    <path d="M580.23,499.2L581.77,490.7L583.44,492.96L581.68,494.31ZM571.38,516.56L570.86,520.1L566.86,522.65L564.77,515.88L568.81,510.23ZM571.47,523.2L572.38,528.72L569.08,530.41L568.68,526.23ZM622.06,567.54L620.03,570.63L613.9,571.23L616.01,567.56Z" class="land" id="BS" title="Bahamas"/>
    <path d="M742.1,615.55L741.74,614.95L742.54,615.09Z" class="land" id="BL" title="Saint Barthelemy"/>
    <path d="M418.96,644.29L414.74,644.23L418.82,616.45L420.5,613.77L423.44,614.27L427.76,607.31L430.6,606.94L432.41,612.01L429.39,619.41L427.27,633.55L421.96,639.12Z" class="land" id="BZ" title="Belize"/>
    <path d="M744.18,406.43L743.04,406.93L744.82,405.08Z" class="land" id="BM" title="Bermuda"/>
    <path d="M778.47,684.88L777.03,684.59L777.45,681.48L779.34,683.86Z" class="land" id="BB" title="Barbados"/>
    <path d="M904.33,131.51L899.34,136.29L897.79,140.23L886.06,152.04L891.04,151.61L895.88,153.42L893.28,158.73L898.64,159.99L901.9,162.57L907.37,159.98L914.02,160.67L917.33,164.87L913.26,169.49L913.06,173.49L921.71,172.86L915.09,177.63L912.36,182L920.85,180.48L917.33,185.78L922.81,187.24L915.73,199.5L909.65,199.51L910.74,193.05L908.88,189.52L908.63,184.32L906.69,182.87L902.83,188.47L897.92,189.56L891.41,196.32L886.04,196.86L886.1,193.98L890.22,192.72L894.41,188.65L887.22,187.51L883.68,185.51L875.29,186.88L860.33,185.44L851.32,186.93L849.56,182.79L858.26,176.32L859.1,172.49L867.23,161.43L869.91,159.25L878.99,146.4L889.48,135.13L898.31,131.06ZM121.18,143.94L125.59,145.68L137.31,148.45L139.66,160.84L145.21,163.71L145.92,172.71L143.02,176.2L132.91,172.49L124.1,165.57L125.44,162.97L122.23,160.65L118.71,160.98L120.78,154.59L116.1,154.54L114.47,150.58L109.86,151.08L111.92,146.66L109.29,144.38L115.11,140.88ZM826.88,165.53L822.24,165.74L813.74,163.7L808.63,161.26L804.45,153.68L817.49,156.98L827.38,162.88ZM668.24,223.29L682.8,217.3L689.56,209L706.04,200.19L713.65,198.44L722.97,194.53L744.77,177.02L754.4,172.09L762.74,168.87L779.29,163.86L786.67,163.12L793.93,164.16L799.24,167.94L797.97,173.16L791.17,177.68L784.95,180.59L778.2,178.24L779.26,185.17L784.53,183.54L790.02,184.76L786.43,189.79L780.96,193.56L784.79,196.57L786.57,205.74L798.86,212.66L805.43,212.82L807.48,214.51L814.18,211.01L818.77,213.58L819.66,219.99L804.6,225.57L789.41,230.66L787.25,228.39L783.71,229.75L781.87,233.25L774.97,239.47L764.07,243.86L760.53,240.24L762.69,232.34L769.01,226.75L778.69,221.62L784.24,219.7L780.48,214.44L768.04,220.17L756.42,222.38L753.94,220.93L750.42,219.42L752.03,214.78L748.46,213.37L753.28,193.82L748.71,189.98L742.39,192.12L738.79,188.46L727.41,199.1L722.98,205.58L721.13,210.48L711.98,219.61L707.28,219.22L704.07,223.23L690.06,223.26ZM795.5,202.5L797.27,201.19L802.94,203.16L813.92,202.24L804.32,209.12L802.51,205.56L797.32,206.18ZM823.93,209.92L826.61,212.85L831.01,209.9L831.47,206.25L838.47,206.88L835.9,210.84L831.04,214.04L820.74,215.19L819.56,209.97L829.34,197.86L832.74,195.33L835.23,198.27L830.57,206.7ZM926.25,-251.46L949.07,-250.82L987.57,-246.31L978.44,-242.63L956.62,-239.72L946,-235.43L900.95,-226.7L885.95,-220.26L869.53,-219.05L866.45,-217.52L850.69,-216.75L850.5,-214.5L839.16,-212.44L852.69,-209.46L835.3,-201.84L816.3,-201.15L812.66,-196.53L797.96,-193L798.5,-190.14L806.94,-190.61L804.11,-186.1L791.49,-183.21L780.14,-181.71L778.34,-185.46L754.04,-184.79L741.87,-183.14L704.38,-185.23L707.72,-188.93L719.61,-191.99L733.68,-193.05L727.28,-198.7L738.02,-200.57L735.76,-203.64L747.14,-209.99L771.44,-211.94L773.18,-214.72L768.85,-218.73L759.61,-221.11L764.74,-225.92L785.65,-225.01L818.97,-228.01L834.99,-230.55L835.11,-233.09L812.04,-229.27L792.55,-229.85L774.96,-227.98L746.39,-230.99L742.31,-234.34L753.92,-237.9L733.34,-239.25L744.82,-241.08L779.95,-243.97L796.26,-246.38L813.57,-244.52L820.3,-247.76L841.61,-250.77L859.55,-250.39L876.04,-251.73L923.19,-252.33ZM725.83,-233.96L730.95,-228.66L753.75,-226.45L755.34,-221.61L751.89,-219.24L764.67,-217.88L766.67,-215.79L737.55,-209.28L725.21,-203.81L709.13,-203.35L693.45,-205.91L686.22,-212.31L702.64,-215.31L680.98,-215.39L682.8,-219.15L674.83,-221.14L675.07,-224.06L686.04,-229.63L696.39,-232.67L722.91,-235.37ZM610.47,-215.66L621.37,-213.29L635.72,-207.97L631.81,-204.99L632.62,-200.19L620.67,-200.57L619.36,-203.82L606.83,-205.71L592.11,-204.63L604.08,-209.94L589.55,-212.71L593.88,-215.74ZM664.45,-207.42L674.06,-205.44L669.14,-201.66L650.99,-199.64L645.88,-206.33L649.83,-210.31L662.63,-209.07ZM548.9,-208.68L549.2,-205.35L517.64,-206.11L544.98,-209.81ZM537.53,-202.85L541.91,-201.28L533.69,-196.59L516.56,-194.62L507.99,-196.65L511.57,-200.7ZM663.89,-199.49L682.34,-198.93L678.12,-196.05L656.76,-196.15ZM485.43,-194.83L476.19,-191.96L478.49,-190.51L471.46,-186.55L453.88,-184.72L439.57,-182.21L430.8,-178.14L415.09,-180.12L409.61,-182.28L422.23,-184.67L453.98,-194.19L468.68,-194.33L480.35,-196.79ZM666.48,-189.89L677.67,-186.46L690.7,-187.32L692.64,-184.62L705.36,-183.11L694.83,-180.33L708.7,-174.23L717.9,-175.42L727.57,-174.12L741.69,-175.83L748.88,-177.69L764.71,-177.83L779.5,-175.55L784.12,-173.52L781.54,-167.04L772.6,-163.62L758.13,-162.41L730.31,-163.88L722.39,-162.67L698.87,-162.62L697.39,-165.15L686.54,-163.24L669.5,-166.04L670.1,-172.77L676.05,-178.01L672.27,-183.69L652.3,-182.69L644.11,-187.57L645.46,-190.54L656.06,-191.55ZM535.56,-180.37L546.97,-178.94L558.09,-178.94L557.43,-176.87L548.81,-170.59L534.8,-167.58L521.14,-169.15L498.13,-164.27L481.79,-161.73L472.98,-161.87L470.81,-165.74L484.5,-168.13L471.21,-169.41L458.58,-168.05L454.02,-170.37L445.05,-171.5L462.3,-180.55L475.23,-184.62L487.57,-184.77L488.28,-182.05L498.15,-181.99L506.1,-174.64L523.14,-174.17L526.28,-176.34L521.71,-184.39L533.36,-188.2L540.77,-187.95ZM632.7,-184.94L627.26,-174.68L620.03,-169.74L612.23,-168.52L597.35,-168.5L596.63,-173.03L606.16,-176.14L581.35,-174.25L586.33,-177.23L595.55,-179.64L592.02,-182.92L610.43,-186.58L622.41,-186.59ZM588.73,-179.9L576.79,-177.08L571.55,-181.77L588.05,-182.88ZM657.27,-168.73L654.47,-164.88L643.76,-164.31L632.01,-167.5L630.88,-169.54L642.49,-174.41L654.08,-175.15L658.06,-172.38ZM413.76,-158.22L431.29,-159.99L437.22,-158.89L446.88,-152.49L445.66,-150.39L406.06,-141.54L398.69,-137.72L390.09,-135.97L378.86,-127.56L350.94,-122.99L349.31,-129.61L338.02,-135.08L349.94,-140.41L356.55,-146.15L373.43,-154.22L371.63,-160.93L403.97,-163.03ZM653.57,-158.77L660.61,-156.59L671.14,-157.02L676.67,-155.39L652.03,-142.36L641.24,-142.93L628.78,-133.79L618.14,-133.77L621.39,-139.4L620.92,-142.69L627.56,-153.38L636.35,-157.39ZM590.17,-156.29L595.96,-153.8L611.53,-155.61L614.93,-153.04L604.56,-148.59L605.99,-140.98L603.51,-131.48L580.25,-125.13L576.12,-125.91L569.49,-135.26L560.49,-137.18L555.47,-142.7L565.07,-145.92L567.61,-142.27L575.75,-142.58L580.55,-146.66L572.6,-150.3L580.7,-154.65ZM690.06,-121.64L699.84,-123.34L707.36,-122.63L711.93,-129.06L707.15,-129.58L703.25,-133.29L711.58,-138.44L711.32,-142.6L721.05,-149.18L745.22,-153.77L755.91,-152.67L760.18,-142.26L750.5,-135.94L758.11,-135.99L766.54,-138.08L775.84,-137.71L776.82,-140.55L783.09,-142.02L792.54,-141.67L804.75,-138.59L805.29,-134.64L813.94,-130.12L831.89,-127.69L837.37,-122.75L837.46,-118.36L843.75,-119.65L850.57,-118.68L856.81,-115.77L863.49,-109.86L862.08,-106.06L854.95,-106.47L850.24,-104.32L865.39,-101.38L854.55,-97.74L849.25,-91.76L857.64,-88.99L863.46,-84.46L872.2,-84.22L878.96,-82.66L881.65,-76.88L890.41,-75.49L887.3,-72.87L895.2,-71.39L899.7,-72.8L904.43,-68.18L897.43,-63.98L894.89,-60.5L886.55,-55.52L879.21,-54.3L876.84,-48.94L869.24,-48.28L864.71,-49.58L860.41,-57.09L862.55,-60.16L852.53,-63.56L850.91,-67.02L844.56,-63.86L844.43,-60.49L833.51,-59.28L840.46,-53.54L842.83,-48.6L847.9,-45.59L852.37,-45.58L856.13,-42.76L855.74,-34.84L859.11,-35.08L857.12,-25.3L851.61,-25.3L847.04,-18.24L841.29,-21.92L837.08,-22.26L824.99,-27.68L819.87,-31.22L815.63,-30.93L820.59,-24.13L824.83,-23.11L834.92,-12.92L832.43,-7.32L822.57,-10.96L813.56,-12.04L807.36,-14.25L804.44,-18.62L797.64,-18.87L788.93,-22.45L783.82,-27.43L782.83,-31L774.65,-40.13L765.51,-43.26L758.84,-40.54L741.29,-37.81L731.49,-39.4L729.19,-42.6L731.86,-46.67L739.53,-49.49L742.43,-53.17L755.75,-50.31L779.7,-54.3L774.56,-61.8L791.45,-69.18L795.51,-72.95L802.23,-75.73L797.34,-88.26L787.34,-93.68L786.41,-97.05L770.59,-93.49L771.04,-97.38L776.88,-97.64L780.18,-101.16L769.57,-105.23L758.03,-116.47L753.97,-115.28L757.06,-111.61L755.04,-109.17L747.7,-108.17L735.06,-110.55L723.66,-107.52L715.8,-109.49L708.32,-109L686.48,-111.21L685.44,-114.3L672.45,-112.5L665.54,-115.77L664.68,-122.32L676.17,-120.93L679.57,-124.01L668.95,-124.96L663.36,-127.4L665.1,-132.84L669.99,-135.32L670.07,-138.33L680.48,-146.06L688.07,-149.98L699.39,-153.69L708.81,-154.99L723.62,-154.69L703.02,-143.74L700.27,-134.91L700.57,-130.73L707,-125.74ZM772.97,-152.9L784.37,-153.04L793.07,-151.1L798.72,-146.2L796.06,-143.15L783.44,-144.04L767.32,-142.39L764.05,-143.65L764.22,-147.88L759.45,-149.71L761.55,-153.67ZM533.17,-144.31L528.53,-148.82L523.4,-150.87L528.17,-153.38L538.78,-154.2L545.23,-152.44L543.48,-149.39ZM445.77,-140.47L456.09,-141.66L465.72,-145.09L476.66,-141.89L485.91,-141.27L490.72,-145.06L498.19,-139.36L495.84,-130.49L505.48,-132.2L504.2,-135.22L507.99,-146.5L514.77,-149.11L524.8,-147.55L530.84,-142.77L529.18,-138.37L528.7,-126.71L523.8,-122.76L526.58,-118.66L535.76,-115.76L543.62,-111.08L548.28,-109.81L546.05,-105.99L539.21,-105.79L534.89,-107.54L529.84,-103.08L533.71,-102.24L531.67,-97.56L520.18,-95.1L514.62,-94.92L502.22,-98.26L492.31,-99.25L489.81,-102.63L478.64,-97.29L469.29,-96.47L462.24,-94.32L451.48,-92.73L437.84,-91.65L420.13,-91.06L418.65,-95.29L421.21,-99.65L408.02,-100.5L396.76,-102.45L394.83,-107.07L397.39,-110.66L423.23,-113.23L440.7,-112.17L447.65,-114.85L434.6,-117.79L412.77,-116.53L398.3,-117.05L394.53,-120.17L401.38,-123.41L418.05,-125.82L400.65,-126.73L396.87,-129.73L399.15,-133.28L408.66,-136.57L409.91,-139.77L420.42,-143.27L452.35,-149.62L455.65,-148.42L452.15,-143.62ZM668.24,223.29L662.54,224.78L644.75,236.77L639.05,242.88L617.56,242.94L611.81,245.2L610.68,254.7L595.2,260.95L582.85,263.2L567.47,270.86L564.61,270.86L560.68,266.54L562.8,261.88L570.14,257.24L573.56,250.83L578.7,243.72L581.74,218.41L572.19,211.74L573.3,207.48L569.12,207.93L568.88,201.36L564.34,202.66L562.93,196.4L541.7,183.02L531.08,176.63L517.62,180.95L511.23,179.23L503.95,179.42L503.4,178.07L495.16,180.07L481.84,172.29L477.67,172.23L473.54,173.5L464.69,170.46L465.28,162.58L462.35,161.67L460.14,166.96L424.77,166.95L392,166.95L368.59,166.95L340.49,166.95L321.76,166.95L303.03,166.95L274.93,166.95L242.15,166.95L218.74,166.95L190.64,166.95L156.74,166.95L153.88,166.95L154.21,160.42L148.66,160.08L147.91,155.76L144.3,155.54L141.52,146.23L128.94,145.48L131.2,141.63L124.51,140.78L119.72,136.85L123.06,132.31L122.2,130.57L125.78,123.01L120.94,122.9L129.43,113.27L125.91,113.01L126.86,107.97L121.37,105.92L117.17,107.86L113,101.38L119.67,95.78L118.07,91.86L130.36,81.74L132.38,75.41L135.39,71.95L133.74,67.32L125.61,62.36L124.37,59.75L123.19,40.62L122.21,34.22L116.37,26.5L118.14,22.66L115.93,19.83L105.4,22.31L98.24,28.29L86.92,31.59L88.57,27.31L81.01,16.01L84.77,12.6L78.54,12.8L74.01,14.71L64.75,13.17L86.48,-13.47L105.55,-35.99L121.74,-54.52L141.51,-76.46L168.46,-105.21L184.04,-103.56L189.82,-99.12L200.2,-95.9L208.48,-96.24L214.63,-101.06L221.57,-102.98L233.9,-103.47L239.84,-102.56L245.26,-105.21L254.91,-106.45L272.62,-111.18L279.02,-109.42L268.72,-105.27L290.46,-108.97L299.06,-112.14L305.11,-112.34L304.71,-106.17L308.1,-102.38L324.72,-109.32L327.18,-105.23L321.68,-101.9L329.36,-101.87L339.24,-107.14L348.28,-107.22L357.14,-105.32L361.08,-102.4L372.91,-100.41L378.16,-97.79L395.6,-95.49L400.81,-96.93L408.28,-94.16L411.3,-89.89L402.48,-88.3L392.95,-84.02L394.8,-82.74L405.64,-81.35L419.4,-81.07L434.19,-82.38L444.9,-84.69L446.69,-81.67L451.76,-81.39L458.31,-75.76L452.15,-73.35L463.13,-71.09L462.56,-81.66L467.17,-85.37L476.83,-86.56L480.96,-89.38L471.1,-89.05L463.42,-86.82L460.47,-88.39L466.94,-92.49L475.95,-93.45L490,-96.28L494.21,-93.82L493.05,-90.62L501.23,-85.35L508.8,-86.39L513.77,-82.64L523.69,-81.17L535.39,-82.98L547,-81.55L554.79,-82.82L562.38,-80.23L566.6,-83.18L556.46,-85.77L560.54,-88.88L570.66,-90.55L571.89,-88.12L580.1,-86.92L572.28,-79.45L575.2,-74.97L580.76,-75.83L580.59,-81.72L584.55,-85.24L591.77,-85.85L605.72,-91.66L608.02,-95.88L606.26,-103.06L592.89,-107.4L591.04,-110.96L596.81,-116L595.92,-119.22L600.94,-124.79L617.08,-132.31L624.22,-130.66L631.58,-127.03L632.9,-124.66L629.46,-119.74L633.46,-117.31L637.62,-111.61L623.01,-105.97L629.55,-103.75L642.14,-103.42L638.05,-100.81L638.3,-95.6L634.49,-90.82L641.43,-91.4L646.98,-97.45L654.55,-100.51L660.94,-94.96L660.29,-89.95L654.36,-88.53L652.16,-82.08L657.07,-74.85L666.35,-78.98L675.71,-85.86L681.58,-92.73L686.69,-94.09L692.86,-98.17L688.97,-100.1L692.04,-107.57L703.86,-107.44L708.37,-105.8L718.16,-105.69L716.4,-102.86L726.59,-98.74L724.05,-93.06L710.6,-90.47L712.31,-83.26L716.51,-78.28L712.14,-73.44L703.15,-69.63L688.94,-64.71L677.3,-62.31L668.96,-67.18L658.75,-66.72L657.81,-64.09L661.07,-60.34L644.44,-51.93L637.77,-51.85L624.45,-59.25L620.5,-58.57L627.95,-51.84L645.98,-49.95L641.02,-45.24L628.61,-37.06L622.04,-34.84L609.66,-35.75L607.19,-32.23L592.1,-28.41L596.83,-26.43L592.82,-21.22L586.09,-19.39L577.09,-19.59L558.77,-5.18L552.26,-2.27L548.32,2.2L537.47,11.65L532.87,17.73L526.47,31.59L529.61,34.07L540.27,33.54L539.3,53.28L539.59,56.85L552.92,53.74L558.22,53.96L565.06,57.22L573.05,58.97L579.86,64.14L582.8,69.67L598.66,75.08L604.65,80.1L616.96,79.71L630.12,81.96L632.09,86.51L627.51,92.75L627.57,100.1L621.78,111.85L626.14,119.13L624.76,121.04L632.87,128.43L633.88,134.37L638.87,136.54L644.48,131.04L650.9,128.78L658.68,121.62L658.04,116.43L659.34,101.47L662.05,97.58L659.92,96.26L658.52,88.1L667.49,85.59L680.09,80.77L689.94,74.98L697.63,68.98L702.09,60.91L704,54.54L703.72,46.82L702.35,43.34L691.91,34.52L693.99,31.61L703.5,25.28L705.48,21.38L710.17,19.79L711.73,16.56L710.16,6.81L715.2,-1.69L714.97,-10.39L717.08,-13.6L725.29,-16.4L739.42,-13.09L749.99,-11.37L762.08,-14.88L773.77,-5.47L777.48,1.94L788.59,3.11L793.17,8.07L787.82,17.84L789,25.84L785.38,32.04L794.13,31.57L796.49,35.68L802.53,40.75L814,36.29L826.87,28.84L838.97,13.8L843.44,13.59L846.46,21.79L849.07,25.91L850.64,32.19L855.09,37.28L853.6,39.34L855.94,43.96L859.69,45.45L858.19,51.86L862.06,56.83L857.64,65.17L860,72.24L863.08,71L869.84,80.45L879.27,81.95L880.4,86.18L886.69,85.8L893.99,89.82L890.19,92.33L885.25,92.82L879.03,96.93L869.03,99.88L865.56,99.87L864.26,104.39L870.19,102.48L875.34,99.31L882.3,96.9L884.38,94.49L892.39,95.39L894.11,99.69L889.71,102.63L890.81,104.88L897.01,101.17L901.1,100.82L904.27,103.25L906.31,108.4L902.87,120.8L903.78,123.19L887.66,132.59L878.96,133.03L870.48,134.85L861.58,142L849.79,149.31L836.42,150.05L831.32,151.41L829.66,149.62L821.23,148.66L815.31,149.48L810.15,148.62L797.68,149.02L793.48,148.4L783.68,150.06L779.69,149.91L773.97,152.95L766.73,161.97L756.15,164.09L747.59,169.25L740.94,175.46L735.39,179.51L732.9,183.25L721.32,193.02L713.73,197.87L706.5,199.41L696,205.07L692.34,206.17L684.95,212.85L677.73,216.21L677.83,218.44ZM578.35,-105.1L586.75,-101.47L587.87,-94.03L579.03,-90.77L569.41,-91.67L555.02,-95.59L553.45,-97.68L566.32,-101.35L571.44,-106.47ZM748.76,-106.87L740.28,-103.81L737.04,-106.42ZM744.89,-95.37L753.99,-101.79L757.04,-100.98ZM775.3,-88.95L779.75,-87.86L775.92,-79.24L768.17,-76.09L756.3,-75.89L756.05,-81.33L764.61,-87.82ZM791.77,-82.3L782.92,-82.85L786.31,-86.12L794.62,-84.6ZM667.02,-50.75L671.23,-53.1L674.91,-50.2L680.82,-48.76L686.02,-44.65L691.24,-42.93L692.48,-40.16L690.69,-35.01L699.87,-35.88L703.1,-31.69L693.9,-27.84L682.19,-30.98L682.67,-33.79L673.6,-35.99L669.48,-32.34L662.3,-29.43L657.32,-25.89L647.66,-23.7L648.82,-30.36L634.29,-30.54L638.94,-33.75L646.6,-36.47L648.2,-41.93L659.75,-56.34L667.37,-57.48L665.51,-53.89ZM725.43,-27.96L727.72,-25.6L722.71,-23.38L718.89,-26.51ZM681.33,-21.32L678.35,-17.43L666.62,-11.72L659.47,-11.07L659.42,-15.16L667.3,-20.69ZM702.61,-14.32L702.59,-9.34L696.89,-4.38L691.91,-6.64L697.44,-13.44ZM674.48,66.84L669.94,71.99L663.33,73.04L661.52,71.35L667.43,67.14ZM91.82,95.87L100.72,97.8L91.11,107.67L85.04,108.65L83.62,107.05L84.5,100.64L87.62,95.64ZM125.36,112.14L122.29,117.94L118.67,113.75L123.09,107.47ZM93.25,108.63L92.17,112.38L87.01,117.62L85.33,112.59L86.4,109.44ZM637.08,114.79L626.28,111.9L627.39,108.75L635.1,108.49Z" class="land" id="CA" title="Canada"/>
    <path d="M477.62,716.15L479.6,722.66L487.19,734.16L489.78,735.5L485,737.33L484.71,747.56L483.43,752.94L484.68,757.23L481.86,753.16L481.55,749.77L474.47,749.38L476,743.31L473,739.84L463.84,734.48L463.37,730.84L458.13,735.43L455.85,732.12L452.08,730.8L450.17,727.47L450,723.64L452.36,718.64L451.73,714.05L453.37,712.29L461.95,715.74L464.64,714.2L468.94,715.24L470.97,718.12L475.36,718.66Z" class="land" id="CR" title="Costa Rica"/>
    <path d="M518.51,538.97L526.3,540.47L532.81,539.83L535.95,542.15L539.47,542.16L543.92,545.06L548.14,549.92L555.22,550.51L561.35,554.24L564.34,557.27L568.77,557.69L578.06,566.2L584.8,568.38L589.04,568.72L589.37,574.18L598.51,575.38L602.58,579.24L606.66,580.57L605.27,583.66L600.56,583.96L594.42,586.24L589.08,586.39L581.82,584.96L571.37,586.36L562.56,586.9L564.91,583.62L569.44,580.46L569.83,575.48L560.58,574.45L555.16,569.54L554.23,562.84L552.15,561.35L546.54,562.17L535.47,557.68L532.57,554.91L526.92,555.06L521.34,553.16L516.81,552.93L518.06,549.06L516.71,545.98L506.58,545.84L497.82,552.59L491.38,553.37L489.33,556.65L486,554.75L486.2,550.34L490.65,546.17L500.85,541.8L508.2,540.69L515.36,538.56ZM506.49,562.04L502.69,563.89L500.57,558.85L505.25,557.42Z" class="land" id="CU" title="Cuba"/>
    <path d="M663.1,699.65L662.44,699.85L660.15,698.46L658.32,696.2L659.32,695.57L660.01,697.17L662.24,698.22Z" class="land" id="CW" title="Curaçao"/>
    <path d="M516.99,594.24L519.91,594.27L517.66,595.35Z" class="land" id="KY" title="Cayman Islands"/>
    <path d="M758.33,653.56L756.15,649.57L758.19,648.7Z" class="land" id="DM" title="Dominica"/>
    <path d="M632.64,613.2L633.14,608.83L630.58,605.12L633.93,603.16L633.52,599.49L635.57,597.4L634.95,588.89L637.93,586.32L645.34,586.05L655.01,590.08L657.18,589.56L659.29,594.96L664.25,596.38L671.65,600.67L675.14,605.98L671.04,610.55L667.91,607.86L657.7,607.34L652.38,610.13L648.69,610.62L646.84,608.91L642.05,609.82L636.68,618.88L633.95,617.05Z" class="land" id="DO" title="Dominican Republic"/>
    <path d="M758.76,639.38L756.36,639.41L756.5,636.43L758.04,635.93Z" class="land" id="GP" title="Guadeloupe"/>
    <path d="M750.14,700.33L750.28,697.84L751.64,697.29L751.26,699.73Z" class="land" id="GD" title="Grenada"/>
    <path d="M1258.18,-120.57L1258.01,-117.34L1250.06,-114.94L1246.63,-116.14L1234.37,-114.94L1236.97,-120.28L1243.73,-119.86L1254.8,-122.03ZM1332.09,-173.05L1335.33,-168.33L1325.65,-168.42L1324.38,-172.04ZM1247,-256.2L1278.31,-253.85L1289.21,-250.23L1312.52,-247.7L1281.66,-242.24L1313.02,-242.87L1313.92,-239.36L1323.01,-238.11L1345.85,-236.83L1360.1,-240.67L1387.6,-238.92L1392.93,-236.77L1367.72,-230.34L1348.66,-228.45L1355.39,-226.68L1347.32,-224.7L1325.88,-225.3L1319.23,-220.69L1326.28,-219.45L1327.32,-213.96L1310.38,-207.67L1302.37,-199.48L1310.22,-200.79L1314.91,-194.88L1331.19,-193.21L1329.17,-188.4L1315.76,-190.05L1308.03,-189.6L1299.37,-186.13L1301.66,-183.02L1314.46,-182.18L1319.12,-177L1319.19,-171.03L1309.87,-171.99L1305.91,-170.2L1313.88,-168.12L1320.07,-162.45L1318.54,-160.2L1292.06,-157.26L1309,-155.16L1307.25,-151.02L1297.74,-150.31L1291.72,-148.42L1276.35,-149.91L1292.57,-144.3L1289.08,-134.87L1273.36,-139.35L1267.78,-138.63L1291.05,-129.75L1293.17,-127.24L1294.02,-115.81L1289.97,-114.81L1277.05,-114.9L1272.88,-116.16L1268.36,-123.26L1255.1,-128.35L1255.75,-123.72L1246.28,-120.92L1237.34,-121.43L1228.41,-115.21L1233.18,-114.32L1245.16,-115.2L1247.81,-112.13L1256.32,-113.72L1278,-110.84L1278.46,-108.03L1272.24,-104.92L1244.47,-93.29L1217.46,-88.65L1211.59,-88.81L1200.49,-85.73L1190.14,-89.71L1187.81,-84.01L1178.7,-80.35L1167.53,-69.14L1161.71,-65.51L1143.27,-57.92L1129.27,-54.93L1120.75,-55.33L1107.64,-54.47L1110.78,-51.75L1099.04,-46.37L1102.47,-40.84L1097.2,-36.4L1096.74,-31.22L1091.2,-28.51L1089.94,-25.43L1077.51,-16.35L1074.62,-10.98L1075.9,-7.15L1071.88,-2.99L1066.67,7.04L1060.96,12.74L1058.13,18.06L1050.51,18.1L1037.94,14.45L1036.76,10.3L1032.42,9.03L1034.28,2.74L1024.65,6.41L1015.34,6.24L1005.43,0.39L1002.79,-3.68L1002.33,-12.01L995.5,-15.12L996.56,-19.71L993.32,-22.57L988.25,-30.15L989.39,-33.51L987.74,-38.29L984.95,-40.02L986.11,-49.4L982.87,-54.91L978.61,-54.94L981.01,-59.77L976.77,-61.99L977.6,-65.24L985,-70.41L978.06,-74.25L984.3,-79.7L983.82,-82.95L989.38,-87.53L992.06,-92.49L999.42,-93.61L1003.78,-91.72L1009.57,-94.08L1013.01,-99.82L1021.25,-108.67L1005.27,-110.16L999.06,-113.1L990.28,-114.55L986.73,-117.39L990.54,-119.35L1002.95,-118.52L1013.62,-114.77L1019.4,-121.17L1002.34,-125.26L1006.52,-127.52L1000.38,-129.17L988.01,-125.91L980.44,-128.14L985.45,-134.76L984.33,-138.82L992.59,-141.04L994.08,-143.76L986.19,-145.35L990.71,-148.33L984.72,-151.78L987.83,-155.7L982.32,-159.45L983.59,-164.65L970.95,-172.79L973.23,-176.23L950.49,-181.74L933.17,-183.53L901.19,-179.38L890.08,-180.48L880.89,-183.44L884.12,-187.38L871.76,-189.4L875.48,-192.98L889.66,-192.99L898.15,-195.01L912.86,-195.15L912.54,-198.29L900.38,-196.53L888.12,-195.96L870.98,-200.66L862.88,-203.83L868.63,-207.13L900.14,-210.87L914.74,-213.59L927.74,-213.75L933.72,-215.92L943.23,-222.7L926.45,-223.46L927.43,-226.86L952.1,-232.66L966.11,-234.68L978.56,-233.97L984.45,-239.85L1007.1,-243.1L1041.31,-245.48L1057.04,-245.21L1070.06,-241.25L1080.32,-241.97L1072.37,-246.47L1089.41,-245.97L1115.75,-240.62L1122.08,-240.81L1126.9,-245.63L1111.6,-250.89L1139.58,-253.54L1154.1,-252.2L1162.74,-254.21L1183.68,-255.53L1222.88,-256.5ZM1000.34,-108.78L1006.23,-107.11L1004.33,-103.24L989.57,-100.4L988.66,-103.45L980.14,-104.72L981.55,-111.4L986.5,-113.29L995.43,-112.13Z" class="land" id="GL" title="Greenland"/>
    <path d="M418.82,616.45L414.74,644.23L418.96,644.29L426.91,646.62L416.83,655.1L413.39,659.1L413.65,662.85L411.02,665.61L404.22,670.96L401.05,675.42L394.99,672.64L388.33,672.69L380.44,668.32L375.76,663.74L378.53,656.09L377.52,652.53L384.24,641.69L400.12,641.66L401,637.05L397.91,632.46L390.24,624.53L395.36,624.58L396.38,616.43Z" class="land" id="GT" title="Guatemala"/>
    <path d="M488.35,657.27L485.2,657.04L476.2,661.05L470.85,662.46L467.11,659.91L463.01,664.03L462.54,666.66L454.4,673.87L450.09,671.7L447.57,674.95L442.6,675.04L442.32,681.54L437.61,686.19L434.16,686.37L432.74,680.97L428.78,680.3L430.54,674.33L425.39,671.81L421.53,673.77L414.67,666.86L411.02,665.61L413.65,662.85L413.39,659.1L416.83,655.1L426.91,646.62L434.7,644.01L443.24,646.14L450.05,645.84L457.42,642.66L460.97,644.16L467.38,642.85L475.91,645.27L481.23,653.98L486.08,653.69Z" class="land" id="HN" title="Honduras"/>
    <path d="M634.95,588.89L635.57,597.4L633.52,599.49L633.93,603.16L630.58,605.12L633.14,608.83L632.64,613.2L629.33,610.46L619.2,611.57L613.1,610.13L608.57,611.02L606.67,613.16L600.56,608.76L603.38,604.17L610.97,606.21L620.67,607.48L626.43,604L621.34,598.26L623.22,592.91L619.21,590.45L618.87,586.2L624.74,586.24L629.6,588.51Z" class="land" id="HT" title="Haiti"/>
    <path d="M565.87,607.15L570.1,608.12L576.59,611.57L577.94,615.02L574.02,615.7L570.14,614.15L563.7,616.18L558.77,615.54L554.14,607.28L558.46,606.21Z" class="land" id="JM" title="Jamaica"/>
    <path d="M743.84,624.77L741.39,623.33L742.01,622.42L742.95,623.12Z" class="land" id="KN" title="Saint Kitts and Nevis"/>
    <path d="M761.77,674.19L759.78,672.83L762.05,671.46Z" class="land" id="LC" title="Saint Lucia"/>
    <path d="M740.14,612.78L738.76,612.78L739.56,612.1Z" class="land" id="MF" title="Saint Martin"/>
    <path d="M340.03,498.36L338.02,503.82L333.04,512.11L329.41,521.17L325.4,536.89L324.74,542.16L322.58,546.77L322.81,561.57L326.86,575.9L333.38,586.7L334.32,594.31L337.46,598.51L338.87,602.84L346.6,603.63L350.95,606.32L353.39,611.24L357.81,610.94L366.06,607.54L374.32,606.99L376.73,604.91L385.95,603.4L387.58,606.96L390.86,607.16L394.34,604.73L394.03,600.73L402.28,594.19L403.59,588.72L406.22,586.09L407.8,576.75L410.33,570.18L417.4,566.34L429.16,564.32L438.69,561.39L449.08,563.84L450.93,561.31L454.23,564.21L454.32,568.14L452.65,571.99L447.55,577.46L443.76,583.33L443.29,590.84L437.09,607.31L435.66,609.87L432.25,603.35L430.6,606.94L427.76,607.31L423.44,614.27L420.5,613.77L418.82,616.45L396.38,616.43L395.36,624.58L390.24,624.53L397.91,632.46L401,637.05L400.12,641.66L384.24,641.69L377.52,652.53L378.53,656.09L375.76,663.74L369.57,655.16L357.39,641.93L352.13,638.59L348.46,639.78L345.88,636.66L338.19,643.08L328.5,647.14L324.77,647.74L316.9,644.02L309.98,643.19L305.67,639.72L301.14,638.3L298.57,634.97L287.49,632.29L283.76,629.39L274.16,625.34L265.8,618.81L263.31,614.89L253.13,612.87L244.57,609.06L239.87,601.78L228.36,594.81L223.24,585.15L221.92,579.23L227.38,576.42L225.02,573.56L228.98,568.59L230.25,563.21L227.86,561.36L226.15,556.01L227.09,551.08L226.11,546.72L220.23,538.49L215.69,528.55L209.91,521.6L210.48,519.73L205.53,517.9L202.18,509.5L198.34,506.15L195.16,505.34L191.63,501.76L192.12,497.33L195.73,493.37L193.65,487.49L190.35,487.59L189.33,482.13L183.74,478.6L183.23,473.79L185,470.74L178.25,469.25L175.55,463.19L173.36,461.94L169.61,453.98L169.82,450.33L166.4,439.94L166.6,435.37L165.16,428.2L167.47,422.61L161.3,420.18L158.62,416.07L155.72,417.84L148.75,413.62L145.57,422.94L145.88,432.37L144.6,436.27L146.3,442.19L151.27,447.86L153.26,455.31L156.3,457.17L156.58,461.33L158.93,462.6L158.4,471.29L162.19,475.69L164.1,483.76L168.51,487.53L169.43,495.98L168.82,500.85L171.08,504.66L173.07,515.39L171.76,518.26L172.89,523.72L179.12,524.29L184.38,534.36L183.17,538.21L176.58,542.98L174.95,541.25L173.32,532.55L170.47,530.63L166.64,525.3L162.67,522.04L156.35,514.64L156.32,511.68L158.61,505.23L158.58,499.07L157.12,494.7L150.61,489.34L149.32,485.36L144.13,487.33L142.06,483.77L135.68,480.11L135.3,477.03L130.95,472.6L139.77,470.61L144.82,462.57L144.32,459.97L137.14,448.66L130.48,443.27L130.97,435.31L129.27,433.71L130.08,428.05L127.98,425.64L128.51,422.27L126.14,417.01L127.85,412.85L125.79,410.73L124.82,402.95L154.05,400.31L151.83,403.31L176.79,414.06L191.87,420.5L204.48,420.47L225.48,420.42L227.28,413.9L248.1,414.03L249.57,417.3L258.42,428.01L261.36,430.34L263.04,437.77L263.53,444.41L267.2,448.64L276.07,454.23L281.18,451.1L284.54,444.89L290.88,441.6L300.44,442.96L307.39,453.26L309.3,464L313.91,472.68L316.33,475.32L315.51,482.75L317.78,491.31L329.03,496.87L332.36,497.19L337.22,499.68Z" class="land" id="MX" title="Mexico"/>
    <path d="M749.21,632L749.07,632.85L748.26,632.59L748.3,631.83Z" class="land" id="MS" title="Montserrat"/>
    <path d="M763.23,664.47L760.28,664.87L758.67,659.99L762.32,660.99Z" class="land" id="MQ" title="Martinique"/>
    <path d="M488.35,657.27L486.28,660.79L487.12,666.7L483.91,671.67L481.17,681.44L480.81,694.57L477.09,701.5L478.24,705.68L475.21,710.63L477.62,716.15L475.36,718.66L470.97,718.12L468.94,715.24L464.64,714.2L461.95,715.74L453.37,712.29L451.73,714.05L449.31,710.16L443.46,704.29L440.38,698.25L429.98,687.46L434.16,686.37L437.61,686.19L442.32,681.54L442.6,675.04L447.57,674.95L450.09,671.7L454.4,673.87L462.54,666.66L463.01,664.03L467.11,659.91L470.85,662.46L476.2,661.05L485.2,657.04Z" class="land" id="NI" title="Nicaragua"/>
    <path d="M484.68,757.23L483.43,752.94L484.71,747.56L485,737.33L489.78,735.5L492.04,737.64L493.29,743.36L498.99,744.43L504.14,746.99L510.63,745.45L514.4,742.64L519.71,740.79L526.84,735.19L540.01,737.96L545.1,740.41L553.48,748.75L552.9,752.08L555.06,757.76L553.13,762.5L548.13,764.93L545.99,769.37L542.84,764.82L540.05,757.37L544.09,752.77L539.72,751.8L539.3,749.19L532.47,743.86L528.06,743.73L524.89,745.97L523.92,749.66L519.08,753.2L516.02,754.08L514.76,757.14L519.24,763.05L514.47,768.71L509.39,769.5L507.35,762.42L504.39,763.65L501.53,762.27L499.03,756.26L487.34,753.61Z" class="land" id="PA" title="Panama"/>
    <path d="M702.35,607.33L708.41,608.25L708.33,610.26L703.7,614.14L698.3,614.48L688.68,613.85L689.81,606.54Z" class="land" id="PR" title="Puerto Rico"/>
    <path d="M411.02,665.61L414.67,666.86L421.53,673.77L425.39,671.81L430.54,674.33L428.78,680.3L427.07,683.46L419.89,683.41L410.81,679.16L404.41,677.97L401.05,675.42L404.22,670.96Z" class="land" id="SV" title="El Salvador"/>
    <path d="M880.64,197.27L880,194.03L881.11,193.99L880.45,195.64Z" class="land" id="PM" title="Saint Pierre and Miquelon"/>
    <path d="M738.76,612.78L740.14,612.78L739.93,613.49Z" class="land" id="SX" title="Sint Maarten"/>
    <path d="M639.67,559.24L637.66,558.86L638.06,557.97L639.7,558.24Z" class="land" id="TC" title="Turks and Caicos Islands"/>
    <path d="M757.52,727.45L755.47,728.27L751.57,725.51L752.18,721.6L750.74,718.59L757.6,719.72Z" class="land" id="TT" title="Trinidad and Tobago"/>
    <path d="M108.08,41.44L112.46,41.68L111.48,46.55L107.99,52.46L100.02,56.21L103.54,50.51L103.23,48.43ZM98.02,40.34L103.67,42.92L97.6,50.12L94.77,48.11L88.88,47.94L86.68,43.97L88.48,42.32ZM-84.1,45.94L-79.79,45.58L-83.1,50.88L-86.95,50.9L-92.12,53.79L-102.55,57.11L-109,58.03L-108.27,52.48L-100.51,48.43L-96.17,49ZM97.26,52.26L94.88,60.75L90.86,66.36L88.45,59.36L91.77,56.61L88.43,52.72L95.09,49.84ZM110.67,56.92L113.81,58.58L107.23,64.17L103.14,64.18L106.07,56.05ZM102.67,59.05L101.6,62.58L96.46,64.86L98.6,59.14ZM115.48,68.95L109.45,69.38L116.26,63.71ZM102.36,65.86L105.98,66.12L108.27,74.67L106.54,77.43L108.72,81.14L105.04,86.63L98.75,83.33L98.58,73.18L101.88,71.5ZM121.76,77.34L118.67,80.36L110.59,80.96L118.06,72.71L122.93,71.03ZM-226.55,84.24L-228.04,87.57L-236.91,89.14L-244.83,92.09L-245.69,89.32L-238.82,85.6L-230.04,83.45ZM-272.01,98.96L-272.98,102.37L-278.42,104.77L-281.77,104.09L-275.18,98.12ZM477.67,172.23L481.84,172.29L495.16,180.07L503.4,178.07L503.95,179.42L511.23,179.23L517.62,180.95L531.08,176.63L541.7,183.02L562.93,196.4L564.34,202.66L568.88,201.36L569.12,207.93L573.3,207.48L572.19,211.74L581.74,218.41L578.7,243.72L573.56,250.83L570.14,257.24L562.8,261.88L560.68,266.54L564.61,270.86L567.47,270.86L582.85,263.2L595.2,260.95L610.68,254.7L611.81,245.2L617.56,242.94L639.05,242.88L644.75,236.77L662.54,224.78L668.24,223.29L690.06,223.26L704.07,223.23L707.28,219.22L711.98,219.61L721.13,210.48L722.98,205.58L727.41,199.1L738.79,188.46L742.39,192.12L748.71,189.98L753.28,193.82L748.46,213.37L752.03,214.78L750.42,219.42L753.94,220.93L753.15,224.97L742.64,231.12L738.66,230.35L734.2,233.16L730.7,231.4L728.31,236.19L719.11,240.36L714.59,240.92L709.24,246.89L703.9,254.37L704.41,256.61L699.7,261.45L702.85,262.91L704.59,271.54L701.4,272.87L692.96,271.45L690.99,275.1L675.46,276.73L666.2,280.23L657.38,286.18L659.5,290.2L654.93,298.87L650.87,303.77L644.65,307.25L640.05,304.44L638.76,308L640.9,316.51L631.53,329.1L631.86,324.44L626.82,318.56L628.98,311.47L625.09,310.81L624.05,316.09L624.65,325.32L622.89,333.08L620.82,335.15L624.53,339.49L624.98,343.2L620.78,348.65L616.12,352.29L623.98,354.15L623.18,357.81L617.6,362.06L613.37,363.26L609.64,368.03L609.07,371.43L604.37,371.41L595.84,377.55L591.63,382.95L584.86,383.52L580.18,386.63L574.42,394.22L564.08,401.69L561.49,402.33L552.8,409.03L547.47,414.99L547.23,417.5L541.26,427.02L541.48,442.72L543.68,453.52L546.71,461.71L544.43,466.14L547.1,480.28L548.01,482.08L547.8,489.55L545.07,500.22L541.02,507.51L536.16,510.04L532.17,507.68L530.11,500.25L526.24,498.05L525.49,491.48L520.1,482.42L519.12,472.85L517.25,471L521.11,461.72L522.28,455.88L516.17,447.68L512.68,440.8L509.01,438.22L504.41,441.07L492.59,444.37L492.74,441.53L488.78,437.3L484.27,434.89L483.76,432.57L474.9,433.47L464.9,435.49L461.01,434.41L451.99,433.7L446.83,434.71L443.08,437.32L436.15,434.22L433.18,437.68L442.31,440.96L439.85,445.25L441.73,448.15L447.04,451.3L442.61,453.23L437.5,447.6L434,451.61L431.01,449.96L426.08,452.34L420.11,450.05L420.3,446.78L414.58,442.1L409.33,446.16L404.55,445.58L399.09,442.93L392.87,443.07L387.72,444.51L377.35,448.87L371.47,454.78L361.35,460.25L356.25,460.13L354.19,463.44L346.37,466.67L345.37,470.52L341.47,477.19L339.43,478.72L338.03,483.75L338.19,492.04L340.03,498.36L337.22,499.68L332.36,497.19L329.03,496.87L317.78,491.31L315.51,482.75L316.33,475.32L313.91,472.68L309.3,464L307.39,453.26L300.44,442.96L290.88,441.6L284.54,444.89L281.18,451.1L276.07,454.23L267.2,448.64L263.53,444.41L263.04,437.77L261.36,430.34L258.42,428.01L249.57,417.3L248.1,414.03L227.28,413.9L225.48,420.42L204.48,420.47L191.87,420.5L176.79,414.06L151.83,403.31L154.05,400.31L124.82,402.95L125.1,394.73L124.23,391.89L118.97,385.71L115.18,385.39L115.33,381.42L108.28,380.06L104.31,375.62L94.28,374.85L92.89,373.27L95.46,366.08L94.25,361.89L87.31,347.9L90.44,342.1L90.48,339.1L87.45,338.36L85.93,335.22L88.53,326.12L84.15,322.38L84.94,319.78L80.24,310.68L83.68,296.94L80.96,291.31L81.85,287.87L87.49,280.99L90.78,275.03L92.12,264.43L94.47,257.83L94.42,254.55L104.57,241.99L112.81,226.5L119.72,215.15L123.42,207.15L122.99,205.18L127.72,199.8L126.29,198.6L129.47,185.7L128.55,182.24L131.89,175.62L137.61,178.53L149.34,179.62L150.09,182.56L155.6,180.74L156.74,166.95L190.64,166.95L218.74,166.95L242.15,166.95L274.93,166.95L303.03,166.95L321.76,166.95L340.49,166.95L368.59,166.95L392,166.95L424.77,166.95L460.14,166.96L462.35,161.67L465.28,162.58L464.69,170.46L473.54,173.5ZM678.35,280.75L669.37,285.53L662.6,286.4L662,283.54L665.95,281.71ZM-428.3,556.8L-432.93,555.22L-429.65,552.59L-426.9,552.64ZM-410.99,563.7L-415.32,565.7L-416.27,561.84L-412.03,560.16ZM-396.97,571.3L-394.34,571.02L-393.39,575.46L-397.53,575.86ZM-392.67,599.11L-396.15,598.27L-395.21,593.76L-395.87,588.43L-392.15,584.61L-391.36,580.82L-384.62,584.89L-381.42,591.7L-385.17,594.66L-388.51,595.52ZM168.46,-105.21L141.51,-76.46L121.74,-54.52L105.55,-35.99L86.48,-13.47L64.75,13.17L74.01,14.71L78.54,12.8L84.77,12.6L81.01,16.01L88.57,27.31L86.92,31.59L98.24,28.29L105.4,22.31L115.93,19.83L118.14,22.66L116.37,26.5L122.21,34.22L123.19,40.62L124.37,59.75L125.61,62.36L133.74,67.32L135.39,71.95L131.46,76.05L129.99,79.94L125.7,83.63L119.61,87.11L117.04,86.59L118.06,81.84L121.86,79.16L124.63,74L123.25,70.27L110.76,74.2L118.76,68.28L116.77,56.43L111.22,54.66L115.26,47.66L114.93,40.78L109.92,37.55L102.55,40.19L99.92,35.92L94.93,38.93L89.22,40.33L82.61,35.86L79.37,29.15L69.21,23.09L66.79,20.71L60.62,20.42L54.48,17.51L42.8,15.84L33.15,16.94L25.43,12.71L16.84,10.83L12.71,3.95L5.59,4.07L-3.86,5.92L-9.96,14.91L-14.31,17.25L-24.4,17.1L-37.04,22.82L-40.99,22.85L-48.43,27.08L-57.03,27.81L-55.74,24.93L-48.03,17.27L-42.73,14.45L-35.3,7.37L-23.19,3.7L-21.77,0.08L-37.57,5.17L-39.51,7.21L-54.58,13.99L-59.25,18.15L-63.31,18.75L-79.17,25.51L-82.36,28.72L-76.76,31.84L-88.28,37.04L-94.35,41.47L-103.82,43.38L-116.83,49.36L-126.8,52.58L-129.25,55.56L-146.01,61.89L-156.97,64.56L-158.18,67.78L-165.9,70.61L-181.6,73.64L-188.28,76.42L-196.68,78.47L-203.62,78.67L-213.68,83.3L-226.25,85.66L-204.3,74.23L-191,70.15L-189.97,73.51L-186.17,72.13L-178.11,66.2L-163.23,61.16L-146.31,52.98L-135.46,48.91L-125.26,37.99L-115.99,33.8L-116.09,31.93L-127.89,35.08L-130.41,32.29L-140.79,37.34L-141.71,31.48L-147.19,29.63L-161.96,34.68L-166.7,35.45L-162.26,30.09L-161.48,26.56L-155.84,22.53L-152.96,14.77L-158.6,17.25L-166.96,19.14L-174.46,19.65L-176.08,13.12L-180.17,10.01L-170.25,5.42L-175.33,2.67L-171.67,-6.45L-166.14,-7.31L-164.17,-10.3L-154.28,-15.13L-136.99,-24.68L-133.41,-25.27L-128.7,-22.5L-109.77,-27.73L-99.77,-29.08L-93.32,-32.41L-89.93,-37.93L-85.24,-42.1L-83.35,-46.48L-90.35,-45.11L-106.31,-39.5L-112.48,-42.21L-125.81,-40.6L-136.45,-42.15L-134.61,-46.51L-136.41,-48.66L-131.62,-51.72L-137.71,-52.78L-141.24,-55.75L-128.43,-58.51L-122.91,-60.7L-96.11,-67.01L-87.73,-66.71L-94.38,-62.76L-92.83,-61.11L-74.97,-60.73L-69.9,-63.2L-54.86,-65.33L-57.74,-68.46L-64.45,-66.97L-66.94,-68.83L-63.42,-73.18L-73.7,-72.9L-78.4,-75L-76.8,-80.1L-82.96,-85.53L-86.93,-86.89L-87.27,-90.21L-79.33,-95.86L-60.57,-96.48L-43.65,-102L-36.65,-106.51L-18.81,-113.46L-10.91,-113.13L12.52,-120.05L24.32,-119.65L41.92,-125.34L54.01,-122.7L59.14,-119.12L69.8,-120.7L77.53,-119.23L75.64,-114.91L81.94,-114.51L101.24,-115.51L112.34,-112.08L129.26,-111.39L133.3,-109.55L153.14,-110.86L164.67,-105.24ZM-201.5,-30.12L-190.47,-30.88L-189.14,-28.22L-181.78,-24.11L-192.02,-23.11ZM-73.21,38.8L-72.22,41.45L-83.07,43.64L-86.2,42.43L-74.87,37.6ZM-190.08,12.08L-186.81,12.98L-190.37,18.26L-198.17,20.09L-204.98,17L-193.56,12.09Z" class="land" id="US" title="United States"/>
    <path d="M757.75,683.79L756.52,683.04L757.83,680.92L758.49,681.83Z" class="land" id="VC" title="Saint Vincent and the Grenadines"/>
    <path d="M723.65,607.04L723.33,606.34L724.58,606.28Z" class="land" id="VG" title="British Virgin Islands"/>
    <path d="M718.27,616.74L719.14,618.02L716.64,618.08L716.78,617.07Z" class="land" id="VI" title="US Virgin Islands"/>
    <path d="M669.92,698.42L668.94,698.03L667.97,696.79L668.03,696.15L669.83,697.17Z" class="land" id="BQ" title="Bonair, Saint Eustachius and Saba"/>
  </g>
</svg>