<?xml version="1.0" encoding="UTF-8"?>
<svg xmlns="http://www.w3.org/2000/svg" width="966.6" height="210.36" viewBox="-3.3 151.32 966.6 210.36">
  <!-- Created using SVG Map Generator: dojo.amcharts.com/svg-map-generator -->
  <style>
    .land { fill: #ffffff; stroke: #299e8b; stroke-width: 1.3; }
  </style>
  <rect x="-3.3" y="151.32" width="966.6" height="210.36" fill="#417ea4"/>
  <g id="polygons">
    <path d="M210.98,240.73L210.91,240.46L210.99,240.58Z" class="land" id="TV" title="Tuvalu"/>
    <path d="M181.83,154.75L181.72,154.67L181.78,154.62L181.85,154.66Z" class="land" id="UM-WQ" title="Wake Island"/>
    <path d="M179.89,260.12L181.04,261.07L181.37,262.16L180.45,262.62L179.84,261.91L179.33,260.19Z" class="land" id="VU" title="Vanuatu"/>
    <path d="M67.38,243.69L66.8,241.93L67.37,241.02L68.99,240.54L71.15,240.44L72.01,241.23L68.2,242.96Z" class="land" id="TL" title="Timor-Leste"/>
    <path d="M159.57,240.67L156.96,239.15L157.37,238.72L159.42,240.03ZM159.42,242.95L161.83,243.93L162,244.98L159.84,244.55L159.15,243.75ZM161.82,239.99L162.56,240.91L163.44,243.09L162.37,242.59L161.42,240.17Z" class="land" id="SB" title="Solomon Islands"/>
    <path d="M140.4,229.01L139.6,228.21L139.32,226.66L140.75,227.45ZM148.71,234.97L148.11,235.51L147.09,235.07L146.62,233.8L145.44,232.76L145.94,231.43L147.3,233.29L148.29,234.02ZM137.54,227.59L138.85,227.73L138.89,228.93L137.9,229.77L138.31,230.86L137.6,231.5L136.67,231.46L135.97,232.6L133.91,233.7L131.85,233.74L130.42,233.24L128.41,232.12L128.22,231.44L129.96,231.26L130.63,231.53L133.43,231.41L135.15,231.07L136.07,229.64L136.97,229.4L136.58,227.74ZM109.5,242.48L108.89,235.64L108.37,227.37L108.18,222.38L108.75,222.44L111.53,223.85L115.03,224.92L116.42,226.01L117.65,226.14L119.35,227.75L120.02,227.86L121.23,229.22L121.57,231.22L123.07,231.66L124.8,232.6L125.72,232.69L126.93,233.82L127.12,234.89L125.2,235.07L124.82,235.71L125.54,237.1L127.08,238.64L128.21,239.34L128.66,240.73L129.69,242.27L131.46,242.33L131.45,243.37L133.42,245.24L135.6,245.99L135.24,247.17L133.99,246.98L133.21,246.29L127.85,245.41L124.67,242.19L122.64,239.26L119.75,238.41L118.46,237.69L116.24,239.64L114.89,239.98L115.8,241.99L114.01,243.12L112.85,242.63L109.95,242.79Z" class="land" id="PG" title="Papua New Guinea"/>
    <path d="M92.04,191.56L91.81,191.39L91.99,190.9L92.28,190.69Z" class="land" id="PW" title="Palau"/>
    <path d="M217.48,342.12L218.66,341.23L220.08,341.32L220.14,342.81L220.89,343.54L220.04,345.92L219.83,347.33L218.96,348.19L220.26,350.13L218.89,349.94L217.01,350.87L217.42,353.63L217.31,355.59L216.1,358.22L213.07,358.38L210.81,357.13L208.55,357.14L207.62,355.16L207.91,353.39L209.52,350.71L210.46,350.43L211.99,349.21L212.91,347.73L213.75,347.18L214.41,345.76L214.13,343.7L214.98,342.63L214.7,341.1L215.41,339.78L216.66,340.79ZM210.92,322.52L212.45,322.8L213.86,323.48L214.57,325.12L216.14,326.78L216.49,328.42L218.08,328.9L217.95,327.29L219.48,328.79L220.77,330.91L224.19,331.98L225.4,330.63L226.86,331.06L227.09,333.71L226.55,334.24L226.97,335.54L225.53,335.35L224.72,336.23L225.44,337.18L225.32,338.67L224.42,341.92L223.24,343.14L221.21,342.15L221.72,340.1L221.57,339.07L220.58,338.04L217.43,336.67L216.79,335.53L218.26,334.43L218.01,331.4L217.14,330.3L216.74,328.74L215.98,328.74L215.4,327.21L213.86,326.37L210.8,323.36Z" class="land" id="NZ" title="New Zealand"/>
    <path d="M177.37,215.93L177.25,216.02L177.25,215.87Z" class="land" id="NR" title="Nauru"/>
    <path d="M191.95,304.14L192.11,304.32L191.96,304.34Z" class="land" id="NF" title="Norfolk Island"/>
    <path d="M175.96,276.91L176.59,277.02L178.86,278.53L180.39,280.07L184.25,282.62L183.99,283.51L179.45,280.87L176.97,278.71Z" class="land" id="NC" title="New Caledonia"/>
    <path d="M124.63,167.6L124.45,167.63L124.57,167.35L124.74,167.47Z" class="land" id="MP" title="Northern Mariana Islands"/>
    <path d="M189.1,192.31L189.42,192.47L189.35,192.51L189.08,192.4Z" class="land" id="MH" title="Marshall Islands"/>
    <path d="M197.51,216.81L197.43,216.72L197.35,216.33L197.41,216.32Z" class="land" id="KI" title="Kiribati"/>
    <path d="M108.18,222.38L108.37,227.37L108.89,235.64L109.5,242.48L106.43,239.33L105,239.6L103.58,239.47L104.04,237.75L103.05,236.71L103.26,235.5L102.01,233.91L100.82,231.2L98.14,229.53L95.11,228.31L93.01,228.07L90.12,226.05L88.75,224.71L87.76,226.87L87.02,226.97L86.39,225.76L86.34,224.5L85.22,223.51L87.42,221.85L88.54,222.19L89.34,220.82L86.8,221.35L85.05,221.25L84.27,220.47L83.99,219.15L82.29,218.63L82.17,216.97L83.62,216.51L84.48,215.73L85.8,215.44L88.07,216.57L89.41,216.63L90.19,218.54L89.8,219.64L89.97,221.11L92.43,224.62L93.63,224.65L95.57,222.3L95.93,221.35L97.14,221.11L97.86,220.01L99.66,218.91L101.92,219.86L105,221.58L107.23,221.88ZM952.09,209.81L953.31,211.33L953.18,212.4L951.91,211.41ZM65.19,211.26L63.94,212.88L62.15,213.39L60.84,213.33L60.36,212.84L57.05,212.99L55.94,212.81L53.07,212.95L52.47,213.82L52.17,215.28L52.4,216.34L53.53,217.54L53.95,218.56L54.93,218.67L56.2,216.97L57.4,217.21L58.22,216.67L59.85,216.66L58.85,218.49L56.78,220.08L57.17,221.53L58.73,224.21L58.4,225.5L60.13,227.01L60.23,227.75L58.41,228.21L57.7,229.29L56.51,228.47L56.77,226.96L54.82,225.3L55.09,222.82L54.02,222.56L52.99,223.75L53.57,225.77L53.67,228.58L53.4,230.21L53.57,231.43L52.02,231.9L51.06,231.07L51.48,227.98L51.45,226.78L50.82,225.06L49.7,225.25L49.04,222.86L49.83,221.99L50.4,220.29L50.33,218.68L51.53,215.83L51.62,213.6L52.87,211.34L53.52,211.81L54.6,210.36L56.4,211.04L58.65,211.19L59.86,211.71L60.89,211.47L62.41,211.75L63.55,211.18L65.49,209.09L66.13,209.7ZM72.77,211.72L73.92,210.76L74.64,209.65L75.36,210.92L74.28,211.63L75.31,213.22L72.29,212.82L71.95,210.47L72.55,208.65L73.55,209.09L73.53,210.23ZM43.32,200.88L44.78,200.95L45.69,201.4L46.08,203.12L44.84,203.25L45.95,204.88L47.08,207.18L46.52,208.26L47.07,209.08L49.44,211.3L48.24,211.82L47.34,211.64L46.13,212.08L45.53,213.61L45.37,215.33L45.64,216.71L42.99,218.88L42.68,220.67L43.08,221.43L41.61,225.43L38.34,227.2L37.81,225.12L36.57,224.45L35.83,225L35.08,224.16L33.6,224.17L32.64,224.82L31.79,224.58L30.58,225.23L30.52,223.77L29.29,223.38L28.45,223.76L27.17,223.25L26.26,223.36L25.56,218.65L24.92,217.45L24.02,217.02L23.23,215.86L23.48,214.24L22.65,213.24L22.56,211.89L23.05,209.72L23.89,208.4L26.83,211.67L27.99,211.2L30.21,211.25L31.03,210.81L32.12,209.52L35.16,210.52L35.91,209.91L37.63,209.81L38.43,208.23L38.33,207.39L39.33,206.64L39.19,205.57L40.2,204.97L40.63,202.18L41.57,200.92ZM0.09,207.31L0.13,207.37L0.72,207.79L1.7,207.37L2.8,209.11L3.61,209.33L5.4,211.93L6.98,212.82L8.08,212.85L8.9,214.19L7.94,214.92L7.95,215.98L8.74,217.07L10.45,217.54L11.37,221.69L13.31,221.68L15.12,223.92L14.66,225.48L15.04,229.79L15,231.85L13.73,231.46L13.06,232.06L11.83,231.37L11.82,232.55L9.58,230.01L5.94,227.14L4.76,225.44L3.23,224.1L1.16,220.95L1.16,220.3L0,217.72L0.09,207.31ZM960,217.72L959.66,216.88L957.78,214.02L956.61,213.25L955.59,209.72L954.94,208.47L952.6,207.06L952.25,205.55L950.49,203.3L949.05,202.56L946.35,199.64L945.47,198.03L945.46,197.16L946.51,197.03L947.93,198L948.9,198.2L948.9,198.2L951.45,198.18L952.75,199.28L953.75,200.71L953.97,201.71L957.91,204.51L959.91,207.31L960,217.72ZM53.91,243.27L55.33,244.19L56.34,245.31L55.4,246.11L54.58,245.82L52.97,244.5L51.57,244.29L51.71,243.3ZM67.38,243.69L65.93,245.66L64.49,246.26L63.63,245.1L63.81,244.01L64.58,243.16L65.61,242.7L66.8,241.93ZM44.67,240.92L44.09,241.89L43.22,241.32L43.07,240.37L43.9,239.65ZM61,240.91L58.09,241.8L56.46,241.91L53.12,241.18L53.33,240.4L55.1,239.76L57.43,240.81L58.78,240.43L59.62,240.95L60.45,240.26ZM48.83,240L50.82,240.06L51.01,241.34L48.87,241.62L45.97,242.42L45.21,242.13L45.16,240.66L45.98,240.15L47.07,240.34L48.43,239.4ZM41.35,239.5L42.11,240.28L41.01,241.48L38.75,239.39ZM102.76,239.87L102.17,240.27L100.5,239.83L101.18,237.91L101.89,237.29L103.14,237.14L103.81,238.08ZM83.51,239.02L82.84,238.61L83.19,237.39L84.33,237.29ZM36.75,236.26L35.79,236.61L33.89,236.37L34.1,235.63L37.03,235.54ZM91.65,234.21L91.25,235.36L90.45,235.22L90.6,233.39ZM19.23,232.87L20.07,233.51L21.75,233.66L22.91,235.29L27.61,235.77L28.31,234.3L29.47,234.91L30.49,234.85L32.02,235.61L33.23,235.71L34.1,237.64L35.36,238.15L37.52,237.89L38.59,238.7L38.61,240.27L39.26,241.4L35.56,239.91L34.07,240.28L30.93,239.96L28.48,239.48L26.88,238.68L24.8,238.11L23.35,237.99L22.63,238.39L21.18,238.17L19.42,237.39L17.66,237.22L17.25,236.1L14.41,235.26L15.75,232.58L17.79,233.15L18.33,232.55ZM92.05,231.94L92.17,233.37L91.37,233.88L90.97,231.96ZM59.73,230.59L58.89,229.04L59.75,228.58ZM70.61,223.86L71.62,224.8L71.66,225.54L70.24,226.13L68.95,225.46L68.4,224.12ZM78.3,223.18L79.98,223.56L81.33,225.35L81.22,226.24L78.59,224.6L77.6,224.99L76.25,224.6L74.8,224.87L73.88,224.16L74.15,223.18L77.42,222.94ZM20.87,223.58L19.32,224.24L19.38,222.25L20.47,222.35ZM65.44,219.6L63.99,220.52L63.87,219.54ZM93.44,219.24L95.39,219.44L95.38,220.07ZM14.98,219.48L15.9,221.94L16.76,222.68L16.46,223.76L14.97,223.05L14.33,221.06L12.58,220.64L13.74,219.04ZM73.93,219.46L72.35,219.67L72.56,218.44ZM956.55,219.82L955.79,219.47L955.09,218.03L955.82,217.16L956.84,219.36ZM93.16,216.34L94.53,216.57L94.39,217.79Z" class="land" id="ID" title="Indonesia"/>
    <path d="M121.07,173.4L120.9,172.87L121.32,172.57Z" class="land" id="GU" title="Guam"/>
    <path d="M155.01,193.31L154.66,193.35L154.56,192.91L154.99,192.89Z" class="land" id="FM" title="Federated States of Micronesia"/>
    <path d="M211.39,268L212.33,268.86L212.73,270.19L210.65,270.73L209.19,270.18L208.94,269.52L209.69,268.27ZM215.4,264.27L214.85,265.13L215.45,266.05L213.09,266.54L212.45,265.7L214.25,264.52Z" class="land" id="FJ" title="Fiji"/>
    <path d="M16.44,246.72L16.4,246.94L16.08,246.78L16.36,246.53Z" class="land" id="CX" title="Christmas Island"/>
    <path d="M947.19,251.94L947.21,251.96L947.26,251.94L947.27,251.96L947.2,251.99Z" class="land" id="CC" title="Cocos (Keeling) Islands"/>
    <path d="M148.08,340.61L148.64,340.55L151.76,341.76L154.31,341.27L155.24,340.58L156.28,341.1L157.93,344.46L157.82,346.09L158.86,347.88L157.06,347.07L156.9,349.27L154.78,349.07L151.31,346L150.43,344.39L148.38,342.55L147.4,341.2ZM122.42,325.01L122.51,326.05L120.72,325.92L120.04,325.04L121.57,324.56ZM100.1,256.96L100.82,258.47L99.39,258.27L99.36,257.14ZM82.85,249.45L84.49,248.87L85.31,249.64L83.97,251.15L83.08,250.58ZM116.37,251.24L116.34,252.32L117.25,253.36L118.1,255.84L118.13,256.76L118.97,258.64L119.57,258.99L120.81,258.28L121.4,259.09L123.31,260.48L123.54,262.13L124.34,263.92L124.45,265.01L126.08,267.06L127,268.81L127.14,270.79L128.11,271.66L128.83,273.29L130.75,274.26L131.48,274.21L133.1,275.74L135.59,277.04L135.59,277.94L137.33,279.63L139.58,283.71L140.35,282.85L141.85,284.08L142.45,284.13L143.32,286.87L144.38,287.88L146.65,289.18L147.56,290.41L148.57,291.04L150.27,293L151.37,294.65L151.45,295.71L152.32,298.48L154.45,301.73L155.1,303.63L154.86,304.99L155.25,306.86L155.31,308.94L155.99,311.65L155.66,313.55L155.86,314.77L154.7,316.21L154.37,317.59L154.52,319.71L154.15,320.54L154.52,323.27L154.08,325.3L154.77,328.44L155.59,330.55L154.37,331.4L151.84,331.49L150.21,332.69L149.49,334.06L147.54,334.8L146.86,334.07L143.43,332.66L141.5,334.54L138.68,333.4L136.23,332.85L135.62,333.13L133.16,332.1L129.96,329.68L129.34,327.87L127.79,326.12L125.97,324.86L123.73,324.62L123.76,322.79L123.37,321.99L121.59,320.14L121.86,323.16L119.97,323.46L119.86,322.46L120.8,322.45L120.08,320.12L120.44,318.31L119.77,317.14L118.72,317.11L118.75,318.47L117.23,319.71L116.46,322.53L113.94,319.33L112.2,317.53L110.75,317.03L109.72,315.73L109.8,315.11L107.62,313.98L105.32,313.27L104.01,313.43L102.37,312.46L100.66,311.84L95.33,312.48L93.57,313.61L91.93,314.23L88.41,314.33L84.99,316.91L84.77,319.11L83.87,319.58L82.65,319.28L81.21,319.59L79.1,319.08L75.4,319.54L74.95,320.76L73.72,321.11L72.57,322.68L71.34,323.02L68.5,322.68L66.88,322.08L65.82,321.25L63.61,320.41L63.14,318.51L63.82,318.16L63.75,317.11L61.69,312.46L59.17,309.7L57.92,307.87L56.83,305.43L54.64,302.67L53.12,301.23L51.9,298.95L49.83,296.5L48.68,293.6L51.16,295.66L50.67,294.3L47.09,289.91L46.72,287.72L46.94,286.75L45.98,284.32L46.04,282.16L47.51,283.4L48.2,281.53L49.54,280.77L50.58,279.34L52.07,278.17L53.95,278.38L55.73,277.31L57.08,276.95L57.79,276.13L59.08,276.26L62.17,275.1L63.34,273.37L63.76,271.42L64.45,269.85L63.79,267.82L65.34,265.1L67.5,268.35L67.75,266.44L66.74,265.27L69.36,264.1L68.63,263L69.47,261.15L70.41,260.48L70.11,259.77L71.25,258.76L72.21,259.09L72.24,257.92L73.48,258.06L74.14,256.77L76.41,258.17L78.11,259.89L81.53,260.45L82.23,260L81.02,258.78L81.68,257.5L81.81,256.24L82.78,255.4L82.37,254.34L82.86,253.51L84.1,253L84.34,251.96L85.42,252.23L87.87,252.12L88.37,251.72L88.37,249.85L89.26,249.69L89.79,250.47L91.75,250.86L92.71,251.4L94,251.33L95.4,252.06L96.77,251.09L97.78,252.68L98.79,251.25L100.04,252.46L99.15,253.8L99.4,254.48L97.78,255.41L98.19,256.98L98.08,258.04L97.13,259.91L97.59,260.66L99.59,261.9L101.4,263.42L101.96,263.37L104.02,264.47L105.73,265.97L107.85,266.53L108.74,267.86L111.04,269.02L112.24,268.78L112.95,268.13L113.51,265.75L113.69,263.97L113.71,260.83L112.67,256.94L112.88,255.27L112.62,252.9L113.1,251.06L113.3,248.12L113.98,247.38L115.21,249.24L115.51,250.83Z" class="land" id="AU" title="Australia"/>
  </g>
</svg>