<?xml version="1.0" encoding="UTF-8"?>
<svg xmlns="http://www.w3.org/2000/svg" width="960" height="513" viewBox="0 0 960 513">
  <!-- Created using SVG Map Generator: dojo.amcharts.com/svg-map-generator -->
  <style>
    .land { fill: #ffffff; stroke: #299e8b; stroke-width: 2.2; }
  </style>
  <rect x="0" y="0" width="960" height="513" fill="#417ea4"/>
  <g id="polygons">
    <path d="M551.6,621.47L549.25,622.29L543.05,615.55L548.1,614.23Z" class="land" id="AW" title="Aruba"/>
    <path d="M1007.68,335.2L999.95,336.68L1002.95,326.93Z" class="land" id="AG" title="Antigua and Barbuda"/>
    <path d="M945.48,261.13L936.79,264.31L937.29,262.49L944.41,258.13Z" class="land" id="AI" title="Anguilla"/>
    <path d="M253.52,-219.81L260.18,-256.5L267.41,-246.72L259.8,-240.91ZM215.33,-144.81L213.06,-129.55L195.79,-118.51L186.76,-147.72L204.23,-172.13ZM215.71,-116.14L219.63,-92.33L205.38,-84.97L203.67,-103.03ZM434.21,75.32L425.42,88.69L398.96,91.3L408.06,75.44Z" class="land" id="BS" title="Bahamas"/>
    <path d="M952.64,282.72L951.08,280.1L954.53,280.71Z" class="land" id="BL" title="Saint Barthelemy"/>
    <path d="M1109.69,582.12L1103.46,580.89L1105.28,567.43L1113.44,577.74Z" class="land" id="BB" title="Barbados"/>
    <path d="M-13.02,-48.06L20.63,-41.59L48.74,-44.31L62.3,-34.3L77.5,-34.24L96.7,-21.75L114.92,-0.75L145.54,1.78L171.99,17.91L184.91,31L204.03,32.79L244.18,69.58L273.27,79.01L291.58,80.44L292.99,104.04L332.48,109.23L350.07,125.87L367.66,131.64L361.66,144.95L341.34,146.3L314.8,156.11L291.74,156.74L260.4,150.59L215.3,156.64L177.23,158.97L187.39,144.79L206.95,131.15L208.65,109.64L168.7,105.19L145.29,84.02L141.24,55.08L132.26,48.61L112.45,52.76L76.03,40.88L47.71,20.8L23.29,21.45L-0.79,13.26L-20.37,12.24L-14.96,-4.46L-20.79,-17.76L-64.54,-18.39L-102.36,10.81L-130.21,14.14L-139.05,28.34L-153.44,20.11L-152.56,1.04L-133.36,-16.95L-89.3,-35.84L-57.55,-40.57L-26.61,-49.79ZM-64.92,51.58L-81.35,59.59L-90.48,37.83L-70.26,31.64Z" class="land" id="CU" title="Cuba"/>
    <path d="M611.43,645.92L608.59,646.8L598.7,640.79L590.81,631.04L595.11,628.29L598.07,635.23L607.73,639.75Z" class="land" id="CW" title="Curaçao"/>
    <path d="M-19.61,190.67L-15.02,189.82L-6.98,190.8L-16.69,195.48Z" class="land" id="KY" title="Cayman Islands"/>
    <path d="M1022.72,446.87L1013.3,429.63L1022.11,425.87Z" class="land" id="DM" title="Dominica"/>
    <path d="M479.89,272.58L482.06,253.68L471,237.63L485.46,229.19L492.52,204.33L489.87,167.55L502.73,156.47L534.74,155.32L576.5,172.69L585.86,170.46L594.99,193.77L616.42,199.9L648.37,218.45L663.42,241.37L645.73,261.13L632.19,249.5L588.13,247.28L565.15,259.28L541.2,254L520.52,257.94L497.32,297.11L485.55,289.17Z" class="land" id="DO" title="Dominican Republic"/>
    <path d="M1024.59,385.61L1014.22,385.75L1014.8,372.87L1021.46,370.73Z" class="land" id="GP" title="Guadeloupe"/>
    <path d="M987.33,648.85L987.93,638.11L993.82,635.72L992.18,646.27Z" class="land" id="GD" title="Grenada"/>
    <path d="M489.87,167.55L492.52,204.33L485.46,229.19L471,237.63L482.06,253.68L479.89,272.58L465.58,260.71L421.84,265.52L395.51,259.31L375.94,263.13L367.73,272.38L341.34,253.37L353.5,233.57L386.28,242.36L428.2,247.85L453.09,232.82L431.09,208.01L439.2,184.92L421.86,174.28L420.39,155.95L445.77,156.14L466.75,165.93Z" class="land" id="HT" title="Haiti"/>
    <path d="M191.52,246.43L209.78,250.63L237.8,265.52L226.72,283.35L209.98,276.65L182.13,285.4L160.87,282.66L140.87,247L159.54,242.39Z" class="land" id="JM" title="Jamaica"/>
    <path d="M960.12,322.51L949.56,316.3L952.23,312.35L956.28,315.43Z" class="land" id="KN" title="Saint Kitts and Nevis"/>
    <path d="M1037.58,535.97L1028.96,530.1L1038.76,524.15Z" class="land" id="LC" title="Saint Lucia"/>
    <path d="M944.14,270.71L938.21,270.71L941.63,267.8Z" class="land" id="MF" title="Saint Martin"/>
    <path d="M983.32,353.73L982.73,357.41L979.23,356.29L979.4,353.02Z" class="land" id="MS" title="Montserrat"/>
    <path d="M1043.88,493.98L1031.11,495.71L1024.17,474.64L1039.93,478.97Z" class="land" id="MQ" title="Martinique"/>
    <path d="M780.97,247.2L807.14,251.18L806.79,259.86L786.79,276.62L763.46,278.1L721.91,275.38L726.79,243.79Z" class="land" id="PR" title="Puerto Rico"/>
    <path d="M938.21,270.71L944.14,270.71L943.25,273.82Z" class="land" id="SX" title="Sint Maarten"/>
    <path d="M510.27,39.48L501.56,37.88L503.28,34.03L510.4,35.18Z" class="land" id="TC" title="Turks and Caicos Islands"/>
    <path d="M1019.22,765.97L1010.38,769.5L993.51,757.59L996.13,740.74L1019.58,732.57Z" class="land" id="TT" title="Trinidad and Tobago"/>
    <path d="M1020.22,577.41L1014.91,574.18L1020.54,565.04L1023.41,568.93Z" class="land" id="VC" title="Saint Vincent and the Grenadines"/>
    <path d="M872.92,245.96L871.56,242.93L876.96,242.66Z" class="land" id="VG" title="British Virgin Islands"/>
    <path d="M849.7,287.85L853.45,293.37L842.68,293.65L843.27,289.25Z" class="land" id="VI" title="US Virgin Islands"/>
    <path d="M640.89,640.63L636.64,638.93L632.48,633.59L632.74,630.82L640.48,635.23Z" class="land" id="BQ" title="Bonair, Saint Eustachius and Saba"/>
  </g>
</svg>