<?xml version="1.0" encoding="UTF-8"?>
<svg xmlns="http://www.w3.org/2000/svg" width="571.88" height="436.01" viewBox="194.06 38.49 571.88 436.01">
  <!-- Created using SVG Map Generator: dojo.amcharts.com/svg-map-generator -->
  <style>
    .land { fill: #ffffff; stroke: #299e8b; stroke-width: 1.3; }
  </style>
  <rect x="194.06" y="38.49" width="571.88" height="436.01" fill="#417ea4"/>
  <g id="polygons">
    <path d="M588.09,224.69L589.83,234.86L591.06,242.06L592.05,247.79L592.47,249.48L593.79,252.57L594.59,255.67L593.61,256.77L592.77,259.72L592.77,260.86L593.42,263.11L593.07,266.15L593.3,268.1L593.87,269.37L584.79,269.38L578.73,269.38L569.64,269.38L569.57,270.91L569.9,271.62L571.25,272.97L571.18,275.08L570.62,276.16L569.37,277.39L567.8,277.1L567.18,275.84L566.54,275.38L566.31,273.45L565.53,272.86L564.57,276.28L562.09,276.24L561.77,269.91L561.28,259.61L561.74,255.52L562.89,245.24L563.8,236.94L565.04,225.46L564.21,224.71L564.05,224.41L571.57,224.5L577.58,224.57Z" class="land" id="US-AL" title="Alabama"/>
    <path d="M549.87,213.18L549.88,214.27L549.17,215.44L548.09,216.08L547.63,216.9L547.79,217.91L547.41,218.93L546.49,219.95L546.1,221.1L546.24,222.37L545.77,223.39L544.35,224.69L544.11,225.85L543.21,226.39L542.06,227.8L541.64,230.36L541.16,231.38L540.38,231.63L539.45,233.21L538.58,233.93L538.27,235.73L537.08,236.35L537.25,238.01L535.8,239.72L535.73,240.76L536.42,242.39L536.21,244L536.74,244.86L536.34,247.12L524.4,247.14L517.67,247.15L509.26,247.16L509.2,241.08L506.88,240.71L506.1,240.96L505.11,240.03L505.29,231.43L505.53,220.26L503.85,207.38L511.68,207.38L516.89,207.38L524.72,207.38L529.93,207.38L537.76,207.38L545.59,207.38L546.41,208.88L546.4,209.75L544.27,212.04L543.53,213.28Z" class="land" id="US-AR" title="Arkansas"/>
    <path d="M368.72,201.53L368.72,213.92L368.71,226.14L368.71,234.2L368.71,246.16L368.71,254.06L368.71,265.8L359.96,265.82L350.03,265.84L341.15,262.59L332.26,259.32L327.82,257.69L318.94,254.41L314.5,252.77L315.54,250.47L316.87,250.25L317.49,249.83L317.93,248.27L317.17,246.88L316.26,246.5L315.73,245.4L315.59,243.59L315.75,242.62L316.68,242.03L317.65,239.61L317.56,237.15L318.41,235.49L319.24,234.46L321.15,232.82L320.84,232.04L318.85,230.53L318.6,229.38L317.11,227.04L316.6,225.76L316.61,224.8L316.79,220.66L316.25,219.24L316.28,217.46L315.98,216.32L315.89,214.15L315.38,213.04L315.62,212.21L316.77,211.48L318.52,211.48L319.69,212.5L320.61,212.84L321.93,211.09L321.95,201.5L330.72,201.5L342.41,201.51L354.1,201.52L359.95,201.53Z" class="land" id="US-AZ" title="Arizona"/>
    <path d="M281.6,242.98L280.68,243.75L280.25,242.67ZM265.72,236.98L264.57,236.99L263.77,235.91L265.46,235.77L266.28,236.37ZM266.12,140.8L266.12,152.53L266.13,161.8L266.13,168.68L266.13,177.76L274.9,185.61L283.68,193.39L288.83,198.27L297.42,206.34L304.55,213.25L311.68,220.1L316.61,224.8L316.6,225.76L317.11,227.04L318.6,229.38L318.85,230.53L320.84,232.04L321.15,232.82L319.24,234.46L318.41,235.49L317.56,237.15L317.65,239.61L316.68,242.03L315.75,242.62L315.59,243.59L315.73,245.4L316.26,246.5L317.17,246.88L317.93,248.27L317.49,249.83L316.87,250.25L315.54,250.47L309.11,251.06L303.75,251.54L293.03,252.49L292.94,251.21L291.95,251.04L291.69,249.46L291.76,247.98L291.24,246.18L289.85,243.99L286.84,241.26L285.31,240.35L284.11,239.2L282.39,238.79L282.11,239.31L281.02,238.95L281.18,237.66L280.12,235.87L279.25,235.67L277.07,235.79L274.15,234.8L273.29,234.21L272.99,233.15L269.82,231.33L267.5,231.4L265.63,230.75L262.42,230.86L261.62,230.72L260.09,229.49L260.28,226.85L259.92,225.28L260.2,223.82L259.51,222.89L258.1,222.3L258.07,220.51L257.7,219.83L256.55,219.19L255.47,217.73L254.11,216.93L253.54,215.6L250.54,211.41L248.55,209.35L248.16,206.54L249.36,204.68L249.2,203.29L248.52,202.26L245.86,201.65L243.7,199.11L243.57,197.16L242.72,195.16L242.58,192.44L243.8,192.25L243.94,193.82L245.26,194.9L246.24,195.14L245.32,192.92L244.63,192.23L243.79,190.21L245.37,189.25L246.59,189.15L250.05,189.33L249.75,188.78L248.52,188.84L247.1,188.27L245.96,188.96L243.72,188.02L242.87,188.44L242.77,190.29L243.03,191.66L240.28,190.38L238.33,188.58L238.16,186.44L237.6,186.11L236.9,184.38L235.32,183.34L234.05,181.67L231.47,178.89L231.29,176.43L230.35,173.32L230.75,171.54L230.69,170.28L229.75,167.33L227.65,164.47L225.63,162.55L225.19,159.6L226.01,156.9L226.58,156.1L227.42,153.69L227.36,151.38L228.03,148.53L227.99,147.59L227.14,144.34L226.38,143.48L226.71,142.21L226.53,140.8L234.02,140.8L241.43,140.8L248.84,140.8L256.24,140.8ZM267.23,235.16L270.23,235.99L267.91,236.43L267.2,236.12Z" class="land" id="US-CA" title="California"/>
    <path d="M434.49,165.62L434.51,172.47L434.53,181.52L434.56,190.47L434.59,201.53L425.34,201.53L414.72,201.53L407.65,201.53L400.57,201.53L393.49,201.53L386.41,201.53L379.33,201.53L368.72,201.53L368.72,195.65L368.72,183.77L368.72,171.71L368.72,159.49L368.72,153.31L380.49,153.31L389.31,153.31L395.19,153.31L406.96,153.31L415.78,153.31L425.13,153.31L434.48,153.31Z" class="land" id="US-CO" title="Colorado"/>
    <path d="M717.56,140.66L717.6,146.83L717.17,149.14L716.35,149.07L713.21,149.68L712.22,149.43L711.2,149.88L707.76,150.01L707.03,149.77L706.1,150.62L704.62,151.13L700.86,153.04L700.42,153.42L699.55,152.02L701.79,150.59L701.22,149.63L701.82,140.11L708.13,140.38L717.55,140.52Z" class="land" id="US-CT" title="Connecticut"/>
    <path d="M668.58,179.1L667.72,178.45L668.47,177.63L669.51,179.12Z" class="land" id="US-DC" title="District of Columbia"/>
    <path d="M683.65,167.88L682.09,170.01L682.22,172L683.73,174.37L683.92,176.65L685.86,179.94L686.76,180.45L686.39,182.19L686.91,182.83L687.24,184.3L680.97,184.31L680.42,172.87L680.24,169.02L681.65,167.59Z" class="land" id="US-DE" title="Delaware"/>
    <path d="M626.68,272.31L627.12,273.3L627.79,277.33L628.24,278.73L629.06,282.48L630.42,286.11L632.33,290.48L635.85,296.51L634.93,298.27L633.91,296.75L634.32,295.52L633.59,294.94L633.54,293.88L632.91,293.61L633.75,297.63L634.67,299.75L638.65,310.05L639.58,311.36L640.29,314.25L640.38,316.76L639.73,321.33L639.58,324.43L638.71,325.39L637.95,326.67L637.69,328.66L637.33,329.65L636.23,330.7L635.54,330.67L633.87,331.46L632.69,331.25L631.28,331.7L630.36,331.65L629.83,330.71L630.48,329.77L629.27,327.03L628.16,325.49L627.98,324.46L626.08,323.83L624.7,322.87L623.8,321.17L623.28,318.16L621.66,316.93L621.3,315.34L621.4,313.37L621.14,312.62L620.34,312.9L620.34,313.91L619.31,313.59L617.9,311.61L616.22,308.01L615.34,306.97L616.08,306.71L618.28,303.42L617.86,302.7L617.16,302.97L615.84,304.66L615.07,304.75L614.13,303.3L615.02,299.16L615.85,296.51L615.93,292.22L614.82,290.47L609.95,286.17L606.16,281.05L602.89,279.13L600.4,279.55L599.97,279.94L599.71,281.26L598.15,281.36L595.8,282.71L594.98,282.66L593.66,283.27L590.95,283.71L591.06,282.44L590.62,281.6L589.21,280.52L587.6,278.94L588.28,277.15L587,277.61L586.86,278.45L582.93,276.65L580.31,275.93L582.32,275.6L582.16,274.91L580.37,274.88L578.2,275.89L573.32,276.58L574.04,275.96L575.34,275.59L573.6,274.41L573.47,275.34L572.57,276.58L570.75,277.07L570.62,276.16L571.18,275.08L571.25,272.97L569.9,271.62L569.57,270.91L569.64,269.38L578.73,269.38L584.79,269.38L593.87,269.37L595.02,272.43L600.38,272.8L610.83,273.51L619.79,274.12L620.21,275.99L621.45,275.87L621.83,274.18L621.67,272.31L622.63,271.36L625.09,272.22ZM639.01,309.3L638.31,308.28L637.24,305.45L637.43,305.08Z" class="land" id="US-FL" title="Florida"/>
    <path d="M632.59,258.07L632.11,259.01L630.34,259.74L630.79,260.46L630.48,261.12L629.54,261.66L629.76,263.56L628.63,265.32L628.7,266.5L627.98,267.5L627.26,267.2L627.15,268.42L626.52,270.75L626.68,272.31L625.09,272.22L622.63,271.36L621.67,272.31L621.83,274.18L621.45,275.87L620.21,275.99L619.79,274.12L610.83,273.51L600.38,272.8L595.02,272.43L593.87,269.37L593.3,268.1L593.07,266.15L593.42,263.11L592.77,260.86L592.77,259.72L593.61,256.77L594.59,255.67L593.79,252.57L592.47,249.48L592.05,247.79L591.06,242.06L589.83,234.86L588.09,224.69L600.26,224.84L611.59,224.68L609.7,226.92L609.34,228.03L611.11,229.27L612.17,230.28L614.09,231.11L614.36,231.92L616.51,235.87L619.63,238.89L620.08,239.86L621.98,241.44L622.63,242.29L624.09,245.11L625.98,246.53L626.81,248.01L627.33,250.33L627.87,251.67L628.68,252.23L629.79,254.19L630.13,256.39L630.7,257.19Z" class="land" id="US-GA" title="Georgia"/>
    <path d="M422.11,345.88L423.16,346.11L424.21,347.46L423.82,348.11L422.34,348.44L422.06,347.29L421.33,346.14ZM421.74,342.63L422.91,342.82L424.94,342.74L425.32,343.13L424.43,344.08L423.47,344.46L421.34,343.69L418.97,343.86L418.97,342.78L419.8,342.39ZM426.79,344.59L427.93,346.12L428.92,346.18L429.8,345.68L431.01,345.91L432.36,347.25L433.5,347.57L433.9,348.23L433.62,348.96L432.15,349.86L431.4,349.75L430.25,350.32L428.59,350.19L428.14,347.75L427.47,347.91L426.32,347.44L425.61,346.45L425.55,345.77L426.18,344.64ZM427.38,350.54L427.24,350.94L425.92,351.44L425.78,350.72L426.82,350.1ZM410.53,335.85L412.17,337.98L412.52,339.37L413.62,339.82L413.79,340.59L413.48,341.4L412.35,341.63L411.24,340.99L409.07,341.2L407.56,338.17L407,337.57L408.89,337.43L409.96,336.16ZM392.58,329.48L393.79,329.19L394.84,329.69L395.16,330.48L394.64,331.52L394.73,332.55L393.29,333.79L391.39,333.36L390.73,332.7L389.8,332.44L389.26,331.66L390.32,329.99L392.08,329.1ZM386.19,332.1L386.09,333.43L385.16,333.8L384.42,334.98L384,334.55L384.28,333.55Z" class="land" id="US-HI" title="Hawaii"/>
    <path d="M541.01,134.32L542.56,135.96L543.86,138.1L545.54,139.54L545.68,141.04L545.07,143.16L544.12,144.46L543.85,145.43L543.02,146.33L541.61,147.15L538.31,148.02L537.29,148.72L536.97,149.83L538.17,153.12L536.78,156.41L535.72,157.65L534.56,158.21L534.05,159.04L534.08,160.76L533.6,160.98L531.35,158.86L530.89,157.96L523.8,158.01L514.35,158.08L504.9,158.16L493.11,158.24L492.23,156.47L492.47,154.68L492,149.74L491.38,148.74L491.54,148.02L490.99,146.83L490.36,146.51L490.26,144.15L489.47,141.25L488.15,139.13L487.58,137.52L487.31,135.53L486.41,134.34L485.86,132.46L485.09,131.56L486.58,126.83L486.32,125.47L485.71,125.13L485.84,123.31L485.3,121.71L486.66,121.66L498.84,121.66L507.98,121.66L517.12,121.65L523.21,121.65L535.44,121.65L535.69,123.03L536.64,123.85L536.23,126.79L536.64,129.62L537.09,130.81L538.11,131.68L539.72,132.23L540.66,133.08Z" class="land" id="US-IA" title="Iowa"/>
    <path d="M349.94,108.67L349.94,116.83L349.95,126.9L349.95,140.8L341.19,140.8L332.44,140.8L321.93,140.79L311.48,140.8L301.04,140.8L294.07,140.8L294.05,126.61L294.04,117.62L294.63,115.66L294.7,113.64L295.05,112.59L293.96,111.6L292.38,110.7L292.34,109.49L293.11,107.63L294.71,105.1L295.58,103.31L295.73,102.26L296.69,99.82L298.45,95.99L299.13,93.52L298.72,92.44L296.43,90.41L295.2,88.67L294.72,87.02L294.76,85.56L294.13,84.24L293.99,82.89L293.95,69.7L293.92,60.78L293.86,47.19L303.14,47.19L303.13,61.16L306.09,65.33L306.69,68.22L306.38,69.05L308.41,70.8L309.69,71.5L313.56,76.15L314.02,77.22L315.27,78.73L315.97,78.51L316.69,79.74L319.17,79.76L319.09,81.24L317.78,86.56L317.84,88.22L318.43,88.94L318.53,90.39L317.33,91.63L317.68,92.92L317.37,94.39L319.54,95.58L322.86,92.98L324.18,94.05L324.2,94.87L325.16,98.01L326.47,100.2L327.28,101.1L327.3,102.99L328.52,104.6L329.94,104.72L330.82,105.82L331.69,108.91L333.42,109.89L334.35,108.68L337.38,109.08L338.89,107.86L342.96,108.13L344.25,107.87L345.74,108.07L346.23,105.88L347.26,105.43L348.57,107.46Z" class="land" id="US-ID" title="Idaho"/>
    <path d="M567.6,134.52L567.73,138.14L568.7,139.75L569.56,142.58L570.32,144.23L570.28,155.03L570.25,162.42L570.21,173.24L569.48,174.25L569.14,175.73L570.24,178.87L570.24,180.87L569.25,183.26L567.86,184.74L567.46,185.74L566.02,186.77L566.32,187.62L565.78,188.39L565.44,190.49L564.94,191.22L565.44,192.24L564.63,193.3L564.83,195.25L564.05,196.08L561.2,197.26L561.59,199.45L561.42,200.51L560.09,200.25L557.66,199.36L556.04,199.4L555.21,200.34L555.03,201.64L553.92,200.61L552.59,200.34L551.91,199.04L551.76,198.01L552.14,196.44L551.57,193.95L550.63,192.74L547.39,190.11L546.51,189.73L544.3,187.67L543.6,186.05L544.14,184.28L545.92,179.78L545.04,179L542.63,178.39L541.7,178.86L540.89,177.92L540.2,175.58L538.49,173.09L535.77,170.47L534.19,168.69L533.75,167.75L533.04,164.44L533.06,162.86L533.6,160.98L534.08,160.76L534.05,159.04L534.56,158.21L535.72,157.65L536.78,156.41L538.17,153.12L536.97,149.83L537.29,148.72L538.31,148.02L541.61,147.15L543.02,146.33L543.85,145.43L544.12,144.46L545.07,143.16L545.68,141.04L545.54,139.54L543.86,138.1L542.56,135.96L541.01,134.32L553.75,134.41L562.18,134.48Z" class="land" id="US-IL" title="Illinois"/>
    <path d="M595.84,144.56L595.78,152.69L595.71,160.73L595.65,168.69L595.6,176.66L595.3,178.82L595.8,179.94L594.86,180.54L592.34,181.49L591.06,180.93L589.77,181.58L589.96,182.62L588.82,183.97L587.88,185.6L586.55,186.34L585.93,187.18L584.93,189.57L583.6,189.83L582.62,189.3L581.91,188.19L580.54,188.08L579.88,189.17L579.43,190.72L578.26,191.06L577.35,190.22L576.43,190.02L575.49,190.47L573.88,192.05L571.71,190.65L569.59,190.37L569.44,191.53L568.51,190.93L566.72,190.9L566.66,191.9L565.44,192.24L564.94,191.22L565.44,190.49L565.78,188.39L566.32,187.62L566.02,186.77L567.46,185.74L567.86,184.74L569.25,183.26L570.24,180.87L570.24,178.87L569.14,175.73L569.48,174.25L570.21,173.24L570.25,162.42L570.28,155.03L570.32,144.23L571.34,145.13L572.83,145.36L574.52,144.96L576.49,143.82L587.33,143.83L595.84,143.83Z" class="land" id="US-IN" title="Indiana"/>
    <path d="M503.85,201.53L493.03,201.53L486.54,201.53L475.72,201.53L469.22,201.53L462.73,201.53L456.24,201.53L447.58,201.53L441.09,201.53L434.59,201.53L434.56,190.47L434.53,181.52L434.51,172.47L434.49,165.62L444.3,165.62L450.19,165.62L458.04,165.62L469.82,165.62L479.64,165.62L487.49,165.62L497.03,165.61L499.19,167.19L500.42,166.96L501.28,168.29L499.57,170.54L499.73,171.61L501.38,173.62L502.36,175.43L503.81,176.27L503.81,186.12L503.83,193.86Z" class="land" id="US-KS" title="Kansas"/>
    <path d="M616.29,184.39L616.61,186.5L616.23,187.57L616.52,188.55L619.41,193.45L621.06,194.83L622.36,195.19L618.82,198.05L615.65,199.92L615.18,200.98L613.65,202.64L612.26,203.35L611.26,204.33L608.76,205.27L607.36,205.61L606.41,206.16L605.83,206.38L596.07,206.03L586.32,205.69L579.81,205.46L567.34,205.71L567.07,205.34L564.93,205.14L565.28,207.39L557.35,207.39L552.25,207.39L552.75,206.36L554.57,205.92L555.26,203.76L555.03,201.64L555.21,200.34L556.04,199.4L557.66,199.36L560.09,200.25L561.42,200.51L561.59,199.45L561.2,197.26L564.05,196.08L564.83,195.25L564.63,193.3L565.44,192.24L566.66,191.9L566.72,190.9L568.51,190.93L569.44,191.53L569.59,190.37L571.71,190.65L573.88,192.05L575.49,190.47L576.43,190.02L577.35,190.22L578.26,191.06L579.43,190.72L579.88,189.17L580.54,188.08L581.91,188.19L582.62,189.3L583.6,189.83L584.93,189.57L585.93,187.18L586.55,186.34L587.88,185.6L588.82,183.97L589.96,182.62L589.77,181.58L591.06,180.93L592.34,181.49L594.86,180.54L595.8,179.94L595.3,178.82L595.6,176.66L596.68,176.22L597.73,176.73L599.27,176.67L600.58,178.07L601.17,179.39L602.24,180.2L603.78,180.49L606.2,181.98L607.62,181.38L609.32,182.25L610.76,182.11L612.67,181.21L613.78,181.25L614.93,183.28Z" class="land" id="US-KY" title="Kentucky"/>
    <path d="M551.59,278.17L550.96,278.46L547.53,277.34L546.68,276.45L545,276.15L543.99,277.25L543.24,278.74L545.46,279.94L547.16,279.61L548.1,278.89L549.56,278.39L550.24,278.99L548.84,280.18L549.5,281.01L550.95,281.17L551.19,280.23L551.84,279.62L552.59,280.14L553.12,281.11L553.15,282.2L551.5,282.72L549.72,284.36L550.15,285.23L551.66,286.51L554.17,287.44L554.78,287.42L555.38,288.35L556.32,288.84L556.27,289.49L555.45,289.96L555.02,290.84L554.26,290.15L553.16,290.26L552.32,288.94L550.66,287.77L549.05,287.44L548.25,286.1L545.62,285.25L546.62,286.39L546.61,287.4L546.16,289.07L545.11,289.89L544.28,288.27L543.55,287.85L541.62,288.11L540.76,289.4L540.07,289.61L537.72,288.94L535.02,287.92L536.28,287.25L535.45,286.11L534.64,285.5L532.92,285.05L531.44,283L530.02,282.95L529.37,282.03L528.21,282.41L527.1,283.5L527.59,284.65L525.93,285.04L522.09,284.6L519.45,283.34L517.36,282.64L512.5,282.74L511.27,283.22L510.73,282.31L511.77,281.19L511.57,280.5L512.35,279.03L512.25,277.19L511.98,276.52L512.26,274.2L513.58,271.31L514.04,268.88L513.78,267.41L512.77,265.85L512.1,263.75L511.32,262.76L511.27,261.16L510.53,259.76L509.24,258.41L509.26,247.16L517.67,247.15L524.4,247.14L536.34,247.12L536.84,247.99L536.46,249.43L536.86,250.7L536.34,251.48L537.19,253.71L538.26,254.74L538.23,255.75L536.91,257.25L536.27,258.72L535.06,259.68L534.25,260.9L533.86,262.37L532.79,264.47L532.79,265.61L531.83,267L532.15,268.18L531.59,269.37L538.33,269.37L549.58,269.37L548.65,272.32L548.79,273.63L550.05,275.24L550.93,277.84ZM530.3,285.64L529.96,285.79L528.41,284.86L529.54,284.13L530.55,284.74Z" class="land" id="US-LA" title="Louisiana"/>
    <path d="M729.65,148.63L727.07,149.24L728.11,147.73L728.65,147.62ZM726.87,129.68L726.66,130.34L727.53,132.33L728.23,133L726.64,133.81L724.62,136.62L727.51,137.92L728.64,140.3L728.27,140.97L729.28,141.58L729.6,143.28L731.65,144.22L734.41,142.99L733.58,141.06L734.63,141.3L734.97,143.22L734.9,144.87L733.86,144.86L730.63,145.5L728.27,146.66L727.85,144.39L725.3,146.48L723.29,146.88L722.87,144.5L721.86,143.35L721.43,140.6L717.56,140.66L717.55,140.52L708.13,140.38L701.82,140.11L701.57,139.8L703.95,131.27L711.32,131.55L721.97,131.9L723.75,130.56L725.3,129.75Z" class="land" id="US-MA" title="Massachusetts"/>
    <path d="M680.24,169.02L680.42,172.87L680.97,184.31L687.24,184.3L686.34,185.16L686.1,186.7L685.48,186.85L684.07,189.44L681.79,189.75L681.42,190.28L679.62,190.07L680.14,188.7L678.9,187.72L679.5,186.63L677.75,186.41L676.24,185.43L675.46,183.84L675.75,182.58L677.69,182.32L675.41,179.96L676.65,179.54L675.3,177.65L676.49,177.88L676.02,175.46L676.79,173.97L678.65,172.21L678.61,170.69L677.64,170.98L677.32,172.54L675.64,173.87L674.43,174.1L674.29,175.05L672.85,174.7L674.29,176.88L673.8,177.4L673.36,178.99L673.2,180.87L673.53,183.39L674.33,184.73L674.12,185.43L675.11,188.06L672.67,187.02L669.89,186.26L668.14,184.47L666.68,184.88L666.6,183.84L667.6,181.98L668.69,180.45L668.58,179.1L669.51,179.12L668.47,177.63L667.72,178.45L666.04,177.13L664.36,176.41L664.38,175.1L662.05,173.58L661.39,171.51L660.59,170.38L659.24,170.13L657.8,169.46L655.69,170.17L654.85,171.32L651.86,170.87L650.4,172.28L649.42,172.01L647.38,174.01L645.56,175.22L645.66,169.01L658.63,169.02L665.11,169.02L671.6,169.02Z" class="land" id="US-MD" title="Maryland"/>
    <path d="M727.55,127.21L726.66,125.03L725.47,123.1L725.05,114.07L724.69,106.8L724.26,98.16L725.43,97.64L726.59,97.93L726.94,96.68L727.96,96.37L727.84,94.72L728.83,93.48L730.48,92.22L730.6,91.37L731.65,89.96L731.57,87.92L732.1,85.31L733.79,82.73L734.35,79.08L741.51,68.7L743.32,69.21L743.33,71.32L744.38,72.18L745.39,72.29L748.65,71.16L750.24,70.21L752.25,71.31L754.96,73.95L755.06,81.94L755.17,92.71L756.94,93.79L758.47,94.03L758.54,95L757.9,95.75L758.51,97.04L758.09,98.4L759.08,99.76L760.18,99.4L761.35,99.81L761.77,102.21L761.52,103.58L762.64,104.34L760.73,106.35L759.11,106.06L757.31,106.75L756.4,107.83L754.66,107.65L754.02,109.26L752.62,110.17L752.06,108.78L750.55,108.56L749.65,109.38L748.93,108.56L748.27,110.22L747.42,111.14L745.72,110.21L746.5,109.41L745.22,108.85L744.15,109.52L744.2,110.65L743.19,112.94L743.15,113.92L741.67,115.37L740.56,115.18L739.28,116.43L736.95,117.12L736.37,117.72L734.75,117.08L732.75,118.23L731.9,119.45L732.53,120.05L729.55,123.62L728.41,126.38ZM751.4,110.85L749.3,111.35L749.32,110.44L750.35,109.23L750.92,109.46Z" class="land" id="US-ME" title="Maine"/>
    <path d="M602.06,83.8L601.53,83.83L600.73,82.1L601.96,81.5ZM607.95,88.52L607.81,89.27L605.82,89.47L604.56,88.98L606.97,87.4ZM556.89,62.26L556.75,62.89L555,63.45L555.1,61.89L560.33,59.01L559.99,60.64ZM569.53,100.62L568.45,98.84L568.68,96.97L567.1,97.17L567.57,95.33L567.62,92.92L566.56,91.93L564.75,91.18L564.42,89.43L561.22,88.51L557.99,88.2L555.35,86.68L546,84.08L544.95,81.79L543.43,81.26L543.29,80.66L545.67,79.82L548.41,77.93L549.96,77.31L553.15,76.71L555.02,75.25L556.96,74.5L558.07,73.09L559.75,71.9L559.91,72.8L561.01,73.78L561.57,75.6L561.38,77.33L563.81,75.76L567.92,76.63L569.23,77.47L571.85,81.59L573.6,81.74L574.88,81.34L576.59,82.33L577.71,82.06L578.6,82.57L579.59,81.59L582.4,79.8L585.07,79.17L588.16,79.33L589.8,79.11L592.64,78.13L593.95,78.66L593.61,81.85L596,82.36L596.77,82.05L598.35,82.8L600.23,82.04L601.15,83.75L601.39,85.36L602.92,87.51L604.29,88.68L603.5,89.22L600.11,88.7L598.42,88.77L597.39,87.99L595.79,90.39L594.2,88.85L591.5,87.51L589.45,87.25L588.18,88.42L584.95,89.5L583.42,89.12L582.02,89.55L580.83,91.38L579.63,92.02L578.53,93.74L578.09,92.71L579.33,91.3L577.51,90.59L576.73,91.86L575.44,92.42L574.41,92.33L573.18,93.97L571.47,97.21L569.56,99.98ZM563.76,72.19L563.62,72.91L561.72,74.94L561.77,73.41L560.07,72.69L560.57,71.34L562.14,69.73L564.8,68.57L566.98,68.41L567.8,69.42L565.64,69.68L565.69,70.67ZM608.41,144.01L602.08,144.32L595.84,144.56L595.84,143.83L587.33,143.83L576.49,143.82L578.64,141.93L580.75,137.98L581.76,135.53L582.39,132.57L582.49,129.38L582.24,127.74L581.49,125.23L580.49,122.87L579.49,119.9L580.44,117.87L580.37,116.18L579.71,114.23L580.68,112.98L581.8,110.88L582.3,107.98L582.35,105.76L583.39,105.4L584.03,103.17L586.59,101.9L587.48,100.36L588.43,99.92L588.27,102.46L587.87,104.21L589.4,104.17L590.29,101.63L590.42,98.38L591.85,97.33L594.24,96.84L593.11,95.32L593.11,94L594.15,92.64L594.39,91.72L596.07,91.46L599.17,93.05L601.53,93.92L602.1,94.98L608.19,97.56L608.94,98.43L609.92,101.53L608.68,101.28L608.58,102.57L609.59,103.79L609.91,106.24L609.57,110.29L608.33,111.74L607.87,111.66L606.92,114.43L604.43,115.68L603.87,118.03L604.09,119.08L605.78,120.04L606.85,119.91L608.27,118.69L609.5,116.12L610.71,115.28L613.16,114.32L614.65,115.15L615.82,117.09L616.44,119.94L617.71,127.07L618.12,127.88L617.46,131.43L616.93,132.9L615.06,134.56L613.91,135.94L611.68,137.19L610.21,141.48L609.27,142.32ZM598.08,91.12L599.74,91.55L599.17,92.27Z" class="land" id="US-MI" title="Michigan"/>
    <path d="M515.47,52.55L518.53,52.5L520.54,53.24L523.69,55.11L524.49,57.35L525.58,56.61L526.77,56.48L528.33,56.99L529.7,58.46L532.89,60.41L534.11,60.41L535.67,59.76L537.33,58.51L539.23,58.42L540.13,59.76L544.11,59.84L546.25,59.57L547.16,61.01L550.53,61.32L548.71,62.61L545.26,64.21L541.51,65.59L538.14,67.86L534.12,72.14L531.7,74.4L527.77,77.57L527.37,78.35L525.64,79.73L525.63,87.56L521.87,89.92L520.18,92.65L520.02,94.14L521.75,95.49L521.95,97.01L521.2,98.92L520.94,101.12L521.22,102.93L520.89,104.84L521.16,105.68L522.35,106.74L524.94,107.97L526.12,109.15L527.86,109.97L529.2,111.42L529.86,112.66L531.03,113.54L532.92,114.49L534.74,116.02L535.13,117.82L535.44,121.65L523.21,121.65L517.12,121.65L507.98,121.66L498.84,121.66L486.66,121.66L486.66,107.03L486.66,98.11L485.95,97.13L484.39,96.32L482.99,94.13L483.29,93.28L485.15,91.39L485.7,89.47L485.66,86.83L485.13,84.27L484.07,82.3L483.54,79.91L483.46,77.87L483.7,76.19L483.25,75.45L482.87,66.97L481.66,63.74L481.48,62.27L480.37,58.8L480.2,53.68L480.35,51.63L479.43,47.19L492.56,47.19L498.76,47.21L498.82,41.79L500.84,42.08L501.64,42.73L501.75,45.39L502.12,47.05L503.83,50.76L509.12,51.95L511.03,52.68L512.38,53.84L514.67,53.33Z" class="land" id="US-MN" title="Minnesota"/>
    <path d="M533.6,160.98L533.06,162.86L533.04,164.44L533.75,167.75L534.19,168.69L535.77,170.47L538.49,173.09L540.2,175.58L540.89,177.92L541.7,178.86L542.63,178.39L545.04,179L545.92,179.78L544.14,184.28L543.6,186.05L544.3,187.67L546.51,189.73L547.39,190.11L550.63,192.74L551.57,193.95L552.14,196.44L551.76,198.01L551.91,199.04L552.59,200.34L553.92,200.61L555.03,201.64L555.26,203.76L554.57,205.92L552.75,206.36L552.25,207.39L551.91,207.35L551.25,207.38L551.27,208.87L550.9,210.18L550.16,210.64L550.46,211.98L549.87,213.18L543.53,213.28L544.27,212.04L546.4,209.75L546.41,208.88L545.59,207.38L537.76,207.38L529.93,207.38L524.72,207.38L516.89,207.38L511.68,207.38L503.85,207.38L503.85,201.53L503.83,193.86L503.81,186.12L503.81,176.27L502.36,175.43L501.38,173.62L499.73,171.61L499.57,170.54L501.28,168.29L500.42,166.96L499.19,167.19L497.03,165.61L496.21,164.46L495.93,163.21L494.59,162.01L493.11,158.24L504.9,158.16L514.35,158.08L523.8,158.01L530.89,157.96L531.35,158.86Z" class="land" id="US-MO" title="Missouri"/>
    <path d="M564.21,224.71L565.04,225.46L563.8,236.94L562.89,245.24L561.74,255.52L561.28,259.61L561.77,269.91L562.09,276.24L559.35,276.41L557.36,275.76L554.38,276.66L553.47,276.52L552.32,277.84L551.59,278.17L550.93,277.84L550.05,275.24L548.79,273.63L548.65,272.32L549.58,269.37L538.33,269.37L531.59,269.37L532.15,268.18L531.83,267L532.79,265.61L532.79,264.47L533.86,262.37L534.25,260.9L535.06,259.68L536.27,258.72L536.91,257.25L538.23,255.75L538.26,254.74L537.19,253.71L536.34,251.48L536.86,250.7L536.46,249.43L536.84,247.99L536.34,247.12L536.74,244.86L536.21,244L536.42,242.39L535.73,240.76L535.8,239.72L537.25,238.01L537.08,236.35L538.27,235.73L538.58,233.93L539.45,233.21L540.38,231.63L541.16,231.38L541.64,230.36L542.06,227.8L543.21,226.39L544.11,225.85L544.35,224.69L554.21,224.7Z" class="land" id="US-MS" title="Mississippi"/>
    <path d="M415.88,89.46L415.93,102.05L415.63,102.05L403.32,102.05L393.05,102.05L384.84,102.05L372.53,102.05L360.21,102.05L349.95,102.05L349.94,108.67L348.57,107.46L347.26,105.43L346.23,105.88L345.74,108.07L344.25,107.87L342.96,108.13L338.89,107.86L337.38,109.08L334.35,108.68L333.42,109.89L331.69,108.91L330.82,105.82L329.94,104.72L328.52,104.6L327.3,102.99L327.28,101.1L326.47,100.2L325.16,98.01L324.2,94.87L324.18,94.05L322.86,92.98L319.54,95.58L317.37,94.39L317.68,92.92L317.33,91.63L318.53,90.39L318.43,88.94L317.84,88.22L317.78,86.56L319.09,81.24L319.17,79.76L316.69,79.74L315.97,78.51L315.27,78.73L314.02,77.22L313.56,76.15L309.69,71.5L308.41,70.8L306.38,69.05L306.69,68.22L306.09,65.33L303.13,61.16L303.14,47.19L312.85,47.19L320.84,47.19L332.82,47.19L340.81,47.19L348.79,47.19L360.77,47.19L372.75,47.19L384.73,47.19L392.72,47.19L400.71,47.19L408.7,47.19L415.67,47.19L415.72,57.98L415.77,68.63L415.81,76.51Z" class="land" id="US-MT" title="Montana"/>
    <path d="M678.54,206.79L678.3,207.69L679.48,210.09L679.32,211.16L676.84,209.96L676.82,211.51L676.1,211.85L674.63,211.65L673.74,212.87L672.99,213.02L671.87,212.32L671.43,213.69L672.5,213.85L674.87,213.74L676.29,213.3L677.57,213.54L677.44,216.77L678.22,216.4L678.42,214.4L679.59,213.66L680.36,214.35L680.62,215.9L680.34,217.27L678.55,218.87L677.26,220.34L676.6,220.64L674.57,220.1L673.64,220.15L673.24,218.87L671.28,219.75L673.42,221.6L672.54,222.95L672.34,223.86L670.93,224.81L671.25,225.37L673.95,224.82L674.83,225.42L673.39,227.24L671.6,227.53L671.36,228.04L668.4,228.15L667.61,228.03L666.5,229.08L665.51,229.03L665.3,230.1L664.01,230.95L661.83,232.84L660.19,235.24L659.37,237.06L655.7,237L654.21,237.46L650.33,233.51L644.01,227.02L633.42,226.66L633.34,225.12L632.02,223.4L630.97,223.95L630.58,222.92L618.7,222.39L611.59,224.68L600.26,224.84L600.61,222.4L601.12,221.71L602.72,221.42L603.27,219.95L604.5,218.79L605.9,218.28L607.88,218L610,216.87L611.54,215.8L612.76,215.5L613.72,213.75L614.42,213.8L615.99,212.65L617.15,213.41L618.58,212.04L620.32,211.41L621.55,211.77L622.89,209.64L624.52,209.07L624.8,206.99L625.23,206.1L625.39,206.28L632.16,206.34L638.94,206.41L645.72,206.48L655.88,206.58L662.66,206.64L672.83,206.74Z" class="land" id="US-NC" title="North Carolina"/>
    <path d="M485.7,89.47L472.61,89.47L461.7,89.47L455.15,89.47L442.06,89.47L431.15,89.47L424.61,89.46L415.88,89.46L415.81,76.51L415.77,68.63L415.72,57.98L415.67,47.19L424.67,47.19L432.65,47.19L440.64,47.19L452.62,47.19L464.6,47.19L472.59,47.19L479.43,47.19L480.35,51.63L480.2,53.68L480.37,58.8L481.48,62.27L481.66,63.74L482.87,66.97L483.25,75.45L483.7,76.19L483.46,77.87L483.54,79.91L484.07,82.3L485.13,84.27L485.66,86.83Z" class="land" id="US-ND" title="North Dakota"/>
    <path d="M486.41,134.34L487.31,135.53L487.58,137.52L488.15,139.13L489.47,141.25L490.26,144.15L490.36,146.51L490.99,146.83L491.54,148.02L491.38,148.74L492,149.74L492.47,154.68L492.23,156.47L493.11,158.24L494.59,162.01L495.93,163.21L496.21,164.46L497.03,165.61L487.49,165.62L479.64,165.62L469.82,165.62L458.04,165.62L450.19,165.62L444.3,165.62L434.49,165.62L434.48,153.31L425.13,153.31L415.78,153.31L415.75,143.94L415.73,134.47L415.71,128.09L422.2,128.09L431.92,128.09L438.41,128.09L451.37,128.09L457.86,128.09L468.04,128.09L470.84,129.99L472.51,130.59L473.29,130.03L475.01,129.71L477.64,129.63L479.31,129.89L480,130.49L483.38,131.92L484.58,132.73L484.98,133.61Z" class="land" id="US-NE" title="Nebraska"/>
    <path d="M727.55,127.21L726.87,129.68L725.3,129.75L723.75,130.56L721.97,131.9L711.32,131.55L710.54,129.56L711.25,127.61L711.88,123.84L712.08,121.3L712.91,118.89L713.61,117.91L714.61,115.64L715.11,113.68L715.4,111.27L716.93,110.56L718.66,109.31L719.73,107.24L719.24,105.08L720.28,103.27L720.21,101.96L721.13,99.4L721.99,98.21L723.17,98.61L724.26,98.16L724.69,106.8L725.05,114.07L725.47,123.1L726.66,125.03Z" class="land" id="US-NH" title="New Hampshire"/>
    <path d="M697.8,153.41L697.64,154.38L696.72,156.33L694.84,158.16L694.7,160.03L696.49,160.36L697.36,161.61L696.69,164.74L695.86,166.39L695.31,168.97L694.56,170.34L693.31,171.88L692.94,173.09L691.31,174.24L689.52,177.74L688.02,178.37L688.56,176.02L687.12,175.23L686.32,175.26L684.28,173.66L682.68,171.84L682.69,170.49L683.64,168.2L684.28,167.71L686.15,167.21L686.9,165.83L690.08,163.74L687.81,160.65L687.27,160.47L686.68,158.96L685.82,158.31L685.96,156.1L686.89,154.74L686.44,153.32L688.41,151.38L689.08,149.97L690.41,148.87Z" class="land" id="US-NJ" title="New Jersey"/>
    <path d="M425.35,207.37L424.95,207.38L424.91,217.15L424.87,226.83L424.83,236.4L424.78,249.01L424.73,258.37L414.21,258.38L405.79,258.38L397.37,258.38L390.99,258.39L391.95,260.39L393.08,260.95L386.83,260.9L376.54,260.83L376.51,265.78L368.71,265.8L368.71,254.06L368.71,246.16L368.71,234.2L368.71,226.14L368.72,213.92L368.72,201.53L379.33,201.53L386.41,201.53L393.49,201.53L400.57,201.53L407.65,201.53L414.72,201.53L425.34,201.53Z" class="land" id="US-NM" title="New Mexico"/>
    <path d="M321.95,201.5L321.93,211.09L320.61,212.84L319.69,212.5L318.52,211.48L316.77,211.48L315.62,212.21L315.38,213.04L315.89,214.15L315.98,216.32L316.28,217.46L316.25,219.24L316.79,220.66L316.61,224.8L311.68,220.1L304.55,213.25L297.42,206.34L288.83,198.27L283.68,193.39L274.9,185.61L266.13,177.76L266.13,168.68L266.13,161.8L266.12,152.53L266.12,140.8L273.11,140.8L280.1,140.8L287.08,140.8L294.07,140.8L301.04,140.8L311.48,140.8L321.93,140.79L321.93,152.52L321.93,162.16L321.94,169.79L321.94,181.12L321.94,188.58Z" class="land" id="US-NV" title="Nevada"/>
    <path d="M703.95,131.27L701.57,139.8L701.82,140.11L701.22,149.63L701.79,150.59L699.55,152.02L700.42,153.42L698.35,155.4L697.44,155.31L697.83,154.4L697.8,153.41L690.41,148.87L689.87,148.03L688.2,147.41L687.38,146.42L686.97,145L687.09,143.76L686.45,142.65L685.36,142.17L684.3,140.83L675.26,140.82L668.81,140.82L661.06,140.81L652.02,140.81L642.98,140.8L642.98,137.32L645.33,135.87L648.17,133.78L649.54,132.2L651.27,130.67L650.88,128.77L650.99,127.2L649.51,126.74L649.63,124.45L653.04,123.46L655.21,123.13L657.86,123.03L661.01,123.52L663.01,124.52L663.91,124.67L666.32,124.32L669.08,124.55L671.74,123.47L672.8,122.27L674.7,121.22L676.33,120.71L676.03,117.81L677.3,115.62L676.38,114.1L675.6,114.59L674.93,113.81L676,112.8L679.8,110L680.18,108.69L683.83,105.07L685.91,103.39L688.94,102.01L696.83,102L703.03,101.99L703.06,105.03L702.84,107.37L703.42,109.18L703.32,111.68L702.49,113.48L702.34,114.69L702.8,118.28L702.45,120.02L703.46,120.17L704.01,120.99L703.83,129.83ZM710.91,153.49L710.85,154.37L713,153.01L714.27,152.67L714.74,153.13L712.52,154.62L709.36,155.91L708.55,156.07L704.51,157.59L703.84,157.48L700.51,158.26L699.14,158.35L698.62,157.57L696.82,158.49L696.66,157.79L698.09,155.89L700.95,154.31L702.83,154.01L703.72,154.26L705.28,153.85L709.84,153.42Z" class="land" id="US-NY" title="New York"/>
    <path d="M635.9,157.68L634.79,158.22L635.13,161.17L634.5,163.36L633.24,166.74L632.6,168.86L632.57,169.73L631.74,170.86L630.09,172.25L628.28,173.39L627.28,173.02L626.23,174.05L625.24,174.48L623.88,176.73L624.11,178.1L622.79,178.34L622.02,177.63L621.36,178.22L620.13,180.56L620.35,182.13L619.31,183.15L618.41,184.57L617.37,184.79L616.29,184.39L614.93,183.28L613.78,181.25L612.67,181.21L610.76,182.11L609.32,182.25L607.62,181.38L606.2,181.98L603.78,180.49L602.24,180.2L601.17,179.39L600.58,178.07L599.27,176.67L597.73,176.73L596.68,176.22L595.6,176.66L595.65,168.69L595.71,160.73L595.78,152.69L595.84,144.56L602.08,144.32L608.41,144.01L613.5,146.61L614.25,146.09L615.48,146.82L617.12,148.25L620.9,147.17L624.63,146.95L627.21,144.94L629.26,143.7L632.62,142.15L635.89,140.94L635.89,149.87Z" class="land" id="US-OH" title="Ohio"/>
    <path d="M503.85,207.38L505.53,220.26L505.29,231.43L505.11,240.03L503,239.46L501.5,238.68L500.63,237.83L498.91,236.78L498.05,236.55L496.77,237.48L495.37,237.34L494.44,236.85L492.94,237.59L491.46,237.39L489.61,238.07L488.3,238.8L487.06,238.6L485.37,237.76L484.84,237.12L483.92,237.71L481.75,236.76L480.43,239.06L479.93,238.81L479.53,237.22L477.52,237.88L475.36,236.18L473.65,237.47L472.68,237.22L472.64,236.39L471.53,235.61L471.26,234.42L468.84,234.46L467.55,235.06L466.48,234.24L464.7,234.31L463.1,233.71L461.07,233.4L460.94,232.46L460.28,231.45L459.44,230.9L459.02,231.62L456.89,231.66L454.69,229.91L453.45,229.41L453.45,223.95L453.43,214.32L453.43,207.38L448.16,207.38L437.63,207.38L425.35,207.37L425.34,201.53L434.59,201.53L441.09,201.53L447.58,201.53L456.24,201.53L462.73,201.53L469.22,201.53L475.72,201.53L486.54,201.53L493.03,201.53L503.85,201.53Z" class="land" id="US-OK" title="Oklahoma"/>
    <path d="M235.97,86.63L236.9,86.28L238.58,87.15L239.5,88.99L240.6,93.09L241.31,93.7L245.5,94.19L246.6,94.04L248.5,92.87L250.56,92.49L253,92.57L254.49,92.91L255.04,93.49L256.34,93.55L259.43,92.87L262.84,92.39L264.67,91.9L266.74,90.88L271.48,89.58L273.84,89.44L275.31,88.69L287.9,88.67L295.2,88.67L296.43,90.41L298.72,92.44L299.13,93.52L298.45,95.99L296.69,99.82L295.73,102.26L295.58,103.31L294.71,105.1L293.11,107.63L292.34,109.49L292.38,110.7L293.96,111.6L295.05,112.59L294.7,113.64L294.63,115.66L294.04,117.62L294.05,126.61L294.07,140.8L287.08,140.8L280.1,140.8L273.11,140.8L266.12,140.8L256.24,140.8L248.84,140.8L241.43,140.8L234.02,140.8L226.53,140.8L225.34,139.26L224.73,135.99L224.86,133.42L223.61,130.5L224.41,127.95L225.42,123.72L225.97,122.84L227.27,119.19L227.44,114.47L227.74,110.84L228.22,109.63L228.11,105L229.15,96.73L229.33,94.38L229.03,90.81L229.16,86.8L229.49,86.24L231.72,86.23L233.15,85.69L234.27,86.61Z" class="land" id="US-OR" title="Oregon"/>
    <path d="M690.41,148.87L689.08,149.97L688.41,151.38L686.44,153.32L686.89,154.74L685.96,156.1L685.82,158.31L686.68,158.96L687.27,160.47L687.81,160.65L690.08,163.74L686.9,165.83L685.98,166.92L683.65,167.88L681.65,167.59L680.24,169.02L671.6,169.02L665.11,169.02L658.63,169.02L645.66,169.01L635.9,169.02L635.9,157.68L635.89,149.87L635.89,140.94L637.63,140.29L642.98,137.32L642.98,140.8L652.02,140.81L661.06,140.81L668.81,140.82L675.26,140.82L684.3,140.83L685.36,142.17L686.45,142.65L687.09,143.76L686.97,145L687.38,146.42L688.2,147.41L689.87,148.03Z" class="land" id="US-PA" title="Pennsylvania"/>
    <path d="M722.87,144.5L721.96,143.8L721.06,145.42L720.9,147.66L720.16,148.6L717.85,149.2L717.17,149.14L717.6,146.83L717.56,140.66L721.43,140.6L721.86,143.35Z" class="land" id="US-RI" title="Rhode Island"/>
    <path d="M654.21,237.46L651.61,239.17L650.88,239.91L648.83,242.75L648.31,244.57L647.55,245.78L646.2,246.82L644.63,247.29L644.37,248.31L641.76,250.32L640.56,251.53L638.61,252.01L637.37,252.86L635.4,252.49L636.32,253.72L636.21,254.51L635.07,255.16L634.7,254.02L633.6,255.1L634.26,256.02L633.67,256.83L632.81,257.14L632.59,258.07L630.7,257.19L630.13,256.39L629.79,254.19L628.68,252.23L627.87,251.67L627.33,250.33L626.81,248.01L625.98,246.53L624.09,245.11L622.63,242.29L621.98,241.44L620.08,239.86L619.63,238.89L616.51,235.87L614.36,231.92L614.09,231.11L612.17,230.28L611.11,229.27L609.34,228.03L609.7,226.92L611.59,224.68L618.7,222.39L630.58,222.92L630.97,223.95L632.02,223.4L633.34,225.12L633.42,226.66L644.01,227.02L650.33,233.51Z" class="land" id="US-SC" title="South Carolina"/>
    <path d="M485.7,89.47L485.15,91.39L483.29,93.28L482.99,94.13L484.39,96.32L485.95,97.13L486.66,98.11L486.66,107.03L486.66,121.66L485.3,121.71L485.84,123.31L485.71,125.13L486.32,125.47L486.58,126.83L485.09,131.56L485.86,132.46L486.41,134.34L484.98,133.61L484.58,132.73L483.38,131.92L480,130.49L479.31,129.89L477.64,129.63L475.01,129.71L473.29,130.03L472.51,130.59L470.84,129.99L468.04,128.09L457.86,128.09L451.37,128.09L438.41,128.09L431.92,128.09L422.2,128.09L415.71,128.09L415.67,115.18L415.63,102.05L415.93,102.05L415.88,89.46L424.61,89.46L431.15,89.47L442.06,89.47L455.15,89.47L461.7,89.47L472.61,89.47Z" class="land" id="US-SD" title="South Dakota"/>
    <path d="M606.41,206.16L613.08,206.2L622.48,206.24L622.92,206L625.23,206.1L624.8,206.99L624.52,209.07L622.89,209.64L621.55,211.77L620.32,211.41L618.58,212.04L617.15,213.41L615.99,212.65L614.42,213.8L613.72,213.75L612.76,215.5L611.54,215.8L610,216.87L607.88,218L605.9,218.28L604.5,218.79L603.27,219.95L602.72,221.42L601.12,221.71L600.61,222.4L600.26,224.84L588.09,224.69L577.58,224.57L571.57,224.5L564.05,224.41L564.21,224.71L554.21,224.7L544.35,224.69L545.77,223.39L546.24,222.37L546.1,221.1L546.49,219.95L547.41,218.93L547.79,217.91L547.63,216.9L548.09,216.08L549.17,215.44L549.88,214.27L549.87,213.18L550.46,211.98L550.16,210.64L550.9,210.18L551.27,208.87L551.25,207.38L551.91,207.35L552.25,207.39L557.35,207.39L565.28,207.39L564.93,205.14L567.07,205.34L567.34,205.71L579.81,205.46L586.32,205.69L596.07,206.03L605.83,206.38Z" class="land" id="US-TN" title="Tennessee"/>
    <path d="M481.41,302.72L481.74,301.53L482.49,300.43L483.04,300.73ZM479.95,321.04L479.04,319.26L477.78,314.12L478.26,314.32L479.65,319.57ZM505.11,240.03L506.1,240.96L506.88,240.71L509.2,241.08L509.26,247.16L509.24,258.41L510.53,259.76L511.27,261.16L511.32,262.76L512.1,263.75L512.77,265.85L513.78,267.41L514.04,268.88L513.58,271.31L512.26,274.2L511.98,276.52L512.25,277.19L512.35,279.03L511.57,280.5L511.13,280.47L510.15,282.25L510.67,283.61L508.71,283.81L504.26,285.82L503.97,284.92L502.36,285.14L502.86,283.98L502.69,282.96L501.85,282.93L501.31,283.74L500.06,283.47L500.34,285.32L501.32,287.04L498.97,289.22L498.85,290.17L497.72,291.4L492.28,294.86L490.72,295.43L488.33,294.7L486.71,295.35L485.52,294.06L484.92,294.13L486,296.48L486.97,296.81L485.65,297.77L484.58,298.05L483.67,297.19L483.35,299.34L482.56,300L481.86,299.66L480.08,300.14L480.22,301.03L480.86,301.82L479.94,302.95L479.19,303.22L478.04,303.05L477.5,303.4L478.84,305.16L477.98,307.82L477.43,308.78L476.64,308.93L475.16,308.07L475.06,309.21L477,309.74L477.09,310.99L476.35,312.58L477.18,315.47L477.47,317.63L477.78,318.56L479.54,321.99L480.14,322.02L480.18,323.1L478.9,323.31L478.19,324.05L477.42,323.84L476.04,322.86L474.04,322.26L471.4,322.03L469.6,321.54L467.63,320.36L466.58,320.22L465.01,319.15L464,318.72L462.67,318.53L461.8,318.03L461.2,316.81L460.66,314.73L459.98,313.44L458.66,311.85L458.69,310.44L458.04,308.65L458.28,307.31L458.08,306.45L457.24,305.53L455.75,304.53L454.48,303.08L453.44,301.16L452.4,299.84L451.37,299.1L450.67,298.19L450.34,296.33L448.3,292.93L447.49,291.31L447.28,290.28L446.38,289.06L443.93,286.72L443.71,286.08L441.24,284.21L439.96,282.67L434.8,282.46L433.19,282.14L432.2,281.65L430.25,282.75L428.96,282.93L427.84,284.1L426.91,286.25L426.36,288.7L425.14,289.6L424.51,290.57L423.77,291.04L422.94,291L421.39,290.26L419.13,288.8L417.36,287.89L416.08,287.55L414.95,286.87L413.97,285.87L412.23,284.86L411.26,283.74L410.16,281.83L409.6,280.36L409.6,278.8L408.15,275.4L406.82,273.25L404.03,271.49L401.8,269.6L399.01,266.75L397.03,265.03L395.87,264.45L394.86,263.42L394,261.94L393.08,260.95L391.95,260.39L390.99,258.39L397.37,258.38L405.79,258.38L414.21,258.38L424.73,258.37L424.78,249.01L424.83,236.4L424.87,226.83L424.91,217.15L424.95,207.38L425.35,207.37L437.63,207.38L448.16,207.38L453.43,207.38L453.43,214.32L453.45,223.95L453.45,229.41L454.69,229.91L456.89,231.66L459.02,231.62L459.44,230.9L460.28,231.45L460.94,232.46L461.07,233.4L463.1,233.71L464.7,234.31L466.48,234.24L467.55,235.06L468.84,234.46L471.26,234.42L471.53,235.61L472.64,236.39L472.68,237.22L473.65,237.47L475.36,236.18L477.52,237.88L479.53,237.22L479.93,238.81L480.43,239.06L481.75,236.76L483.92,237.71L484.84,237.12L485.37,237.76L487.06,238.6L488.3,238.8L489.61,238.07L491.46,237.39L492.94,237.59L494.44,236.85L495.37,237.34L496.77,237.48L498.05,236.55L498.91,236.78L500.63,237.83L501.5,238.68L503,239.46Z" class="land" id="US-TX" title="Texas"/>
    <path d="M349.95,140.8L349.95,153.31L361.68,153.31L368.72,153.31L368.72,159.49L368.72,171.71L368.72,183.77L368.72,195.65L368.72,201.53L359.95,201.53L354.1,201.52L342.41,201.51L330.72,201.5L321.95,201.5L321.94,188.58L321.94,181.12L321.94,169.79L321.93,162.16L321.93,152.52L321.93,140.79L332.44,140.8L341.19,140.8Z" class="land" id="US-UT" title="Utah"/>
    <path d="M662.05,173.58L664.38,175.1L664.36,176.41L666.04,177.13L667.72,178.45L668.58,179.1L668.43,180.47L666.42,182.58L665.92,185.01L666.69,185.69L668.42,185.49L669.74,187.39L673.08,188.61L673.81,189.6L675.75,191L675.36,193.04L675,193.58L673.69,194.14L675.36,194.82L675.71,195.72L675.76,197.35L674.47,197L674.47,199.04L675.16,199.79L675.57,200.92L674.47,201.65L671.64,198.99L668.8,197.81L669.56,198.9L671.93,199.51L672.29,200.99L674.48,202.83L675.94,202.1L678.23,202.57L679.56,206.8L679.27,206.8L678.54,206.79L672.83,206.74L662.66,206.64L655.88,206.58L645.72,206.48L638.94,206.41L632.16,206.34L625.39,206.28L625.23,206.1L622.92,206L622.48,206.24L613.08,206.2L606.41,206.16L607.36,205.61L608.76,205.27L611.26,204.33L612.26,203.35L613.65,202.64L615.18,200.98L615.65,199.92L618.82,198.05L622.36,195.19L622.3,195.98L622.84,197.21L623.63,198.03L625.21,198.94L626.11,199.08L628.12,197.62L629.27,198.45L631.92,197.99L633.07,196.57L634.02,196.83L636.01,196.03L636.41,196.45L637.8,195.55L638.46,194.23L638.09,193.57L639,191.83L641.03,189.19L641.67,187.59L643.43,184.92L643.87,183.24L644.53,182.85L645.4,183.88L646.42,184.32L647.88,184.06L649.74,180.3L651.36,179.96L652.41,178.88L654.05,177.78L655.42,175.83L656.48,172.3L661.03,176.02ZM681.42,190.28L681.79,189.75L684.07,189.44L682.01,194.11L682.09,194.97L681.05,195.47L679.99,196.54L679.59,198.06L678.84,199.76L678.25,198.44L678.46,196.86L679.27,194.25L680.86,191.86Z" class="land" id="US-VA" title="Virginia"/>
    <path d="M711.32,131.55L703.95,131.27L703.83,129.83L704.01,120.99L703.46,120.17L702.45,120.02L702.8,118.28L702.34,114.69L702.49,113.48L703.32,111.68L703.42,109.18L702.84,107.37L703.06,105.03L703.03,101.99L712.41,101.97L720.21,101.96L720.28,103.27L719.24,105.08L719.73,107.24L718.66,109.31L716.93,110.56L715.4,111.27L715.11,113.68L714.61,115.64L713.61,117.91L712.91,118.89L712.08,121.3L711.88,123.84L711.25,127.61L710.54,129.56Z" class="land" id="US-VT" title="Vermont"/>
    <path d="M295.2,88.67L287.9,88.67L275.31,88.69L273.84,89.44L271.48,89.58L266.74,90.88L264.67,91.9L262.84,92.39L259.43,92.87L256.34,93.55L255.04,93.49L254.49,92.91L253,92.57L250.56,92.49L248.5,92.87L246.6,94.04L245.5,94.19L241.31,93.7L240.6,93.09L239.5,88.99L238.58,87.15L236.9,86.28L235.97,86.63L234.24,85.71L233.68,85.03L231.94,85.08L231.59,84.64L229.64,85.08L227.99,84.92L228.2,82.05L229.17,82.84L229.71,79.75L228,78.59L227.61,76.97L230.14,75.59L228.27,74.68L227.13,74.88L226.8,72.22L225.77,69.51L225.15,65.99L224.36,64.24L222.85,62.57L222.1,59.1L222.74,55.96L224.65,57L227.02,57.83L228.89,58.87L235.27,59.55L236.87,59.11L237.81,60.09L239.34,59.97L240.47,61.04L241.25,62.89L239.71,64.12L238.2,67.37L240.31,65.41L241.89,63.24L242.49,64.45L241.61,65.24L242.21,69.51L241.99,71.05L239.79,70.56L238.79,71.1L238.15,72.72L240.82,73.57L241.74,72.79L242.32,71.3L244.09,69.97L243.95,66.75L243.55,66.07L243.72,63.74L245.13,61.08L244.09,59.63L242.77,59.4L242.53,58.01L243.57,57.1L242.82,55.97L241.13,54.69L242.75,54.12L242.6,51.79L242.14,50.25L241.28,50.45L240.01,47.19L248.96,47.19L256.94,47.19L268.92,47.19L276.91,47.19L284.9,47.19L293.86,47.19L293.92,60.78L293.95,69.7L293.99,82.89L294.13,84.24L294.76,85.56L294.72,87.02ZM240.07,51.75L239.04,52.86L238.17,52.4L238.99,51.21ZM242.04,59.03L243.96,61.43L243.54,62.38L242.18,61.33L241.72,59.43L240.39,57.88L241.13,56.3L242.32,57.1L240.92,57.85Z" class="land" id="US-WA" title="Washington"/>
    <path d="M575.28,98.86L574.7,99.17L574.65,100.7L573.53,102.28L572.58,104.25L571.63,103.86L571.49,102.67L572.78,100.23L574.06,99.08ZM543.29,80.66L543.43,81.26L544.95,81.79L546,84.08L555.35,86.68L557.99,88.2L561.22,88.51L564.42,89.43L564.75,91.18L566.56,91.93L567.62,92.92L567.57,95.33L567.1,97.17L568.68,96.97L568.45,98.84L569.53,100.62L569.33,101.63L567.43,102.82L565.57,107.1L566.5,107.88L568.26,106.13L569.54,104.09L571.27,103.84L571.97,104.7L571.87,105.76L571.07,107.33L570.26,110.16L570.19,112.92L569.04,114.42L568.42,116.4L568.65,118.78L567.7,121.18L566.76,124.96L566.83,127.58L567.89,131.25L567.6,134.52L562.18,134.48L553.75,134.41L541.01,134.32L540.66,133.08L539.72,132.23L538.11,131.68L537.09,130.81L536.64,129.62L536.23,126.79L536.64,123.85L535.69,123.03L535.44,121.65L535.13,117.82L534.74,116.02L532.92,114.49L531.03,113.54L529.86,112.66L529.2,111.42L527.86,109.97L526.12,109.15L524.94,107.97L522.35,106.74L521.16,105.68L520.89,104.84L521.22,102.93L520.94,101.12L521.2,98.92L521.95,97.01L521.75,95.49L520.02,94.14L520.18,92.65L521.87,89.92L525.63,87.56L525.64,79.73L527.37,78.35L528.49,79.21L529.91,79.17L533.07,78.3L535.7,76.66L536.55,76.91L538.24,75.73L539.24,75.61L539.91,76.35L539,78.37L538.46,80.52L540.2,79.35L542.09,80.57Z" class="land" id="US-WI" title="Wisconsin"/>
    <path d="M645.66,169.01L645.56,175.22L647.38,174.01L649.42,172.01L650.4,172.28L651.86,170.87L654.85,171.32L655.69,170.17L657.8,169.46L659.24,170.13L660.59,170.38L661.39,171.51L662.05,173.58L661.03,176.02L656.48,172.3L655.42,175.83L654.05,177.78L652.41,178.88L651.36,179.96L649.74,180.3L647.88,184.06L646.42,184.32L645.4,183.88L644.53,182.85L643.87,183.24L643.43,184.92L641.67,187.59L641.03,189.19L639,191.83L638.09,193.57L638.46,194.23L637.8,195.55L636.41,196.45L636.01,196.03L634.02,196.83L633.07,196.57L631.92,197.99L629.27,198.45L628.12,197.62L626.11,199.08L625.21,198.94L623.63,198.03L622.84,197.21L622.3,195.98L622.36,195.19L621.06,194.83L619.41,193.45L616.52,188.55L616.23,187.57L616.61,186.5L616.29,184.39L617.37,184.79L618.41,184.57L619.31,183.15L620.35,182.13L620.13,180.56L621.36,178.22L622.02,177.63L622.79,178.34L624.11,178.1L623.88,176.73L625.24,174.48L626.23,174.05L627.28,173.02L628.28,173.39L630.09,172.25L631.74,170.86L632.57,169.73L632.6,168.86L633.24,166.74L634.5,163.36L635.13,161.17L634.79,158.22L635.9,157.68L635.9,169.02Z" class="land" id="US-WV" title="West Virginia"/>
    <path d="M415.71,128.09L415.73,134.47L415.75,143.94L415.78,153.31L406.96,153.31L395.19,153.31L389.31,153.31L380.49,153.31L368.72,153.31L361.68,153.31L349.95,153.31L349.95,140.8L349.95,126.9L349.94,116.83L349.94,108.67L349.95,102.05L360.21,102.05L372.53,102.05L384.84,102.05L393.05,102.05L403.32,102.05L415.63,102.05L415.67,115.18Z" class="land" id="US-WY" title="Wyoming"/>
    <path d="M323.22,409.08L322.9,408.32L324.34,406.63L325.77,404.31L326.32,405.26L324.95,406.82L324.2,408.42ZM328.77,403.55L329.87,404.05L327.84,405.09L327.49,403.91L328.08,403.27ZM201.69,470.62L199.91,470.77L201.43,469.77ZM247.19,404.13L247.57,404.56L248.87,404.73L248.94,406.87L249.44,408.22L247.97,408.42L246.98,409.42L246.33,408.9L245.16,408.64L243.68,407.61L243.05,407.39L241.82,405.67L242.58,405.44L244.3,405.58L244.51,404.89L245.79,404.13ZM239.63,459.35L238.37,460.11L237.64,461.19L236.6,462.03L236.2,461.46L236.35,460.55L236.85,459.98L237.68,459.97L238.01,458.55L238.69,458.02L239.55,457.84L240.29,458.36ZM268.75,419.49L268.12,419.55L267.87,418.74L268.47,418.17L269.59,417.68ZM384.68,448.17L385.7,448.19L385.57,449.19L384.91,449.53L383.61,447.61L383.08,446.09L382.39,445.83L382.89,444.97L383.71,445.81ZM378.69,422.34L377.53,422.23L377.83,421.5ZM351.05,304.58L351.05,312.29L351.05,319.74L351.05,326.97L351.05,333.97L351.05,340.76L351.05,347.37L351.05,353.79L351.05,360.03L351.05,366.12L351.05,372.05L351.05,383.49L351.05,394.41L351.05,404.86L353.02,405.57L353.32,404.86L355.3,405.88L356.53,404.61L358.99,404.48L358.56,406.75L359.14,407.53L360.54,408.32L360.84,409.38L365.13,414.08L365.77,416.79L366.44,416.08L368.36,414.72L369.33,414.7L369.79,413.62L369.79,412.11L370.7,411.48L370.39,410.87L371.99,410.37L373.88,409.25L375.64,411.09L375.56,412.26L376.08,413.55L378.16,415.26L379.08,417.23L380.72,418.43L382.46,420.86L382.37,421.46L382.98,422.39L385.97,428.22L387.29,430.61L386.85,431.54L388.12,431.96L387.82,433.29L388.8,433.79L388.97,435.36L390,435.29L392.04,436.79L393.45,437.29L394.54,438.13L394.8,438.96L396.42,439.78L396.41,440.74L395.91,442.51L396.36,445.18L395.63,447.2L394.47,448.61L393.97,448.93L393,448.81L392.18,446.22L392.97,444.75L392.72,441.89L391.85,440.2L391.19,439.8L389.14,440.83L388.79,442.56L388.32,443.41L387.76,443.15L387.32,442.01L388.22,440.42L388.89,438.67L388.16,436.98L387.49,436.67L386.77,435.09L386.28,434.9L386.23,433.99L384.93,432.99L384.88,431.85L382.19,430.81L382.31,429.51L381.89,427.78L381.43,427.08L381.82,426.66L383.63,427.69L381.4,425.49L381.04,425.38L379.85,423.62L379.72,422.49L379.12,422.31L377.98,421.21L377.24,421.07L376.78,420.5L376.09,418.92L376,418.12L375.31,417.29L374.95,415.33L374.49,413.97L373.77,414.28L374.25,415.24L374.47,416.73L375.65,421.71L375.26,422.31L374.6,422.12L373.49,420.85L372.24,420.99L372.29,419.49L371.53,417.73L370.78,417.93L369.74,417.12L369.38,416.47L368.28,416.11L368.08,416.97L369.37,417.76L370.02,418.47L369.72,419.15L370.79,419.28L371.29,420.07L371.18,421.35L369.81,421.53L369.31,422.21L367.29,420.98L365.34,419.45L364.49,418.41L363.34,416.47L362,415.24L357.91,412.81L356.02,411.37L356.79,410.82L357.23,409.83L356.92,408.78L357.18,407.32L355.81,408.93L354.29,409.82L353.45,409.96L351.71,409.63L349.37,408.31L349.84,407.64L349.7,406.75L348.29,407.73L344.66,406.72L343.02,406.63L340.7,406.99L339.47,407.36L338.05,407.33L338.29,406.74L337.29,405.81L336,405.52L334.94,404.55L335.25,402.81L334.59,402.78L333.5,404.16L330.81,403.29L331.74,401.77L329.78,401.68L329.36,400.9L327.76,399.58L327.99,397.51L326.78,398.61L325.21,398.85L324.94,399.32L323.81,398.84L323.55,399.47L322.58,399.64L322.11,398.94L322.77,396.98L321.27,398.39L320.71,399.97L319.83,400.42L321.02,401.34L320.91,402.82L321.92,402.51L322.28,403.24L321.38,404.04L321.31,406.01L320.75,406.41L320.35,407.56L318.65,407.89L317.5,407.18L316.21,407.46L315.73,408.38L314.71,408.71L314.77,409.62L313.05,411.19L311.46,411.21L311.07,412.38L309.9,413.93L308.22,413.91L306.68,414.39L305.75,413.58L306.22,412.55L308.08,411.62L308.95,410.58L306.58,410.05L306.21,409.35L306.7,407.57L307.87,405.71L308.44,403.4L308.27,401.69L308.4,400.95L309.93,400.08L312.04,398.44L313.03,399.06L313.88,399.24L315.39,399.09L317.28,399.73L317.41,399.23L315.55,398.71L314,397.56L314.57,395.88L316.21,394.12L315.13,394.4L314.09,396L311.92,396.31L311.34,395.94L309.96,396.87L309.11,397.88L307.28,398.84L306.7,399.46L306.63,400.85L305.62,401.49L304.48,402.86L304.53,403.9L304.08,404.54L302.9,405.4L303,407.11L302.46,408.15L301.03,408.55L301.27,409.79L299.97,410.4L299.76,409.71L298.11,411.98L296.97,412.92L296.6,414.67L296.8,414.97L298.76,415.65L299.74,416.31L300.09,417.16L298.92,418.85L297.91,419.4L297.26,420.18L296.98,421.23L296.48,421.86L296.32,422.91L294.98,423.25L294.92,423.75L293.18,424.07L292.8,424.9L291.91,425.76L290.77,426.35L289.99,427.67L289.07,427.86L288.84,428.63L288.07,428.62L287.1,429.58L287.43,430.27L287.11,431.34L286.47,432.09L285.85,432.12L284.09,433.64L283.33,433.65L282.55,435.02L281.35,434.94L280.9,435.73L279.1,436.55L278.59,437.33L279.21,437.59L279.67,438.39L278.65,439.34L278.22,438.71L277.55,439.99L274.51,441.33L273.61,441.08L272.7,441.45L270.63,443.24L268.84,443.57L268,444.37L266.83,444.63L266.44,443.93L266.87,443.25L266.52,442.7L265.59,443.44L265.35,444.48L263.97,446.36L262.9,447.02L262.04,445.59L261.62,445.77L261.74,446.86L261.49,447.42L260.71,447.73L259.65,446.91L259.61,448.01L258.96,448.59L259,446.49L259.68,445.95L260.3,446.03L262.16,444.04L263.63,442.02L265.53,440.6L267.52,439.73L269.03,441.62L269.41,441L271.27,440.92L270.32,439.84L271.3,437.49L273.43,435.58L275.51,434.6L276.72,433.26L278.02,433.77L278.08,431.86L279.48,429.82L280.62,428.94L281.25,428.13L282.43,427.41L282.12,426.27L282.42,423.79L283.11,422.81L282.78,420.77L283.04,420.1L284,418.96L285.05,418.17L284.35,417L282.19,418.07L280.72,418.97L279.56,418.95L278.73,417.22L279.05,415.98L278.68,415.37L278.01,416.57L277.67,416.39L277.25,418.32L277.62,419.96L277.55,420.61L276.88,420.91L276.34,420.37L275.2,418.3L273.91,416.72L272.87,417.48L271.91,416.76L271.04,415.55L269.17,417.05L267.52,417.63L266.92,418.72L265.29,419.2L263.68,418.93L264.87,418.33L265.42,417.69L265.15,415.84L264.36,414.75L264.18,413.59L264.61,412.9L264.99,411L263.71,407.64L263.28,405.92L262.54,405L263.71,402.09L263.18,402.26L261.8,404.88L262.21,406.37L261.92,407.56L261.25,407.52L260.65,408.14L259.24,408.8L257.34,409.18L256.4,409.14L255.43,408.36L255.47,407.52L254.07,406.17L253.28,404.82L252.71,404.79L251.63,403.87L251.77,403.1L250.42,402.74L251.82,400.98L252.3,399.79L252.69,399.62L254.49,400.48L254.92,401.11L256.02,400.75L256.45,400.93L257.13,402.31L257.96,401.65L258.41,400.82L256.69,399.73L254.19,399.82L252.9,399.27L251.61,399.37L251.16,398.96L251.57,397.81L250.26,396.74L250.31,397.7L249.55,397.74L249.03,395.95L248.31,395.62L248.14,395.01L248.59,394.21L247.91,393.66L247.12,393.71L247.34,392.8L248.44,392.48L247.43,391.34L249.35,390.73L248.81,389.4L248.96,388.57L251.08,385.06L252.53,384.03L252.74,383.63L252.52,381.93L252.86,380.29L253.22,379.81L254.47,379.48L253.85,378.77L254.33,377.91L255.57,377.46L257.11,378.13L258.67,379.56L259.89,379.23L260.94,378L261.71,377.42L263.11,374.82L263.82,374.77L264.39,375.57L266.32,375.42L267.31,375.14L268,374.54L269.13,372.83L269.33,371.93L268.81,369.79L268.46,367.55L267.5,366.06L266.82,365.62L266.7,364.73L267.61,364.83L268.69,364.18L269.09,363.11L268.88,361.93L268.15,360.79L267.64,360.58L266.49,361.93L265.27,361.71L264.82,362.48L263.57,363.15L260.95,366.29L260.66,364.83L259.31,363.42L258.9,363.9L259.93,364.8L259.55,365.78L258.14,364.48L257.2,364.09L254.76,364.13L252.3,365.4L251.31,365.36L250.04,364.87L247.16,364.14L246.41,363.7L245.76,362.63L246.04,360.55L245.48,360.27L244.33,358.76L245.56,358.14L245.89,357.15L246.94,356.53L245,356.18L241.95,355.27L239.54,353.7L239.12,352.72L241.22,351.63L241.94,350.52L243.31,350.32L244.66,348.39L246.1,347.36L246.86,347.08L247.71,347.62L248.89,347.72L249.57,347.11L248.41,346.24L248.68,345.41L250.03,344.39L251.62,344.07L253.23,342.75L254.11,342.37L255.78,342.11L256.78,342.42L256.94,343.02L256.42,344.74L256.45,345.77L255.88,346.57L257.28,348.04L259.44,348.13L260.62,347.87L261.86,348.4L263.39,348.18L265.04,348.37L266.11,346.18L266.53,345.83L267.58,346.53L267.92,345.24L266.16,344.42L264.99,344.83L264.75,343.45L263.49,341.17L262.35,340.68L261.77,338.86L262.79,338.25L263.23,338.58L263.74,339.93L264.21,340.13L264.07,341.47L264.65,342.69L265.97,343.83L267.02,343.41L268.21,343.66L269.3,344.68L269.86,344.8L271.59,344.27L271.46,342.55L271.05,342.09L269.88,342.18L268.97,341.43L268.2,341.63L266.77,342.78L266.05,342.33L264.87,341.09L264.78,339.9L265.84,337.87L264.42,337.06L262.66,337.4L260.14,337.32L257.95,336.44L257.17,335.35L256.25,332.02L255.5,330.48L250.29,325.16L247.92,323.8L246.78,322.29L245.38,321.77L246.18,320.46L246.58,318.6L247,315.75L246.89,314.62L249.78,314.85L251.7,314.66L254.77,313.97L256.56,312.67L257.93,310.94L259.48,308.08L259.76,305.12L260.35,303.14L262.83,298.56L264.77,295.26L265.77,296.61L268.43,295.64L269.87,294.01L269.92,293.65L272.06,291.6L272.7,291.93L272.11,293.28L272.52,293.64L272.15,295.24L273.14,295.37L273.31,292.94L273.59,292.47L272.7,291L273.86,288.81L275.38,287.49L276.69,288.6L278.24,288.63L278.81,288.03L280.82,287.97L282.44,286.58L284.13,284.36L285.84,281.03L286.73,280.69L287.13,281.44L289.85,282.96L290.54,283.05L290.81,283.95L289.88,285.79L288.47,286.77L289.18,288.02L289.6,288.12L290.81,287.26L292.52,284.27L293.44,284.51L294.55,285.91L294.09,287.26L294.86,287.93L296.53,288.6L297.68,287.5L299.41,287.31L300.51,286.7L302.36,287.52L303.57,287.45L304.64,288.47L303.8,289.58L303.66,290.72L304.49,291.27L304.89,292.09L306.56,292.05L305.83,293.57L308.81,294.04L309.21,293.58L311.13,292.76L312.2,293.69L313.24,293.69L314.4,292.76L316.89,292.88L318.64,293.95L319.29,294.07L320.15,295.45L321.1,294.91L322.67,295.66L323.35,296.85L326,297.5L327.32,297.21L329.23,297.28L330.16,297.7L331.13,297.65L332.71,299.15L333.71,299.73L336.1,300.09L336.94,299.31L338.4,299.11L339.71,298.45L341.32,298.62L341.89,298.25L344,299.38L345.18,300.68L345.7,301.62L348.17,302.97L349.37,304.55ZM273.07,446.44L272.39,447.06L271.83,446.48L272.97,445.75ZM375.97,429.4L376.58,430.94L377.42,434.37L377.27,435.88L377.38,437.58L376.48,437.42L375.93,435.91L375.78,434.82L374.48,433.56L374.55,432.7L375.03,431.95L374.44,431.53L374.3,430.69L373.78,430.25L373.33,431.61L372.68,431.38L372.6,429.67L373.45,429.09L373.84,428.09L374.42,427.95ZM303.88,421.27L304.3,420.83L305.67,422.22L305.15,422.89L303.38,423.38L302.37,424.07L301.54,424.23L299.89,423.5L301.57,421.79L302.41,421.94L302.13,420.81L302.81,420.53ZM323.54,403.54L323.24,405.54L322.66,405.47L322.98,403.46ZM225.18,373.72L226.95,374.26L227.61,374.18L228.44,373.43L229.44,373.13L230.72,373.94L231.15,375.19L232.78,375.8L233.59,376.61L235.37,376.62L236.53,376.98L235.97,378.34L233.85,378.34L232.56,380.43L232.14,379.1L231.27,378.32L230.44,378.1L230.1,377.23L229.04,376.3L227.72,375.66L226.84,375.64L225.43,376.69L224.48,376.58L223.82,375.85L223.77,374.31L224.01,373.09L224.42,372.85ZM248.41,454.17L247.6,454.34L247.39,453.46L248.19,453.19ZM203.98,469.6L204.62,470.36L203.24,471.21L202.82,470.12ZM219.89,403.48L220.78,404.05L220.33,404.61L218.52,403.16L218.63,402.5ZM211.89,468.45L210.08,468.37L213.43,467.21L212.89,466.52L214,465.81L214.62,466.42L214.2,467.77ZM377.17,422.89L378.99,423.03L378.71,423.92L378.88,425.14L380.14,427.31L380.29,429.51L379.57,429.8L378.91,431.01L378.18,431.72L377.54,431.45L377.97,428.36L377.26,427.11L376.52,421.6ZM385.16,435.86L384.4,435.87L384.77,433.77L385.54,434.63L385.9,435.47ZM387.78,439.06L387.7,440.32L387.06,440.43L386.38,439.46L385.52,439.3L385.36,438.38L385.77,438.05L386.68,436.07L386.94,436.16L387.97,438.03ZM392.47,443.75L392.04,445.41L391.6,445.86L390.64,445.34L390.63,444.65L389.03,445.74L388.88,444.3L389.7,443.03L389.8,441.17L391.27,440.23L391.88,440.98L392.52,442.39ZM382.6,432.14L383.82,432.37L384.3,433.1L384.3,434.41L383.24,436.33L381.62,436.34L381.43,435.93L381.3,433.75L380.07,432.09L380.54,431.63ZM269.71,445.05L270.53,446.02L269.13,446.1L269.05,445.08ZM381.77,437.3L383.28,437.45L383.68,438.1L383.72,439.21L385.12,439.93L385.78,440.69L386.47,442.26L385.8,443.94L386.52,443.8L387.36,444.54L387.39,445.73L388.34,445.85L388.33,448.83L387.69,449.51L386.84,448.08L385.98,447.74L385.81,447L385.01,447.03L383.69,444.72L384.28,444.45L383.77,443.64L383.74,442.82L382.88,442.87L382.27,441.43L383.12,440.49L382.58,439.62L381.29,440.33L380.99,439.9L381.92,438.78ZM301.44,431.19L299.92,431.76L300.29,430.71ZM385.02,438L383.97,437.29L384.52,436.42L385.63,436.92ZM382.85,443.34L382.95,443.69L381.43,445.39L381.49,443.37ZM380.03,433.38L380.68,433.88L381.06,434.89L380.58,435.42L380.46,437.66L380.19,438.92L379.2,439.31L378.97,438.34L379.17,436.73L379.63,436.4L378.78,435.44L378.39,434.32L378.44,433.43L379.39,432.7ZM198.66,471.07L198.22,470.3L197.36,469.49L198.36,469.25L199.11,470.2ZM372.83,422.22L373.42,423.01L373.32,424.27L374.42,423.2L375.84,423.79L376.15,424.58L375.97,425.68L374.89,425.69L374.82,426.36L375.94,426.42L376.37,427.5L376.13,428.37L375.5,428.13L373.79,426.92L373.34,427.01L373.3,428.37L372.99,428.85L372.09,428.64L371.4,426.82L369.82,425.23L369.37,424.43L369.6,423.43L371.33,422.59ZM245.21,455.39L245.7,455.52L246.21,454.69L246.8,455.17L245.73,456.22L245.92,457.17L244.57,458.42L242.98,458.91L241.46,459.84L240.28,459.5L243.06,458.07L243.55,456.84L243.13,455.6L243.71,454.95L245.16,454.71ZM390.98,446.8L391.42,448.1L390.7,448.17L390.6,447.42L389.92,446.72L389.99,445.9L390.71,445.81ZM301.89,425.62L303.49,425.4L303.9,427.05L304.71,427.6L303.9,428.58L302.37,428.59L302.8,429.45L301.97,429.64L301.26,430.3L300.34,430.39L299.39,431.08L298.8,431.94L298.34,433.28L297.45,433.93L297.05,433.57L298.19,432.25L297.34,431.78L297.07,431.12L296,431.13L296.58,432.13L295.94,432.79L295.28,431.88L294.99,430.55L294.42,429.53L294.56,428.65L295.13,427.74L296.18,427.11L297.21,427.17L298.14,429.34L298.09,427.45L298.61,426.91L297.73,425.66L298.73,425.35L299.3,426.37L300.64,425.65L300.81,424.43L302.09,425.04ZM258.18,447.53L258.67,449.34L257.74,450.14L255.71,450.18L255.05,450.54L254.1,451.59L252.61,451.65L252.35,450.28L253.1,449.66L253.83,448.27L254.88,448.13L256.56,447.1L257.64,447.02Z" class="land" id="US-AK" title="Alaska"/>
  </g>
</svg>